<?xml version="1.0" encoding="utf-8"?>
<!-- Generator: Adobe Illustrator 16.0.0, SVG Export Plug-In . SVG Version: 6.00 Build 0)  -->
<!DOCTYPE svg PUBLIC "-//W3C//DTD SVG 1.1//EN" "http://www.w3.org/Graphics/SVG/1.1/DTD/svg11.dtd">
<svg version="1.1" id="Layer_1" xmlns="http://www.w3.org/2000/svg" xmlns:xlink="http://www.w3.org/1999/xlink" x="0px" y="0px"
	 width="800px" height="800px" viewBox="0 0 800 800" enable-background="new 0 0 800 800" xml:space="preserve">
<path fill="#9277B4" d="M399.192,780c-51.344,0-101.142-10.045-148.011-29.855c-45.276-19.14-85.944-46.542-120.872-81.448
	c-34.929-34.905-62.347-75.546-81.496-120.793C28.991,501.068,18.94,451.307,18.94,400s10.051-101.068,29.873-147.903
	c19.149-45.247,46.567-85.888,81.496-120.793c34.928-34.906,75.596-62.309,120.872-81.448C298.051,30.045,347.849,20,399.192,20
	c51.343,0,101.142,10.045,148.009,29.855c45.278,19.14,85.946,46.542,120.874,81.448c34.927,34.905,62.346,75.546,81.496,120.793
	c19.822,46.835,29.873,96.597,29.873,147.903s-10.051,101.068-29.873,147.903c-19.15,45.247-46.569,85.888-81.496,120.793
	c-34.928,34.906-75.596,62.309-120.874,81.448C500.334,769.955,450.535,780,399.192,780z"/>
<g>
	<path opacity="0.5" fill="#FFFCEB" d="M306.611,94c0,0-11.234,119.086-125.266,37.074c0,0,47.186,103.357-74.148,93.247
		c0,0,106.167,64.599,14.605,130.32c0,0,108.413-11.796,94.37,97.741c0,0,59.543-98.864,111.222,5.617
		c0,0,27.592-105.734,121.962-39.45c0,0-80.955-100.42,24.088-90.31c0,0-98.864-49.993,5.056-102.234
		c0,0-116.277,11.234-60.105-88.191C418.395,137.814,295.938,231.062,306.611,94z"/>
	<g opacity="0.2">
		<path fill="#5A3E81" d="M384.66,281.586c0,52.406-42.484,94.891-94.893,94.891c-52.404,0-94.891-42.484-94.891-94.891
			s42.486-94.891,94.891-94.891C342.176,186.695,384.66,229.18,384.66,281.586z"/>
	</g>
</g>
<path fill="#7B659A" d="M23,391c0,0,336-224,750-38l16,88L687,673L435,791l-252-66L48.813,547.903L23,391z"/>
<g>
	
		<path fill="#FFFCEB" stroke="#FFFCEB" stroke-width="40" stroke-linecap="round" stroke-linejoin="round" stroke-miterlimit="10" d="
		M297.748,332.368l9.614,109.662l105.463-9.246l2.455,28l-105.463,9.246l9.696,110.596l-29.866,2.619l-9.696-110.596l-105.462,9.246
		l-2.455-28l105.462-9.246l-9.615-109.663L297.748,332.368z"/>
	
		<path fill="#FFFCEB" stroke="#FFFCEB" stroke-width="40" stroke-linecap="round" stroke-linejoin="round" stroke-miterlimit="10" d="
		M544.679,318.828l-1.051-0.268l-67.729,16.896l0.079-37.581L561,277l39.496,10.104l-87.598,342.295l-44.767-11.456L544.679,318.828
		z"/>
</g>
<path fill="#5A3E81" d="M400,40c48.654,0,95.832,9.514,140.223,28.277c42.893,18.132,81.425,44.097,114.522,77.173
	c33.096,33.075,59.075,71.579,77.217,114.442c18.771,44.354,28.29,91.493,28.29,140.107s-9.52,95.753-28.29,140.107
	c-18.142,42.863-44.121,81.367-77.217,114.442c-33.098,33.077-71.63,59.041-114.522,77.173C495.832,750.486,448.654,760,400,760
	s-95.832-9.514-140.223-28.277c-42.895-18.132-81.426-44.096-114.522-77.173c-33.096-33.075-59.075-71.579-77.216-114.442
	C49.266,495.753,39.748,448.614,39.748,400s9.518-95.753,28.291-140.107c18.141-42.863,44.12-81.367,77.216-114.442
	c33.097-33.076,71.628-59.041,114.522-77.173C304.168,49.514,351.346,40,400,40 M400,0C178.947,0-0.252,179.086-0.252,400
	S178.947,800,400,800s400.252-179.086,400.252-400S621.053,0,400,0L400,0z"/>
</svg>
