<?xml version="1.0" encoding="utf-8"?>
<!-- Generator: Adobe Illustrator 16.0.0, SVG Export Plug-In . SVG Version: 6.00 Build 0)  -->
<!DOCTYPE svg PUBLIC "-//W3C//DTD SVG 1.1//EN" "http://www.w3.org/Graphics/SVG/1.1/DTD/svg11.dtd">
<svg version="1.1" id="Layer_1" xmlns="http://www.w3.org/2000/svg" xmlns:xlink="http://www.w3.org/1999/xlink" x="0px" y="0px"
	 width="800px" height="800px" viewBox="0 0 800 800" enable-background="new 0 0 800 800" xml:space="preserve">
<path fill="#04BAEE" d="M399.465,780c-51.344,0-101.142-10.045-148.01-29.855c-45.277-19.14-85.945-46.542-120.873-81.448
	c-34.928-34.905-62.347-75.546-81.496-120.793C29.264,501.068,19.213,451.307,19.213,400s10.051-101.068,29.873-147.903
	c19.149-45.247,46.568-85.888,81.496-120.793c34.928-34.906,75.596-62.309,120.873-81.448C298.323,30.045,348.121,20,399.465,20
	s101.142,10.045,148.009,29.855c45.278,19.14,85.946,46.542,120.874,81.448c34.928,34.905,62.347,75.546,81.497,120.793
	c19.821,46.835,29.872,96.597,29.872,147.903s-10.051,101.068-29.872,147.903c-19.15,45.247-46.569,85.888-81.497,120.793
	c-34.928,34.906-75.596,62.309-120.874,81.448C500.606,769.955,450.809,780,399.465,780z"/>
<path fill="#146179" d="M399.465,40c48.654,0,95.832,9.514,140.223,28.277c42.894,18.132,81.425,44.097,114.522,77.173
	c33.096,33.075,59.075,71.579,77.217,114.442c18.771,44.354,28.29,91.493,28.29,140.107s-9.519,95.753-28.29,140.107
	c-18.142,42.863-44.121,81.367-77.217,114.442c-33.098,33.077-71.629,59.041-114.522,77.173
	C495.297,750.486,448.119,760,399.465,760s-95.832-9.514-140.223-28.277c-42.895-18.132-81.426-44.096-114.522-77.173
	c-33.096-33.075-59.075-71.579-77.216-114.442C48.731,495.753,39.213,448.614,39.213,400s9.519-95.753,28.291-140.107
	c18.141-42.863,44.12-81.367,77.216-114.442c33.097-33.076,71.628-59.041,114.522-77.173C303.633,49.514,350.811,40,399.465,40
	 M399.465,0C178.412,0-0.787,179.086-0.787,400s179.199,400,400.252,400s400.252-179.086,400.252-400S620.518,0,399.465,0L399.465,0
	z"/>
<g>
	<g>
		<path fill="#FFFCEB" d="M183.308,321.318c-10.675,0-17.384,5.793-17.384,21.042v22.874h-31.718v-20.739
			c0-34.157,17.079-53.676,50.018-53.676c32.937,0,50.015,19.519,50.015,53.676c0,67.093-66.791,92.103-66.791,127.178
			c0,1.524,0,3.048,0.306,4.571h63.435v30.5h-96.981v-26.23c0-62.824,66.485-73.194,66.485-134.798
			C200.691,326.5,193.982,321.318,183.308,321.318z"/>
	</g>
	<g>
		<path fill="#FFFCEB" d="M275.109,344.495c0-34.157,17.994-53.676,50.931-53.676c32.938,0,50.931,19.519,50.931,53.676V455.51
			c0,34.152-17.992,53.671-50.931,53.671c-32.937,0-50.931-19.519-50.931-53.671V344.495z M308.656,457.645
			c0,15.244,6.711,21.043,17.384,21.043c10.675,0,17.384-5.799,17.384-21.043V342.36c0-15.249-6.709-21.042-17.384-21.042
			c-10.673,0-17.384,5.793-17.384,21.042V457.645z"/>
	</g>
	<g>
		<path fill="#FFFCEB" d="M413.572,437.516l60.996-144.254h36.597v144.254h15.86v30.494h-15.86v38.734h-33.547V468.01h-64.046
			V437.516z M477.618,437.516v-78.992l-33.241,78.992H477.618z"/>
	</g>
	<g>
		<path fill="#FFFCEB" d="M613.337,509.181c-33.853,0-52.455-19.519-52.455-53.671v-16.778c0-20.432,6.099-36.292,20.737-44.522
			c-14.028-7.625-20.737-21.961-20.737-43.003v-6.711c0-34.157,18.603-53.676,52.455-53.676s52.457,19.519,52.457,53.676v6.711
			c0,21.042-7.015,35.378-20.739,43.003c14.639,8.23,20.739,24.091,20.739,44.522v16.778
			C665.794,489.662,647.189,509.181,613.337,509.181z M594.429,357.609c0,17.082,7.931,22.566,18.908,22.566
			c10.675,0,18.907-5.484,18.907-22.566v-11.894c0-19.216-8.232-24.397-18.907-24.397c-10.673,0-18.908,5.182-18.908,24.397V357.609
			z M613.337,478.688c10.675,0,18.604-5.188,18.907-24.096v-19.821c0-16.773-7.014-24.096-18.907-24.096
			s-18.908,7.322-18.908,24.096v19.821C594.429,473.5,602.664,478.688,613.337,478.688z"/>
	</g>
</g>
<g>
	<polygon fill="#FFCB00" points="400,101.016 418.516,138.531 459.917,144.548 429.958,173.75 437.03,214.984 400,195.516 
		362.97,214.984 370.041,173.75 340.083,144.548 381.484,138.531 	"/>
</g>
</svg>
