<?xml version="1.0" encoding="utf-8"?>
<!-- Generator: Adobe Illustrator 16.0.0, SVG Export Plug-In . SVG Version: 6.00 Build 0)  -->
<!DOCTYPE svg PUBLIC "-//W3C//DTD SVG 1.1//EN" "http://www.w3.org/Graphics/SVG/1.1/DTD/svg11.dtd">
<svg version="1.1" id="Layer_1" xmlns="http://www.w3.org/2000/svg" xmlns:xlink="http://www.w3.org/1999/xlink" x="0px" y="0px"
	 width="800px" height="800px" viewBox="0 0 800 800" enable-background="new 0 0 800 800" xml:space="preserve">
<path fill="#5AB56A" d="M399.192,780c-51.344,0-101.142-10.045-148.01-29.855c-45.277-19.14-85.945-46.542-120.873-81.448
	c-34.928-34.905-62.347-75.546-81.496-120.793C28.991,501.068,18.94,451.307,18.94,400s10.051-101.068,29.873-147.903
	c19.149-45.247,46.568-85.888,81.496-120.793c34.928-34.906,75.596-62.309,120.873-81.448C298.051,30.045,347.849,20,399.192,20
	s101.142,10.045,148.009,29.855c45.278,19.14,85.946,46.542,120.874,81.448c34.928,34.905,62.346,75.546,81.496,120.793
	c19.822,46.835,29.873,96.597,29.873,147.903s-10.051,101.068-29.873,147.903c-19.15,45.247-46.568,85.888-81.496,120.793
	c-34.928,34.906-75.596,62.309-120.874,81.448C500.334,769.955,450.536,780,399.192,780z"/>
<path fill="#FFFCEB" d="M408.864,151.679c60.626,0.813,130.304,11.304,178.735,45.076c63.312,44.126,48.116,142.069,59.646,205.069
	c10.297,56.255,29.988,103.296-9.541,172.236c-21.666,37.792-59.125,59.333-98.873,82.631
	c-44.614,26.157-108.086,23.671-159.617,22.754c-67.942,1.774-115.641-13.646-168.808-47.458
	c-41.998-26.71-61.113-60.346-70.74-111.406c-5.456-28.926,11.633-112.846,15.812-143.575c9.739-71.697-9.551-160.51,76.991-197.725
	C287.093,155.791,348.901,151.166,408.864,151.679z"/>
<path fill="#358C36" d="M399.192,40c48.654,0,95.832,9.514,140.223,28.277c42.894,18.132,81.425,44.097,114.522,77.173
	c33.096,33.075,59.075,71.579,77.217,114.442c18.771,44.354,28.29,91.493,28.29,140.107s-9.52,95.753-28.29,140.107
	c-18.142,42.863-44.121,81.367-77.217,114.442c-33.098,33.077-71.629,59.041-114.522,77.173
	C495.024,750.486,447.847,760,399.192,760s-95.832-9.514-140.223-28.277c-42.895-18.132-81.426-44.096-114.522-77.173
	c-33.096-33.075-59.075-71.579-77.216-114.442C48.459,495.753,38.94,448.614,38.94,400s9.519-95.753,28.291-140.107
	c18.141-42.863,44.12-81.367,77.216-114.442c33.097-33.076,71.628-59.041,114.522-77.173C303.36,49.514,350.538,40,399.192,40
	 M399.192,0C178.14,0-1.06,179.086-1.06,400S178.14,800,399.192,800s400.252-179.086,400.252-400S620.245,0,399.192,0L399.192,0z"/>
<g>
	<g>
		<path fill="#358C36" d="M560.365,403.365c0,18.896-15.517,34.211-34.657,34.211c-19.146,0-34.648-15.315-34.648-34.211
			c0-18.905,15.503-34.211,34.648-34.211C544.849,369.154,560.365,384.46,560.365,403.365z"/>
		<path fill="#FFFCEB" d="M546.042,392.764c0,7.925-6.514,14.346-14.534,14.346c-8.019,0-14.526-6.421-14.526-14.346
			c0-7.91,6.508-14.334,14.526-14.334C539.528,378.43,546.042,384.854,546.042,392.764z"/>
	</g>
	<g>
		<path fill="#358C36" d="M314.812,403.365c0,18.896-15.515,34.211-34.657,34.211c-19.146,0-34.643-15.315-34.643-34.211
			c0-18.905,15.496-34.211,34.643-34.211C299.298,369.154,314.812,384.46,314.812,403.365z"/>
		<path fill="#FFFCEB" d="M300.489,392.764c0,7.925-6.506,14.346-14.535,14.346c-8.021,0-14.521-6.421-14.521-14.346
			c0-7.91,6.5-14.334,14.521-14.334C293.983,378.43,300.489,384.854,300.489,392.764z"/>
	</g>
</g>
<g>
	<path fill="#358C36" d="M520.04,537.95c0,47.298-51.837,85.629-115.783,85.629c-63.955,0-115.792-38.331-115.792-85.629
		c0-47.284,51.837-85.616,115.792-85.616C468.203,452.334,520.04,490.666,520.04,537.95z"/>
	<g>
		<path fill="#FFFCEB" d="M404.257,603.182c-32.538,0-59.01-20.787-59.01-46.338c0-25.547,26.472-46.33,59.01-46.33
			c32.528,0,58.992,20.783,58.992,46.33C463.249,582.395,436.785,603.182,404.257,603.182z M404.257,520.514
			c-27.024,0-49.01,16.298-49.01,36.33c0,20.037,21.985,36.338,49.01,36.338c27.015,0,48.992-16.301,48.992-36.338
			C453.249,536.812,431.271,520.514,404.257,520.514z"/>
	</g>
	<path fill="#FFFCEB" d="M437.182,522.488c0,18.186-14.751,32.925-32.925,32.925c-18.196,0-32.925-14.739-32.925-32.925
		c0-18.183,14.729-32.924,32.925-32.924C422.431,489.564,437.182,504.306,437.182,522.488z"/>
</g>
<g>
	<path fill="#358C36" d="M416.255,123.93c-11.837-3.388-11.485-3.482-25.287-3.867c-35.237-0.99-66.861,30.378-71.711,66.696
		c-3.963,29.627,9.793,56.95,32.196,68.321l-0.022,0.062c53.528,31.558,33.006,54.561,24.534,73.217
		c-0.514,1.142,1.679,2.438,4.76,1.502c14.104-4.283,55.616-21.66,79.251-49.991C500.904,230.83,511.421,152.005,416.255,123.93z"/>
</g>
</svg>
