<?xml version="1.0" encoding="utf-8"?>
<!-- Generator: Adobe Illustrator 16.0.0, SVG Export Plug-In . SVG Version: 6.00 Build 0)  -->
<!DOCTYPE svg PUBLIC "-//W3C//DTD SVG 1.1//EN" "http://www.w3.org/Graphics/SVG/1.1/DTD/svg11.dtd">
<svg version="1.1" id="Layer_1" xmlns="http://www.w3.org/2000/svg" xmlns:xlink="http://www.w3.org/1999/xlink" x="0px" y="0px"
	 width="800px" height="800px" viewBox="0 0 800 800" enable-background="new 0 0 800 800" xml:space="preserve">
<path fill="#FFCB00" d="M400,780c-51.344,0-101.143-10.045-148.01-29.855c-45.277-19.139-85.945-46.541-120.873-81.447
	S68.77,593.15,49.621,547.904C29.799,501.068,19.748,451.307,19.748,400s10.051-101.068,29.873-147.902
	c19.148-45.248,46.568-85.889,81.496-120.793c34.928-34.906,75.596-62.309,120.873-81.449C298.857,30.045,348.656,20,400,20
	c51.342,0,101.141,10.045,148.008,29.855c45.279,19.141,85.947,46.543,120.873,81.449c34.93,34.904,62.348,75.545,81.498,120.793
	c19.822,46.834,29.873,96.596,29.873,147.902s-10.051,101.068-29.873,147.904c-19.15,45.246-46.568,85.887-81.498,120.793
	c-34.926,34.906-75.594,62.309-120.873,81.447C501.141,769.955,451.342,780,400,780z"/>
<path fill="#F28F06" d="M400.832,40.335c48.654,0,95.832,9.514,140.223,28.277c42.895,18.133,81.426,44.098,114.523,77.174
	c33.094,33.074,59.074,71.578,77.215,114.441c18.773,44.355,28.291,91.494,28.291,140.107c0,48.615-9.518,95.754-28.291,140.107
	c-18.141,42.863-44.121,81.367-77.215,114.443c-33.098,33.076-71.629,59.041-114.523,77.172
	c-44.391,18.764-91.568,28.277-140.223,28.277S305,750.821,260.609,732.058c-42.895-18.131-81.426-44.096-114.523-77.172
	c-33.095-33.076-59.074-71.58-77.215-114.443C50.098,496.089,40.58,448.95,40.58,400.335c0-48.613,9.518-95.752,28.291-140.107
	c18.141-42.863,44.12-81.367,77.215-114.441c33.098-33.076,71.629-59.041,114.523-77.174C305,49.849,352.178,40.335,400.832,40.335
	 M400.832,0.335c-221.053,0-400.252,179.086-400.252,400s179.199,400,400.252,400s400.252-179.086,400.252-400
	S621.885,0.335,400.832,0.335L400.832,0.335z"/>
<g>
	<rect x="388" y="193" fill="#F28F06" width="16" height="70"/>
	<path fill="#FFFCEB" d="M395.309,196.077c0,0-23.809-18.078,1.765-51.587C397.073,144.49,416.031,172.268,395.309,196.077z"/>
	<rect x="428" y="194" fill="#F28F06" width="15" height="70"/>
	<path fill="#FFFCEB" d="M434.992,196.959c0,0-23.809-18.078,1.764-51.586C436.756,145.373,455.715,173.15,434.992,196.959z"/>
	<rect x="350" y="194" fill="#F28F06" width="14" height="71"/>
	<g>
		<g>
			<path fill-rule="evenodd" clip-rule="evenodd" fill="#FFFCEB" d="M590,588.575C590,598.756,574.274,607,554.629,607H231.582
				C211.938,607,195,598.756,195,588.575V480.821c0-10.18,16.938-18.821,36.582-18.821h323.047c19.646,0,35.371,8.642,35.371,18.821
				V588.575z"/>
			<path fill-rule="evenodd" clip-rule="evenodd" fill="#FFFCEB" d="M541,477.017C541,487.444,530.502,496,515.604,496H270.609
				C255.707,496,243,487.444,243,477.017V366.633C243,356.206,255.707,349,270.609,349h244.994c14.898,0,25.396,7.206,25.396,17.633
				V477.017z"/>
			<path fill-rule="evenodd" clip-rule="evenodd" fill="#FFFCEB" d="M487,363.087c0,9.064-6.756,16.913-16.205,16.913H315.416
				c-9.451,0-17.416-7.849-17.416-16.913V267.16c0-9.063,7.965-16.16,17.416-16.16h155.379c9.449,0,16.205,7.097,16.205,16.16
				V363.087z"/>
		</g>
		<line fill="none" stroke="#FFCB00" stroke-width="10" stroke-miterlimit="10" x1="164" y1="460" x2="635" y2="460"/>
		<line fill="none" stroke="#FFCB00" stroke-width="10" stroke-miterlimit="10" x1="164" y1="343" x2="635" y2="343"/>
	</g>
	<path fill="#FFFCEB" d="M356.51,197.841c0,0-23.809-18.078,1.763-51.588C358.272,146.253,377.23,174.032,356.51,197.841z"/>
</g>
</svg>
