<?xml version="1.0" encoding="utf-8"?>
<!-- Generator: Adobe Illustrator 16.0.0, SVG Export Plug-In . SVG Version: 6.00 Build 0)  -->
<!DOCTYPE svg PUBLIC "-//W3C//DTD SVG 1.1//EN" "http://www.w3.org/Graphics/SVG/1.1/DTD/svg11.dtd">
<svg version="1.1" id="Layer_1" xmlns="http://www.w3.org/2000/svg" xmlns:xlink="http://www.w3.org/1999/xlink" x="0px" y="0px"
	 width="800px" height="800px" viewBox="0 0 800 800" enable-background="new 0 0 800 800" xml:space="preserve">
<g>
	<path fill="#DC2729" d="M400,780c-51.344,0-101.142-10.045-148.01-29.855c-45.277-19.14-85.945-46.542-120.873-81.448
		c-34.928-34.905-62.347-75.546-81.496-120.793C29.799,501.068,19.748,451.307,19.748,400s10.051-101.068,29.873-147.903
		c19.149-45.247,46.568-85.888,81.496-120.793c34.928-34.906,75.596-62.309,120.873-81.448C298.858,30.045,348.656,20,400,20
		s101.142,10.045,148.009,29.855c45.278,19.14,85.946,46.542,120.874,81.448c34.928,34.905,62.347,75.546,81.497,120.793
		c19.821,46.835,29.872,96.597,29.872,147.903s-10.051,101.068-29.872,147.903c-19.15,45.247-46.569,85.888-81.497,120.793
		c-34.928,34.906-75.596,62.309-120.874,81.448C501.142,769.955,451.344,780,400,780z"/>
	<path fill="#871811" d="M400,40c48.654,0,95.832,9.514,140.223,28.277c42.894,18.132,81.425,44.097,114.522,77.173
		c33.096,33.075,59.075,71.579,77.217,114.442c18.771,44.354,28.29,91.493,28.29,140.107s-9.519,95.753-28.29,140.107
		c-18.142,42.863-44.121,81.367-77.217,114.442c-33.098,33.076-71.629,59.041-114.522,77.173C495.832,750.486,448.654,760,400,760
		s-95.832-9.514-140.223-28.277c-42.895-18.132-81.426-44.097-114.522-77.173c-33.096-33.075-59.075-71.579-77.216-114.442
		C49.267,495.753,39.748,448.614,39.748,400s9.519-95.753,28.291-140.107c18.141-42.863,44.12-81.367,77.216-114.442
		c33.097-33.076,71.628-59.041,114.522-77.173C304.168,49.514,351.346,40,400,40 M400,0C178.947,0-0.252,179.086-0.252,400
		S178.947,800,400,800s400.252-179.086,400.252-400S621.053,0,400,0L400,0z"/>
	<g>
		
			<polyline fill="none" stroke="#FFFFFF" stroke-width="20" stroke-linecap="round" stroke-linejoin="round" stroke-miterlimit="10" points="
			243.82,242.832 285.061,480.059 505.884,569.786 		"/>
		
			<line fill="none" stroke="#FFFFFF" stroke-width="20" stroke-linecap="round" stroke-linejoin="round" stroke-miterlimit="10" x1="225.597" y1="527.108" x2="594.175" y2="235.474"/>
		<g>
			<polygon fill="#FFFCEB" points="640.658,198.559 620.424,249.311 600.191,300.06 583.262,243.973 532.57,214.598 
				586.612,206.578 			"/>
		</g>
		<g>
			<path fill="#FFFCEB" d="M246.036,503.225c4.355,0.622,7.59,4.717,7.188,9.099l-3.162,34.458
				c-0.402,4.382-3.551,10.204-6.998,12.939l-29.626,23.506c-3.447,2.735-6.247,1.373-6.222-3.027l0.177-31.059
				c0.025-4.4-3.463-8.808-7.75-9.795l-30.268-6.971c-4.288-0.988-4.973-4.029-1.522-6.76l29.66-23.468
				c3.45-2.73,9.837-4.454,14.193-3.831L246.036,503.225z"/>
		</g>
		
			<line fill="none" stroke="#DC2729" stroke-width="5" stroke-linecap="round" stroke-linejoin="round" stroke-miterlimit="10" x1="191.885" y1="555.137" x2="221.442" y2="530.282"/>
		
			<line fill="none" stroke="#DC2729" stroke-width="5" stroke-linecap="round" stroke-linejoin="round" stroke-miterlimit="10" x1="164.583" y1="546.693" x2="197.52" y2="520.633"/>
		
			<line fill="none" stroke="#DC2729" stroke-width="5" stroke-linecap="round" stroke-linejoin="round" stroke-miterlimit="10" x1="191.885" y1="581.199" x2="224.822" y2="555.137"/>
		<g>
			<path fill="#FFFCEB" d="M550.024,677.058c-0.739-0.415-18.221-10.419-29.219-32.628c-18.207-36.764-4.209-77.46,10.738-105.126
				c11.027-20.408,15.612-43.81,13.626-69.554c-1.607-20.841-7.49-43.266-17.484-66.653c-17.15-40.137-40.742-69.472-40.979-69.763
				l-12.448-15.729c-0.222-0.286-18.843-24.225-47.961-47.809c-48.156-39.003-87.629-47.19-112.264-47.19
				c-10.158,0-20.235,1.371-29.95,3.99c-15.653,4.221-30.436,6.404-43.94,6.404c-0.003,0-0.01,0-0.014,0
				c-25.696,0-47.052-7.57-63.483-22.422c-13.272-11.996-19.378-25.547-21.387-30.808c-0.652-1.706-0.955-2.754-0.988-2.867
				l-0.926-3.228l23.7-18.756l1.734,7.775c1.954,8.758,11.302,29.127,55.802,29.127c9.924,0,17.97-1.176,21.845-2.184
				c26.667-6.936,62.027-14.896,99.061-14.896c72.502,0,131.875,30.493,181.508,93.223l12.408,15.684
				c40.708,51.447,58.656,103.694,54.871,159.727c-3.392,50.225-23.723,94.575-43.163,131.336
				c-5.878,11.114-14.439,41.944-7.597,62.846c2.886,8.814,8.257,15.179,15.962,18.915l7.169,3.477l-23.701,18.751L550.024,677.058z
				"/>
			<g>
				<path fill="#DC2729" d="M173.9,163.782c5.952,26.68,37.194,33.039,60.682,33.039c9.909,0,18.433-1.13,23.104-2.345
					c30.391-7.903,63.59-14.733,97.803-14.734c59.242-0.001,121.529,20.477,177.587,91.325l12.408,15.684
					c88.432,111.762,51.309,209.797,11.209,285.622c-7.604,14.378-24.369,71.638,10.604,88.598l-14.824,11.728
					c0,0-66.988-37.628-16.529-131.018c50.461-93.388-45.353-211.496-45.353-211.496l-12.411-15.683
					c0,0-74.771-96.888-164.146-96.896c-10.259,0-20.699,1.275-31.252,4.12c-16.148,4.354-30.291,6.19-42.639,6.19
					c-57.389,0-76.257-39.595-80.213-49.951c-0.596-1.558-0.853-2.453-0.853-2.453L173.9,163.782 M180.191,146.053l-12.496,9.888
					l-14.823,11.729l-5.257,4.16l1.851,6.442c0.063,0.219,0.412,1.401,1.124,3.265c2.136,5.593,8.628,19.984,22.704,32.706
					c17.381,15.708,39.872,23.673,66.849,23.673c13.938,0,29.16-2.199,45.242-6.535c9.291-2.505,18.926-3.775,28.637-3.775
					c83.506,0.008,155.523,92.076,156.241,93.006l0.038,0.049l0.037,0.048l12.411,15.683l0.038,0.047l0.038,0.047
					c0.229,0.283,23.497,29.25,40.354,68.791c9.743,22.854,15.468,44.716,17.015,64.981c1.887,24.722-2.503,47.153-13.049,66.67
					c-12.226,22.628-18.919,44.206-19.895,64.136c-0.807,16.463,2.247,31.801,9.073,45.586
					c11.677,23.578,30.457,34.322,31.251,34.769l5.845,3.283l5.257-4.159l14.824-11.728l12.498-9.888l-14.339-6.953
					c-6.529-3.166-10.909-8.391-13.392-15.973c-6.893-21.051,3.06-51,7.265-58.952c19.687-37.225,40.276-82.177,43.732-133.336
					c1.811-26.807-1.405-53.349-9.558-78.887c-9.11-28.542-24.716-56.897-46.382-84.279l-12.407-15.683
					c-27.095-34.242-57.783-59.506-91.216-75.089c-28.92-13.479-59.736-20.032-94.21-20.032
					c-37.608,0.001-73.37,8.047-100.324,15.057c-3.589,0.933-11.135,2.022-20.586,2.022c-8.971,0-21.974-0.989-32.978-5.706
					c-10.113-4.334-15.982-10.716-17.944-19.51L180.191,146.053L180.191,146.053z"/>
			</g>
		</g>
	</g>
</g>
</svg>
