<?xml version="1.0" encoding="utf-8"?>
<!-- Generator: Adobe Illustrator 16.0.0, SVG Export Plug-In . SVG Version: 6.00 Build 0)  -->
<!DOCTYPE svg PUBLIC "-//W3C//DTD SVG 1.1//EN" "http://www.w3.org/Graphics/SVG/1.1/DTD/svg11.dtd">
<svg version="1.1" id="Layer_1" xmlns="http://www.w3.org/2000/svg" xmlns:xlink="http://www.w3.org/1999/xlink" x="0px" y="0px"
	 width="800px" height="800px" viewBox="0 0 800 800" enable-background="new 0 0 800 800" xml:space="preserve">
<path fill="#5AB56A" d="M399.219,780c-51.344,0-101.142-10.045-148.01-29.855c-45.277-19.14-85.945-46.542-120.873-81.448
	C95.408,633.791,67.989,593.15,48.84,547.903C29.018,501.068,18.967,451.307,18.967,400S29.018,298.932,48.84,252.097
	c19.149-45.247,46.568-85.888,81.496-120.793c34.928-34.906,75.596-62.309,120.873-81.448C298.077,30.045,347.875,20,399.219,20
	S500.36,30.045,547.228,49.855c45.278,19.14,85.946,46.542,120.874,81.448c34.928,34.905,62.346,75.546,81.496,120.793
	c19.822,46.835,29.873,96.597,29.873,147.903s-10.051,101.068-29.873,147.903c-19.15,45.247-46.568,85.888-81.496,120.793
	c-34.928,34.906-75.596,62.309-120.874,81.448C500.36,769.955,450.562,780,399.219,780z"/>
<path fill="#FFFCEB" d="M408.891,151.679c60.626,0.813,130.304,11.304,178.735,45.076c63.312,44.126,57.452,141.061,59.646,205.069
	c3.729,108.843-34.936,220.843-108.414,254.867c-46.929,21.73-108.086,23.671-159.617,22.754
	c-67.942,1.774-176.905-40.112-212.906-160.112c-8.459-28.194-15.009-111.598-10.829-142.327
	c9.739-71.697-9.551-160.51,76.991-197.725C287.119,155.791,348.928,151.166,408.891,151.679z"/>
<path fill="#358C36" d="M399.219,40c48.654,0,95.832,9.514,140.223,28.277c42.894,18.132,81.425,44.097,114.522,77.173
	c33.096,33.075,59.075,71.579,77.217,114.442c18.771,44.354,28.29,91.493,28.29,140.107s-9.52,95.753-28.29,140.107
	c-18.142,42.863-44.121,81.367-77.217,114.442c-33.098,33.077-71.629,59.041-114.522,77.173
	C495.051,750.486,447.873,760,399.219,760s-95.832-9.514-140.223-28.277c-42.895-18.132-81.426-44.096-114.522-77.173
	c-33.096-33.075-59.075-71.579-77.216-114.442C48.485,495.753,38.967,448.614,38.967,400s9.519-95.753,28.291-140.107
	c18.141-42.863,44.12-81.367,77.216-114.442c33.097-33.076,71.628-59.041,114.522-77.173C303.387,49.514,350.564,40,399.219,40
	 M399.219,0C178.166,0-1.033,179.086-1.033,400s179.199,400,400.252,400s400.252-179.086,400.252-400S620.271,0,399.219,0L399.219,0
	z"/>
<g>
	<g>
		<path fill="#358C36" d="M560.392,442.365c0,18.896-15.517,34.211-34.657,34.211c-19.146,0-34.648-15.315-34.648-34.211
			c0-18.905,15.503-34.211,34.648-34.211C544.875,408.154,560.392,423.46,560.392,442.365z"/>
		<path fill="#FFFFFF" d="M546.068,431.764c0,7.925-6.514,14.346-14.534,14.346c-8.019,0-14.526-6.421-14.526-14.346
			c0-7.91,6.508-14.334,14.526-14.334C539.555,417.43,546.068,423.854,546.068,431.764z"/>
	</g>
	<g>
		<path fill="#358C36" d="M314.839,442.365c0,18.896-15.515,34.211-34.657,34.211c-19.146,0-34.643-15.315-34.643-34.211
			c0-18.905,15.496-34.211,34.643-34.211C299.324,408.154,314.839,423.46,314.839,442.365z"/>
		<path fill="#FFFFFF" d="M300.516,431.764c0,7.925-6.506,14.346-14.535,14.346c-8.021,0-14.521-6.421-14.521-14.346
			c0-7.91,6.5-14.334,14.521-14.334C294.01,417.43,300.516,423.854,300.516,431.764z"/>
	</g>
</g>
<path fill="#358C36" d="M150,335h499c0,0,5.533-204.737-250.021-207C291,127.044,157,155,150,335z"/>
<path fill="#FFFCEB" d="M322.961,291h151.902c0,0,1.686-62.324-76.11-63.014C365.883,227.694,316.873,237.727,322.961,291z"/>
<path fill="none" stroke="#358C36" stroke-width="20" stroke-linecap="round" stroke-linejoin="round" stroke-miterlimit="10" d="
	M366.489,578.538c0,0,43.512,41.462,78.178-0.538"/>
</svg>
