<?xml version="1.0" encoding="utf-8"?>
<!-- Generator: Adobe Illustrator 16.0.0, SVG Export Plug-In . SVG Version: 6.00 Build 0)  -->
<!DOCTYPE svg PUBLIC "-//W3C//DTD SVG 1.1//EN" "http://www.w3.org/Graphics/SVG/1.1/DTD/svg11.dtd">
<svg version="1.1" id="Layer_1" xmlns="http://www.w3.org/2000/svg" xmlns:xlink="http://www.w3.org/1999/xlink" x="0px" y="0px"
	 width="800px" height="800px" viewBox="0 0 800 800" enable-background="new 0 0 800 800" xml:space="preserve">
<path fill="#F39006" d="M399.592,780.299c-51.344,0-101.143-10.045-148.01-29.855c-45.277-19.14-85.945-46.542-120.873-81.448
	c-34.928-34.905-62.348-75.546-81.496-120.793C29.391,501.367,19.34,451.605,19.34,400.299S29.391,299.23,49.213,252.396
	c19.148-45.247,46.568-85.888,81.496-120.793c34.928-34.906,75.596-62.309,120.873-81.448
	c46.867-19.811,96.666-29.855,148.01-29.855S500.732,30.344,547.6,50.154c45.279,19.14,85.947,46.542,120.875,81.448
	c34.928,34.905,62.346,75.546,81.496,120.793c19.822,46.835,29.873,96.597,29.873,147.903s-10.051,101.068-29.873,147.903
	c-19.15,45.247-46.568,85.888-81.496,120.793c-34.928,34.906-75.596,62.309-120.875,81.448
	C500.732,770.254,450.936,780.299,399.592,780.299z"/>
<g>
	<g>
		<path fill-rule="evenodd" clip-rule="evenodd" fill="#FFFCEB" d="M398.027,108.152c9.086,1.011,18.17,2.038,27.258,3.029
			c30.201,3.291,59.309,10.471,86.561,24.277c20.6,10.435,38.121,24.866,54.021,41.438c16.68,17.384,31.361,36.297,42.621,57.616
			c18.234,34.528,28.068,70.824,21.162,110.227c-2.703,15.433-9.199,29.489-16.186,43.353
			c-12.17,24.154-27.297,46.436-42.828,68.503c-17.49,24.853-29.219,52.062-29.5,82.916c-0.107,11.836,2.34,23.694,3.691,36.186
			c-2.955,0.968,51.676,82.464,59.965,93.638C654.514,736.356,575.99,726.4,557.127,742c-26.264,21.72-87.723,10.923-108,38
			c-8.762,11.699-89.576-10.976-97.668,1.226c-1.088,1.642,20.24-59.09,17.891-64.064c-13.721-29.031-27.322-58.124-41.596-86.883
			c-5.029-10.134-14.824-14.807-25.664-17.305c-12.51-2.882-24.854-0.849-37.25,0.687c-17.568,2.176-35.213,4.037-52.637-0.561
			c-16.018-4.227-21.543-10.541-21.211-26.115c0.115-5.483,0.209-11.073,1.318-16.405c1.766-8.492-0.168-15.729-5.154-22.572
			c-2.334-3.202-4.334-6.696-6.105-10.247c-2.445-4.901-2.545-9.927,0.225-14.854c2.078-3.692,1.207-6.023-2.943-7.676
			c-7.23-2.878-9.062-6.034-8.904-13.717c0.143-6.832,0.322-13.662,0.453-20.493c0.184-9.511-1.811-11.651-11.209-12.786
			c-5.84-0.705-11.348-2.278-15.697-6.737c-5.027-5.154-6.203-11.124-3.256-17.424c7.113-15.209,14.559-30.265,21.967-45.334
			c4.893-9.953,12.369-19.016,12.801-30.561c0.262-6.979-1.572-14.035-2.498-21.053c-0.062-0.472-0.379-0.922-0.627-1.354
			c-13.256-23.083-11.674-48.053-8.938-73.034c2.768-25.292,11.725-48.555,25.768-69.622c13.658-20.489,30.455-38.229,50.4-52.841
			c21.883-16.029,45.924-27.617,72.359-33.685c13.754-3.157,27.818-4.957,41.738-7.383c1.787-0.312,3.559-0.7,5.338-1.054
			C371.361,108.152,384.693,108.152,398.027,108.152z"/>
		<path fill-rule="evenodd" clip-rule="evenodd" fill="#FFCB00" d="M378.551,146.99c31.961,1.148,63.445,4.65,93.719,15.779
			c24.426,8.98,44.867,23.626,62.785,42.256c17.807,18.514,32.752,39.02,43.471,62.369c8.324,18.135,13.455,37.121,13.859,57.34
			c0.336,16.78-0.299,33.271-6.193,49.23c-9.531,25.81-25.705,45.929-49.91,59.43c-15.018,8.377-31.107,12.331-48.207,12.979
			c-19.248,0.729-33.078-7.882-43.082-23.827c-3.975-6.334-8.543-12.294-12.686-18.528c-1.887-2.837-4.102-3.646-7.551-3.372
			c-9.938,0.79-19.576-0.123-28.211-6.075c-7.699-5.309-11.422-13.282-15.016-21.337c-2.029-4.545-3.842-9.266-5.053-14.082
			c-3.996-15.893-15.254-24.375-29.643-29.776c-13.078-4.909-26.756-6.603-40.598-7.595c-15.271-1.094-30.561-2.153-45.768-3.897
			c-17.584-2.017-29.902-12.589-41.633-25.201c-18.217-19.586-14.717-63.142,2.738-82.553
			c16.951-18.849,36.139-34.516,59.184-44.961c27.988-12.687,57.557-18.562,88.328-18.185
			C372.25,147.023,375.418,146.99,378.551,146.99z"/>
	</g>
</g>
<path fill="#BE5417" d="M399.592,40.299c48.654,0,95.832,9.514,140.223,28.277c42.893,18.132,81.424,44.097,114.521,77.173
	c33.096,33.075,59.076,71.579,77.217,114.442c18.771,44.354,28.291,91.493,28.291,140.107s-9.52,95.753-28.291,140.107
	c-18.141,42.863-44.121,81.367-77.217,114.442c-33.098,33.076-71.629,59.041-114.521,77.173
	c-44.391,18.764-91.568,28.277-140.223,28.277s-95.832-9.514-140.223-28.277c-42.895-18.132-81.426-44.097-114.523-77.173
	c-33.096-33.075-59.074-71.579-77.215-114.442C48.857,496.052,39.34,448.913,39.34,400.299s9.518-95.753,28.291-140.107
	c18.141-42.863,44.119-81.367,77.215-114.442c33.098-33.076,71.629-59.041,114.523-77.173
	C303.76,49.812,350.938,40.299,399.592,40.299 M399.592,0.299c-221.053,0-400.252,179.086-400.252,400s179.199,400,400.252,400
	s400.252-179.086,400.252-400S620.645,0.299,399.592,0.299L399.592,0.299z"/>
</svg>
