<?xml version="1.0" encoding="utf-8"?>
<!-- Generator: Adobe Illustrator 16.0.0, SVG Export Plug-In . SVG Version: 6.00 Build 0)  -->
<!DOCTYPE svg PUBLIC "-//W3C//DTD SVG 1.1//EN" "http://www.w3.org/Graphics/SVG/1.1/DTD/svg11.dtd">
<svg version="1.1" id="Layer_1" xmlns="http://www.w3.org/2000/svg" xmlns:xlink="http://www.w3.org/1999/xlink" x="0px" y="0px"
	 width="800px" height="800px" viewBox="0 0 800 800" enable-background="new 0 0 800 800" xml:space="preserve">
<path fill="#FFCB00" d="M400.064,779.812c-51.344,0-101.142-10.045-148.01-29.855c-45.277-19.14-85.945-46.542-120.873-81.448
	c-34.928-34.905-62.346-75.546-81.496-120.793c-19.822-46.835-29.873-96.597-29.873-147.903s10.051-101.068,29.873-147.903
	c19.15-45.247,46.568-85.888,81.496-120.793c34.928-34.906,75.596-62.309,120.873-81.448c46.868-19.811,96.666-29.855,148.01-29.855
	s101.142,10.045,148.009,29.855c45.278,19.14,85.946,46.542,120.874,81.448c34.928,34.905,62.346,75.546,81.496,120.793
	c19.822,46.835,29.873,96.597,29.873,147.903s-10.051,101.068-29.873,147.903c-19.15,45.247-46.568,85.888-81.496,120.793
	c-34.928,34.906-75.596,62.309-120.874,81.448C501.206,769.767,451.408,779.812,400.064,779.812z"/>
<path fill="#F28F06" d="M399.988,39.812c48.654,0,95.832,9.514,140.223,28.277c42.893,18.132,81.424,44.097,114.522,77.173
	c33.095,33.075,59.075,71.579,77.217,114.442c18.771,44.354,28.29,91.493,28.29,140.107s-9.52,95.753-28.29,140.107
	c-18.142,42.863-44.122,81.367-77.217,114.442c-33.099,33.076-71.63,59.041-114.522,77.173
	c-44.391,18.764-91.568,28.277-140.223,28.277s-95.832-9.514-140.223-28.277c-42.895-18.132-81.426-44.097-114.522-77.173
	c-33.096-33.075-59.075-71.579-77.216-114.442c-18.773-44.354-28.291-91.493-28.291-140.107s9.518-95.753,28.291-140.107
	c18.141-42.863,44.12-81.367,77.216-114.442c33.097-33.076,71.628-59.041,114.522-77.173
	C304.156,49.325,351.334,39.812,399.988,39.812 M399.988-0.188c-221.053,0-400.252,179.086-400.252,400s179.199,400,400.252,400
	s400.252-179.086,400.252-400S621.041-0.188,399.988-0.188L399.988-0.188z"/>
<g>
	<path fill="#F28F06" stroke="#FFCB00" stroke-width="5" stroke-miterlimit="10" d="M427.027,211.033
		c15.561-7.987,38.371,58.5,38.371,58.5l-59.141,35.484l1.975-43.755"/>
	<path fill="#F28F06" d="M450.526,349.823c0,0,126.911,121.045,155.771,142.304c0,0-27.793,113.08-99.228,85.235
		C435.635,549.52,359.6,405.36,359.6,405.36L450.526,349.823z"/>
	<path fill="#FFFCEB" stroke="#FFCB00" stroke-width="5" stroke-miterlimit="10" d="M210.912,534.791l-17.117-41.147
		c0,0,91.625-83.591,144.559-135.915c1.53-1.512,52.929-104.191,54.271-105.536c7.729-7.737,42.209,26.808,42.209,26.808
		s51.514-53.492,81.129-22.998c9.535,9.818-7.689,27.391,4.965,29.105c12.648,1.719,26.557,16.431,24.258,22.086
		c-2.307,5.648-8.934,16.035-3.969,19.938c6.5,5.109,17.026,4.208,10.229,29.16c-1.722,6.319-4.876,8.277,0.778,15.312
		c9.896,12.309-13.229,44.139-37.49,56.195c-24.26,12.061-104.178,38.416-153.709,95.784
		c-49.533,57.368-49.508,60.585-49.508,60.585S267.316,614.493,210.912,534.791z"/>
	<path fill="#F28F06" stroke="#FFCB00" stroke-width="5" stroke-miterlimit="10" d="M293.904,340.377
		c-10.709-4.957-28.268,18.561-25.85,27.769c2.436,9.19,59.52,48.899,69.857,43.292c0,0,12.086-11.891,5.41-26.798
		C336.66,369.732,293.904,340.377,293.904,340.377z"/>
	<path fill="#F28F06" stroke="#FFCB00" stroke-width="5" stroke-miterlimit="10" d="M378.053,221.826
		c-9.811-10.535-42.4,5.853-44.363,16.843c-1.967,10.993,43.445,81.345,58.332,80.476c0,0,20.211-6.707,20.242-25.857
		C412.301,274.137,378.053,221.826,378.053,221.826z"/>
	<path fill="#F28F06" stroke="#FFCB00" stroke-width="5" stroke-miterlimit="10" d="M311.762,300.161
		c-9.73-7.603-34.133,11.497-34.076,21.278c0.068,9.777,48.424,63.562,60.59,60.55c0,0,15.654-8.866,12.73-25.389
		C348.088,340.076,311.762,300.161,311.762,300.161z"/>
	<path fill="#F28F06" stroke="#FFCB00" stroke-width="5" stroke-miterlimit="10" d="M336.32,255.344
		c-11.01-9.271-41.37,10.954-41.986,22.105c-0.611,11.149,53.004,75.465,67.68,72.791c0,0,19.248-9.109,16.947-28.121
		C376.668,303.106,336.32,255.344,336.32,255.344z"/>
	<path fill="#F28F06" stroke="#FFCB00" stroke-width="5" stroke-miterlimit="10" d="M427.027,261.293
		c0,0-72.859,1.757-66.678-22.842c3.943-15.691,6.582,3.428,66.678-27.418"/>
</g>
</svg>
