<?xml version="1.0" encoding="utf-8"?>
<!-- Generator: Adobe Illustrator 16.0.0, SVG Export Plug-In . SVG Version: 6.00 Build 0)  -->
<!DOCTYPE svg PUBLIC "-//W3C//DTD SVG 1.1//EN" "http://www.w3.org/Graphics/SVG/1.1/DTD/svg11.dtd">
<svg version="1.1" id="Layer_1" xmlns="http://www.w3.org/2000/svg" xmlns:xlink="http://www.w3.org/1999/xlink" x="0px" y="0px"
	 width="800px" height="800px" viewBox="0 0 800 800" enable-background="new 0 0 800 800" xml:space="preserve">
<path fill="#F39006" d="M399.465,780c-51.344,0-101.142-10.045-148.01-29.855c-45.277-19.14-85.945-46.542-120.873-81.448
	c-34.928-34.905-62.347-75.546-81.496-120.793C29.264,501.068,19.213,451.307,19.213,400s10.051-101.068,29.873-147.903
	c19.149-45.247,46.568-85.888,81.496-120.793c34.928-34.906,75.596-62.309,120.873-81.448C298.323,30.045,348.121,20,399.465,20
	s101.142,10.045,148.009,29.855c45.278,19.14,85.946,46.542,120.874,81.448c34.928,34.905,62.347,75.546,81.497,120.793
	c19.821,46.835,29.872,96.597,29.872,147.903s-10.051,101.068-29.872,147.903c-19.15,45.247-46.569,85.888-81.497,120.793
	c-34.928,34.906-75.596,62.309-120.874,81.448C500.606,769.955,450.809,780,399.465,780z"/>
<path fill="#BE5417" d="M399.465,40c48.654,0,95.832,9.514,140.223,28.277c42.894,18.132,81.425,44.097,114.522,77.173
	c33.096,33.075,59.075,71.579,77.217,114.442c18.771,44.354,28.29,91.493,28.29,140.107s-9.519,95.753-28.29,140.107
	c-18.142,42.863-44.121,81.367-77.217,114.442c-33.098,33.076-71.629,59.041-114.522,77.173
	C495.297,750.486,448.119,760,399.465,760s-95.832-9.514-140.223-28.277c-42.895-18.132-81.426-44.097-114.522-77.173
	c-33.096-33.075-59.075-71.579-77.216-114.442C48.731,495.753,39.213,448.614,39.213,400s9.519-95.753,28.291-140.107
	c18.141-42.863,44.12-81.367,77.216-114.442c33.097-33.076,71.628-59.041,114.522-77.173C303.633,49.514,350.811,40,399.465,40
	 M399.465,0C178.412,0-0.787,179.086-0.787,400s179.199,400,400.252,400s400.252-179.086,400.252-400S620.518,0,399.465,0L399.465,0
	z"/>
<g>
	<g>
		<g>
			<path fill-rule="evenodd" clip-rule="evenodd" fill="#FFFCEB" d="M311.664,690.146c-13.049-2.807-26.465-4.486-39.078-8.615
				c-59.791-19.576-101.551-73.424-105.928-136.105c-0.52-7.422-2.969-11.873-9.217-16.268
				c-46.043-32.383-69.699-77.182-68.307-133.354c1.334-53.893,25.846-96.303,70.543-126.65c4.232-2.875,5.805-5.68,6.082-10.793
				c4.082-75.893,60.867-137.186,136.15-147.084c32.4-4.26,63.268,0.998,92.246,16.242c3.916,2.059,6.785,1.953,10.676-0.053
				c94.51-48.789,209.531,9.34,226.328,114.287c0.521,3.256,1.578,6.641,1.15,9.797c-1.387,10.176,3.777,15.408,11.723,21.039
				c90.383,64.066,87.201,198.783-5.873,258.945c-3.598,2.326-5.404,4.674-5.547,9.256
				c-2.191,69.744-54.564,131.592-123.143,145.609c-7.234,1.479-14.562,2.508-21.846,3.746c-7.436,0-14.869,0-22.305,0
				c-0.76-0.291-1.506-0.783-2.285-0.844c-21.465-1.645-41.52-7.977-60.648-17.715c-1.859-0.947-5.021-0.225-7.254,0.602
				c-10.59,3.916-20.861,8.818-31.645,12.051c-9.57,2.869-19.66,4.004-29.52,5.906C326.533,690.146,319.1,690.146,311.664,690.146z
				 M170.605,262.02c50.227-24.793,99.553-24.762,149.098-0.312c3.412-55.404,28.309-97.887,73.982-128.451
				c-45.967-26.574-108.582-24.033-154.604,6.758C196.162,168.729,174.057,209.545,170.605,262.02z M627.242,261.484
				c0.283-42.771-24.316-98.363-78.65-128.039c-49.234-26.893-108.219-21.393-142.953,0.197
				c45.48,30.49,69.916,73.174,73.355,128.193C528.867,237.264,578.033,237.303,627.242,261.484z M404.594,667.09
				c52.154,24.697,102.537,24.68,150.957-4.953c45.551-27.875,68.656-69.982,72.494-124.252
				c-24.16,12.256-48.557,18.602-74.596,18.617c-26.186,0.018-50.697-6.486-74.197-18.381
				C475.73,593.438,451.115,635.775,404.594,667.09z M559.006,399.967c45.896,30.623,70.691,73.068,74.186,127.857
				c38.738-21.676,76.99-74.373,71.068-141.893c-5.037-57.408-44.221-101.109-71.156-113.189
				C629.574,327.066,604.891,369.154,559.006,399.967z M319.711,537.998c-23.814,12.219-48.25,18.455-74.314,18.504
				c-25.924,0.045-50.199-6.484-73.617-18.004c-0.451,43.408,24.92,102.994,85.697,131.49c45.5,21.332,90.939,19.555,136.602-3.084
				C347.775,635.748,323.127,593.463,319.711,537.998z M165.84,529.105c1.322-27.68,8.176-52.021,21.271-74.506
				c13.08-22.461,30.908-40.402,53.125-54.674c-22.807-14.4-40.508-32.543-53.641-55.064c-13.043-22.371-19.635-46.725-21.207-73.73
				c-46.422,31.852-71.25,74.355-71.098,129.318C94.441,455.166,119.412,497.373,165.84,529.105z M316.52,266.791
				c-0.637-0.535-1.049-1.045-1.584-1.305c-47.113-23.002-94.094-22.707-140.783,1.137c-1.738,0.887-3.297,4.23-3.178,6.33
				c2.611,45.494,21.506,82.832,56.783,111.746c4.498,3.688,9.455,6.814,14.959,10.744
				C246.221,339.473,271.105,297.285,316.52,266.791z M325.32,538.271c0,2.082-0.088,3.309,0.014,4.518
				c4.273,50.996,27.818,90.531,70.484,118.779c3.312,2.191,5.527,1.066,8.303-0.754c32.777-21.473,54.518-51.07,64.629-88.873
				c2.861-10.697,3.869-21.893,5.959-34.219C424.035,562.619,375.084,562.662,325.32,538.271z M482.117,533.318
				c2.238,1.209,3.957,2.264,5.777,3.102c43.842,20.168,87.689,20.035,131.475-0.137c8.938-4.117,9.059-4.291,8.08-14.463
				c-4.609-48.01-26.617-85.973-66.062-113.771c-1.553-1.094-3.264-1.963-5.154-3.088
				C552.566,460.422,527.889,502.742,482.117,533.318z M317.234,533.582c-46.342-30.922-71.064-73.412-74.506-127.9
				c-0.75,0-0.992-0.076-1.129,0.012c-44.354,29.074-67.779,70.121-70.123,123.086c-0.074,1.652,1.742,4.189,3.342,4.996
				C221.857,557.545,268.951,557.068,317.234,533.582z M556.197,394.52c0.961-0.262,1.406-0.273,1.721-0.484
				c43.455-28.971,66.682-69.521,69.842-121.666c0.24-3.971-1.742-5.391-4.656-6.875c-32.055-16.328-65.793-20.611-100.918-13.654
				c-13.906,2.756-27.258,7.443-39.893,14.734C532.689,299.695,554.02,348.662,556.197,394.52z M472.725,261.52
				c0.256-1.473,0.488-2.08,0.449-2.672c-3.391-51.971-27.186-92.037-70.633-120.475c-1.584-1.037-5.143-0.732-6.871,0.371
				c-31.658,20.209-53.105,48.324-64.158,84.238c-3.801,12.352-6.107,24.996-6.174,39.018c23.605-12.527,48.01-18.539,73.729-18.604
				C424.812,243.33,449.248,249.258,472.725,261.52z M479.256,271.125c-8.807,58.295-13.078,67.23-54.482,114.268
				c43.59-14.264,85.287-10.727,126.24,9.99C547.445,341.658,523.801,300.873,479.256,271.125z M319.859,528.162
				c2.318-45.209,20.252-82.398,52.877-112.906c-42.732,12.9-83.965,9.881-123.875-10.246
				C247.709,448.088,274.719,502.141,319.859,528.162z M425.586,414.781c40.797,46.777,40.797,46.777,54.055,112.744
				c41.658-22.73,71.229-76.312,70.6-122.723c-19.236,9.938-39.32,16.049-60.689,17.754
				C468.135,424.27,447.244,421.797,425.586,414.781z M248.645,394.566c60.311-21.65,65.273-22.051,124.834-9.896
				c-33.582-30.486-51.299-67.939-53.676-112.756C278.365,295.338,248.461,346.697,248.645,394.566z M328.283,266.943
				c37.479,24.367,60.836,58.078,71.182,101.234c10.258-43.32,33.912-76.949,71.049-101.23
				C430.502,242.893,369.268,242.551,328.283,266.943z M470.662,533.041c-18.203-11.758-33.604-26.16-45.896-43.809
				c-12.141-17.426-20.002-36.76-25.391-57.27c-10.289,43.453-34.104,76.949-71.279,101.275
				C373.229,558.355,430.938,556.193,470.662,533.041z M324.941,528.055c38.984-19.199,78.178-87.75,70.584-122.828
				C351.988,434.611,328.605,475.07,324.941,528.055z M473.539,527.701c-1.082-54.695-36.033-103.502-71.055-121.785
				C402.779,454.445,433.326,505.547,473.539,527.701z M325.557,272.322c-1.748,43.842,37.154,110.535,70.432,121.299
				C400.133,354.066,362.568,289.088,325.557,272.322z M547.184,399.883c-43.16-24.443-101.891-23.002-140.92-0.086
				C441.867,422.502,504.559,425.006,547.184,399.883z M393.438,399.42c-47.662-23.236-94.424-23.223-141.83-0.059
				C287.703,422.139,349.43,425.004,393.438,399.42z M472.797,272.65c-42.623,24.186-70.662,77.328-70.037,120.938
				C441.273,372.996,473.221,320.561,472.797,272.65z"/>
			<path fill="#FFFCEB" d="M488.047,695.146h-23.651l-0.863-0.331c-0.354-0.135-0.706-0.296-1.058-0.461
				c-0.067-0.031-0.135-0.064-0.202-0.096c-20.941-1.656-41.217-7.584-61.956-18.114c-0.04-0.003-0.096-0.006-0.167-0.006
				c-0.791,0-2.049,0.284-3.281,0.74c-3.868,1.43-7.795,3.036-11.593,4.59c-6.565,2.687-13.354,5.464-20.352,7.561
				c-6.934,2.079-14.089,3.28-21.009,4.441c-2.966,0.498-6.033,1.013-8.999,1.585l-0.47,0.091h-23.313l-0.521-0.111
				c-4.043-0.87-8.225-1.648-12.27-2.402c-9.025-1.681-18.358-3.419-27.312-6.35c-30.264-9.909-56.592-28.434-76.136-53.571
				c-19.517-25.102-31.006-55.165-33.225-86.938c-0.419-5.994-2.146-9.038-7.105-12.526
				c-48.156-33.869-71.852-80.153-70.428-137.567c1.357-54.855,25.828-98.817,72.732-130.663c2.939-1.996,3.704-3.356,3.898-6.927
				c2.036-37.859,17.2-73.877,42.698-101.416c25.491-27.532,60.222-45.415,97.793-50.354c7.405-0.974,14.825-1.468,22.053-1.468
				c25.544,0,50.162,6.138,73.173,18.242c1.574,0.827,2.421,0.923,2.921,0.923c0.518,0,1.405-0.103,3.136-0.995
				c23.195-11.975,47.997-18.046,73.714-18.046c37.531,0,74.275,13.253,103.464,37.317c30.151,24.858,50.174,59.899,56.379,98.67
				c0.126,0.786,0.287,1.581,0.447,2.379c0.538,2.679,1.149,5.716,0.721,8.88c-1.005,7.368,2.168,10.979,9.658,16.288
				c22.561,15.991,40.006,36.449,51.851,60.804c11.097,22.817,16.672,48.429,16.123,74.066
				c-0.551,25.717-7.254,51.163-19.385,73.588c-12.942,23.925-31.325,43.696-54.639,58.766c-2.573,1.664-3.183,2.638-3.264,5.212
				c-1.095,34.847-14.539,69.216-37.856,96.776c-23.303,27.544-55.011,46.571-89.282,53.576c-5.04,1.03-10.155,1.852-15.103,2.646
				c-2.304,0.37-4.607,0.739-6.906,1.131L488.047,695.146z M414.65,666.128c21.719,9.229,42.994,13.901,63.358,13.902
				c25.695,0,50.906-7.455,74.932-22.158c21.667-13.26,38.545-30.234,50.165-50.455c10.106-17.588,16.535-38.145,19.155-61.209
				c-22.666,10.267-45.261,15.28-68.809,15.294h-0.108c-23.912,0-46.784-5.146-69.702-15.706
				c-2.528,25.354-9.669,48.303-21.268,68.317C451.015,633.714,434.984,651.18,414.65,666.128z M176.978,546.452
				c1.219,20.333,7.846,41.66,19.013,60.87c14.801,25.464,36.797,45.567,63.608,58.139c20.555,9.637,41.532,14.523,62.35,14.524
				c0.002,0,0.005,0,0.007,0c20.378,0,41.262-4.687,62.19-13.943c-41.354-30.276-63.949-69.775-68.84-120.323
				c-22.702,10.566-45.642,15.737-69.899,15.783h-0.275C222.111,561.503,199.739,556.571,176.978,546.452z M330.687,546.284
				c2.428,23.036,9.078,43.834,19.791,61.872c11.3,19.024,27.483,35.593,48.102,49.243c0.512,0.339,0.738,0.376,0.74,0.376
				c0.159-0.021,0.681-0.237,2.06-1.142c31.813-20.842,52.854-49.771,62.541-85.984c1.862-6.963,2.929-14.29,4.058-22.047
				c0.115-0.796,0.232-1.597,0.351-2.404c-23.179,10.146-46.384,15.282-69.102,15.282C376.57,561.48,353.55,556.373,330.687,546.284
				z M491.764,532.685c20.482,9.154,41.221,13.794,61.67,13.795c0.001,0,0.003,0,0.003,0c21.136,0,42.614-4.958,63.841-14.737
				c2.192-1.011,4.911-2.263,5.485-2.873c0.261-0.845-0.045-4.014-0.29-6.57c-4.369-45.501-25.212-82.069-61.964-108.731
				c-2.663,25.016-9.785,47.659-21.217,67.409C527.926,500.611,511.959,517.978,491.764,532.685z M177.156,529.354
				c22.412,11.311,45.255,17.045,67.9,17.046c0,0,0.006,0,0.007,0c20.297,0,41.166-4.608,62.154-13.712
				c-40.613-29.644-63.728-69.528-68.819-118.752c-18.54,13.22-33.086,28.948-43.271,46.816
				c-11.18,19.615-17.448,42.416-18.635,67.775C176.65,528.812,176.951,529.193,177.156,529.354z M337.819,532.631
				c18.727,8.932,39.903,13.62,61.754,13.621c21.868,0,43.373-4.833,61.444-13.713c-16.046-11.427-29.598-25.005-40.354-40.449
				c-8.664-12.436-15.647-26.415-21.156-42.402C388.089,483.545,367.405,511.365,337.819,532.631z M161.106,280.352
				c-19.282,14.447-34.184,30.971-44.366,49.209c-11.651,20.869-17.521,44.715-17.449,70.875c0.071,26.03,6.052,49.75,17.773,70.502
				c10.227,18.104,25.146,34.527,44.415,48.911c2.331-24.96,9.337-47.207,21.312-67.766c12.057-20.704,27.94-37.816,48.416-52.126
				c-20.546-14.167-36.598-31.427-48.931-52.577C170.598,327.35,163.639,305.345,161.106,280.352z M440.199,423.988
				c29.438,34.24,32.071,41.766,42.954,95.653c16.81-10.725,32.014-27.207,43.298-47.067c10.904-19.193,17.379-40.081,18.591-59.663
				c-18.005,8.314-36.106,13.114-55.094,14.63c-4.468,0.357-8.969,0.538-13.377,0.538
				C464.354,428.079,452.34,426.733,440.199,423.988z M253.964,412.985c0.973,18.66,7.033,38.812,17.412,57.577
				c11.254,20.348,26.397,37.141,44.104,48.99c3.475-36.133,17.341-68.029,41.331-95.115c-11.664,2.38-23.229,3.581-34.548,3.581
				C299.047,428.02,276.108,422.967,253.964,412.985z M567.77,399.955c41.1,29.552,64.521,69.658,69.728,119.405
				c17.238-11.325,32.541-28.025,43.617-47.74c14.51-25.827,20.791-55.307,18.165-85.252c-2.776-31.643-15.931-56.158-26.476-71.153
				c-10.468-14.883-23.282-27.338-35.349-34.553c-2.563,24.77-9.68,47.286-21.198,67.029
				C604.712,367.479,588.419,385.035,567.77,399.955z M391.458,414.223c-35.485,26.282-55.407,60.648-60.634,104.623
				c15.021-10.096,30.446-27.656,42.539-48.738C385.055,449.725,391.597,429.212,391.458,414.223z M407.893,414.918
				c3.38,40.4,27.312,81.595,60.123,103.566C463.796,472.956,435.952,433.459,407.893,414.918z M416.646,399.934
				c16.399,8.229,37.562,12.854,59.51,12.854c21.782,0,42.819-4.52,60.261-12.843c-17.986-8.441-38.595-12.869-60.17-12.869
				C454.801,387.076,433.983,391.603,416.646,399.934z M262.659,399.805c16.586,8.158,37.61,12.736,59.2,12.738
				c0.002,0,0.007,0,0.009,0c21.476,0,42.472-4.506,60.191-12.812c-19.994-8.459-40.023-12.741-59.667-12.741
				C302.691,386.99,282.64,391.296,262.659,399.805z M315.431,280.462c-34.358,22.812-59.11,65.736-61.583,106.932
				c29.805-10.628,46.168-15.75,65.104-15.75c11.158,0,23.166,1.783,39.216,4.87C333.36,349.535,319.021,317.317,315.431,280.462z
				 M476.688,371.78c22.983,0,46.011,5.146,68.574,15.312c-5.019-45.254-25.471-80.478-62.286-107.28
				c-7.426,47.114-13.128,60.749-43.511,96.302C451.992,373.234,464.457,371.78,476.688,371.78z M176.714,270.93
				c-0.326,0.417-0.726,1.363-0.746,1.806c2.521,43.881,21.013,80.273,54.96,108.097c2.328,1.909,4.86,3.71,7.53,5.56
				c2.629-24.981,9.716-47.597,21.114-67.329c11.336-19.624,27.285-37.001,47.478-51.744c-20.56-9.186-41.245-13.835-61.589-13.835
				C222.608,253.483,199.479,259.354,176.714,270.93z M330.707,280.788c1.326,18.421,8.973,40.959,21.253,62.074
				c11.861,20.395,26.409,36.271,39.334,43.28C390.632,351.084,361.108,299.912,330.707,280.788z M491.9,267.118
				c51.999,37.482,65.662,87.498,68.701,118.975c18.36-13.227,32.809-28.906,43.011-46.688c11.186-19.495,17.63-42.15,19.156-67.338
				c0.043-0.701-0.056-0.942-0.057-0.944c-0.064-0.094-0.387-0.413-1.878-1.173c-21.254-10.826-43.725-16.315-66.79-16.315
				c-10.073,0-20.466,1.047-30.887,3.11C511.824,258.99,501.526,262.403,491.9,267.118z M467.473,281.875
				c-32.612,22.354-56.663,63.91-59.452,102.754C439.958,363.524,464.392,321.291,467.473,281.875z M337.855,267.419
				c29.38,20.989,50.029,48.72,61.59,82.682c11.46-33.835,32.097-61.572,61.542-82.688c-17.604-8.83-39.121-13.635-61.496-13.635
				C377.174,253.777,355.606,258.585,337.855,267.419z M415.002,134.09c40.491,29.536,63.468,69.892,68.398,120.143
				c23.391-10.524,46.976-15.855,70.204-15.855c22.701,0,45.676,5.092,68.399,15.145c-2.593-39.558-26.27-88.631-75.809-115.688
				c-20.999-11.471-45.237-17.533-70.094-17.533C453.982,120.301,432.174,125.271,415.002,134.09z M245.622,238.397
				c23.106,0,46.51,5.278,69.671,15.701c4.899-50.133,28.027-90.533,68.855-120.281c-18.338-9.071-39.311-13.836-61.148-13.836
				c-29.01,0-57.824,8.59-81.138,24.188c-38.889,26.019-60.384,61.947-65.53,109.649
				C199.456,243.581,222.727,238.397,245.622,238.397z M399.762,142.736c-0.672,0-1.28,0.166-1.456,0.255
				c-30.49,19.466-51.374,46.885-62.015,81.462c-3.119,10.136-4.957,19.625-5.644,29.299c21.799-10.262,44.263-15.295,68.406-15.355
				l0.44-0.001c23.69,0,46.604,5.072,68.229,15.089c-2.208-22.737-8.641-43.289-19.154-61.164
				c-11.271-19.161-27.576-35.837-48.467-49.567C400.023,142.744,399.91,142.736,399.762,142.736z"/>
		</g>
	</g>
</g>
</svg>
