<?xml version="1.0" encoding="utf-8"?>
<!-- Generator: Adobe Illustrator 16.0.0, SVG Export Plug-In . SVG Version: 6.00 Build 0)  -->
<!DOCTYPE svg PUBLIC "-//W3C//DTD SVG 1.1//EN" "http://www.w3.org/Graphics/SVG/1.1/DTD/svg11.dtd">
<svg version="1.1" id="Layer_1" xmlns="http://www.w3.org/2000/svg" xmlns:xlink="http://www.w3.org/1999/xlink" x="0px" y="0px"
	 width="800px" height="800px" viewBox="0 0 800 800" enable-background="new 0 0 800 800" xml:space="preserve">
<path fill="#9277B4" d="M400.154,779.873c-51.344,0-101.142-10.045-148.01-29.855c-45.277-19.14-85.945-46.542-120.873-81.448
	c-34.928-34.905-62.347-75.546-81.496-120.793c-19.822-46.835-29.873-96.597-29.873-147.903S29.953,298.805,49.775,251.97
	c19.149-45.247,46.568-85.888,81.496-120.793c34.928-34.906,75.596-62.309,120.873-81.448
	c46.868-19.811,96.666-29.855,148.01-29.855s101.142,10.045,148.009,29.855c45.278,19.14,85.946,46.542,120.874,81.448
	c34.928,34.905,62.347,75.546,81.497,120.793c19.821,46.835,29.872,96.597,29.872,147.903s-10.051,101.068-29.872,147.903
	c-19.15,45.247-46.569,85.888-81.497,120.793c-34.928,34.906-75.596,62.309-120.874,81.448
	C501.296,769.828,451.498,779.873,400.154,779.873z"/>
<path fill="#5A3E81" d="M400.078,39.873c48.654,0,95.832,9.514,140.223,28.277c42.894,18.132,81.425,44.097,114.522,77.173
	c33.095,33.075,59.075,71.579,77.217,114.442c18.771,44.354,28.29,91.493,28.29,140.107s-9.519,95.754-28.29,140.107
	c-18.142,42.863-44.122,81.367-77.217,114.442c-33.098,33.077-71.629,59.041-114.522,77.173
	c-44.391,18.764-91.568,28.277-140.223,28.277s-95.832-9.514-140.223-28.277c-42.895-18.132-81.426-44.096-114.522-77.173
	c-33.096-33.075-59.075-71.579-77.216-114.442c-18.772-44.354-28.291-91.493-28.291-140.107s9.519-95.753,28.291-140.107
	c18.141-42.863,44.12-81.367,77.216-114.442c33.097-33.076,71.628-59.041,114.522-77.173
	C304.246,49.387,351.424,39.873,400.078,39.873 M400.078-0.127c-221.053,0-400.252,179.086-400.252,400s179.199,400,400.252,400
	s400.252-179.086,400.252-400S621.131-0.127,400.078-0.127L400.078-0.127z"/>
<g>
	<polygon fill-rule="evenodd" clip-rule="evenodd" fill="#FFFCEB" points="326.228,329.373 296.428,299.573 278.258,317.743 
		326.228,365.713 327.439,364.502 344.397,347.543 423.247,268.694 405.076,250.523 	"/>
</g>
<g>
	<g>
		<path fill="#FFFCEB" d="M480.826,437.255c-8.719,8.524-18.371,16.229-28.688,22.901c-84.709,54.775-198.189,30.426-252.965-54.281
			c-47.068-72.789-36.305-169.542,25.592-230.061c8.719-8.523,18.369-16.229,28.688-22.901
			c84.707-54.775,198.185-30.424,252.963,54.282C553.484,279.982,542.723,376.737,480.826,437.255z M265.529,217.508
			c-42.147,41.207-49.463,107.113-17.391,156.706c37.316,57.708,114.629,74.296,172.336,36.979
			c7.057-4.562,13.646-9.822,19.589-15.631c42.147-41.209,49.46-107.111,17.39-156.706
			c-37.318-57.708-114.629-74.298-172.338-36.981C278.061,206.438,271.472,211.698,265.529,217.508z"/>
	</g>
	<g>
		<path fill="#FFFCEB" d="M509.5,561.003c-0.719,0.658-1.509,1.259-2.371,1.79c-6.947,4.271-15.769,2.305-19.703-4.395
			L428.06,457.302c-3.934-6.701-1.501-15.59,5.454-19.87c6.947-4.272,15.77-2.305,19.703,4.394l59.368,101.098
			C516.029,548.793,514.584,556.348,509.5,561.003z"/>
	</g>
	<g>
		<path fill="#FFFCEB" d="M451.785,547.201c-6.119-9.684-2.918-23.031,7.115-29.662l28.225-18.656
			c10.033-6.63,23.248-4.131,29.367,5.553l80.975,128.151c6.119,9.685,2.918,23.032-7.113,29.663l-28.227,18.657
			c-10.033,6.63-23.248,4.132-29.365-5.552L451.785,547.201z"/>
	</g>
</g>
</svg>
