<?xml version="1.0" encoding="utf-8"?>
<!-- Generator: Adobe Illustrator 16.0.0, SVG Export Plug-In . SVG Version: 6.00 Build 0)  -->
<!DOCTYPE svg PUBLIC "-//W3C//DTD SVG 1.1//EN" "http://www.w3.org/Graphics/SVG/1.1/DTD/svg11.dtd">
<svg version="1.1" id="Layer_1" xmlns="http://www.w3.org/2000/svg" xmlns:xlink="http://www.w3.org/1999/xlink" x="0px" y="0px"
	 width="800px" height="800px" viewBox="0 0 800 800" enable-background="new 0 0 800 800" xml:space="preserve">
<g>
	<path fill="#DC2729" d="M400.46,780.319c-51.344,0-101.142-10.045-148.01-29.855c-45.277-19.139-85.945-46.541-120.873-81.447
		S69.23,593.47,50.081,548.224c-19.822-46.836-29.873-96.598-29.873-147.904s10.051-101.068,29.873-147.902
		c19.149-45.248,46.568-85.889,81.496-120.793c34.928-34.906,75.596-62.309,120.873-81.449
		c46.868-19.811,96.666-29.855,148.01-29.855s101.142,10.045,148.009,29.855c45.278,19.141,85.946,46.543,120.874,81.449
		c34.928,34.904,62.347,75.545,81.497,120.793c19.821,46.834,29.872,96.596,29.872,147.902s-10.051,101.068-29.872,147.904
		c-19.15,45.246-46.569,85.887-81.497,120.793s-75.596,62.309-120.874,81.447C501.602,770.274,451.804,780.319,400.46,780.319z"/>
	<path fill="#871811" d="M400.46,40.319c48.654,0,95.832,9.514,140.223,28.277c42.894,18.133,81.425,44.098,114.522,77.174
		c33.096,33.074,59.075,71.578,77.217,114.441c18.771,44.355,28.29,91.494,28.29,140.107c0,48.615-9.519,95.754-28.29,140.107
		c-18.142,42.863-44.121,81.367-77.217,114.443c-33.098,33.076-71.629,59.041-114.522,77.172
		c-44.391,18.764-91.568,28.277-140.223,28.277s-95.832-9.514-140.223-28.277c-42.895-18.131-81.426-44.096-114.522-77.172
		c-33.096-33.076-59.075-71.58-77.216-114.443c-18.772-44.354-28.291-91.492-28.291-140.107c0-48.613,9.519-95.752,28.291-140.107
		c18.141-42.863,44.12-81.367,77.216-114.441c33.097-33.076,71.628-59.041,114.522-77.174
		C304.628,49.833,351.806,40.319,400.46,40.319 M400.46,0.319c-221.053,0-400.252,179.086-400.252,400s179.199,400,400.252,400
		s400.252-179.086,400.252-400S621.513,0.319,400.46,0.319L400.46,0.319z"/>
	<path fill="#FFFCEB" d="M237.702,506.141l-103.528-49.156c-11.681-5.536-18.764-14.14-18.764-26.121v-3.051
		c0-11.989,7.083-20.593,18.764-26.12l103.528-49.165c3.701-1.852,7.078-3.077,11.385-3.077c9.829-0.3,18.738,8.278,18.738,19.368
		c0,8.904-4.928,15.031-12.911,18.733l-92.794,41.486l92.794,41.479c7.983,3.676,12.911,10.755,12.911,19.342
		c0,11.381-8.909,19.359-20.289,19.06C244.155,508.918,240.778,507.692,237.702,506.141z"/>
	<path fill="#FFFCEB" d="M561.379,352.527l103.527,49.165c11.681,5.527,18.764,14.131,18.764,26.12v3.051
		c0,11.981-7.083,20.585-18.764,26.121l-103.527,49.156c-3.702,1.852-7.079,3.077-11.386,3.077
		c-9.829,0.3-18.737-8.278-18.737-19.359c0-8.913,4.928-15.04,12.91-18.742l92.794-41.479l-92.794-41.486
		c-7.982-3.676-12.91-10.755-12.91-19.333c0-11.39,8.908-19.368,20.289-19.068C554.926,349.75,558.302,350.976,561.379,352.527z"/>
	<g>
		<g>
			<path fill="#FFFCEB" d="M409.36,397.098c-8.365,0-16.795-0.85-25.055-2.525c-67.82-13.756-111.806-80.122-98.051-147.942
				c11.82-58.277,63.502-100.575,122.887-100.575c8.365,0,16.795,0.85,25.056,2.525c67.819,13.756,111.804,80.122,98.049,147.942
				C520.426,354.8,468.745,397.098,409.36,397.098z M409.142,186.055c-40.437,0-75.632,28.819-83.686,68.526
				c-9.37,46.204,20.596,91.418,66.801,100.79c5.648,1.146,11.403,1.727,17.104,1.727c40.437,0,75.631-28.819,83.685-68.526
				c9.37-46.204-20.596-91.418-66.799-100.79C420.598,186.636,414.843,186.055,409.142,186.055z"/>
		</g>
		<g>
			<path fill="#FFFCEB" d="M363.94,512.579c-0.988,0-1.99-0.098-2.997-0.302c-8.119-1.647-13.366-9.563-11.72-17.683l24.846-122.506
				c1.647-8.118,9.552-13.367,17.683-11.72c8.119,1.647,13.366,9.563,11.72,17.683l-24.846,122.506
				C377.183,507.67,370.928,512.579,363.94,512.579z"/>
		</g>
		<g>
			<path fill="#FFFCEB" d="M334.311,449.166c2.187-10.779,12.796-17.812,23.576-15.625l30.333,6.152
				c10.78,2.187,17.812,12.797,15.625,23.576l-28.933,142.656c-2.187,10.781-12.796,17.812-23.576,15.627l-30.334-6.152
				c-10.78-2.188-17.812-12.797-15.625-23.576L334.311,449.166z"/>
		</g>
	</g>
</g>
</svg>
