<?xml version="1.0" encoding="utf-8"?>
<!-- Generator: Adobe Illustrator 16.0.0, SVG Export Plug-In . SVG Version: 6.00 Build 0)  -->
<!DOCTYPE svg PUBLIC "-//W3C//DTD SVG 1.1//EN" "http://www.w3.org/Graphics/SVG/1.1/DTD/svg11.dtd">
<svg version="1.1" id="Layer_1" xmlns="http://www.w3.org/2000/svg" xmlns:xlink="http://www.w3.org/1999/xlink" x="0px" y="0px"
	 width="800px" height="800px" viewBox="0 0 800 800" enable-background="new 0 0 800 800" xml:space="preserve">
<path fill="#FFCB00" d="M400.451,780.319c-51.344,0-101.142-10.045-148.01-29.855c-45.277-19.139-85.945-46.541-120.873-81.447
	S69.222,593.47,50.072,548.224c-19.822-46.836-29.873-96.598-29.873-147.904S30.25,299.251,50.072,252.417
	c19.149-45.248,46.568-85.889,81.496-120.793c34.928-34.906,75.596-62.309,120.873-81.449
	c46.868-19.811,96.666-29.855,148.01-29.855S501.593,30.364,548.46,50.175c45.278,19.141,85.946,46.543,120.874,81.449
	c34.928,34.904,62.347,75.545,81.497,120.793c19.821,46.834,29.872,96.596,29.872,147.902s-10.051,101.068-29.872,147.904
	c-19.15,45.246-46.569,85.887-81.497,120.793s-75.596,62.309-120.874,81.447C501.593,770.274,451.795,780.319,400.451,780.319z"/>
<g opacity="0.5">
	<polygon fill="#FFFCEB" points="400.002,400.319 320.096,13 400.002,13 479.906,13 	"/>
	<polygon fill="#FFFCEB" points="400,399.681 479.906,787 400,787 320.096,787 	"/>
	<polygon fill="#FFFCEB" points="400.319,399.998 13,479.904 13,399.998 13,320.094 	"/>
	<polygon fill="#FFFCEB" points="399.681,400 787,320.094 787,400 787,479.904 	"/>
	<polygon fill="#FFFCEB" points="400.226,399.771 182.851,730.15 126.349,673.648 69.849,617.146 	"/>
	<polygon fill="#FFFCEB" points="399.774,400.225 617.148,69.847 673.65,126.349 730.151,182.85 	"/>
	<polygon fill="#FFFCEB" points="399.772,399.774 730.151,617.149 673.649,673.651 617.147,730.151 	"/>
	<polygon fill="#FFFCEB" points="400.226,400.226 69.848,182.852 126.35,126.35 182.851,69.849 	"/>
</g>
<path fill="#F28F06" d="M400.451,40.319c48.654,0,95.832,9.514,140.223,28.277c42.894,18.133,81.425,44.098,114.522,77.174
	c33.096,33.074,59.075,71.578,77.217,114.441c18.771,44.355,28.29,91.494,28.29,140.107c0,48.615-9.519,95.754-28.29,140.107
	c-18.142,42.863-44.121,81.367-77.217,114.443c-33.098,33.076-71.629,59.041-114.522,77.172
	c-44.391,18.764-91.568,28.277-140.223,28.277s-95.832-9.514-140.223-28.277c-42.895-18.131-81.426-44.096-114.522-77.172
	c-33.096-33.076-59.075-71.58-77.216-114.443c-18.772-44.354-28.291-91.492-28.291-140.107c0-48.613,9.519-95.752,28.291-140.107
	c18.141-42.863,44.12-81.367,77.216-114.441c33.097-33.076,71.628-59.041,114.522-77.174
	C304.619,49.833,351.797,40.319,400.451,40.319 M400.451,0.319c-221.053,0-400.252,179.086-400.252,400s179.199,400,400.252,400
	s400.252-179.086,400.252-400S621.504,0.319,400.451,0.319L400.451,0.319z"/>
<g>
	<g>
		<g>
			<path fill-rule="evenodd" clip-rule="evenodd" fill="#F28F06" d="M404.035,668.291c-58.902-0.645-108.859-13.71-154.146-42.64
				c-5.814-3.715-11.838-9.131-14.549-15.195c-4.133-9.256,1.473-16.109,6.975-25.4C249.75,572.5,282.773,505.953,292,512
				c44.223,28.985,59.578,42.209,112,39c42.951-2.629,69.793-19.901,107-42c15.992-9.498,57.871,73.354,61.426,89.569
				c2.715,12.383-3.639,20.449-13.842,26.635c-36.441,22.094-76.105,34.666-118.146,40.033
				C426.598,667.004,412.605,667.597,404.035,668.291z"/>
		</g>
		<g>
			<path fill-rule="evenodd" clip-rule="evenodd" fill="#FFFCEB" d="M596.203,350.095
				c-1.209,101.491-70.506,185.255-169.947,199.744c-72.316,10.539-132.484-15.673-178.104-72.559
				c-67.193-83.788-56.947-209.683,23.289-280.711c55.938-49.518,121.172-63.581,191.709-38.523
				c72.389,25.715,113.852,79.807,128.943,154.439C594.582,324.797,594.889,337.548,596.203,350.095z"/>
		</g>
		<g>
			<path fill-rule="evenodd" clip-rule="evenodd" fill="#FFCB00" d="M325.363,455.803c-48.449-18.612-81.834-72.397-81.078-127.399
				c0.83-60.327,37.045-111.881,91.832-130.723c44.816-15.409,102.676-3.091,127.477,27.273
				c-61.414-16.488-112.422-1.075-150.943,50.06c-20.297,26.942-28.24,58.263-26.16,91.735
				C288.559,400.028,301.629,429.157,325.363,455.803z"/>
		</g>
	</g>
</g>
</svg>
