<?xml version="1.0" encoding="utf-8"?>
<!-- Generator: Adobe Illustrator 16.0.0, SVG Export Plug-In . SVG Version: 6.00 Build 0)  -->
<!DOCTYPE svg PUBLIC "-//W3C//DTD SVG 1.1//EN" "http://www.w3.org/Graphics/SVG/1.1/DTD/svg11.dtd">
<svg version="1.1" id="Layer_1" xmlns="http://www.w3.org/2000/svg" xmlns:xlink="http://www.w3.org/1999/xlink" x="0px" y="0px"
	 width="800px" height="800px" viewBox="0 0 800 800" enable-background="new 0 0 800 800" xml:space="preserve">
<path fill="#9277B4" d="M399.219,780c-51.344,0-101.142-10.045-148.01-29.855c-45.277-19.14-85.945-46.542-120.873-81.448
	C95.408,633.791,67.989,593.15,48.84,547.903C29.018,501.068,18.967,451.307,18.967,400S29.018,298.932,48.84,252.097
	c19.149-45.247,46.568-85.888,81.496-120.793c34.928-34.906,75.596-62.309,120.873-81.448C298.077,30.045,347.875,20,399.219,20
	S500.36,30.045,547.228,49.855c45.278,19.14,85.946,46.542,120.874,81.448c34.928,34.905,62.347,75.546,81.497,120.793
	c19.821,46.835,29.872,96.597,29.872,147.903s-10.051,101.068-29.872,147.903c-19.15,45.247-46.569,85.888-81.497,120.793
	c-34.928,34.906-75.596,62.309-120.874,81.448C500.36,769.955,450.562,780,399.219,780z"/>
<path fill="none" stroke="#FFFCEB" stroke-width="20" stroke-linecap="round" stroke-linejoin="round" stroke-miterlimit="10" d="
	M621.952,307.668c0,0-18,70-88.351,66.304"/>
<path fill="none" stroke="#FFFCEB" stroke-width="20" stroke-linecap="round" stroke-linejoin="round" stroke-miterlimit="10" d="
	M177.556,307.668c0,0,18,70,88.351,66.304"/>
<path fill="#5A3E81" d="M399.219,40c48.654,0,95.832,9.514,140.223,28.277c42.894,18.132,81.425,44.097,114.522,77.173
	c33.096,33.075,59.075,71.579,77.217,114.442c18.771,44.354,28.29,91.493,28.29,140.107s-9.519,95.753-28.29,140.107
	c-18.142,42.863-44.121,81.367-77.217,114.442c-33.098,33.077-71.629,59.041-114.522,77.173
	C495.051,750.486,447.873,760,399.219,760s-95.832-9.514-140.223-28.277c-42.895-18.132-81.426-44.096-114.522-77.173
	c-33.096-33.075-59.075-71.579-77.216-114.442C48.485,495.753,38.967,448.614,38.967,400s9.519-95.753,28.291-140.107
	c18.141-42.863,44.12-81.367,77.216-114.442c33.097-33.076,71.628-59.041,114.522-77.173C303.387,49.514,350.564,40,399.219,40
	 M399.219,0C178.166,0-1.033,179.086-1.033,400s179.199,400,400.252,400s400.252-179.086,400.252-400S620.271,0,399.219,0L399.219,0
	z"/>
<ellipse fill="#FFFCEB" cx="399.619" cy="437.334" rx="145" ry="196"/>
<path fill="none" stroke="#9277B4" stroke-width="20" stroke-miterlimit="10" d="M265.906,343c0,0,137.857,69.003,267.695,2"/>
<path fill="none" stroke="#FFFCEB" stroke-width="20" stroke-linecap="round" stroke-linejoin="round" stroke-miterlimit="10" d="
	M376.758,243.761c0,0-9.805-58.093-60.805-77.093"/>
<path fill="none" stroke="#FFFCEB" stroke-width="20" stroke-linecap="round" stroke-linejoin="round" stroke-miterlimit="10" d="
	M431.953,243.761c0,0,9.805-58.093,60.805-77.093"/>
<path fill="none" stroke="#FFFCEB" stroke-width="20" stroke-linecap="round" stroke-linejoin="round" stroke-miterlimit="10" d="
	M528.555,539.715c0,0,70,18,66.305,88.351"/>
<path fill="none" stroke="#FFFCEB" stroke-width="20" stroke-linecap="round" stroke-linejoin="round" stroke-miterlimit="10" d="
	M538.555,430.715c0,0,70,18,66.305,88.351"/>
<path fill="none" stroke="#FFFCEB" stroke-width="20" stroke-linecap="round" stroke-linejoin="round" stroke-miterlimit="10" d="
	M270.953,539.715c0,0-70,18-66.305,88.351"/>
<path fill="none" stroke="#FFFCEB" stroke-width="20" stroke-linecap="round" stroke-linejoin="round" stroke-miterlimit="10" d="
	M260.953,430.715c0,0-70,18-66.305,88.351"/>
<path fill="none" stroke="#9277B4" stroke-width="20" stroke-miterlimit="10" d="M412.619,379.334c0,0-8.737,169.006,67.136,231.334
	"/>
<path fill="none" stroke="#9277B4" stroke-width="20" stroke-miterlimit="10" d="M395.773,379.334c0,0,6.521,169.006-69.353,231.334
	"/>
<rect x="389.089" y="-1.735" transform="matrix(0.7071 -0.7071 0.7071 0.7071 -144.4324 411.9754)" fill="#5A3E81" width="72" height="764.141"/>
</svg>
