<?xml version="1.0" encoding="utf-8"?>
<!-- Generator: Adobe Illustrator 16.0.0, SVG Export Plug-In . SVG Version: 6.00 Build 0)  -->
<!DOCTYPE svg PUBLIC "-//W3C//DTD SVG 1.1//EN" "http://www.w3.org/Graphics/SVG/1.1/DTD/svg11.dtd">
<svg version="1.1" id="Layer_1" xmlns="http://www.w3.org/2000/svg" xmlns:xlink="http://www.w3.org/1999/xlink" x="0px" y="0px"
	 width="800px" height="800px" viewBox="0 0 800 800" enable-background="new 0 0 800 800" xml:space="preserve">
<path fill="#FFCB00" d="M399.465,780.299c-51.344,0-101.142-10.045-148.01-29.855c-45.277-19.14-85.945-46.542-120.873-81.448
	c-34.928-34.905-62.347-75.546-81.496-120.793c-19.822-46.835-29.873-96.597-29.873-147.903S29.264,299.23,49.086,252.396
	c19.149-45.247,46.568-85.888,81.496-120.793c34.928-34.906,75.596-62.309,120.873-81.448
	c46.868-19.811,96.666-29.855,148.01-29.855s101.142,10.045,148.009,29.855c45.278,19.14,85.946,46.542,120.874,81.448
	c34.928,34.905,62.347,75.546,81.497,120.793c19.821,46.835,29.872,96.597,29.872,147.903s-10.051,101.068-29.872,147.903
	c-19.15,45.247-46.569,85.888-81.497,120.793c-34.928,34.906-75.596,62.309-120.874,81.448
	C500.606,770.254,450.809,780.299,399.465,780.299z"/>
<path fill="#FFFCEB" stroke="#FFCB00" stroke-width="20" stroke-miterlimit="10" d="M547,634c0,0,103-91,100-143l-15-64
	c0,0,37-25,139,14l-22,135L626.989,704.834L547,696V634z"/>
<path fill="#FFFCEB" stroke="#FFCB00" stroke-width="20" stroke-miterlimit="10" d="M250,634c0,0-103-91-100-143l15-64
	c0,0-37-25-139,14l22,135l122.011,128.834L250,696V634z"/>
<path fill="#FFFCEB" stroke="#FFCB00" stroke-width="20" stroke-miterlimit="10" d="M610.736,705.051
	C511.742,658.812,505.761,484,505.761,484H293.729c0,0-34.222,194.908-118.218,230.908l182.968,71.009l128.752-6.042
	L610.736,705.051z"/>
<g>
	<g>
		<path fill="#FFFCEB" stroke="#FFCB00" stroke-width="20" stroke-miterlimit="10" d="M313.999,599.259
			c15.578-24.829,11.457-39.203,11.457-39.203c-20.615-55.967-62.363-103.135-62.807-141.936
			c-0.193-16.878,19.617-42.396,17.584-65.185c-2.033-22.791-35.07-85.315-35.07-85.315s-21.518-77.43,8.17-74.62
			c0,0,96.039,104.917,142.99,106.149l7.25,0.01C450.528,298.087,547,192.925,547,192.925c29.691-2.711,7.837,75.274,7.837,75.274
			s-33.246,62.408-35.355,85.193c-2.109,22.782,17.61,48.385,17.361,65.268c-0.573,38.812-42.473,85.887-63.283,141.78
			c0,0-4.166,14.226,11.33,39.108c0,0-61.845,44.386-86.035,44.285C374.892,643.734,313.999,599.259,313.999,599.259z"/>
		<g>
			<path fill="#F39006" d="M310.019,393.5l50.241,51C360.26,444.5,312.519,462.5,310.019,393.5z"/>
		</g>
		<g>
			<path fill="#F39006" d="M493.261,393.5l-50.241,51C443.02,444.5,490.761,462.5,493.261,393.5z"/>
		</g>
	</g>
	<polygon fill="#F28F06" points="441.521,295.662 400,152 358.479,297.783 401.202,396 	"/>
</g>
<path fill="#F28F06" d="M399.465,40.299c48.654,0,95.832,9.514,140.223,28.277c42.894,18.132,81.425,44.097,114.522,77.173
	c33.096,33.075,59.075,71.579,77.217,114.442c18.771,44.354,28.29,91.493,28.29,140.107s-9.519,95.753-28.29,140.107
	c-18.142,42.863-44.121,81.367-77.217,114.442c-33.098,33.076-71.629,59.041-114.522,77.173
	c-44.391,18.764-91.568,28.277-140.223,28.277s-95.832-9.514-140.223-28.277c-42.895-18.132-81.426-44.097-114.522-77.173
	c-33.096-33.075-59.075-71.579-77.216-114.442c-18.772-44.354-28.291-91.493-28.291-140.107s9.519-95.753,28.291-140.107
	c18.141-42.863,44.12-81.367,77.216-114.442c33.097-33.076,71.628-59.041,114.522-77.173
	C303.633,49.812,350.811,40.299,399.465,40.299 M399.465,0.299c-221.053,0-400.252,179.086-400.252,400s179.199,400,400.252,400
	s400.252-179.086,400.252-400S620.518,0.299,399.465,0.299L399.465,0.299z"/>
</svg>
