<?xml version="1.0" encoding="utf-8"?>
<!-- Generator: Adobe Illustrator 16.0.0, SVG Export Plug-In . SVG Version: 6.00 Build 0)  -->
<!DOCTYPE svg PUBLIC "-//W3C//DTD SVG 1.1//EN" "http://www.w3.org/Graphics/SVG/1.1/DTD/svg11.dtd">
<svg version="1.1" id="Layer_1" xmlns="http://www.w3.org/2000/svg" xmlns:xlink="http://www.w3.org/1999/xlink" x="0px" y="0px"
	 width="800px" height="800px" viewBox="0 0 800 800" enable-background="new 0 0 800 800" xml:space="preserve">
<g>
	<ellipse fill="#F39006" cx="400" cy="400.384" rx="400.252" ry="400"/>
</g>
<path fill="#BE5417" d="M400,40c48.654,0,95.832,9.514,140.223,28.277c42.894,18.132,81.425,44.097,114.522,77.173
	c33.096,33.075,59.075,71.579,77.217,114.442c18.771,44.354,28.29,91.493,28.29,140.107s-9.519,95.753-28.29,140.107
	c-18.142,42.863-44.121,81.367-77.217,114.442c-33.098,33.076-71.629,59.041-114.522,77.173C495.833,750.486,448.655,760,400,760
	s-95.832-9.514-140.223-28.277c-42.895-18.132-81.426-44.097-114.522-77.173C112.16,621.475,86.18,582.971,68.04,540.107
	C49.267,495.753,39.749,448.614,39.749,400s9.519-95.753,28.291-140.107c18.141-42.863,44.12-81.367,77.216-114.442
	c33.097-33.076,71.628-59.041,114.522-77.173C304.168,49.514,351.346,40,400,40 M400,0C178.948,0-0.251,179.086-0.251,400
	S178.948,800,400,800s400.252-179.086,400.252-400S621.053,0,400,0L400,0z"/>
<ellipse fill-rule="evenodd" clip-rule="evenodd" fill="#BE5417" cx="400" cy="520.552" rx="302.941" ry="69.5"/>
<g>
	<path fill-rule="evenodd" clip-rule="evenodd" fill="#FFFCEB" d="M449.737,485.15c-20.17-20.17,45.947-102.188,59.333-52.666
		c4.524,16.738,65.689,69.034,77.959,65.567c32.116-9.066,54.282,3.119,63.524,31.654c8.35,25.793-8.348,52.693-37.027,45.027
		c-12.79-3.419-25.457-6.752-23.207,22.998c2.211,29.229-28.574,54.482-54.143,46.43c-25.803-8.127-42.803-32.023-34.926-58.633
		C507.823,563.304,467.737,503.15,449.737,485.15z"/>
	<g>
		<path fill-rule="evenodd" clip-rule="evenodd" fill="#FAD39B" d="M523.722,428.419c-5.308-42.075-12.491-83.645-26.311-123.054
			c-7.714,4.821-16.824,7.618-26.592,7.618c-27.752,0-50.25-22.498-50.25-50.25c0-11.652,0.637-52.333-4.833-54.917
			c-9.008,8.545-23.521,33.167-36.917,33.167c-27.752,0-50.25-22.498-50.25-50.25c0-13.712,5.499-26.135,14.403-35.202
			c-16.548-1.361-33.322,0.404-49.718,5.503c-69.072,21.482-117.949,81.745-118.732,161.002
			c0.426,28.268,18.855,63.316,51.42,91.773c43.054,37.631,95.753,56.605,150.569,71.176c78.092,20.744,81.427,20,137.081-35.763
			C518.912,443.89,524.549,434.942,523.722,428.419z"/>
	</g>
</g>
</svg>
