<?xml version="1.0" encoding="utf-8"?>
<!-- Generator: Adobe Illustrator 16.0.0, SVG Export Plug-In . SVG Version: 6.00 Build 0)  -->
<!DOCTYPE svg PUBLIC "-//W3C//DTD SVG 1.1//EN" "http://www.w3.org/Graphics/SVG/1.1/DTD/svg11.dtd">
<svg version="1.1" id="Layer_1" xmlns="http://www.w3.org/2000/svg" xmlns:xlink="http://www.w3.org/1999/xlink" x="0px" y="0px"
	 width="800px" height="800px" viewBox="0 0 800 800" enable-background="new 0 0 800 800" xml:space="preserve">
<path fill="#FFCB00" d="M406.372,796.336c-51.344,0-101.142-10.046-148.01-29.856c-45.276-19.139-85.944-46.541-120.873-81.447
	c-34.928-34.905-62.347-75.547-81.496-120.793c-19.822-46.836-29.874-96.598-29.874-147.903c0-51.308,10.052-101.069,29.874-147.903
	c19.149-45.248,46.568-85.889,81.496-120.793c34.929-34.906,75.597-62.309,120.873-81.449
	c46.868-19.811,96.666-29.855,148.01-29.855c51.343,0,101.142,10.045,148.009,29.855c45.279,19.141,85.947,46.543,120.873,81.449
	c34.93,34.904,62.348,75.545,81.498,120.793c19.822,46.834,29.873,96.596,29.873,147.903c0,51.306-10.051,101.067-29.873,147.903
	c-19.15,45.246-46.568,85.888-81.498,120.793c-34.926,34.906-75.594,62.309-120.873,81.447
	C507.514,786.29,457.715,796.336,406.372,796.336z"/>
<path fill="#F28F06" d="M400.832,40.335c48.654,0,95.832,9.514,140.223,28.277c42.895,18.133,81.426,44.098,114.523,77.174
	c33.094,33.074,59.074,71.578,77.215,114.441c18.773,44.355,28.291,91.494,28.291,140.108s-9.518,95.753-28.291,140.106
	c-18.141,42.863-44.121,81.367-77.215,114.443c-33.098,33.076-71.629,59.041-114.523,77.172
	c-44.391,18.764-91.568,28.278-140.223,28.278S305,750.821,260.609,732.058c-42.895-18.131-81.426-44.096-114.523-77.172
	c-33.095-33.076-59.074-71.58-77.215-114.443C50.098,496.089,40.58,448.95,40.58,400.336s9.518-95.753,28.291-140.108
	c18.141-42.863,44.12-81.367,77.215-114.441c33.098-33.076,71.629-59.041,114.523-77.174C305,49.849,352.178,40.335,400.832,40.335
	 M400.832,0.335C179.779,0.335,0.58,179.421,0.58,400.336c0,220.913,179.199,400,400.252,400s400.252-179.087,400.252-400
	C801.084,179.421,621.885,0.335,400.832,0.335L400.832,0.335z"/>
<g>
	<g>
		<path fill-rule="evenodd" clip-rule="evenodd" fill="#FFFCEB" d="M339.605,650.594c-0.256-3.342-0.734-6.685-0.738-10.025
			c-0.041-69.207-0.033-138.413-0.033-207.619c0-3.33,0-6.662,0-10.918c-12.762,0-24.672,0.003-36.584,0
			c-10.928,0-21.861,0.205-32.773-0.205c-1.941-0.072-5.426-2.705-5.436-4.174c-0.211-31.988-0.031-63.981,0.115-95.973
			c0-0.443,0.5-0.883,1.111-1.892c23.795,0,47.938,0,72.984,0c0.213-3.729,0.518-6.958,0.564-10.189
			c0.326-21.806-1.439-43.755,4.691-65.152c11.496-40.108,34.213-70.948,73.434-87.642c8.031-3.418,16.932-6.418,25.506-6.638
			c30.898-0.79,61.828-0.31,93.373-0.31c0,33.475,0,66.867,0,101.16c-2.678,0.16-5.418,0.465-8.156,0.469
			c-22.635,0.039-45.271,0.006-67.904,0.03c-13.777,0.013-22.777,5.898-24.059,19.241c-1.527,15.873-0.359,32.006-0.359,48.734
			c33.285,0,66.486,0,100.396,0c0,34.312,0,67.918,0,102.508c-33.52,0-66.939,0-100.738,0c-0.242,2.944-0.551,4.953-0.551,6.963
			c-0.025,72.328-0.023,144.656-0.004,216.984c0,1.549,0.25,3.098,0.385,4.646C403.088,650.594,371.348,650.594,339.605,650.594z"/>
	</g>
</g>
</svg>
