<?xml version="1.0" encoding="utf-8"?>
<!-- Generator: Adobe Illustrator 16.0.0, SVG Export Plug-In . SVG Version: 6.00 Build 0)  -->
<!DOCTYPE svg PUBLIC "-//W3C//DTD SVG 1.1//EN" "http://www.w3.org/Graphics/SVG/1.1/DTD/svg11.dtd">
<svg version="1.1" id="Layer_1" xmlns="http://www.w3.org/2000/svg" xmlns:xlink="http://www.w3.org/1999/xlink" x="0px" y="0px"
	 width="800px" height="800px" viewBox="0 0 800 800" enable-background="new 0 0 800 800" xml:space="preserve">
<g>
	<path fill="#DC2729" d="M400,779.948c-51.345,0-101.142-10.045-148.01-29.855c-45.277-19.14-85.945-46.542-120.873-81.448
		c-34.928-34.905-62.348-75.546-81.498-120.793c-19.82-46.835-29.871-96.597-29.871-147.903S29.799,298.88,49.619,252.045
		c19.15-45.247,46.57-85.888,81.498-120.793c34.928-34.906,75.596-62.309,120.873-81.448C298.858,29.993,348.655,19.948,400,19.948
		c51.344,0,101.142,10.045,148.009,29.855c45.278,19.14,85.946,46.542,120.874,81.448c34.928,34.905,62.347,75.546,81.497,120.793
		c19.821,46.835,29.872,96.597,29.872,147.903s-10.051,101.068-29.872,147.903c-19.15,45.247-46.569,85.888-81.497,120.793
		c-34.928,34.906-75.596,62.309-120.874,81.448C501.142,769.903,451.344,779.948,400,779.948z"/>
	
		<ellipse transform="matrix(0.9695 -0.245 0.245 0.9695 -96.2028 75.2314)" fill-rule="evenodd" clip-rule="evenodd" fill="#FFFCEB" cx="254.25" cy="424.25" rx="32.251" ry="45.749"/>
	
		<ellipse transform="matrix(0.9695 -0.245 0.245 0.9695 -94.9261 78.6101)" fill-rule="evenodd" clip-rule="evenodd" fill="#DC2729" cx="268.489" cy="420.835" rx="25.509" ry="30.347"/>
	
		<ellipse transform="matrix(-0.9695 -0.245 0.245 -0.9695 967.4069 970.8555)" fill-rule="evenodd" clip-rule="evenodd" fill="#FFFCEB" cx="544.096" cy="425.25" rx="32.251" ry="45.749"/>
	
		<ellipse transform="matrix(-0.9695 -0.245 0.245 -0.9695 940.2083 960.6335)" fill-rule="evenodd" clip-rule="evenodd" fill="#DC2729" cx="529.856" cy="421.835" rx="25.509" ry="30.347"/>
	<polygon fill-rule="evenodd" clip-rule="evenodd" fill="#871811" points="507.725,531 513.787,619 659.607,668.645 
		489.059,768.667 326.393,772.667 208.393,722.667 140.393,678.667 291.002,624.667 295.516,529 	"/>
	<g>
		<rect x="391" y="592" fill="#DC2729" width="20" height="193"/>
	</g>
	<path fill-rule="evenodd" clip-rule="evenodd" fill="#DC2729" d="M312.666,552c0,0,89.336,106,174.002,0H312.666z"/>
	<path fill="#871811" d="M400,39.948c48.654,0,95.832,9.514,140.223,28.277c42.893,18.132,81.425,44.097,114.522,77.173
		c33.096,33.075,59.075,71.579,77.217,114.442c18.771,44.354,28.29,91.493,28.29,140.107s-9.519,95.753-28.29,140.107
		c-18.142,42.863-44.121,81.367-77.217,114.442c-33.098,33.076-71.63,59.041-114.522,77.173
		c-44.391,18.764-91.568,28.277-140.223,28.277s-95.832-9.514-140.223-28.277c-42.895-18.132-81.426-44.097-114.522-77.173
		c-33.096-33.075-59.075-71.579-77.216-114.442c-18.773-44.354-28.291-91.493-28.291-140.107s9.518-95.753,28.291-140.107
		c18.141-42.863,44.12-81.367,77.216-114.442c33.097-33.076,71.628-59.041,114.522-77.173C304.168,49.462,351.346,39.948,400,39.948
		 M400-0.052c-221.053,0-400.252,179.086-400.252,400s179.199,400,400.252,400s400.252-179.086,400.252-400S621.053-0.052,400-0.052
		L400-0.052z"/>
	<g>
		<path fill-rule="evenodd" clip-rule="evenodd" fill="#FFFCEB" d="M553,400l-40.825,136.139c0,0-73.386,73.861-112.175,73.861
			c-38.934,0-112.477-74.178-112.477-74.178L247,400c0,0-3.828-38.92,5-58c24.113-52.119,86.145-123.479,148-123.479
			c64.418,0,124.439,69.348,147.002,119.48C554.035,353.63,553,400,553,400z"/>
	</g>
	<g>
		<path fill-rule="evenodd" clip-rule="evenodd" fill="#871811" d="M402.787,482c0,0,17.5-13.5,44,8s54,15,67,4
			c0,0-24.5,46.5-66,21.5S377.287,517.5,402.787,482z"/>
		<path fill-rule="evenodd" clip-rule="evenodd" fill="#871811" d="M397.213,482c0,0-17.5-13.5-44,8s-54,15-67,4
			c0,0,24.5,46.5,66,21.5S422.713,517.5,397.213,482z"/>
	</g>
	<g>
		<path fill="#871811" d="M399.663,373c36,1.333,144.667-12.667,172-21.333s-10-26-10-26l1.333-59.334
			c42.666-12.667,27.334-33.833,27.334-33.833L400.996,146h-5.318l-189.334,86.5c0,0-15.332,21.249,27.334,33.916l1.333,59.293
			c0,0-37.333,17.312-10,25.979s136,22.656,172,21.323L399.663,373z"/>
		
			<polyline fill-rule="evenodd" clip-rule="evenodd" fill="none" stroke="#DC2729" stroke-width="10" stroke-miterlimit="10" points="
			212.336,273 396.336,203 596.336,277 		"/>
	</g>
	<circle fill="#DC2729" cx="394" cy="279" r="37"/>
</g>
</svg>
