<?xml version="1.0" encoding="utf-8"?>
<!-- Generator: Adobe Illustrator 16.0.0, SVG Export Plug-In . SVG Version: 6.00 Build 0)  -->
<!DOCTYPE svg PUBLIC "-//W3C//DTD SVG 1.1//EN" "http://www.w3.org/Graphics/SVG/1.1/DTD/svg11.dtd">
<svg version="1.1" id="Layer_1" xmlns="http://www.w3.org/2000/svg" xmlns:xlink="http://www.w3.org/1999/xlink" x="0px" y="0px"
	 width="800px" height="800px" viewBox="0 0 800 800" enable-background="new 0 0 800 800" xml:space="preserve">
<path fill="#DC2729" d="M400,779.948c-51.346,0-101.142-10.045-148.01-29.855c-45.277-19.14-85.945-46.542-120.873-81.448
	c-34.928-34.905-62.348-75.546-81.498-120.793c-19.82-46.835-29.871-96.597-29.871-147.903S29.799,298.88,49.619,252.045
	c19.15-45.247,46.57-85.888,81.498-120.793c34.928-34.906,75.596-62.309,120.873-81.448C298.858,29.993,348.654,19.948,400,19.948
	c51.344,0,101.142,10.045,148.009,29.855c45.278,19.14,85.946,46.542,120.874,81.448c34.928,34.905,62.347,75.546,81.497,120.793
	c19.821,46.835,29.872,96.597,29.872,147.903s-10.051,101.068-29.872,147.903c-19.15,45.247-46.569,85.888-81.497,120.793
	c-34.928,34.906-75.596,62.309-120.874,81.448C501.142,769.903,451.344,779.948,400,779.948z"/>
<polygon fill="#871811" points="519.5,604 700.084,628.013 612.71,713.365 470.668,780 313,780 185.336,710.666 123.336,654.666 
	287,592.891 399,652.001 "/>
<polygon fill="#FFFCEB" points="298,497 501,497 512,660 399,668.001 287,660 "/>
<g>
	<path fill-rule="evenodd" clip-rule="evenodd" fill="#DC2729" d="M553,402l-40.826,125.139c0,0-73.385,84.861-112.174,84.861
		c-38.934,0-112.477-85.178-112.477-85.178L247,402c0,0-3.828-38.92,5-58c24.113-52.119,86.145-123.479,148-123.479
		c64.418,0,124.439,69.348,147.002,119.48C554.035,355.63,553,402,553,402z"/>
</g>
<path fill-rule="evenodd" clip-rule="evenodd" fill="#DC2729" d="M312.666,552c0,0,89.336,106,174.002,0H312.666z"/>
<g>
	
		<ellipse transform="matrix(0.9695 -0.245 0.245 0.9695 -93.5074 74.8961)" fill-rule="evenodd" clip-rule="evenodd" fill="#FFFCEB" cx="254.25" cy="413.25" rx="32.251" ry="45.749"/>
	
		<ellipse transform="matrix(0.9695 -0.245 0.245 0.9695 -92.231 78.2748)" fill-rule="evenodd" clip-rule="evenodd" fill="#DC2729" cx="268.489" cy="409.835" rx="25.509" ry="30.347"/>
	
		<ellipse transform="matrix(-0.9695 -0.245 0.245 -0.9695 970.1022 949.1909)" fill-rule="evenodd" clip-rule="evenodd" fill="#FFFCEB" cx="544.096" cy="414.25" rx="32.251" ry="45.749"/>
	
		<ellipse transform="matrix(-0.9695 -0.245 0.245 -0.9695 942.9034 938.9689)" fill-rule="evenodd" clip-rule="evenodd" fill="#DC2729" cx="529.856" cy="410.835" rx="25.509" ry="30.347"/>
	<g>
		<path fill-rule="evenodd" clip-rule="evenodd" fill="#FFFCEB" d="M553,389l-40.826,136.139c0,0-73.385,73.861-112.174,73.861
			c-38.934,0-112.477-74.178-112.477-74.178L247,389c0,0-3.828-38.92,5-58c24.113-52.119,86.145-123.479,148-123.479
			c64.418,0,124.439,69.348,147.002,119.48C554.035,342.63,553,389,553,389z"/>
	</g>
	<path fill="#871811" d="M401.326,396c36,1.333,144.432-41.999,172-55.333c25.812-12.485-10-26-10-26l1.333-59.334
		c42.665-12.667,49.335-33.833,49.335-33.833L402.659,135h-5.318l-211.334,86.5c0,0,6.668,21.249,49.334,33.916l1.333,59.293
		c0,0-15.333,17.312,12,25.979c27.332,8.666,114,56.656,150,55.323L401.326,396z"/>
	
		<polyline fill-rule="evenodd" clip-rule="evenodd" fill="none" stroke="#DC2729" stroke-width="10" stroke-miterlimit="10" points="
		214,262 398,192 598,266 	"/>
	
		<polyline fill-rule="evenodd" clip-rule="evenodd" fill="none" stroke="#DC2729" stroke-width="10" stroke-miterlimit="10" points="
		598,305 400,359.001 214,301 	"/>
	<path fill="#DC2729" d="M431.529,232.993c0,17.413-14.117,31.529-31.529,31.529c-17.413,0-31.529-14.116-31.529-31.529
		s14.116-60.516,31.529-60.516C417.412,172.478,431.529,215.58,431.529,232.993z"/>
	<path fill="#FFFCEB" d="M418.195,226.864c0,10.05-8.146,18.196-18.195,18.196c-10.05,0-18.196-8.146-18.196-18.196
		s8.146-34.925,18.196-34.925C410.049,191.939,418.195,216.814,418.195,226.864z"/>
</g>
<polygon fill="#EA7D7F" points="287,576.001 399.5,668.001 338.002,699.334 "/>
<polygon fill="#EA7D7F" points="513.5,575.833 399,668.001 460.5,699.334 "/>
<g>
	<polygon fill="#871811" points="238.872,686.566 285.074,643.254 238.832,609.954 288.363,559.529 390.102,811.135 	"/>
	<path fill="#DC2729" d="M287.475,564.001l96.621,238.947L242.657,686.445L289,643l-46.343-33.372L287.475,564.001 M289.252,555.057
		l-5.344,5.44l-44.818,45.627l-4.082,4.157l4.727,3.404l41.414,29.822l-41.912,39.29l-4.148,3.891l4.391,3.616l141.439,116.503
		l15.191,12.515l-7.379-18.248l-96.621-238.947L289.252,555.057L289.252,555.057z"/>
</g>
<g>
	<polygon fill="#871811" points="507.391,559.529 556.922,609.954 510.68,643.254 556.881,686.566 405.65,811.135 	"/>
	<path fill="#DC2729" d="M508.279,564.001l44.817,45.627L506.754,643l46.343,43.445L411.658,802.948L508.279,564.001
		 M506.502,555.057l-2.857,7.07l-96.621,238.947l-7.379,18.248l15.191-12.515l141.439-116.503l4.391-3.616l-4.149-3.891
		l-41.911-39.29l41.412-29.822l4.729-3.404l-4.082-4.157l-44.818-45.627L506.502,555.057L506.502,555.057z"/>
</g>
<path fill="#871811" d="M400,39.948c48.654,0,95.832,9.514,140.223,28.277c42.893,18.132,81.424,44.097,114.521,77.173
	c33.097,33.075,59.076,71.579,77.217,114.442c18.772,44.354,28.291,91.493,28.291,140.107s-9.519,95.753-28.291,140.107
	c-18.141,42.863-44.12,81.367-77.217,114.442c-33.098,33.076-71.629,59.041-114.521,77.173
	c-44.391,18.764-91.568,28.277-140.223,28.277s-95.832-9.514-140.223-28.277c-42.895-18.132-81.426-44.097-114.523-77.173
	c-33.095-33.075-59.074-71.579-77.215-114.442c-18.773-44.354-28.291-91.493-28.291-140.107s9.518-95.753,28.291-140.107
	c18.141-42.863,44.12-81.367,77.215-114.442c33.098-33.076,71.629-59.041,114.523-77.173C304.168,49.462,351.346,39.948,400,39.948
	 M400-0.052c-221.053,0-400.252,179.086-400.252,400s179.199,400,400.252,400s400.252-179.086,400.252-400S621.053-0.052,400-0.052
	L400-0.052z"/>
</svg>
