<?xml version="1.0" encoding="utf-8"?>
<!-- Generator: Adobe Illustrator 16.0.0, SVG Export Plug-In . SVG Version: 6.00 Build 0)  -->
<!DOCTYPE svg PUBLIC "-//W3C//DTD SVG 1.1//EN" "http://www.w3.org/Graphics/SVG/1.1/DTD/svg11.dtd">
<svg version="1.1" id="Layer_1" xmlns="http://www.w3.org/2000/svg" xmlns:xlink="http://www.w3.org/1999/xlink" x="0px" y="0px"
	 width="800px" height="800px" viewBox="0 0 800 800" enable-background="new 0 0 800 800" xml:space="preserve">
<path fill="#F39006" d="M400,780c-51.344,0-101.142-10.045-148.009-29.855c-45.278-19.14-85.946-46.542-120.874-81.448
	C96.189,633.791,68.77,593.15,49.62,547.903C29.798,501.068,19.748,451.307,19.748,400s10.05-101.068,29.872-147.903
	c19.15-45.247,46.569-85.888,81.497-120.793c34.928-34.906,75.596-62.309,120.874-81.448C298.858,30.045,348.655,20,400,20
	c51.344,0,101.142,10.045,148.009,29.855c45.278,19.14,85.946,46.542,120.874,81.448c34.928,34.905,62.347,75.546,81.497,120.793
	c19.821,46.835,29.872,96.597,29.872,147.903s-10.051,101.068-29.872,147.903c-19.15,45.247-46.569,85.888-81.497,120.793
	c-34.928,34.906-75.596,62.309-120.874,81.448C501.141,769.955,451.343,780,400,780z"/>
<g opacity="0.2">
	<g>
		<path fill-rule="evenodd" clip-rule="evenodd" fill="#FFFCEB" d="M776.136,447.237c-46.178-5.773-92.383-11.335-138.525-17.377
			c-69.244-9.061-138.43-18.554-207.668-27.649c-15.455-2.029-20.129,2.644-18.099,18.1
			c13.305,101.445,26.832,202.86,40.206,304.297c1.836,13.936,3.227,27.926,4.824,41.893c-31.49,0-62.986,0-94.477,0
			c5.777-46.179,11.34-92.386,17.381-138.528c9.063-69.244,18.554-138.427,27.646-207.668c2.033-15.468-2.621-20.126-18.093-18.096
			c-101.446,13.305-202.866,26.832-304.304,40.207c-13.934,1.832-27.926,3.226-41.893,4.822c0-31.489,0-62.985,0-94.476
			c46.178,5.774,92.385,11.336,138.529,17.377c69.243,9.062,138.426,18.555,207.667,27.65c15.465,2.033,20.126-2.631,18.096-18.1
			c-13.305-101.442-26.832-202.86-40.204-304.297c-1.835-13.935-3.229-27.926-4.826-41.893c31.49,0,62.986,0,94.477,0
			c-5.777,46.179-11.339,92.382-17.377,138.525c-9.067,69.24-18.558,138.427-27.65,207.664c-2.029,15.456,2.641,20.133,18.1,18.103
			c101.442-13.305,202.859-26.831,304.297-40.206c13.934-1.836,27.926-3.227,41.893-4.824
			C776.136,384.252,776.136,415.748,776.136,447.237z"/>
		<path fill-rule="evenodd" clip-rule="evenodd" fill="#FFFCEB" d="M184.97,106.918c28.242-16.321,54.887-31.723,83.1-48.03
			c44.973,108.554,89.611,216.309,134.249,324.063c-1.196,0.785-2.392,1.574-3.589,2.357
			C327.918,293.092,257.113,200.871,184.97,106.918z"/>
		<path fill-rule="evenodd" clip-rule="evenodd" fill="#FFFCEB" d="M392.985,392.836
			c-107.724-44.613-215.446-89.227-324.461-134.378c16.314-28.206,31.872-55.099,48.052-83.066
			c93.582,71.811,185.955,142.696,278.324,213.581C394.263,390.259,393.625,391.547,392.985,392.836z"/>
		<path fill-rule="evenodd" clip-rule="evenodd" fill="#FFFCEB" d="M416.91,383.075c44.629-107.736,89.251-215.475,134.274-324.168
			c28.093,16.219,54.708,31.588,83.073,47.969c-71.654,93.395-142.73,186.031-213.805,278.664
			C419.273,384.72,418.092,383.896,416.91,383.075z"/>
		<path fill-rule="evenodd" clip-rule="evenodd" fill="#FFFCEB" d="M423.978,389.291c92.363-70.889,184.729-141.776,278.654-213.864
			c16.104,27.745,31.69,54.596,48.17,82.987c-108.674,45.023-216.429,89.665-324.178,134.304
			C425.741,391.575,424.863,390.434,423.978,389.291z"/>
		<path fill-rule="evenodd" clip-rule="evenodd" fill="#FFFCEB" d="M116.55,624.618c-16.215-28.028-31.643-54.698-48.045-83.058
			c108.703-45.018,216.785-89.779,324.867-134.546c0.675,1.206,1.35,2.412,2.03,3.617
			C302.721,481.754,210.041,552.874,116.55,624.618z"/>
		<path fill-rule="evenodd" clip-rule="evenodd" fill="#FFFCEB" d="M268.114,741.144c-28.314-16.371-54.972-31.785-83.093-48.046
			c71.729-93.482,142.853-186.164,213.971-278.852c1.202,0.662,2.404,1.324,3.607,1.985
			C358.041,523.885,313.478,631.537,268.114,741.144z"/>
		<path fill-rule="evenodd" clip-rule="evenodd" fill="#FFFCEB" d="M750.774,541.516c-16.321,28.242-31.716,54.88-48.026,83.105
			c-93.433-71.69-186.082-142.775-278.731-213.867c0.662-1.223,1.327-2.444,1.991-3.666
			C533.578,451.615,641.155,496.143,750.774,541.516z"/>
		<path fill-rule="evenodd" clip-rule="evenodd" fill="#FFFCEB" d="M420.682,414.762c70.882,92.369,141.765,184.745,213.537,278.272
			c-27.653,16.038-54.233,31.455-82.972,48.122c-44.973-108.529-89.716-216.527-134.466-324.521
			C418.083,416.009,419.38,415.386,420.682,414.762z"/>
	</g>
</g>
<path fill="#BE5417" d="M400,40c48.654,0,95.832,9.514,140.223,28.277c42.895,18.132,81.425,44.097,114.522,77.173
	c33.096,33.075,59.075,71.579,77.217,114.442c18.771,44.354,28.29,91.493,28.29,140.107s-9.519,95.754-28.29,140.107
	c-18.142,42.863-44.121,81.367-77.217,114.442c-33.098,33.077-71.628,59.041-114.522,77.173C495.832,750.486,448.654,760,400,760
	s-95.832-9.514-140.222-28.277c-42.895-18.132-81.426-44.096-114.523-77.173c-33.096-33.075-59.075-71.579-77.216-114.442
	C49.266,495.754,39.748,448.614,39.748,400s9.518-95.754,28.291-140.107c18.141-42.863,44.12-81.367,77.216-114.442
	c33.098-33.076,71.629-59.041,114.523-77.173C304.167,49.514,351.345,40,400,40 M400,0C178.947,0-0.252,179.086-0.252,400
	S178.947,800,400,800s400.252-179.086,400.252-400S621.052,0,400,0L400,0z"/>
<g>
	<g>
		<g>
			<path fill-rule="evenodd" clip-rule="evenodd" fill="#FFFCEB" d="M475.415,268.713c-10.147,12.434-18.113,22.205-27.901,34.186
				c-2.139,2.617-3.852,6.354-6.616,7.479c-2.713,1.105-6.505-0.514-9.833-0.85c-35.47-3.564-68.362,3.82-98.317,23.355
				c-2.314,1.508-3.612,1.379-5.645-0.318c-10.166-8.484-17.471-14.363-27.993-22.961c21.17-25.322,44.44-44.871,76.338-52.92
				C410.318,247.885,442.328,253.555,475.415,268.713z"/>
		</g>
		<g>
			<g>
				<path fill-rule="evenodd" clip-rule="evenodd" fill="#FFFCEB" d="M189.077,283.139c16.201-32.404,38.866-58.979,67.831-80.496
					c12.648,13.34,25.213,26.594,37.781,39.85c0.156-0.092,0.314-0.184,0.472-0.277c-8.246-16.412-16.493-32.828-24.803-49.367
					c0.563-0.512,1.003-1,1.526-1.381c27.142-19.668,57.325-32.105,90.331-37.654c9.614-1.615,19.336-2.576,28.988-3.979
					c2.874-0.418,4.215,0.283,4.981,3.336c2.304,9.139,6.363,29.648,9.387,38.68c0.849-10.326,0.341-32.129,1.215-42.77
					c24.489-0.592,48.504,1.635,72.404,7.48c-2.513,16.027-2.24,27.668-4.718,43.477c0.145,0.074,12.326-23.371,19.724-37.395
					c24.266,6.156,45.276,18.457,65.216,33.312c-17.785,25.035-35.521,49.994-53.243,74.932
					c-6.194-3.771-21.185-12.807-24.323-13.992c-2.796-1.061-5.482-2.402-8.245-3.555c-22.982-9.566-46.987-13.373-71.728-11.691
					c-69.913,4.744-128.977,53.049-146.988,120.469c-3.449,12.916-5.021,26.334-7.413,39.531
					c-2.943,16.221-2.383,32.568-1.475,48.898c1.091,19.637,2.415,39.262,3.703,58.891c1.057,16.113-6.055,27.525-21.059,33.607
					c-7.421,3.008-14.864,5.959-22.238,9.086c-1.976,0.838-3.014,0.537-4.219-1.268c-13.212-19.76-22.572-41.291-29.641-63.889
					c-5.696-18.207-9.335-36.846-11.511-55.781c-0.109-0.936-0.014-1.896-0.014-2.967c12.957-2.484,25.814-4.949,38.671-7.412
					c0.003-0.143,0.006-0.285,0.008-0.432c-13.052-2.004-26.103-4.008-39.352-6.043c-2.357-41.029,3.912-80.385,21.941-117.783
					c14.729,4.324,29.311,8.605,43.894,12.887c0.078-0.15,0.156-0.299,0.233-0.447C213.991,300.393,201.571,291.793,189.077,283.139
					z"/>
			</g>
		</g>
		<g>
			<g>
				<path fill-rule="evenodd" clip-rule="evenodd" fill="#FFFCEB" d="M590.129,650.217c-18.942,1.939-37.301,0.332-55.343-4.826
					c-16.414-4.688-31.689-11.781-45.032-22.523c-4.677-3.764-8.697-8.35-12.974-12.602c-9.415-9.342-15.181-20.684-17.376-33.652
					c-1.801-10.641-7.128-19.93-10.467-29.965c-2.158-6.477-4.654-12.85-6.615-19.383c-4.509-15.021-17.734-23.602-34.434-22.057
					c-16.555,1.531-29.292,13.182-31.721,29.611c-0.986,6.672-0.664,13.533-1.507,20.232c-0.951,7.541-2.306,15.053-3.933,22.479
					c-1.709,7.807-6.845,13.023-13.955,16.389c-6.979,3.307-14.451,4.895-22.034,5.754c-6.906,0.787-13.878,1.023-20.822,1.467
					c-1.188,0.078-7.302,0.088-8.276,0.125c-2.104,0.082-4.269-0.115-6.339-0.535c-12.158-2.48-18.183-11.631-16.144-24.275
					c1.284-7.955,4.206-15.168,8.968-21.729c8.165-11.25,10.271-24.139,9.71-37.684c-0.537-13.041-4.062-25.486-7.266-38.023
					c-2.657-10.393-2.951-21.002-1.6-31.648c0.737-5.807,1.029-11.695,2.159-17.418c10.447-52.955,52.104-97.867,108.93-107.928
					c55.29-9.789,101.6,7.658,136.93,51.543c15.399,19.131,23.695,41.592,26.191,66.299c2.427,24.018,5.766,47.945,8.943,71.877
					c2.545,19.143-11.329,22.104-11.725,19.568c-3.356-21.361-6.824-42.705-10.149-64.072c-0.308-1.982-0.831-2.701-2.969-2.836
					c-22.292-1.396-44.574-2.941-66.864-4.402c-2.304-0.152-4.632-0.02-6.977-0.02c-1.883,8.076,4.017,24.582,17.281,33.811
					c11.739,8.168,24.528,9.701,38.389,6.014c1.229,7.365,2.447,14.578,3.633,21.793c1.628,9.904,3.222,19.816,4.869,29.717
					c0.962,5.785,1.497,11.697,3.104,17.301c3.27,11.42,11.963,17.436,23.763,17.227c0.667-0.012,1.334,0,2.232,0
					C577.172,607.268,583.625,628.646,590.129,650.217z"/>
			</g>
		</g>
	</g>
</g>
</svg>
