<?xml version="1.0" encoding="utf-8"?>
<!-- Generator: Adobe Illustrator 16.0.0, SVG Export Plug-In . SVG Version: 6.00 Build 0)  -->
<!DOCTYPE svg PUBLIC "-//W3C//DTD SVG 1.1//EN" "http://www.w3.org/Graphics/SVG/1.1/DTD/svg11.dtd">
<svg version="1.1" id="Layer_1" xmlns="http://www.w3.org/2000/svg" xmlns:xlink="http://www.w3.org/1999/xlink" x="0px" y="0px"
	 width="800px" height="800px" viewBox="0 0 800 800" enable-background="new 0 0 800 800" xml:space="preserve">
<path fill="#FFCB00" d="M400.064,779.812c-51.344,0-101.142-10.045-148.01-29.855c-45.277-19.14-85.945-46.542-120.873-81.448
	c-34.928-34.905-62.346-75.546-81.496-120.793c-19.822-46.835-29.873-96.597-29.873-147.903s10.051-101.068,29.873-147.903
	c19.15-45.247,46.568-85.888,81.496-120.793c34.928-34.906,75.596-62.309,120.873-81.448c46.868-19.811,96.666-29.855,148.01-29.855
	s101.142,10.045,148.009,29.855c45.278,19.14,85.946,46.542,120.874,81.448c34.928,34.905,62.347,75.546,81.497,120.793
	c19.821,46.835,29.872,96.597,29.872,147.903s-10.051,101.068-29.872,147.903c-19.15,45.247-46.569,85.888-81.497,120.793
	c-34.928,34.906-75.596,62.309-120.874,81.448C501.206,769.767,451.408,779.812,400.064,779.812z"/>
<path fill="#F28F06" d="M399.988,39.812c48.654,0,95.832,9.514,140.223,28.277c42.893,18.132,81.424,44.097,114.522,77.173
	c33.095,33.075,59.075,71.579,77.217,114.442c18.771,44.354,28.29,91.493,28.29,140.107s-9.519,95.753-28.29,140.107
	c-18.142,42.863-44.122,81.367-77.217,114.442c-33.099,33.076-71.63,59.041-114.522,77.173
	c-44.391,18.764-91.568,28.277-140.223,28.277s-95.832-9.514-140.223-28.277c-42.895-18.132-81.426-44.097-114.522-77.173
	c-33.096-33.075-59.075-71.579-77.216-114.442c-18.772-44.354-28.291-91.493-28.291-140.107s9.519-95.753,28.291-140.107
	c18.141-42.863,44.12-81.367,77.216-114.442c33.097-33.076,71.628-59.041,114.522-77.173
	C304.156,49.325,351.334,39.812,399.988,39.812 M399.988-0.188c-221.053,0-400.252,179.086-400.252,400s179.199,400,400.252,400
	s400.252-179.086,400.252-400S621.041-0.188,399.988-0.188L399.988-0.188z"/>
<g>
	<g>
		<path fill-rule="evenodd" clip-rule="evenodd" fill="#F28F06" d="M201.39,411.055c0.375-19.891,4.784-37.873,11.406-55.24
			c9.079-23.816,22.173-45.24,40.177-63.539c2.972-3.018,5.438-3.49,9.455-2.338c8.88,2.545,18.055,4.049,26.957,6.535
			c4.551,1.271,8.765,3.746,15.078,6.539c-6.395,5.887-11.283,10.648-16.457,15.082c-8.156,6.994-9.267,15.881-6.383,25.311
			c2.639,8.633,10.227,12.248,18.301,13.438c12.507,1.842,24.65,0.951,34.812-8.354c5.491-5.027,11.633-9.346,17.484-13.98
			c9.158-7.256,19.73-9.707,31.174-9.078c16.164,0.889,30.553,6.773,43.73,15.867c40.262,27.793,80.519,55.586,120.695,83.494
			c5.066,3.52,9.766,7.59,14.432,11.641c8.186,7.105,10.038,16.793,5.168,25.713c-4.929,9.027-12.23,11.629-23.746,8.473
			c-0.729-0.199-1.481-0.311-3.025-0.627c1.799,11.521,0.652,22.023-8.613,30.182c-9.497,8.357-20.092,5.424-30.676,3.002
			c0.668,20.738-10.125,32.178-35.568,27.473c-0.973,4.906-1.104,10.189-3.104,14.631c-3.633,8.076-14.825,12.484-24.639,10.332
			c-14.412-3.158-26.461-10.963-37.887-19.436c2.518-6.631,5.311-12.697,7.09-19.043c1.67-5.955,1.174-12.006-4.699-15.889
			c-5.826-3.857-11.336-1.848-16.535,1.662c-2.675,1.805-5.254,3.746-7.17,5.119c2.291-9.816,5.055-19.844,6.855-30.045
			c1.092-6.18-0.965-12.322-7.105-14.998c-6.471-2.816-13.15-1.881-18.902,2.754c-4.383,3.529-8.735,7.094-12.127,9.85
			c1.191-8.645,4.932-20.857-8.127-26.621c-11.494-5.072-19.896,2.582-28.15,11.217c0.154-2.219,0.148-3.395,0.328-4.541
			c1.674-10.453-0.465-17.072-6.633-20.418c-7.652-4.154-17.102-2.92-24.428,3.336c-2.541,2.17-5.012,4.471-7.223,6.969
			c-2.004,2.264-3.613,4.879-5.184,7.047C245.979,437.967,229.951,415.021,201.39,411.055z"/>
		<path fill-rule="evenodd" clip-rule="evenodd" fill="#FFFCEB" d="M552.457,293.854c33.852,27.93,45.523,65.18,47.107,107.045
			c-22.182,4.629-24.666,5.826-41.903,20.221c-11.216-7.5-22.704-15.146-34.156-22.848c-34.19-22.992-68.255-46.168-102.581-68.951
			c-24.775-16.447-56.227-14.436-79.066,4.328c-9.129,7.494-17.848,15.609-30.621,16.781c-10.252,0.941-19.426-2.471-22.662-9.436
			c-3.234-6.957-1.932-13.016,3.775-18.117c14.544-13.012,29.166-25.939,43.615-39.057c5.808-5.271,12.26-7.785,20.209-8.078
			c19.283-0.705,38.578-3.287,57.799-2.723c10.898,0.32,21.984,4.496,32.408,8.455c19.234,7.309,37.924,16.049,57.072,23.602
			c15.811,6.236,30.827,5.393,43.445-7.719c0.883-0.92,1.982-1.641,3.025-2.393C550.326,294.674,550.846,294.547,552.457,293.854z"
			/>
		<path fill-rule="evenodd" clip-rule="evenodd" fill="#F28F06" d="M244.039,274.359c-38.089,42.701-60.279,91.203-59.6,149.846
			c-5.335-2.51-9.941-4.5-14.384-6.803c-12.794-6.629-25.618-13.213-38.185-20.26c-2.074-1.162-4.314-4.699-4.093-6.9
			c4.403-44.062,14.147-86.508,41.235-122.861c6.072-8.148,14.087-14.916,21.674-21.811c1.711-1.555,6.199-2.311,7.982-1.18
			C213.836,253.988,228.673,264.107,244.039,274.359z"/>
		<path fill-rule="evenodd" clip-rule="evenodd" fill="#FFFCEB" d="M557.195,275.285c14.813-10.205,29.281-20.439,44.152-30.049
			c1.75-1.131,6.438,0.293,8.551,2.018c22.816,18.621,39.209,42.002,49.721,69.432c8.941,23.32,13.424,47.514,12.498,72.551
			c-0.094,2.479-1.006,6.283-2.707,7.135c-17.627,8.836-35.496,17.189-53.953,25.99C613.102,366.367,607.707,312.51,557.195,275.285
			z"/>
		<path fill-rule="evenodd" clip-rule="evenodd" fill="#FFFCEB" d="M379.977,479.49c-3.127,20.578-10.168,37.24-23.979,50.199
			c-2.967,2.781-9.719,4.639-13.012,3.143c-3.762-1.713-5.89-7.496-8.139-11.814c-0.816-1.568-0.281-4.119,0.244-6.057
			c4.456-16.469,11.688-31.525,25.489-42.092c3.454-2.646,9.81-3.561,14.048-2.402C377.383,471.219,378.715,477.17,379.977,479.49z"
			/>
		<path fill-rule="evenodd" clip-rule="evenodd" fill="#FFFCEB" d="M343.289,466.723c-3.741,17.451-8.015,32.111-20.18,42.338
			c-3.434,2.889-10.465,4.279-14.539,2.787c-3.584-1.314-7.646-7.693-7.507-11.697c0.61-17.6,7.444-32.936,21.976-43.541
			c3.025-2.207,9.662-2.777,12.64-0.912C339.526,458.107,341.369,463.721,343.289,466.723z"/>
		<path fill-rule="evenodd" clip-rule="evenodd" fill="#FFFCEB" d="M305.936,451.602c-1.131,14.58-6.324,23.766-15.416,30.621
			c-4.877,3.676-10.514,4.584-15.918,1.098c-5.033-3.248-6.688-8.234-5.879-14.129c1.518-11.01,5.909-20.646,15.912-25.979
			c3.994-2.127,10.41-2.891,14.289-1.121C302.662,443.797,304.551,449.564,305.936,451.602z"/>
		<path fill-rule="evenodd" clip-rule="evenodd" fill="#FFFCEB" d="M403.002,515.797c-2.404,10.975-7.539,22.678-17.643,31.32
			c-2.331,1.99-7.547,2.178-10.707,1.084c-2.176-0.756-4.4-5.164-4.354-7.906c0.228-14.338,7.106-25.742,18.479-33.803
			C396.064,501.322,403.076,505.51,403.002,515.797z"/>
	</g>
</g>
</svg>
