<?xml version="1.0" encoding="utf-8"?>
<!-- Generator: Adobe Illustrator 16.0.0, SVG Export Plug-In . SVG Version: 6.00 Build 0)  -->
<!DOCTYPE svg PUBLIC "-//W3C//DTD SVG 1.1//EN" "http://www.w3.org/Graphics/SVG/1.1/DTD/svg11.dtd">
<svg version="1.1" id="Layer_1" xmlns="http://www.w3.org/2000/svg" xmlns:xlink="http://www.w3.org/1999/xlink" x="0px" y="0px"
	 width="800px" height="800px" viewBox="0 0 800 800" enable-background="new 0 0 800 800" xml:space="preserve">
<path fill="#DC2729" d="M400,779.948c-51.345,0-101.142-10.045-148.01-29.855c-45.277-19.14-85.945-46.542-120.873-81.448
	c-34.928-34.905-62.347-75.546-81.497-120.793c-19.821-46.835-29.872-96.597-29.872-147.903S29.799,298.88,49.62,252.045
	c19.15-45.247,46.569-85.888,81.497-120.793c34.928-34.906,75.596-62.309,120.873-81.448C298.858,29.993,348.655,19.948,400,19.948
	c51.344,0,101.142,10.045,148.009,29.855c45.278,19.14,85.946,46.542,120.874,81.448c34.928,34.905,62.347,75.546,81.497,120.793
	c19.821,46.835,29.872,96.597,29.872,147.903s-10.051,101.068-29.872,147.903c-19.15,45.247-46.569,85.888-81.497,120.793
	c-34.928,34.906-75.596,62.309-120.874,81.448C501.142,769.903,451.344,779.948,400,779.948z"/>
<line fill="none" stroke="#FFFFFF" stroke-width="20" stroke-linecap="round" stroke-linejoin="round" stroke-miterlimit="10" x1="567" y1="591" x2="615.038" y2="439.981"/>
<line fill="none" stroke="#FFFFFF" stroke-width="20" stroke-linecap="round" stroke-linejoin="round" stroke-miterlimit="10" x1="592" y1="602" x2="642.941" y2="447.333"/>
<line fill="none" stroke="#FFFFFF" stroke-width="20" stroke-linecap="round" stroke-linejoin="round" stroke-miterlimit="10" x1="617" y1="609" x2="668.883" y2="454"/>
<polygon fill-rule="evenodd" clip-rule="evenodd" fill="#FFFCEB" stroke="#DC2729" stroke-width="20" stroke-linecap="round" stroke-linejoin="round" stroke-miterlimit="10" points="
	611,728.68 497,697.334 541.084,541.912 662,570 "/>
<g>
	<g>
		<path fill-rule="evenodd" clip-rule="evenodd" fill="#871811" d="M283.34,650.841c0.807-2.355,1.492-4.798,2.035-7.323
			c4.092-19.05-0.908-37.243-11.549-47.035c2.447-4.714,4.361-9.966,5.574-15.616c3.023-14.072-6.617-22.081-12.125-32.181
			c9.17-6.945,24.225-24.141,27.248-38.214c5.514-25.665-5.467-49.791-24.526-53.886c-19.06-4.094-51.483,2.416-56.997,28.081
			c-3.023,14.073,3.159,38.901,8.666,49c-9.168,6.946-14.31,23.594-17.332,37.666c-4.093,19.05,6.955,31.949,17.596,41.741
			c-2.447,4.714-4.361,9.966-5.574,15.616c-5.199,24.202,4.271,47.027,21.35,52.984c-4.736,22.275,4.352,43.089,20.333,46.522
			c16.012,3.439,32.878-11.865,37.673-34.187C299.643,675.713,294.236,658.388,283.34,650.841z"/>
	</g>
</g>
<path fill-rule="evenodd" clip-rule="evenodd" fill="#FFFCEB" d="M468.334,528c0,0-7.772,84.226,33.333,105.333
	c39.545,20.307,167.216,35.312,167.216,35.312L498.334,768.667l-162.667,4l-118-50l-68-44c0,0,102.443-17.102,140.692-38.058
	c21.307-11.674,41.974-24.608,36.641-107.942L468.334,528z"/>
<path fill="#871811" d="M400,39.948c48.654,0,95.832,9.514,140.223,28.277c42.894,18.132,81.425,44.097,114.522,77.173
	c33.096,33.075,59.075,71.579,77.217,114.442c18.771,44.354,28.29,91.493,28.29,140.107s-9.519,95.753-28.29,140.107
	c-18.142,42.863-44.121,81.367-77.217,114.442c-33.098,33.076-71.629,59.041-114.522,77.173
	c-44.391,18.764-91.568,28.277-140.223,28.277s-95.832-9.514-140.223-28.277c-42.895-18.132-81.426-44.097-114.522-77.173
	c-33.096-33.075-59.075-71.579-77.216-114.442c-18.772-44.354-28.291-91.493-28.291-140.107s9.519-95.753,28.291-140.107
	c18.141-42.863,44.12-81.367,77.216-114.442c33.097-33.076,71.628-59.041,114.522-77.173C304.168,49.462,351.346,39.948,400,39.948
	 M400-0.052c-221.053,0-400.252,179.086-400.252,400s179.199,400,400.252,400s400.252-179.086,400.252-400S621.053-0.052,400-0.052
	L400-0.052z"/>
<path fill-rule="evenodd" clip-rule="evenodd" fill="#DC2729" d="M312.666,552c0,0,89.335,106,174.001,0H312.666z"/>
<g>
	<ellipse fill-rule="evenodd" clip-rule="evenodd" fill="#FFFCEB" cx="400" cy="400" rx="153" ry="181.479"/>
	<path fill-rule="evenodd" clip-rule="evenodd" fill="#871811" d="M369,188c0,0,140.479,250,215,272C584,460,598,140,369,188z"/>
	<path fill-rule="evenodd" clip-rule="evenodd" fill="#871811" d="M423,183.402c0,0-94.667,300.265-244,300.265
		C179,483.667,209.5,130.681,423,183.402z"/>
</g>
</svg>
