<?xml version="1.0" encoding="utf-8"?>
<!-- Generator: Adobe Illustrator 16.0.0, SVG Export Plug-In . SVG Version: 6.00 Build 0)  -->
<!DOCTYPE svg PUBLIC "-//W3C//DTD SVG 1.1//EN" "http://www.w3.org/Graphics/SVG/1.1/DTD/svg11.dtd">
<svg version="1.1" id="Layer_1" xmlns="http://www.w3.org/2000/svg" xmlns:xlink="http://www.w3.org/1999/xlink" x="0px" y="0px"
	 width="800px" height="800px" viewBox="0 0 800 800" enable-background="new 0 0 800 800" xml:space="preserve">
<path fill="#5AB56A" d="M399.188,779.923c-51.344,0-101.142-10.045-148.01-29.855c-45.277-19.14-85.945-46.542-120.873-81.448
	c-34.928-34.905-62.347-75.546-81.496-120.793c-19.822-46.835-29.873-96.597-29.873-147.903S28.987,298.854,48.81,252.02
	c19.149-45.247,46.568-85.888,81.496-120.793c34.928-34.906,75.596-62.309,120.873-81.448
	c46.868-19.811,96.666-29.855,148.01-29.855c51.343,0,101.142,10.045,148.009,29.855c45.278,19.14,85.946,46.542,120.874,81.448
	c34.928,34.905,62.347,75.546,81.495,120.793c19.823,46.835,29.874,96.597,29.874,147.903s-10.051,101.068-29.874,147.903
	c-19.148,45.247-46.567,85.888-81.495,120.793c-34.928,34.906-75.596,62.309-120.874,81.448
	C500.33,769.878,450.531,779.923,399.188,779.923z"/>
<g opacity="0.2">
	<path fill="#FFFCEB" d="M397.15,181.141c-6.881-52.475-13.805-104.945-20.74-157.416c-17.707,1.076-35.203,3.367-52.426,6.857
		c21.551,52.023,43.09,104.02,64.627,156.01c-2,1.312-3.996,2.631-5.998,3.939c-37.129-48.352-74.258-96.705-111.453-145.15
		c-6.432,2.318-12.812,4.809-19.141,7.482c-13.248,5.602-26.09,11.93-38.521,18.926c54.297,41.666,108.508,83.268,162.715,124.867
		c-1.062,2.148-2.133,4.301-3.201,6.457c-72.727-30.119-145.459-60.242-218.328-90.422c-8.102,6.857-15.963,14.051-23.537,21.621
		c-12.873,12.865-24.717,26.514-35.512,40.881c90.428,12.031,180.82,24.314,271.273,36.197
		C392.754,214.789,400.545,206.994,397.15,181.141z"/>
	<path fill="#FFFCEB" d="M434.785,211.395c90.031-11.807,180.049-23.721,270.068-35.643c-10.908-14.574-22.9-28.408-35.941-41.439
		c-7.406-7.402-15.086-14.445-22.998-21.166c-72.293,29.951-144.49,59.861-216.682,89.768c-1.477-1.908-2.943-3.816-4.422-5.727
		c54.193-41.594,108.391-83.189,162.699-124.869c-12.725-7.211-25.887-13.711-39.471-19.455c-5.895-2.49-11.834-4.826-17.818-7.008
		c-37.119,48.379-74.213,96.723-111.303,145.062c-1.973-1.371-3.943-2.748-5.92-4.119c21.521-51.953,43.043-103.912,64.578-155.904
		c-17.113-3.541-34.498-5.896-52.094-7.049c-7.033,52.424-14.057,104.852-20.943,157.295
		C401.145,206.973,408.949,214.789,434.785,211.395z"/>
	<path fill="#FFFCEB" d="M350.941,596.09c15.146-115.727,31.008-231.352,46.205-347.07c3.398-25.852-4.379-33.637-30.238-30.244
		c-106.572,13.977-213.127,28.1-319.684,42.217c-14.469,35.838-23.268,73.34-26.273,111.896
		c117.758-48.77,235.236-97.424,352.709-146.08c1.127,2.016,2.258,4.031,3.393,6.045C262.121,321.051,147.186,409.25,31.699,497.871
		c4.643,18.033,10.629,35.736,17.951,53.041c10.648,25.16,23.863,48.889,39.494,71.006
		c98.344-128.164,196.133-255.596,293.906-383.023c2.01,1.107,4.02,2.213,6.029,3.318
		c-65.689,158.703-131.383,317.406-197.996,478.348c19.209,12.646,39.551,23.553,60.936,32.592
		c24.674,10.43,50.158,18.148,76.254,23.123C335.709,716.197,343.082,656.111,350.941,596.09z"/>
	<path fill="#FFFCEB" d="M412.783,242.889c2.176-1.049,4.344-2.09,6.52-3.133c97.186,126.646,194.385,253.318,292.393,381.037
		c15.287-21.799,28.244-45.146,38.713-69.881c7.467-17.641,13.545-35.695,18.223-54.094
		c-114.936-88.188-229.348-175.973-343.756-263.762c1.105-2.041,2.217-4.084,3.326-6.125
		c116.633,48.279,233.277,96.561,350.848,145.225c-3.053-38.23-11.805-75.418-26.137-110.973
		c-106.064-13.982-212.062-28.469-318.133-42.402c-25.83-3.393-33.641,4.418-30.248,30.248
		c22.236,169.545,44.844,339.037,67.195,508.566c0.801,6.078,1.551,12.162,2.268,18.25c25.324-4.986,50.068-12.559,74.045-22.693
		c21.891-9.252,42.689-20.455,62.297-33.484C544.314,560.336,478.555,401.609,412.783,242.889z"/>
</g>
<path fill="#358C36" d="M399.188,39.923c48.654,0,95.832,9.514,140.223,28.277c42.895,18.132,81.425,44.097,114.522,77.173
	c33.096,33.075,59.075,71.579,77.217,114.442c18.771,44.354,28.29,91.493,28.29,140.107s-9.52,95.753-28.29,140.107
	c-18.142,42.863-44.121,81.367-77.217,114.442c-33.098,33.077-71.628,59.041-114.522,77.173
	c-44.391,18.764-91.568,28.277-140.223,28.277s-95.832-9.514-140.224-28.277c-42.894-18.132-81.425-44.096-114.521-77.173
	c-33.096-33.075-59.076-71.579-77.216-114.442c-18.772-44.354-28.291-91.493-28.291-140.107s9.519-95.753,28.291-140.107
	c18.14-42.863,44.12-81.367,77.216-114.442c33.097-33.076,71.628-59.041,114.521-77.173
	C303.356,49.437,350.534,39.923,399.188,39.923 M399.188-0.077c-221.054,0-400.252,179.086-400.252,400s179.198,400,400.252,400
	c221.053,0,400.252-179.086,400.252-400S620.241-0.077,399.188-0.077L399.188-0.077z"/>
<ellipse fill="#358C36" cx="400" cy="583.508" rx="250.525" ry="52.505"/>
<g>
	<g>
		<path fill-rule="evenodd" clip-rule="evenodd" fill="#FFFCEB" d="M508.408,437.16c-12.781,45.477-25.561,90.955-38.354,136.429
			c-1.501,5.333-1.454,12.63-4.987,15.551c-7.73,6.388-17.355,14.739-26.113,14.635c-13.117-0.157-19.964-11.726-17.552-25.282
			c2.253-12.668,6.175-25.057,9.67-37.48c21.978-78.108,46.757-155.601,51.407-239.6c-38.649-13.157-68.379-38.16-84.445-81.868
			c-16.175,42.354-44.465,68.43-86.988,82.142c6.827,40.494,11.569,80.72,20.734,119.913
			c11.342,48.491,26.355,96.123,39.779,144.126c0.829,2.962,1.873,5.882,2.443,8.891c2.808,14.784-1.643,26.371-17.078,29.834
			c-14.357,3.221-23.646-4.53-27.543-18.242c-12.45-43.801-24.641-87.671-37.004-131.493c-1.638-5.811-3.691-11.502-5.552-17.247
			c-1.901-0.493-3.801-0.984-5.701-1.475c-2.11,5.81-5.977,11.598-6.051,17.432c-0.539,41.89-0.351,83.787-0.292,125.684
			c0.022,15.621-7.952,25.449-23.082,25.283c-15.127-0.167-22.975-10.203-22.591-25.779c0.091-3.695,0-7.393,0-11.09
			c-0.007-27.109,1.209-54.285-0.278-81.312c-2.729-49.609-7.051-99.132-10.708-148.691c-2.632-0.319-5.268-0.642-7.9-0.961
			c-3.418,11.534-9.338,22.983-9.733,34.621c-0.811,23.841,0.766,47.823,2.524,71.663c0.829,11.225,2.315,22.739-11.778,24.447
			c-12.674,1.535-16.666-9.274-16.814-19.718c-0.449-31.783-2.674-63.884,1.031-95.241c1.953-16.511,12.783-33.332,23.487-46.965
			c7.122-9.071,20.452-15.271,32.155-18.301c21.357-5.529,43.861-6.521,65.362-11.622c39.003-9.258,65.524-32.722,75.657-72.604
			c2.455-9.66,3.84-20.726,17.594-19.164c13.659,1.552,29.527-4.964,34.501,18.854c10.19,48.801,46.849,69.449,92.864,76.895
			c14.59,2.359,29.184,5.203,43.886,6.188c20.717,1.387,34.224,12.98,44.315,29.262c27.69,44.669,23.905,92.969,14.062,141.355
			c-0.945,4.641-10.679,7.493-16.331,11.177c-3.558-6.853-10.085-13.685-10.138-20.565c-0.197-25.069,2.902-50.178,2.416-75.226
			c-0.227-11.634-5.842-23.163-9.014-34.739c-1.938,0.118-3.875,0.235-5.815,0.354c-4.6,35.98-11.308,71.847-13.255,107.97
			c-2.318,43.002-0.479,86.226-0.584,129.354c-0.047,19.116-8.07,29.827-22.195,30.278c-14.74,0.473-23.312-10.608-23.385-30.926
			c-0.141-40.049,0.191-80.099-0.34-120.139c-0.078-5.971-3.779-11.895-5.803-17.841C512.73,436.337,510.57,436.748,508.408,437.16z
			"/>
		<path fill-rule="evenodd" clip-rule="evenodd" fill="#FFFCEB" d="M299.91,229.925c-0.545,23.084-20.797,42.308-43.452,41.246
			c-22.237-1.044-41.101-20.511-40.952-42.267c0.157-23.125,19.525-41.956,42.9-41.711
			C282.04,187.441,300.467,206.412,299.91,229.925z"/>
		<path fill-rule="evenodd" clip-rule="evenodd" fill="#FFFCEB" d="M495.908,229.498c-0.418-23.458,18.15-42.236,41.855-42.318
			c23.195-0.082,42.832,19.348,42.554,42.11c-0.267,21.866-19.345,41.196-41.404,41.951
			C516.137,272.021,496.325,252.792,495.908,229.498z"/>
	</g>
</g>
</svg>
