<?xml version="1.0" encoding="utf-8"?>
<!-- Generator: Adobe Illustrator 16.0.0, SVG Export Plug-In . SVG Version: 6.00 Build 0)  -->
<!DOCTYPE svg PUBLIC "-//W3C//DTD SVG 1.1//EN" "http://www.w3.org/Graphics/SVG/1.1/DTD/svg11.dtd">
<svg version="1.1" id="Layer_1" xmlns="http://www.w3.org/2000/svg" xmlns:xlink="http://www.w3.org/1999/xlink" x="0px" y="0px"
	 width="800px" height="800px" viewBox="0 0 800 800" enable-background="new 0 0 800 800" xml:space="preserve">
<path fill="#F39006" d="M400.118,780.371c-51.344,0-101.142-10.045-148.01-29.855c-45.277-19.139-85.945-46.541-120.873-81.447
	s-62.347-75.547-81.496-120.793c-19.822-46.836-29.873-96.598-29.873-147.904s10.051-101.068,29.873-147.902
	c19.149-45.248,46.568-85.889,81.496-120.793c34.928-34.906,75.596-62.309,120.873-81.449
	c46.868-19.811,96.666-29.855,148.01-29.855S501.26,30.416,548.127,50.227c45.278,19.141,85.946,46.543,120.874,81.449
	c34.928,34.904,62.347,75.545,81.497,120.793c19.821,46.834,29.872,96.596,29.872,147.902s-10.051,101.068-29.872,147.904
	c-19.15,45.246-46.569,85.887-81.497,120.793s-75.596,62.309-120.874,81.447C501.26,770.326,451.462,780.371,400.118,780.371z"/>
<g opacity="0.2">
	<g>
		<path fill-rule="evenodd" clip-rule="evenodd" fill="#FFFCEB" d="M766.5,447.237c-46.178-5.773-92.383-11.335-138.525-17.377
			c-69.244-9.061-138.43-18.554-207.668-27.649c-15.455-2.029-20.129,2.644-18.099,18.1
			c13.305,101.445,26.832,202.86,40.206,304.297c1.836,13.935,3.227,27.926,4.824,41.893c-31.49,0-62.986,0-94.477,0
			c5.777-46.179,11.34-92.386,17.381-138.528c9.063-69.244,18.554-138.428,27.646-207.668c2.033-15.468-2.621-20.126-18.093-18.096
			C278.25,415.513,176.83,429.04,75.393,442.415c-13.934,1.832-27.926,3.226-41.893,4.822c0-31.489,0-62.985,0-94.476
			c46.178,5.774,92.385,11.336,138.529,17.377c69.243,9.062,138.426,18.555,207.667,27.65c15.465,2.033,20.126-2.631,18.096-18.1
			c-13.305-101.442-26.832-202.86-40.204-304.297c-1.835-13.935-3.229-27.926-4.826-41.893c31.49,0,62.986,0,94.477,0
			c-5.777,46.179-11.339,92.382-17.377,138.525c-9.067,69.24-18.558,138.427-27.65,207.664c-2.029,15.456,2.641,20.133,18.1,18.103
			c101.442-13.305,202.859-26.832,304.297-40.207c13.934-1.835,27.926-3.226,41.893-4.823
			C766.5,384.252,766.5,415.748,766.5,447.237z"/>
		<path fill-rule="evenodd" clip-rule="evenodd" fill="#FFFCEB" d="M175.334,106.918c28.242-16.321,54.887-31.723,83.1-48.03
			c44.973,108.554,89.611,216.309,134.249,324.063c-1.196,0.785-2.392,1.574-3.589,2.357
			C318.282,293.092,247.477,200.871,175.334,106.918z"/>
		<path fill-rule="evenodd" clip-rule="evenodd" fill="#FFFCEB" d="M383.349,392.835
			c-107.724-44.612-215.446-89.226-324.461-134.377c16.314-28.206,31.872-55.099,48.052-83.066
			c93.582,71.811,185.955,142.696,278.324,213.581C384.627,390.259,383.988,391.547,383.349,392.835z"/>
		<path fill-rule="evenodd" clip-rule="evenodd" fill="#FFFCEB" d="M407.273,383.075c44.629-107.736,89.251-215.475,134.274-324.168
			c28.093,16.219,54.708,31.588,83.073,47.969c-71.654,93.395-142.73,186.031-213.805,278.664
			C409.637,384.72,408.456,383.896,407.273,383.075z"/>
		<path fill-rule="evenodd" clip-rule="evenodd" fill="#FFFCEB" d="M414.342,389.291c92.363-70.889,184.729-141.776,278.654-213.864
			c16.104,27.745,31.69,54.596,48.17,82.987c-108.674,45.023-216.429,89.665-324.178,134.304
			C416.104,391.575,415.227,390.434,414.342,389.291z"/>
		<path fill-rule="evenodd" clip-rule="evenodd" fill="#FFFCEB" d="M106.914,624.618c-16.215-28.028-31.643-54.698-48.045-83.058
			c108.703-45.018,216.785-89.779,324.867-134.546c0.675,1.206,1.35,2.412,2.03,3.617
			C293.085,481.753,200.404,552.874,106.914,624.618z"/>
		<path fill-rule="evenodd" clip-rule="evenodd" fill="#FFFCEB" d="M258.478,741.144c-28.314-16.371-54.972-31.785-83.093-48.046
			c71.729-93.482,142.853-186.164,213.971-278.852c1.202,0.662,2.404,1.324,3.607,1.985
			C348.404,523.885,303.842,631.537,258.478,741.144z"/>
		<path fill-rule="evenodd" clip-rule="evenodd" fill="#FFFCEB" d="M741.138,541.516c-16.321,28.242-31.716,54.88-48.026,83.105
			c-93.433-71.69-186.082-142.775-278.731-213.868c0.662-1.222,1.327-2.443,1.991-3.665
			C523.941,451.615,631.519,496.143,741.138,541.516z"/>
		<path fill-rule="evenodd" clip-rule="evenodd" fill="#FFFCEB" d="M411.046,414.762c70.882,92.369,141.765,184.745,213.537,278.272
			c-27.653,16.038-54.233,31.455-82.972,48.122c-44.973-108.53-89.716-216.527-134.466-324.521
			C408.447,416.009,409.744,415.386,411.046,414.762z"/>
	</g>
</g>
<path fill-rule="evenodd" clip-rule="evenodd" fill="#FFFCEB" d="M334,670l65.772-223c1.109-4.729-1.955-8.601-6.814-8.601H256.54
	c-4.857,0-7.398-3.708-5.648-8.238l16.892-42.938c1.756-4.53,4.643-11.938,6.414-16.461l72.119-185.395
	c1.76-4.527,5.434-11.521,8.164-15.54c0,0,2.363-3.479,10.988-3.372c39.238,0.48,78.482,0.231,117.723,0.246
	c4.188,0,5.848,0,5.848,0c4.857,0,7.303,3.667,5.432,8.151L421.994,348.68c-1.869,4.483,0.576,8.152,5.434,8.152h124.818
	c4.857,0,6.617,3.301,3.912,7.336L349.369,672.306C335,693.5,330,682.189,334,670z"/>
<polygon fill-rule="evenodd" clip-rule="evenodd" fill="#FFFCEB" points="92,186 705,186 655,121 535,46 421,23 304,38 194,88 "/>
<path fill="#BE5417" d="M400.118,40.371c48.654,0,95.832,9.514,140.223,28.277c42.894,18.133,81.425,44.098,114.522,77.174
	c33.096,33.074,59.075,71.578,77.217,114.441c18.771,44.355,28.29,91.494,28.29,140.107c0,48.615-9.519,95.754-28.29,140.107
	c-18.142,42.863-44.121,81.367-77.217,114.443c-33.098,33.076-71.629,59.041-114.522,77.172
	c-44.391,18.764-91.568,28.277-140.223,28.277s-95.832-9.514-140.223-28.277c-42.895-18.131-81.426-44.096-114.522-77.172
	c-33.096-33.076-59.075-71.58-77.216-114.443c-18.772-44.354-28.291-91.492-28.291-140.107c0-48.613,9.519-95.752,28.291-140.107
	c18.141-42.863,44.12-81.367,77.216-114.441c33.097-33.076,71.628-59.041,114.522-77.174
	C304.286,49.885,351.464,40.371,400.118,40.371 M400.118,0.371c-221.053,0-400.252,179.086-400.252,400s179.199,400,400.252,400
	s400.252-179.086,400.252-400S621.171,0.371,400.118,0.371L400.118,0.371z"/>
</svg>
