<?xml version="1.0" encoding="utf-8"?>
<!-- Generator: Adobe Illustrator 16.0.0, SVG Export Plug-In . SVG Version: 6.00 Build 0)  -->
<!DOCTYPE svg PUBLIC "-//W3C//DTD SVG 1.1//EN" "http://www.w3.org/Graphics/SVG/1.1/DTD/svg11.dtd">
<svg version="1.1" id="Layer_1" xmlns="http://www.w3.org/2000/svg" xmlns:xlink="http://www.w3.org/1999/xlink" x="0px" y="0px"
	 width="800px" height="800px" viewBox="0 0 800 800" enable-background="new 0 0 800 800" xml:space="preserve">
<path fill="#FFCB00" d="M406.372,796.336c-51.344,0-101.142-10.046-148.01-29.856c-45.276-19.139-85.944-46.541-120.873-81.447
	c-34.928-34.905-62.347-75.547-81.496-120.793c-19.822-46.836-29.874-96.598-29.874-147.903c0-51.308,10.052-101.069,29.874-147.903
	c19.149-45.248,46.568-85.889,81.496-120.793c34.929-34.906,75.597-62.309,120.873-81.449
	c46.868-19.811,96.666-29.854,148.01-29.854S507.514,46.38,554.381,66.19c45.278,19.141,85.946,46.543,120.874,81.449
	c34.927,34.904,62.347,75.545,81.497,120.793c19.821,46.834,29.873,96.596,29.873,147.903c0,51.306-10.052,101.067-29.873,147.903
	c-19.15,45.246-46.57,85.888-81.497,120.793c-34.928,34.906-75.596,62.309-120.874,81.447
	C507.514,786.29,457.716,796.336,406.372,796.336z"/>
<path fill="#F28F06" d="M400.832,40.336c48.654,0,95.832,9.513,140.221,28.276c42.895,18.133,81.427,44.098,114.524,77.174
	c33.096,33.074,59.075,71.578,77.217,114.441c18.771,44.356,28.29,91.494,28.29,140.108s-9.519,95.753-28.29,140.106
	c-18.142,42.863-44.121,81.367-77.217,114.443c-33.098,33.076-71.63,59.041-114.524,77.172
	c-44.389,18.764-91.566,28.278-140.221,28.278S305,750.821,260.609,732.058c-42.895-18.131-81.426-44.096-114.523-77.172
	c-33.095-33.076-59.074-71.58-77.215-114.443C50.098,496.089,40.58,448.95,40.58,400.336s9.518-95.752,28.291-140.108
	c18.141-42.863,44.12-81.367,77.215-114.441c33.098-33.076,71.629-59.041,114.523-77.174C305,49.849,352.178,40.336,400.832,40.336
	 M400.832,0.336c-221.053,0-400.252,179.085-400.252,400c0,220.914,179.199,400,400.252,400s400.252-179.086,400.252-400
	C801.084,179.421,621.885,0.336,400.832,0.336L400.832,0.336z"/>
<g opacity="0.7">
	<g>
		<path fill-rule="evenodd" clip-rule="evenodd" fill="#FFFCEB" d="M515.578,298.242c15.646-1.506,30.605-2.943,45.562-4.379
			c1.549-0.15,3.096-0.299,5.101-0.49c1.901,15.352,8.919,25.949,25.657,28.598c-1.445-15.02-2.744-29.445-4.371-43.84
			c-0.137-1.186-2.35-2.656-3.857-3.09c-12.064-3.455-24.488-5.898-36.234-10.195c-16.293-5.961-28.876-16.625-33.479-34.199
			c-8.701-33.225,1.649-61.525,35.938-76.229c6.873-2.951,14.08-5.193,21.262-7.338c2.977-0.887,3.941-2.098,3.514-5.109
			c-0.637-4.473-0.918-8.996-1.391-13.906c7.885-0.756,15.414-1.479,23.443-2.25c0.549,5.729,1.092,11.402,1.643,17.141
			c8.933,0.781,17.455,1.055,25.822,2.361c21.697,3.379,38.857,13.662,47.9,34.492c2.721,6.271,3.678,13.307,5.593,20.555
			c-17.066,1.639-32.972,3.168-49.257,4.734c-3.309-12.879-10.747-21.119-25.967-21.154c0.539,5.598,1.05,10.91,1.561,16.219
			c0.635,6.615,1.473,13.219,1.822,19.844c0.199,3.727,1.547,5.191,5.293,6.203c13.621,3.678,27.615,6.699,40.498,12.227
			c27.217,11.682,38.072,30.902,36.803,61.305c-1.047,25.02-16.318,44.797-42.138,53.725c-8.524,2.947-17.458,4.721-26.749,7.17
			c0.851,8.857,1.73,18.006,2.648,27.555c-8.033,0.77-15.551,1.494-23.598,2.268c-0.895-9.314-1.773-18.473-2.699-28.107
			c-25.684,0.633-48.757-4.693-65.581-25.477C521.385,325.838,516.732,313.111,515.578,298.242z M615.884,321.164
			c13.47-1.627,22.771-10.473,22.261-20.689c-0.59-11.926-12.039-21.268-26.291-21.266
			C613.189,293.08,614.518,306.926,615.884,321.164z M578.52,185.068c-10.244,0.676-19.059,9.729-18.803,18.746
			c0.289,10.104,9.883,17.812,22.316,17.828C580.873,209.553,579.712,197.479,578.52,185.068z"/>
	</g>
</g>
<g opacity="0.7">
	<g>
		<path fill-rule="evenodd" clip-rule="evenodd" fill="#FFFCEB" d="M104.184,502.061c13.683-6.566,26.763-12.842,39.841-19.117
			c1.354-0.648,2.708-1.299,4.46-2.139c6.827,13.281,16.71,20.553,32.762,17.388c-6.302-13.132-12.279-25.776-18.539-38.278
			c-0.518-1.031-3.012-1.629-4.521-1.518c-12.085,0.877-24.154,2.793-36.229,2.804c-16.754,0.013-31.7-5.466-41.716-19.864
			c-18.935-27.221-18.962-56.311,7.228-81.037c5.252-4.959,11.036-9.39,16.831-13.719c2.403-1.795,2.878-3.213,1.485-5.801
			c-2.063-3.842-3.822-7.846-5.881-12.141c6.894-3.307,13.475-6.463,20.494-9.832c2.404,5.008,4.785,9.97,7.191,14.984
			c8.354-2.258,16.172-4.844,24.188-6.445c20.79-4.148,39.761-0.535,54.881,15.339c4.552,4.78,7.761,10.838,11.905,16.771
			c-14.924,7.16-28.834,13.834-43.072,20.668c-7.277-10.572-16.76-15.569-30.566-10.539c2.35,4.895,4.576,9.537,6.805,14.18
			c2.775,5.785,5.73,11.489,8.254,17.379c1.418,3.312,3.127,4.193,6.857,3.863c13.564-1.196,27.256-3.111,40.77-2.383
			c28.551,1.537,44.783,15.35,53.737,43.326c7.368,23.024,0.104,46.027-20.327,62.703c-6.748,5.507-14.256,10.082-21.859,15.395
			c3.713,7.74,7.553,15.742,11.557,24.089c-7.021,3.37-13.596,6.524-20.633,9.9c-3.906-8.143-7.75-16.151-11.791-24.573
			c-23.065,9.11-45.75,11.953-67.908-1.291C118.625,525.144,110.174,515.153,104.184,502.061z M202.719,489.487
			c11.666-5.951,17.152-17.062,13.298-26.153c-4.501-10.611-17.985-15.272-30.901-10.531
			C190.936,464.93,196.745,477.039,202.719,489.487z M123.604,378.561c-9.062,4.018-14.04,15.154-10.81,23.244
			c3.621,9.059,14.879,12.856,26.155,8.736C133.878,399.972,128.812,389.412,123.604,378.561z"/>
	</g>
</g>
<g>
	<g>
		<path fill-rule="evenodd" clip-rule="evenodd" fill="#F28F06" d="M241.52,434.509c26.323,5.744,51.484,11.237,76.643,16.728
			c2.604,0.568,5.213,1.137,8.576,1.871c-4.938,26.043,0.96,47.012,26.885,60.1c5.512-25.257,10.947-49.481,15.832-73.82
			c0.4-2.008-2.439-5.566-4.674-7.056c-17.875-11.965-36.863-22.458-53.779-35.621c-23.467-18.269-38.412-42.254-36.714-73.343
			c3.206-58.775,34.918-99.527,98.574-105.554c12.767-1.212,25.696-1.099,38.534-0.832c5.325,0.112,7.535-1.358,8.409-6.501
			c1.306-7.631,3.217-15.156,5.019-23.412c13.264,2.894,25.921,5.654,39.428,8.602c-2.104,9.637-4.188,19.186-6.291,28.83
			c14.157,5.957,27.926,10.871,40.893,17.381c33.635,16.883,56.246,42.65,60.086,81.375c1.155,11.662-0.964,23.644-1.64,36.468
			c-28.704-6.264-55.462-12.103-82.853-18.08c1.348-22.742-6.472-40.089-31.285-48.114c-2.057,9.414-4.006,18.346-5.953,27.281
			c-2.43,11.123-4.521,22.336-7.418,33.335c-1.631,6.179-0.195,9.279,5.382,12.891c20.298,13.137,41.553,25.395,59.677,41.166
			c38.291,33.315,45.932,70.369,27.932,119.307c-14.812,40.273-50.092,64.55-96.898,65.591c-15.455,0.342-30.959-1.447-47.402-2.314
			c-3.252,14.896-6.609,30.288-10.114,46.343c-13.509-2.949-26.153-5.71-39.688-8.662c3.416-15.669,6.781-31.069,10.315-47.271
			c-42.235-12.422-77.095-33.202-93.657-75.929C236.541,482.581,235.615,459.377,241.52,434.509z M393.185,524.462
			c22.825,4.405,42.636-5.16,47.161-22.097c5.283-19.769-8.506-41.015-31.76-48.472
			C403.494,477.222,398.414,500.515,393.185,524.462z M403.514,282.82c-17.068-4.264-36.196,5.889-40.504,20.74
			c-4.818,16.635,6.795,34.239,27.076,40.782C394.523,324.006,398.953,303.694,403.514,282.82z"/>
	</g>
</g>
</svg>
