<?xml version="1.0" encoding="utf-8"?>
<!-- Generator: Adobe Illustrator 16.0.0, SVG Export Plug-In . SVG Version: 6.00 Build 0)  -->
<!DOCTYPE svg PUBLIC "-//W3C//DTD SVG 1.1//EN" "http://www.w3.org/Graphics/SVG/1.1/DTD/svg11.dtd">
<svg version="1.1" id="Layer_1" xmlns="http://www.w3.org/2000/svg" xmlns:xlink="http://www.w3.org/1999/xlink" x="0px" y="0px"
	 width="800px" height="800px" viewBox="0 0 800 800" enable-background="new 0 0 800 800" xml:space="preserve">
<path fill="#DC2729" d="M400,780c-51.344,0-101.142-10.045-148.01-29.855c-45.277-19.139-85.945-46.541-120.873-81.447
	S68.771,593.15,49.621,547.904C29.799,501.068,19.748,451.307,19.748,400s10.051-101.068,29.873-147.902
	c19.149-45.248,46.568-85.889,81.496-120.793c34.928-34.906,75.596-62.309,120.873-81.449C298.858,30.045,348.656,20,400,20
	s101.142,10.045,148.009,29.855c45.278,19.141,85.946,46.543,120.874,81.449c34.928,34.904,62.347,75.545,81.497,120.793
	c19.821,46.834,29.872,96.596,29.872,147.902s-10.051,101.068-29.872,147.904c-19.15,45.246-46.569,85.887-81.497,120.793
	s-75.596,62.309-120.874,81.447C501.142,769.955,451.344,780,400,780z"/>
<path fill="#871811" d="M400,40.371c48.654,0,95.832,9.514,140.223,28.277c42.894,18.133,81.425,44.098,114.522,77.174
	c33.096,33.074,59.075,71.578,77.217,114.441c18.771,44.355,28.29,91.494,28.29,140.107c0,48.615-9.519,95.754-28.29,140.107
	c-18.142,42.863-44.121,81.367-77.217,114.443c-33.098,33.076-71.629,59.041-114.522,77.172
	c-44.391,18.764-91.568,28.277-140.223,28.277s-95.832-9.514-140.223-28.277c-42.895-18.131-81.426-44.096-114.522-77.172
	c-33.096-33.076-59.075-71.58-77.216-114.443c-18.772-44.354-28.291-91.492-28.291-140.107c0-48.613,9.519-95.752,28.291-140.107
	c18.141-42.863,44.12-81.367,77.216-114.441c33.097-33.076,71.628-59.041,114.522-77.174C304.168,49.885,351.346,40.371,400,40.371
	 M400,0.371c-221.053,0-400.252,179.086-400.252,400s179.199,400,400.252,400s400.252-179.086,400.252-400S621.053,0.371,400,0.371
	L400,0.371z"/>
<g>
	<g>
		<path fill="#FFFCEB" d="M582.603,542.902c3.896,16.033-6.033,32.34-22.066,36.236l-284.923,69.248
			c-16.033,3.896-32.34-6.033-36.236-22.066l-89.98-370.222c-3.896-16.033,6.033-32.34,22.066-36.236l284.923-69.249
			c16.033-3.896,32.34,6.033,36.236,22.066L582.603,542.902z"/>
	</g>
	
		<line fill="none" stroke="#DC2729" stroke-width="10" stroke-linecap="round" stroke-linejoin="round" stroke-miterlimit="10" x1="193.107" y1="263.999" x2="453.526" y2="200.706"/>
	
		<line fill="none" stroke="#DC2729" stroke-width="10" stroke-linecap="round" stroke-linejoin="round" stroke-miterlimit="10" x1="206.097" y1="317.443" x2="466.516" y2="254.149"/>
	
		<line fill="none" stroke="#DC2729" stroke-width="10" stroke-linecap="round" stroke-linejoin="round" stroke-miterlimit="10" x1="219.086" y1="370.887" x2="479.506" y2="307.594"/>
	
		<line fill="none" stroke="#DC2729" stroke-width="10" stroke-linecap="round" stroke-linejoin="round" stroke-miterlimit="10" x1="232.075" y1="424.33" x2="492.494" y2="361.037"/>
	
		<line fill="none" stroke="#DC2729" stroke-width="10" stroke-linecap="round" stroke-linejoin="round" stroke-miterlimit="10" x1="247.008" y1="477.304" x2="507.426" y2="414.01"/>
	
		<line fill="none" stroke="#DC2729" stroke-width="10" stroke-linecap="round" stroke-linejoin="round" stroke-miterlimit="10" x1="259.998" y1="530.747" x2="520.416" y2="467.454"/>
	
		<line fill="none" stroke="#DC2729" stroke-width="10" stroke-linecap="round" stroke-linejoin="round" stroke-miterlimit="10" x1="272.986" y1="584.191" x2="533.406" y2="520.897"/>
</g>
<g>
	<polygon fill-rule="evenodd" clip-rule="evenodd" fill="#871811" points="529.466,497.744 458.729,523.608 451.376,448.649 
		598.659,214.377 676.748,263.471 	"/>
</g>
</svg>
