<?xml version="1.0" encoding="utf-8"?>
<!-- Generator: Adobe Illustrator 16.0.0, SVG Export Plug-In . SVG Version: 6.00 Build 0)  -->
<!DOCTYPE svg PUBLIC "-//W3C//DTD SVG 1.1//EN" "http://www.w3.org/Graphics/SVG/1.1/DTD/svg11.dtd">
<svg version="1.1" id="Layer_1" xmlns="http://www.w3.org/2000/svg" xmlns:xlink="http://www.w3.org/1999/xlink" x="0px" y="0px"
	 width="800px" height="800px" viewBox="0 0 800 800" enable-background="new 0 0 800 800" xml:space="preserve">
<path fill="#313130" d="M400,780c-51.344,0-101.142-10.045-148.01-29.855c-45.277-19.14-85.945-46.542-120.873-81.448
	c-34.928-34.905-62.347-75.546-81.496-120.793C29.799,501.068,19.748,451.307,19.748,400s10.051-101.068,29.873-147.903
	c19.149-45.247,46.568-85.888,81.496-120.793c34.928-34.906,75.596-62.309,120.873-81.448C298.858,30.045,348.656,20,400,20
	s101.142,10.045,148.009,29.855c45.278,19.14,85.946,46.542,120.874,81.448c34.928,34.905,62.347,75.546,81.497,120.793
	c19.821,46.835,29.872,96.597,29.872,147.903s-10.051,101.068-29.872,147.903c-19.15,45.247-46.569,85.888-81.497,120.793
	c-34.928,34.906-75.596,62.309-120.874,81.448C501.142,769.955,451.344,780,400,780z"/>
<g>
	<g>
		<path fill-rule="evenodd" clip-rule="evenodd" fill="#222122" d="M766.5,447.237c-46.179-5.773-92.384-11.335-138.524-17.377
			c-69.245-9.061-138.431-18.554-207.668-27.649c-15.457-2.029-20.13,2.644-18.1,18.1c13.305,101.445,26.832,202.86,40.205,304.297
			c1.836,13.935,3.229,27.926,4.824,41.893c-31.489,0-62.984,0-94.476,0c5.777-46.179,11.339-92.386,17.381-138.528
			c9.063-69.244,18.554-138.428,27.646-207.668c2.033-15.468-2.62-20.126-18.093-18.096
			c-101.447,13.305-202.867,26.832-304.304,40.207c-13.934,1.832-27.927,3.226-41.893,4.822c0-31.489,0-62.985,0-94.476
			c46.178,5.774,92.384,11.336,138.529,17.377c69.243,9.062,138.425,18.555,207.667,27.65c15.465,2.033,20.126-2.631,18.096-18.1
			c-13.305-101.442-26.832-202.86-40.205-304.297c-1.834-13.935-3.228-27.926-4.825-41.893c31.491,0,62.986,0,94.476,0
			c-5.775,46.179-11.338,92.382-17.376,138.525c-9.067,69.24-18.558,138.427-27.649,207.664
			c-2.029,15.456,2.639,20.133,18.099,18.103c101.442-13.305,202.86-26.832,304.297-40.206c13.934-1.836,27.925-3.227,41.893-4.824
			C766.5,384.252,766.5,415.748,766.5,447.237z"/>
		<path fill-rule="evenodd" clip-rule="evenodd" fill="#222122" d="M175.333,106.918c28.243-16.321,54.887-31.723,83.1-48.03
			c44.974,108.554,89.612,216.309,134.25,324.063c-1.197,0.785-2.392,1.574-3.589,2.357
			C318.282,293.092,247.477,200.871,175.333,106.918z"/>
		<path fill-rule="evenodd" clip-rule="evenodd" fill="#222122" d="M383.349,392.836
			c-107.724-44.613-215.447-89.227-324.461-134.378c16.314-28.206,31.872-55.099,48.052-83.066
			c93.581,71.811,185.955,142.696,278.325,213.581C384.628,390.259,383.987,391.547,383.349,392.836z"/>
		<path fill-rule="evenodd" clip-rule="evenodd" fill="#222122" d="M407.273,383.075c44.628-107.736,89.251-215.475,134.274-324.168
			c28.094,16.219,54.708,31.588,83.072,47.969c-71.654,93.395-142.729,186.031-213.805,278.664
			C409.636,384.72,408.456,383.896,407.273,383.075z"/>
		<path fill-rule="evenodd" clip-rule="evenodd" fill="#222122" d="M414.342,389.291c92.362-70.889,184.729-141.776,278.654-213.864
			c16.104,27.745,31.69,54.596,48.169,82.987c-108.673,45.023-216.428,89.665-324.178,134.304
			C416.104,391.575,415.227,390.434,414.342,389.291z"/>
		<path fill-rule="evenodd" clip-rule="evenodd" fill="#222122" d="M106.913,624.618c-16.214-28.028-31.643-54.698-48.045-83.058
			c108.704-45.018,216.785-89.779,324.867-134.546c0.676,1.206,1.352,2.412,2.031,3.617
			C293.085,481.753,200.403,552.874,106.913,624.618z"/>
		<path fill-rule="evenodd" clip-rule="evenodd" fill="#222122" d="M258.478,741.144c-28.314-16.371-54.972-31.785-83.094-48.046
			c71.729-93.482,142.854-186.164,213.972-278.852c1.202,0.662,2.404,1.324,3.607,1.985
			C348.403,523.885,303.842,631.537,258.478,741.144z"/>
		<path fill-rule="evenodd" clip-rule="evenodd" fill="#222122" d="M741.138,541.516c-16.322,28.242-31.717,54.88-48.026,83.105
			c-93.433-71.69-186.082-142.775-278.731-213.868c0.662-1.222,1.327-2.443,1.99-3.665
			C523.941,451.615,631.519,496.143,741.138,541.516z"/>
		<path fill-rule="evenodd" clip-rule="evenodd" fill="#222122" d="M411.046,414.762c70.882,92.369,141.765,184.745,213.537,278.272
			c-27.653,16.038-54.234,31.455-82.972,48.122c-44.974-108.529-89.716-216.527-134.466-324.521
			C408.447,416.009,409.744,415.386,411.046,414.762z"/>
	</g>
</g>
<g>
	<g>
		<path fill="#FFFCEB" d="M144.93,350.844c0-41.326,21.766-64.94,61.62-64.94c39.85,0,61.621,23.614,61.621,64.94v134.312
			c0,41.326-21.771,64.939-61.621,64.939c-39.854,0-61.62-23.613-61.62-64.939V350.844z M185.517,487.738
			c0,18.451,8.115,25.461,21.033,25.461c12.914,0,21.032-7.01,21.032-25.461V348.261c0-18.446-8.118-25.458-21.032-25.458
			c-12.918,0-21.033,7.012-21.033,25.458V487.738z"/>
	</g>
	<g>
		<path fill="#FFFCEB" d="M458.854,450.842v34.314c0,41.326-20.659,64.939-60.516,64.939c-39.849,0-60.509-23.613-60.509-64.939
			V350.844c0-41.326,20.66-64.94,60.509-64.94c39.856,0,60.516,23.614,60.516,64.94v25.093h-38.371v-27.676
			c0-18.446-8.12-25.458-21.035-25.458c-12.917,0-21.031,7.012-21.031,25.458v139.477c0,18.451,8.114,25.092,21.031,25.092
			c12.915,0,21.035-6.641,21.035-25.092v-36.896H458.854z"/>
	</g>
	<g>
		<path fill="#FFFCEB" d="M530.354,288.858h64.208c40.589,0,60.509,22.506,60.509,63.833v130.62
			c0,41.328-19.92,63.834-60.509,63.834h-64.208V288.858z M570.948,325.755v184.489h22.875c12.912,0,20.66-6.639,20.66-25.088
			V350.844c0-18.446-7.748-25.089-20.66-25.089H570.948z"/>
	</g>
</g>
<path fill="#222122" d="M400,40c48.654,0,95.832,9.514,140.223,28.277c42.894,18.132,81.425,44.097,114.522,77.173
	c33.096,33.075,59.075,71.579,77.217,114.442c18.771,44.354,28.29,91.493,28.29,140.107s-9.519,95.753-28.29,140.107
	c-18.142,42.863-44.121,81.367-77.217,114.442c-33.098,33.076-71.629,59.041-114.522,77.173C495.832,750.486,448.654,760,400,760
	s-95.832-9.514-140.223-28.277c-42.895-18.132-81.426-44.097-114.522-77.173c-33.096-33.075-59.075-71.579-77.216-114.442
	C49.267,495.753,39.748,448.614,39.748,400s9.519-95.753,28.291-140.107c18.141-42.863,44.12-81.367,77.216-114.442
	c33.097-33.076,71.628-59.041,114.522-77.173C304.168,49.514,351.346,40,400,40 M400,0C178.947,0-0.252,179.086-0.252,400
	S178.947,800,400,800s400.252-179.086,400.252-400S621.053,0,400,0L400,0z"/>
<g>
	<polygon fill="#FFCB00" points="400,82.78 412.743,108.601 441.239,112.741 420.619,132.84 425.487,161.22 400,147.821 
		374.513,161.22 379.38,132.84 358.761,112.741 387.256,108.601 	"/>
</g>
<g>
	<polygon fill="#FFCB00" points="539,121.78 551.743,147.601 580.239,151.741 559.619,171.84 564.487,200.22 539,186.821 
		513.514,200.22 518.381,171.84 497.762,151.741 526.256,147.601 	"/>
</g>
<g>
	<polygon fill="#FFCB00" points="263,121.78 275.743,147.601 304.239,151.741 283.619,171.84 288.487,200.22 263,186.821 
		237.514,200.22 242.381,171.84 221.762,151.741 250.256,147.601 	"/>
</g>
<g>
	<path fill="#FFCB00" d="M400,45.47c47.91,0,94.369,9.37,138.089,27.851c42.244,17.857,80.188,43.426,112.779,75.995
		c32.589,32.568,58.172,70.485,76.038,112.7c18.49,43.687,27.865,90.111,27.865,137.984c0,47.874-9.375,94.298-27.865,137.983
		c-17.866,42.216-43.449,80.134-76.038,112.701c-32.595,32.572-70.538,58.14-112.779,75.993
		c-43.716,18.48-90.176,27.852-138.089,27.852c-47.913,0-94.373-9.371-138.091-27.852c-42.241-17.854-80.185-43.422-112.777-75.993
		c-32.59-32.57-58.173-70.488-76.038-112.701C54.604,494.295,45.229,447.871,45.229,400c0-47.87,9.375-94.294,27.866-137.984
		c17.865-42.211,43.448-80.129,76.038-112.7c32.588-32.568,70.532-58.137,112.777-75.995C305.63,54.841,352.091,45.47,400,45.47
		 M400,35.47c-49.253,0-97.024,9.636-141.984,28.64c-43.434,18.361-82.447,44.647-115.953,78.133
		c-33.505,33.485-59.809,72.47-78.178,115.875C44.871,303.046,35.229,350.782,35.229,400c0,49.219,9.642,96.954,28.657,141.881
		c18.37,43.406,44.673,82.393,78.178,115.877c33.506,33.484,72.519,59.772,115.953,78.131
		c44.959,19.006,92.731,28.641,141.984,28.641s97.024-9.635,141.982-28.641c43.436-18.358,82.447-44.646,115.954-78.131
		s59.809-72.471,78.179-115.877c19.016-44.927,28.656-92.662,28.656-141.881c0-49.218-9.641-96.954-28.656-141.882
		c-18.37-43.405-44.672-82.391-78.179-115.875c-33.507-33.485-72.519-59.772-115.954-78.133C497.024,45.106,449.253,35.47,400,35.47
		L400,35.47z"/>
</g>
</svg>
