<?xml version="1.0" encoding="utf-8"?>
<!-- Generator: Adobe Illustrator 16.0.0, SVG Export Plug-In . SVG Version: 6.00 Build 0)  -->
<!DOCTYPE svg PUBLIC "-//W3C//DTD SVG 1.1//EN" "http://www.w3.org/Graphics/SVG/1.1/DTD/svg11.dtd">
<svg version="1.1" id="Layer_1" xmlns="http://www.w3.org/2000/svg" xmlns:xlink="http://www.w3.org/1999/xlink" x="0px" y="0px"
	 width="800px" height="800px" viewBox="0 0 800 800" enable-background="new 0 0 800 800" xml:space="preserve">
<path fill="#DC2729" d="M400,779.948c-51.345,0-101.142-10.045-148.01-29.855c-45.277-19.14-85.945-46.542-120.873-81.448
	c-34.928-34.905-62.348-75.546-81.498-120.793c-19.82-46.835-29.871-96.597-29.871-147.903S29.799,298.88,49.619,252.045
	c19.15-45.247,46.57-85.888,81.498-120.793c34.928-34.906,75.596-62.309,120.873-81.448C298.858,29.993,348.655,19.948,400,19.948
	c51.344,0,101.142,10.045,148.009,29.855c45.278,19.14,85.946,46.542,120.874,81.448c34.928,34.905,62.347,75.546,81.497,120.793
	c19.821,46.835,29.872,96.597,29.872,147.903s-10.051,101.068-29.872,147.903c-19.15,45.247-46.569,85.888-81.497,120.793
	c-34.928,34.906-75.596,62.309-120.874,81.448C501.142,769.903,451.344,779.948,400,779.948z"/>
<ellipse fill="#871811" cx="546.334" cy="434" rx="47" ry="68.333"/>
<ellipse fill="#871811" cx="244.334" cy="434" rx="47" ry="68.333"/>
<path fill-rule="evenodd" clip-rule="evenodd" fill="#FFFCEB" d="M468.334,528c0,0-7.772,84.226,33.334,105.333
	C541.212,653.64,649,699,649,699l-150.666,69.667l-162.666,4l-118-50L176,720c0,0,76.11-58.435,114.359-79.391
	c21.307-11.674,41.975-24.608,36.641-107.942L468.334,528z"/>
<path fill="#871811" d="M400,39.948c48.654,0,95.832,9.514,140.223,28.277c42.893,18.132,81.425,44.097,114.522,77.173
	c33.096,33.075,59.075,71.579,77.217,114.442c18.771,44.354,28.29,91.493,28.29,140.107s-9.519,95.753-28.29,140.107
	c-18.142,42.863-44.121,81.367-77.217,114.442c-33.098,33.076-71.63,59.041-114.522,77.173
	c-44.391,18.764-91.568,28.277-140.223,28.277s-95.832-9.514-140.223-28.277c-42.895-18.132-81.426-44.097-114.522-77.173
	c-33.096-33.075-59.075-71.579-77.216-114.442c-18.773-44.354-28.291-91.493-28.291-140.107s9.518-95.753,28.291-140.107
	c18.141-42.863,44.12-81.367,77.216-114.442c33.097-33.076,71.628-59.041,114.522-77.173C304.168,49.462,351.346,39.948,400,39.948
	 M400-0.052c-221.053,0-400.252,179.086-400.252,400s179.199,400,400.252,400s400.252-179.086,400.252-400S621.053-0.052,400-0.052
	L400-0.052z"/>
<path fill-rule="evenodd" clip-rule="evenodd" fill="#DC2729" d="M312.666,552c0,0,89.336,106,174.002,0H312.666z"/>
<ellipse fill-rule="evenodd" clip-rule="evenodd" fill="#FFFCEB" cx="400" cy="400" rx="153" ry="181.479"/>
<path fill-rule="evenodd" clip-rule="evenodd" fill="#871811" d="M244.334,404.667c0,0,38.666-29,58.666-78
	c0,0,160,65.334,254,39.334c0,0-6-76.001-30-98.001s-86-53-86-53l-68-4c0,0-44,1-64,18s-55.335,61.453-65.998,83
	C226.668,345.001,244.334,404.667,244.334,404.667z"/>
<path fill="none" stroke="#871811" stroke-width="10" stroke-miterlimit="10" d="M567.018,381c0,0,21.67-163-123.127-187
	c-144.798-24-195.033,57-195.033,57s-47.281,63-25.611,151"/>
<ellipse transform="matrix(0.9892 0.1468 -0.1468 0.9892 84.8362 -59.2072)" fill-rule="evenodd" clip-rule="evenodd" fill="#871811" cx="443.667" cy="545.334" rx="28.001" ry="17.332"/>
<path fill-rule="evenodd" clip-rule="evenodd" fill="none" stroke="#871811" stroke-width="10" stroke-miterlimit="10" d="
	M453,543.5c0,0,70.5,34,97-54.5"/>
</svg>
