<?xml version="1.0" encoding="utf-8"?>
<!-- Generator: Adobe Illustrator 16.0.0, SVG Export Plug-In . SVG Version: 6.00 Build 0)  -->
<!DOCTYPE svg PUBLIC "-//W3C//DTD SVG 1.1//EN" "http://www.w3.org/Graphics/SVG/1.1/DTD/svg11.dtd">
<svg version="1.1" id="Layer_1" xmlns="http://www.w3.org/2000/svg" xmlns:xlink="http://www.w3.org/1999/xlink" x="0px" y="0px"
	 width="800px" height="800px" viewBox="0 0 800 800" enable-background="new 0 0 800 800" xml:space="preserve">
<path fill="#DC2729" d="M400.154,779.873c-51.344,0-101.142-10.045-148.01-29.855c-45.277-19.14-85.945-46.542-120.873-81.448
	c-34.928-34.905-62.347-75.546-81.496-120.793c-19.822-46.835-29.873-96.597-29.873-147.903S29.953,298.805,49.775,251.97
	c19.149-45.247,46.568-85.888,81.496-120.793c34.928-34.906,75.596-62.309,120.873-81.448
	c46.868-19.811,96.666-29.855,148.01-29.855s101.142,10.045,148.009,29.855c45.278,19.14,85.946,46.542,120.874,81.448
	c34.928,34.905,62.347,75.546,81.497,120.793c19.821,46.835,29.872,96.597,29.872,147.903s-10.051,101.068-29.872,147.903
	c-19.15,45.247-46.569,85.888-81.497,120.793c-34.928,34.906-75.596,62.309-120.874,81.448
	C501.296,769.828,451.498,779.873,400.154,779.873z"/>
<path fill="#871811" d="M400.078,39.873c48.654,0,95.832,9.514,140.223,28.277c42.894,18.132,81.425,44.097,114.522,77.173
	c33.095,33.075,59.075,71.579,77.217,114.442c18.771,44.354,28.29,91.493,28.29,140.107s-9.519,95.754-28.29,140.107
	c-18.142,42.863-44.122,81.367-77.217,114.442c-33.098,33.077-71.629,59.041-114.522,77.173
	c-44.391,18.764-91.568,28.277-140.223,28.277s-95.832-9.514-140.223-28.277c-42.895-18.132-81.426-44.096-114.522-77.173
	c-33.096-33.075-59.075-71.579-77.216-114.442c-18.772-44.354-28.291-91.493-28.291-140.107s9.519-95.753,28.291-140.107
	c18.141-42.863,44.12-81.367,77.216-114.442c33.097-33.076,71.628-59.041,114.522-77.173
	C304.246,49.387,351.424,39.873,400.078,39.873 M400.078-0.127c-221.053,0-400.252,179.086-400.252,400s179.199,400,400.252,400
	s400.252-179.086,400.252-400S621.131-0.127,400.078-0.127L400.078-0.127z"/>
<path fill-rule="evenodd" clip-rule="evenodd" fill="#FFFCEB" d="M657.667,571.222c0,10.371-9.343,36.778-34.44,36.778H175.773
	c-25.096,0-34.44-26.407-34.44-36.778l59-115.554c0-10.372,45.874-21.668,70.97-21.668h259.232c25.098,0,70.466,7.63,70.466,18.002
	L657.667,571.222z"/>
<path opacity="0.4" fill-rule="evenodd" clip-rule="evenodd" fill="#C0282D" d="M625.259,561.485
	c0,8.465,3.275,30.515-19.826,30.515H193.566c-23.099,0-19.825-22.05-19.825-30.515l42.433-94.053
	c0-8.464,42.225-17.433,65.326-17.433h238.613c23.102,0,64.861,5.977,64.861,14.441L625.259,561.485z"/>
<g>
	<path fill-rule="evenodd" clip-rule="evenodd" fill="#FFFCEB" d="M602,439.814C602,458.695,586.695,474,567.814,474H231.186
		C212.306,474,197,458.695,197,439.814V224.186C197,205.305,212.306,190,231.186,190h336.629C586.695,190,602,205.305,602,224.186
		V439.814z"/>
	<path opacity="0.4" fill-rule="evenodd" clip-rule="evenodd" fill="#C0282D" d="M575,424.469c0,16.31-13.222,29.531-29.531,29.531
		H254.531C238.222,454,225,440.778,225,424.469V238.531c0-16.31,13.222-29.531,29.531-29.531h290.938
		c16.31,0,29.531,13.222,29.531,29.531V424.469z"/>
</g>
<g>
	<g>
		<path fill-rule="evenodd" clip-rule="evenodd" fill="#871811" d="M472.398,435.061c-5.237-4.137-10.929-7.818-15.647-12.482
			c-30.842-30.498-61.428-61.262-92.283-91.746c-2.139-2.111-5.992-4.133-8.713-3.754c-27.062,3.781-46.273-8.607-53.041-34.73
			c-0.191-0.744-0.754-1.393-1.143-2.084c0-4.338,0-8.678,0-13.014c0.773-1.035,1.547-2.064,3.018-4.021
			c6.738,7.01,13.141,13.939,19.902,20.49c1.682,1.633,4.676,3.074,6.867,2.832c18.557-2.059,21.205-4.553,26.098-23.02
			c0.139-0.521,0.602-1.094,0.486-1.525c-0.895-3.316-0.963-7.455-3.043-9.742c-6.143-6.762-13.098-12.791-19.955-19.316
			c2.01-1.549,3.027-2.332,4.047-3.119c4.336,0,8.676,0,13.016,0c8.275,4.271,17.521,7.344,24.588,13.102
			c10.16,8.289,14.556,20.506,12.772,33.552c-1.114,8.179,2.066,12.849,7.35,18.052c30.87,30.41,61.524,61.043,92.081,91.764
			c3.719,3.736,6.449,8.463,9.631,12.734c0,3.253,0,6.507,0,9.76c-2.988,7.859-8.496,13.198-16.268,16.27
			C478.907,435.061,475.647,435.061,472.398,435.061z"/>
	</g>
</g>
</svg>
