<?xml version="1.0" encoding="utf-8"?>
<!-- Generator: Adobe Illustrator 16.0.0, SVG Export Plug-In . SVG Version: 6.00 Build 0)  -->
<!DOCTYPE svg PUBLIC "-//W3C//DTD SVG 1.1//EN" "http://www.w3.org/Graphics/SVG/1.1/DTD/svg11.dtd">
<svg version="1.1" id="Layer_1" xmlns="http://www.w3.org/2000/svg" xmlns:xlink="http://www.w3.org/1999/xlink" x="0px" y="0px"
	 width="800px" height="800px" viewBox="0 0 800 800" enable-background="new 0 0 800 800" xml:space="preserve">
<path fill="#FFCB00" d="M399.959,780c-51.344,0-101.142-10.045-148.01-29.855c-45.277-19.14-85.945-46.542-120.873-81.448
	C96.148,633.791,68.729,593.15,49.58,547.903C29.758,501.068,19.707,451.307,19.707,400S29.758,298.932,49.58,252.097
	c19.149-45.247,46.568-85.888,81.496-120.793c34.928-34.906,75.596-62.309,120.873-81.448C298.817,30.045,348.615,20,399.959,20
	s101.142,10.045,148.009,29.855c45.278,19.14,85.946,46.542,120.874,81.448c34.928,34.905,62.347,75.546,81.497,120.793
	c19.821,46.835,29.872,96.597,29.872,147.903s-10.051,101.068-29.872,147.903c-19.15,45.247-46.569,85.888-81.497,120.793
	c-34.928,34.906-75.596,62.309-120.874,81.448C501.101,769.955,451.303,780,399.959,780z"/>
<g>
	<g>
		<g>
			<path fill="#FFFCEB" d="M615.223,693.215c0.033,0.002,0.073,10.064,0.031,10.064c-0.014,0-0.033-0.912-0.063-3.287
				C615.195,694.98,615.209,693.213,615.223,693.215 M529.719,757.31c0,0.44,0,0.637,0,0.637S529.719,757.713,529.719,757.31
				 M400.166,135.225L400.166,135.225c-3.574,0-6.875,1.907-8.661,5.002l-42.187,73.108l-65.425,113.376
				c-1.786,3.094-1.785,6.905,0.001,9.999c1.787,3.094,5.088,4.999,8.66,4.999h54.109c2.174,16.602,0.711,31.682-4.428,45.889
				c-5.727,15.836-15.879,30.215-31.035,43.957c-20.747,18.807-41.956,39.072-63.036,60.236
				c-24.658,24.756-43.316,51.583-55.456,79.733c-12.887,29.882-18.897,62.3-17.864,96.353c0.136,4.491,0.242,7.965,0.325,10.658
				c0.141,4.57,0.223,7.231,0.242,8.286c-0.215,1.612-0.354,5.275-0.334,21.358c0.011,8.068,7.367,12.263,18.504,18.612
				c2.92,1.665,7.573,4.318,9.537,5.81c1.67,3.217,5.03,5.398,8.881,5.398c10.847,0,16.013,4.305,23.162,10.264
				c7.878,6.565,17.683,14.737,35.4,14.737c5.522,0,10-4.478,10-10c0-15.938-0.008-26.454-0.014-35.267
				c-0.011-16.357-0.019-27.164,0.035-56.582c0.056-31.025,7.96-54.684,24.164-72.328c23.148-25.198,46.875-49.139,71.994-74.484
				c8.113-8.186,16.442-16.59,24.788-25.078c6.287,6.428,12.528,12.822,18.619,19.062c19.381,19.858,37.688,38.615,56.567,57.565
				c30.441,30.55,44.595,64.704,43.27,104.415c-0.842,25.246-0.684,38.77-0.483,55.891c0.102,8.623,0.216,18.396,0.216,31.114v0.637
				c0,5.522,4.478,10,10,10s10-4.478,10-10v-0.637v-2.762c13.985-3.104,26.74-12.138,39.153-20.929
				c13.018-9.221,25.313-17.93,36.315-17.93c5.522,0,10-4.478,10-10c0-0.438,0-0.861,0-1.272c0.032-0.269,0.054-0.541,0.064-0.816
				c0.008-0.209,0.032-0.846,0.014-5.747c-0.005-1.214-0.012-2.4-0.02-3.283c-0.004-0.466-0.009-0.852-0.013-1.121
				c-0.009-0.551-0.053-1.082-0.129-1.592c-0.003-0.24-0.005-0.485-0.007-0.734c-0.039-4.156-0.05-8.407-0.06-12.52
				c-0.042-17.521-0.086-35.641-2.314-53.49c-5.97-47.798-29.138-91.571-70.828-133.824c-18.229-18.475-37.354-36.552-55.85-54.033
				c-5.028-4.752-10.056-9.504-15.071-14.268c-22.156-21.047-30.959-47.178-27.383-81.743h53.988c3.572,0,6.874-1.906,8.66-5
				c1.787-3.095,1.786-6.906,0-10l-61.137-105.877l-46.277-80.144C407.04,137.131,403.738,135.225,400.166,135.225L400.166,135.225z
				"/>
		</g>
	</g>
</g>
<path fill="#F28F06" d="M399.959,40c48.654,0,95.832,9.514,140.223,28.277c42.894,18.132,81.425,44.097,114.522,77.173
	c33.096,33.075,59.075,71.579,77.217,114.442c18.771,44.354,28.29,91.493,28.29,140.107s-9.519,95.753-28.29,140.107
	c-18.142,42.863-44.121,81.367-77.217,114.442c-33.098,33.076-71.629,59.041-114.522,77.173
	C495.791,750.486,448.613,760,399.959,760s-95.832-9.514-140.223-28.277c-42.895-18.132-81.426-44.097-114.522-77.173
	c-33.096-33.075-59.075-71.579-77.216-114.442C49.226,495.753,39.707,448.614,39.707,400s9.519-95.753,28.291-140.107
	c18.141-42.863,44.12-81.367,77.216-114.442c33.097-33.076,71.628-59.041,114.522-77.173C304.127,49.514,351.305,40,399.959,40
	 M399.959,0C178.906,0-0.293,179.086-0.293,400s179.199,400,400.252,400s400.252-179.086,400.252-400S621.012,0,399.959,0L399.959,0
	z"/>
</svg>
