<?xml version="1.0" encoding="utf-8"?>
<!-- Generator: Adobe Illustrator 16.0.0, SVG Export Plug-In . SVG Version: 6.00 Build 0)  -->
<!DOCTYPE svg PUBLIC "-//W3C//DTD SVG 1.1//EN" "http://www.w3.org/Graphics/SVG/1.1/DTD/svg11.dtd">
<svg version="1.1" id="Layer_1" xmlns="http://www.w3.org/2000/svg" xmlns:xlink="http://www.w3.org/1999/xlink" x="0px" y="0px"
	 width="800px" height="800px" viewBox="0 0 800 800" enable-background="new 0 0 800 800" xml:space="preserve">
<path fill="#FFCB00" d="M406.372,796.336c-51.344,0-101.142-10.046-148.01-29.856c-45.276-19.139-85.944-46.541-120.873-81.447
	c-34.928-34.905-62.347-75.547-81.496-120.793c-19.822-46.836-29.874-96.598-29.874-147.903c0-51.308,10.052-101.069,29.874-147.903
	c19.149-45.248,46.568-85.889,81.496-120.793c34.929-34.906,75.597-62.309,120.873-81.449
	c46.868-19.811,96.666-29.854,148.01-29.854S507.514,46.38,554.381,66.19c45.278,19.141,85.946,46.543,120.874,81.449
	c34.927,34.904,62.347,75.545,81.497,120.793c19.821,46.834,29.873,96.596,29.873,147.903c0,51.306-10.052,101.067-29.873,147.903
	c-19.15,45.246-46.57,85.888-81.497,120.793c-34.928,34.906-75.596,62.309-120.874,81.447
	C507.514,786.29,457.716,796.336,406.372,796.336z"/>
<path fill="#F28F06" d="M400.832,40.336c48.654,0,95.832,9.513,140.221,28.276c42.895,18.133,81.427,44.098,114.524,77.174
	c33.096,33.074,59.075,71.578,77.217,114.441c18.771,44.356,28.29,91.494,28.29,140.108s-9.519,95.753-28.29,140.106
	c-18.142,42.863-44.121,81.367-77.217,114.443c-33.098,33.076-71.63,59.041-114.524,77.172
	c-44.389,18.764-91.566,28.278-140.221,28.278S305,750.821,260.609,732.058c-42.895-18.131-81.426-44.096-114.523-77.172
	c-33.095-33.076-59.074-71.58-77.215-114.443C50.098,496.089,40.58,448.95,40.58,400.336s9.518-95.752,28.291-140.108
	c18.141-42.863,44.12-81.367,77.215-114.441c33.098-33.076,71.629-59.041,114.523-77.174C305,49.849,352.178,40.336,400.832,40.336
	 M400.832,0.336c-221.053,0-400.252,179.085-400.252,400c0,220.914,179.199,400,400.252,400s400.252-179.086,400.252-400
	C801.084,179.421,621.885,0.336,400.832,0.336L400.832,0.336z"/>
<g>
	<g>
		<path fill-rule="evenodd" clip-rule="evenodd" fill="#FFFCEB" d="M359.053,609.182c-3.642-16.711-7.723-32.58-10.453-48.68
			c-3.479-20.533-8.162-22.52-24.77-12.865c-14.613,8.495-26.129,5.297-36.752-5.42c-12.398-12.502-24.393-25.43-36.082-38.602
			c-5.267-5.935-5.934-12.922-1.555-20.294c2.777-4.677,4.611-9.944,6.589-15.056c3.28-8.479,1.251-12.561-7.569-14.559
			c-14.561-3.297-29.197-6.27-43.801-9.391c-4.108-0.88-8.207-1.807-13.904-3.064c2.075-3.564,3.238-6.18,4.937-8.377
			c11.175-14.473,22.149-29.119,33.942-43.069c2.861-3.384,8.516-6.084,12.945-6.177c20.411-0.419,40.846,0.028,61.264,0.537
			c6.037,0.146,10.031-1.852,14.027-6.492c34.797-40.397,68.914-81.447,105.141-120.531c40.092-43.25,92.061-64.907,149.395-74.547
			c13.495-2.27,27.244-3.021,40.858-4.618c6.868-0.806,9.163,1.872,8.726,8.805c-5.025,79.431-30.688,149.493-92.291,203.105
			c-34.939,30.407-70.164,60.489-105.526,90.405c-5.657,4.789-8.173,9.646-7.9,17.104c0.728,20.103,0.948,40.23,0.832,60.347
			c-0.024,3.814-1.394,8.985-4.069,11.191c-16.222,13.362-32.991,26.056-49.615,38.928
			C362.769,608.366,361.748,608.393,359.053,609.182z M486.549,348.211c19.992-0.117,35.582-15.414,35.685-35.011
			c0.098-19.45-15.964-35.522-35.382-35.404c-19.587,0.122-35.371,16.09-35.156,35.568
			C451.908,332.719,467.518,348.322,486.549,348.211z"/>
		<path fill-rule="evenodd" clip-rule="evenodd" fill="#FFFCEB" d="M227.316,501.971c-0.332,3.584,0.516,7.904-1.188,10.635
			c-13.545,21.721-17.699,45.712-18.524,70.719c-0.217,6.554,1.695,9.336,8.707,9.137c25.042-0.706,49.017-5.04,70.702-18.482
			c5.57-3.455,5.674-3.285,11.883,1.966c-13.279,19.037-31.793,31.447-53.594,37.085c-19.259,4.98-39.492,6.244-59.318,8.949
			c-4.104,0.561-8.047,0.141-8.025-5.798c0.137-39.322,6.59-76.526,35.469-106.214c3.128-3.215,6.768-5.932,10.17-8.881
			C224.836,501.381,226.078,501.676,227.316,501.971z"/>
		<path fill-rule="evenodd" clip-rule="evenodd" fill="#FFCB00" d="M486.549,348.211c-19.031,0.111-34.641-15.492-34.854-34.847
			c-0.215-19.479,15.569-35.446,35.156-35.568c19.418-0.118,35.479,15.954,35.382,35.404
			C522.131,332.797,506.541,348.094,486.549,348.211z"/>
	</g>
</g>
</svg>
