<?xml version="1.0" encoding="utf-8"?>
<!-- Generator: Adobe Illustrator 21.0.0, SVG Export Plug-In . SVG Version: 6.00 Build 0)  -->
<svg version="1.1" id="Layer_1" xmlns="http://www.w3.org/2000/svg" xmlns:xlink="http://www.w3.org/1999/xlink" x="0px" y="0px"
	 width="800px" height="800px" viewBox="0 0 800 800" style="enable-background:new 0 0 800 800;" xml:space="preserve">
<style type="text/css">
	.st0{fill:#E5514B;}
	.st1{fill:#DE241F;}
	.st2{fill:#FFFCEA;}
	.st3{fill:#891609;}
</style>
<circle class="st0" cx="400" cy="400" r="359.7"/>
<polygon class="st1" points="274.1,265.1 220.9,126.9 330,213.2 354.4,72.8 404.5,164 499.1,72.8 511.2,188.5 590,161 547.1,281.6
	474.3,272.1 378.4,304 310.4,383.3 141.7,298.3 "/>
<polygon class="st2" points="256.1,273.6 202.9,135.4 312,221.7 336.4,81.3 386.5,172.5 481.1,81.3 493.2,197 571.9,146.7
	529.1,290.1 456.3,280.6 360.4,312.5 304.7,362.1 168.7,301.7 "/>
<polygon class="st1" points="279.7,285 239.6,187 321.2,240.4 352.4,151.2 386.3,197.7 469,121.7 482.3,218.3 538.6,194.3
	510.9,313.3 453.8,303.4 380.4,323.1 338.9,357.6 210.8,304.1 "/>
<g>
	<g id="VG2Yid_2_">
		<g>
			<path class="st3" d="M589.8,228.5c22.4-2,33.4,15.4,45,33.6c1.3,2,3.9,6,3.9,6l38.9,76.9c0,0,5.1,15.5,9,29.3
				c11.7,41,7.6,80.5,7.6,116.2c0,13.2-0.2,26.6-0.2,39.9c-0.2,54.8-25.8,80.4-81,80.4c-178.2,0.1-356.3,0-534.5,0
				c-20.9,0,29.9,0,9,0c-7,0-65.3-122.2-52.1-124.6c20.7-3.7,41-7.5,60.8-12.8c101.5-27.2,183-81.2,230.6-178.5
				c3.2-6.6,7.3-12.7,10.9-19c13.9-24.5,33-49.5,63.2-47.2L589.8,228.5z M394.9,489.3c-0.7,15.2,11.9,28.1,27.2,28
				c14.2-0.1,26.5-12.4,26.7-26.6c0.1-14.6-11.5-26.4-26.2-26.7C407.5,463.7,395.6,474.7,394.9,489.3z M657.7,492
				c0.8-15.6-11-28.1-26.7-28.1c-15.1-0.1-26.3,10.9-26.5,26.1c-0.2,15.1,10.6,26.7,25.5,27.3C644.4,517.8,657,506.4,657.7,492z"/>
			<path class="st3" d="M570.2,622.9c-0.5,9-0.9,16.2-1.5,25c-39.1,0-120.8,0-120.8,0l-0.8-24.8c0,0-203.6,0-354.2,0
				c-0.5,2-0.9,4-1.4,5.9c5.3,1.5-18.1,7.8,14,9.7c29,1.7,57.9,3.9,86.6,7.9c48.9,6.7,162,38.2,162,38.2s319.5,0.7,323.4,0.1
				c0-10.6,0-22.2,0-34.6c-15.4,0-29.6,0.5-29.6,0.5l-0.5-27.9C647.5,622.9,597.1,622.9,570.2,622.9z"/>
			<path class="st2" d="M512.6,371.8c42.6,0,85.2,0.2,127.8-0.1c21.7-0.1,28.3-9.8,18.8-28.9c-13.4-26.8-27.6-53.1-42.6-78.9
				c-2.8-4.8-11.5-8.7-17.5-8.8c-62.6-0.6-125.2-0.8-187.7,0.2c-6.2,0.1-15.4,6.9-18,12.9c-10.9,24.9-20.1,50.6-29.4,76.3
				c-7.3,20.1-2.4,27.3,18.9,27.5c43.3,0.3,86.5,0.1,129.8,0.1C512.6,371.9,512.6,371.8,512.6,371.8z"/>
			<path class="st2" d="M422.5,464c-15-0.3-27,10.7-27.6,25.3c-0.7,15.2,11.9,28.1,27.2,28c14.2-0.1,26.5-12.4,26.7-26.6
				C448.9,476.1,437.3,464.3,422.5,464z"/>
			<path class="st2" d="M630,517.3c14.5,0.6,27-10.8,27.7-25.3c0.8-15.6-11-28.1-26.7-28.1c-15.1-0.1-26.3,10.9-26.5,26.1
				C604.3,505.1,615.1,516.7,630,517.3z"/>
		</g>
	</g>
	<path class="st2" d="M29.5,507.3c52-8.5,227.2-43.6,293.2-139.9v118.3c0,0-141.7,50.3-289.2,46.3c-6.2-0.2-11.4-23.6-11.4-23.6
		S20.1,508.8,29.5,507.3z"/>
	<rect x="53.2" y="490.6" class="st3" width="12.7" height="66"/>
	<rect x="114.2" y="481.1" class="st3" width="10.4" height="66"/>
	<rect x="175.7" y="453.4" class="st3" width="10.4" height="87"/>
	<rect x="239.6" y="422" class="st3" width="10.4" height="101.7"/>
</g>
<path class="st3" d="M800,400c0,220.9-179.1,400-400,400S0,620.9,0,400S179.1,0,400,0S800,179.1,800,400z M400,40.3
	c-198.7,0-359.7,161-359.7,359.7s161,359.7,359.7,359.7s359.7-161,359.7-359.7S598.7,40.3,400,40.3z"/>
</svg>
