<?xml version="1.0" encoding="utf-8"?>
<!-- Generator: Adobe Illustrator 16.0.0, SVG Export Plug-In . SVG Version: 6.00 Build 0)  -->
<!DOCTYPE svg PUBLIC "-//W3C//DTD SVG 1.1//EN" "http://www.w3.org/Graphics/SVG/1.1/DTD/svg11.dtd">
<svg version="1.1" id="Layer_1" xmlns="http://www.w3.org/2000/svg" xmlns:xlink="http://www.w3.org/1999/xlink" x="0px" y="0px"
	 width="800px" height="800px" viewBox="0 0 800 800" enable-background="new 0 0 800 800" xml:space="preserve">
<path fill="#04BAEE" d="M400.064,779.812c-51.344,0-101.142-10.045-148.01-29.855c-45.277-19.14-85.945-46.542-120.873-81.448
	c-34.928-34.905-62.346-75.546-81.496-120.793c-19.822-46.835-29.873-96.597-29.873-147.903s10.051-101.068,29.873-147.903
	c19.15-45.247,46.568-85.888,81.496-120.793c34.928-34.906,75.596-62.309,120.873-81.448c46.868-19.811,96.666-29.855,148.01-29.855
	s101.142,10.045,148.009,29.855c45.278,19.14,85.946,46.542,120.874,81.448c34.928,34.905,62.347,75.546,81.497,120.793
	c19.821,46.835,29.872,96.597,29.872,147.903s-10.051,101.068-29.872,147.903c-19.15,45.247-46.569,85.888-81.497,120.793
	c-34.928,34.906-75.596,62.309-120.874,81.448C501.206,769.767,451.408,779.812,400.064,779.812z"/>
<g opacity="0.3">
	<g>
		<path fill-rule="evenodd" clip-rule="evenodd" fill="#146179" d="M766.436,447.24c-23.09-2.887-44.941-15.448-67.352-26.757
			c-89.148-43.48-196.148-62.48-290.148-22.48c-3,1-2,6,0,9c58,97,72,211,40.832,316.373c-4.17,14.963-4.191,29.16-2.595,43.127
			c-31.489,0-62.984,0-94.476,0c2.889-23.09,16.024-45.193,27.271-67.947c42.967-89.553,66.967-203.553,17.967-294.553
			c-1-3-7,0-11,2c-95,63-206,75-309.603,48.382c-15.002-4.161-29.931-8.741-43.897-7.145c0-15.745,0-31.491,0-47.237
			s0-31.493,0-47.238c109.5,56.238,242.5,101.238,361.5,43.238c0,0,2-3,1-5c-75-111-76-237-43.238-357.5c15.745,0,31.492,0,47.238,0
			s31.492,0,47.237,0c-2.237,9.5-6.237,17.5-10.237,25.5c-55,101-82,222-36,330c1,3,6,3,9,2c96-58,209-73,313.527-41.422
			c14.775,4.147,29.006,4.781,42.973,3.184C766.436,384.255,766.436,415.751,766.436,447.24z"/>
		<path fill-rule="evenodd" clip-rule="evenodd" fill="#146179" d="M175.27,106.921c14.121-8.16,27.843-16.092,41.561-24.021
			s27.432-15.856,41.537-24.01c3.568,120.112,32.568,242.112,128.568,326.112c0,1-1,3-2,4c-90-46-157-128-188.516-223.06
			C189.637,145.835,184.176,124.987,175.27,106.921z"/>
		<path fill-rule="evenodd" clip-rule="evenodd" fill="#146179" d="M383.574,398.376c-124.639,9.627-237.639-56.373-324.751-139.915
			c8.157-14.103,16.124-27.878,24.075-41.622c7.951-13.745,15.887-27.461,23.977-41.444
			c62.061,103.608,154.061,196.608,276.647,218.677C383.543,395.505,383.558,396.942,383.574,398.376z"/>
		<path fill-rule="evenodd" clip-rule="evenodd" fill="#146179" d="M400.561,378.843c-9.625-123.84,60.375-231.84,140.922-319.933
			c14.047,8.109,27.725,16.007,41.436,23.924s27.455,15.854,41.638,24.046c-6.62,8.123-15.62,15.123-24.62,20.123
			c-97,56-171,144-195.073,252.473C403.428,379.263,401.994,379.049,400.561,378.843z"/>
		<path fill-rule="evenodd" clip-rule="evenodd" fill="#146179" d="M409.725,381.294
			c54.211-106.291,160.211-166.291,273.211-200.291c3-1,8-2,9.996-5.573c8.053,13.872,15.975,27.521,23.945,41.251
			c7.969,13.73,15.984,27.541,24.225,41.736c-6.166,2.586-13.166,4.586-20.166,4.586c-113,2-229,35-307.287,120.235
			C412.338,382.586,411.035,381.937,409.725,381.294z"/>
		<path fill-rule="evenodd" clip-rule="evenodd" fill="#146179" d="M106.85,624.621c-8.107-14.015-16.019-27.688-23.953-41.404
			c-7.934-13.716-15.891-27.474-24.092-41.653c121.131-7.561,245.131-32.561,331.131-130.561c1,0,3,1,4,2
			c-48,90-132,158-229.361,188.608C144.211,608.254,123.184,613.602,106.85,624.621z"/>
		<path fill-rule="evenodd" clip-rule="evenodd" fill="#146179" d="M258.413,741.146c-14.157-8.186-27.9-16.132-41.619-24.064
			s-27.413-15.851-41.476-23.981c5.617-7.098,12.617-14.098,20.617-18.098c101-60,175-145,203-260c1,0,4,0,4,0
			c3,102-38,202-107.141,276.706C281.305,707.605,266.513,723.089,258.413,741.146z"/>
		<path fill-rule="evenodd" clip-rule="evenodd" fill="#146179" d="M741.073,541.519c-8.161,14.121-16.091,27.841-24.018,41.559
			c-7.928,13.719-15.854,27.434-24.009,41.547c-6.111-5.621-12.111-9.621-17.111-16.621c-62-99-144-182-257-207c15-12,50,0,72,2
			c12,0,23,4,35,7c13,4,26,8,39,13c12,5,22,11,34,16c13,6,24,13,36,21c21,14,39,29,56.655,45.646
			C707.154,520.202,722.982,533.534,741.073,541.519z"/>
		<path fill-rule="evenodd" clip-rule="evenodd" fill="#146179" d="M418.014,405.746c92.922,51.257,155.922,141.257,185.922,244.257
			c4,15,10,31,20.582,43.034c-13.826,8.019-27.385,15.883-41.078,23.825c-13.694,7.942-27.523,15.963-41.893,24.297
			c-3.611-8.156-5.611-16.156-5.611-24.156c-4-113-36-229-120.596-307.883C416.232,407.989,417.121,406.868,418.014,405.746z"/>
	</g>
</g>
<g>
	<path fill-rule="evenodd" clip-rule="evenodd" fill="#5DFFF7" d="M557.137,616.171c0.868,1.408,1.512,2.593,2.287,3.689
		c10.666,15.08,21.361,30.141,32.033,45.215c1.709,2.416,1.644,3.055-0.266,4.415c-1.525,1.09-3.084,2.133-4.591,3.243
		c-1.157,0.854-2.251,0.409-3.325-0.873c-0.439-0.525-0.814-1.109-1.213-1.674c-8.676-12.354-17.328-24.724-26.033-37.057
		c-9.589-13.583-19.23-27.131-28.846-40.7c-2.276-3.22-2.234-3.962,0.283-5.757c1.23-0.873,2.434-1.785,3.71-2.588
		c1.732-1.09,2.534-0.822,4.022,1.269c2.842,3.999,5.783,7.94,8.441,12.052c1.441,2.231,3.12,3.299,5.257,3.923
		c11.036,3.221,22.069,6.474,33.104,9.712c0.633,0.184,1.274,0.311,2.549,0.617c-0.867-1.229-1.365-1.932-1.863-2.639
		c-8.791-12.457-17.586-24.913-26.373-37.369c-2.078-2.941-2.039-3.861,0.24-5.5c1.369-0.986,2.773-1.931,4.174-2.877
		c1.275-0.86,2.459-0.598,3.527,1.176c0.273,0.455,0.617,0.876,0.926,1.314c18.344,25.99,36.686,51.981,55.029,77.973
		c2.404,3.408,2.394,3.58-0.235,5.439c-1.231,0.877-2.46,1.75-3.702,2.604c-1.764,1.216-2.732,0.94-4.342-1.327
		c-5.008-7.067-10.02-14.133-14.969-21.239c-0.982-1.412-1.982-2.214-3.529-2.665c-11.57-3.373-23.139-6.873-34.705-10.312
		C558.304,616.11,557.871,616.196,557.137,616.171z"/>
	<path fill-rule="evenodd" clip-rule="evenodd" fill="#5DFFF7" d="M632.832,451.156c-3.287-0.984-6.231-1.858-9.172-2.749
		c-5.842-1.768-11.67-3.555-17.518-5.308c-1.701-0.512-2.492-1.313-2.432-2.844c0.117-2.892-0.039-5.793-0.068-8.693
		c-0.025-2.342,0.979-2.968,3.855-2.158c4.381,1.233,8.71,2.593,13.051,3.911c8.544,2.59,17.084,5.182,25.616,7.792
		c1.777,0.543,3.597,1.043,5.251,1.768c3.205,1.413,6.111,0.82,9.283-0.242c14.078-4.721,28.228-9.302,42.352-13.929
		c0.564-0.184,1.145-0.346,1.734-0.479c1.713-0.388,3.057,0.014,3.123,1.481c0.141,3.491,0.169,6.993-0.029,10.48
		c-0.037,0.634-1.224,1.481-2.127,1.798c-4.684,1.645-9.445,3.146-14.178,4.7c-3.999,1.31-7.993,2.621-11.992,3.928
		c0.007,0.195,0.01,0.38,0.018,0.572c2.924,0.901,5.846,1.816,8.779,2.706c5.908,1.795,11.812,3.59,17.742,5.348
		c1.594,0.475,2.223,1.382,2.244,2.628c0.048,3.019,0.133,6.038,0.066,9.059c-0.045,2.11-1.414,2.753-3.91,1.995
		c-12.172-3.68-24.344-7.356-36.51-11.054c-3.482-1.056-6.912-2.224-10.426-3.212c-0.896-0.252-2.137-0.236-3.016,0.051
		c-15.717,5.084-31.395,10.234-47.082,15.363c-1.844,0.601-3.324-0.027-3.383-1.567c-0.132-3.376-0.232-6.765-0.05-10.137
		c0.038-0.726,1.14-1.743,2.063-2.065c5.74-1.997,11.559-3.846,17.359-5.717c2.689-0.871,5.418-1.682,8.115-2.54
		C631.898,451.942,632.119,451.675,632.832,451.156z"/>
	<path fill-rule="evenodd" clip-rule="evenodd" fill="#5DFFF7" d="M612.911,244.651c-1.055,0.854-1.71,1.32-2.294,1.862
		c-5.91,5.457-11.807,10.932-17.717,16.386c-2.089,1.938-2.545,1.969-4.051,0.369c-1.281-1.359-2.469-2.819-3.838-4.091
		c-1.23-1.142-0.887-2.304,0.446-3.653c0.381-0.381,0.776-0.738,1.175-1.103c23.316-21.603,46.64-43.204,69.965-64.807
		c3.172-2.944,3.576-2.966,5.948-0.438c0.04,0.044,0.077,0.095,0.126,0.132c3.656,2.728,4.67,6.929,5.127,11.651
		c1.115,11.478,2.564,22.853,3.85,34.274c0.279,2.472-1.447,3.982-3.903,3.511c-12.677-2.454-25.368-4.873-38.022-7.39
		c-1.506-0.302-1.787,0.295-2.045,1.561c-2.006,9.863-4.047,19.732-6.082,29.595c-1.637,7.968-3.23,15.934-4.982,23.9
		c-0.218,0.989-1.135,2.356-2.01,2.858c-0.578,0.33-1.861-0.375-2.486-0.961c-1.742-1.655-3.211-3.585-4.971-5.223
		c-1.235-1.148-1.466-2.582-1.09-4.375c2.227-10.556,4.447-21.118,6.656-31.678C612.844,246.402,612.824,245.771,612.911,244.651z
		 M653.578,207.009c-4.371,4.049-8.229,7.618-12.503,11.58c4.833,0.883,9.213,1.685,14.152,2.59
		C654.649,216.23,654.142,211.854,653.578,207.009z"/>
	<path fill-rule="evenodd" clip-rule="evenodd" fill="#5DFFF7" d="M563.477,136.139c-1.475,3.395-3.487,5.867-2.508,9.603
		c4.492,17.127,8.713,34.396,12.967,51.651c0.219,0.892,0.082,2.185-0.305,3.13c-1.326,3.259-2.758,6.49-4.322,9.645
		c-0.431,0.881-1.498,2.007-2.147,2.028c-0.669,0.026-1.503-0.989-1.726-1.841c-2.064-7.885-4.013-15.834-6.008-23.758
		c-2.107-8.39-4.229-16.769-6.357-25.145c-0.045-0.17-0.244-0.261-0.588-0.596c-0.51,0.97-1.027,1.833-1.437,2.746
		c-7.466,16.637-14.927,33.277-22.382,49.917c-1.531,3.413-1.863,3.584-4.578,2.38c-1.431-0.635-2.865-1.273-4.29-1.922
		c-1.974-0.896-2.215-1.754-1.062-4.367c2.161-4.898,4.366-9.778,6.56-14.667c10.906-24.334,21.811-48.673,32.73-73.002
		c0.369-0.831,0.837-1.62,1.309-2.392c0.762-1.238,1.705-1.497,2.713-1.046c3.031,1.358,6.139,2.561,9.035,4.176
		c0.969,0.536,1.672,1.981,2.014,3.271c2.428,9.216,4.738,18.497,7.072,27.767c1.575,6.264,3.195,12.509,4.637,18.838
		c0.26,1.135,0.049,2.729-0.414,3.947c-1.086,2.856-2.459,5.613-3.708,8.411c-0.592,1.329-1.185,3.154-2.565,2.829
		c-0.883-0.204-1.682-1.516-1.974-2.628c-2.62-10.09-5.108-20.251-7.659-30.378c-1.445-5.737-2.922-11.458-4.396-17.178
		C563.99,137.194,563.797,136.877,563.477,136.139z"/>
	<path fill-rule="evenodd" clip-rule="evenodd" fill="#5DFFF7" d="M398.127,84.898c-0.199,1.392-0.371,2.248-0.436,3.107
		c-2.059,27.127-4.105,54.252-6.156,81.38c-0.296,3.93-0.652,4.318-3.719,4.092c-1.568-0.116-3.132-0.332-4.701-0.336
		c-1.768-0.001-2.291-1.125-2.124-3.187c0.349-4.353,0.657-8.708,0.985-13.061c2.095-27.739,4.191-55.476,6.286-83.215
		c0.052-0.687,0.134-1.372,0.177-2.06c0.111-1.797,0.907-2.688,2.277-2.602c3.496,0.216,6.988,0.438,10.467,0.826
		c0.686,0.079,1.465,0.725,1.927,1.406c9.249,13.664,18.478,27.349,27.646,41.104c0.572,0.854,0.906,2.328,0.819,3.477
		c-1.372,19.102-2.831,38.197-4.28,57.291c-0.209,2.764-0.699,3.271-2.914,3.12c-1.927-0.135-3.848-0.363-5.777-0.421
		c-1.305-0.043-1.827-0.9-1.873-2.398c-0.02-0.759,0.016-1.527,0.076-2.287c1.262-16.807,2.558-33.605,3.744-50.416
		c0.096-1.357-0.26-3.092-0.921-4.101c-6.467-9.867-13.04-19.618-19.591-29.389C399.562,86.519,398.975,85.926,398.127,84.898z"/>
	<path fill-rule="evenodd" clip-rule="evenodd" fill="#5DFFF7" d="M472.572,135.804c2.609-15.638,5.219-31.275,7.826-46.91
		c0.688-4.099,1.342-4.678,4.482-4.08c1.483,0.282,2.988,0.432,4.471,0.703c1.722,0.318,2.15,1.261,1.764,3.475
		c-1.15,6.637-2.248,13.283-3.422,19.917c-0.285,1.628,0.037,2.705,1.022,3.694c9.078,9.139,18.139,18.302,27.146,27.545
		c0.677,0.702,1.459,2.296,1.213,3.058c-0.36,1.118-1.512,2.217-2.49,2.716c-11.449,5.838-22.918,11.59-34.414,17.261
		c-1.211,0.596-1.643,1.424-1.866,2.812c-1.046,6.431-2.122,12.852-3.2,19.276c-0.52,3.113-0.956,3.518-3.346,3.131
		c-1.848-0.298-3.686-0.671-5.541-0.908c-1.451-0.19-1.898-1.268-1.754-2.938c0.061-0.685,0.201-1.361,0.315-2.043
		C467.375,166.944,469.975,151.376,472.572,135.804z M481.809,146.057c4.422-2.308,8.352-4.358,12.756-6.658
		c-3.496-3.56-6.562-6.681-9.954-10.132C483.633,135.12,482.777,140.25,481.809,146.057z"/>
	<path fill-rule="evenodd" clip-rule="evenodd" fill="#5DFFF7" d="M642.817,527.8c15.259,4.59,30.519,9.175,45.775,13.768
		c3.785,1.137,3.745,1.489,3.301,4.522c-0.737,5.067-4.263,8.307-8.509,11.392c-9.078,6.586-17.891,13.407-26.809,20.13
		c-1.948,1.471-3.809,1.028-4.666-1.273c-2.344-6.313-4.582-12.647-6.82-18.978c-2.24-6.327-4.375-12.678-6.727-18.99
		c-0.25-0.652-1.541-1.397-2.475-1.686c-10.691-3.28-21.411-6.475-32.121-9.696c-3.666-1.103-7.338-2.188-10.998-3.319
		c-2.447-0.765-2.808-1.31-2.246-3.268c0.494-1.738,1.01-3.473,1.553-5.201c0.63-2.018,1.207-2.261,3.864-1.494
		c3.239,0.933,6.456,1.937,9.687,2.908C618.027,520.345,630.418,524.074,642.817,527.8z M655.514,542.714
		c1.712,4.696,3.252,8.919,4.936,13.548c3.883-2.923,7.49-5.63,11.465-8.616C666.196,545.927,661.189,544.421,655.514,542.714z"/>
	<path fill-rule="evenodd" clip-rule="evenodd" fill="#5DFFF7" d="M495.044,661.526c0,0.885,0.002,1.771,0,2.656
		c0,14.411,0,28.82-0.005,43.229c0,3.123-0.391,3.622-2.83,3.645c-1.873,0.013-3.745-0.025-5.616-0.005
		c-1.435,0.016-2.106-0.951-2.138-2.671c-0.041-2.521-0.03-5.048-0.03-7.569c-0.005-17.17-0.019-34.337,0.022-51.51
		c0.008-1.669-0.385-2.832-1.328-4.01c-5.114-6.374-10.197-12.793-15.176-19.336c-0.799-1.045-1.336-2.76-1.439-4.227
		c-0.215-3.118-0.172-6.289-0.006-9.418c0.066-1.148,0.574-2.787,1.25-3.188c0.592-0.353,1.925,0.435,2.559,1.212
		c4.061,4.986,8.012,10.112,12,15.186c0.496,0.623,1.021,1.206,1.968,2.318c0.077-2.046,0.167-3.421,0.173-4.801
		c0.008-4.288-0.037-8.581-0.014-12.871c0.012-2.67,0.607-3.439,2.676-3.508c1.691-0.063,3.379-0.059,5.072-0.005
		c2.301,0.073,2.857,0.81,2.857,3.743c0.005,9.658-0.033,19.319,0.05,28.975c0.011,1.219,0.441,2.734,1.097,3.595
		c4.933,6.469,9.963,12.815,14.99,19.169c1.023,1.292,1.721,2.629,1.671,4.596c-0.079,3.291,0.091,6.59-0.034,9.876
		c-0.034,0.951-0.557,2.378-1.131,2.656c-0.621,0.3-1.79-0.204-2.336-0.866c-4.252-5.176-8.413-10.479-12.604-15.735
		c-0.377-0.471-0.781-0.902-1.178-1.351C495.395,661.384,495.217,661.454,495.044,661.526z"/>
	<path fill-rule="evenodd" clip-rule="evenodd" fill="#5DFFF7" d="M703.537,358.864c-1.626,0.438-3.246,1.053-4.881,1.257
		c-1.26,0.153-2.771,0.092-3.773-0.372c-5.816-2.689-11.504-5.549-17.259-8.318c-7.163-3.463-14.364-6.87-21.507-10.35
		c-1.52-0.746-1.93,0.128-2.517,1.02c-5.062,7.698-10.134,15.396-15.2,23.095c-2.609,3.966-5.232,7.923-7.808,11.903
		c-0.783,1.203-1.776,1.992-3.461,2.376c-3.134,0.723-6.204,1.735-9.341,2.433c-1.129,0.254-2.906,0.31-3.406-0.204
		c-0.514-0.537-0.174-1.993,0.373-2.84c6.381-9.821,12.88-19.593,19.326-29.387c4.77-7.245,9.504-14.507,14.266-21.747
		c1.436-2.183,2.709-2.598,5.111-1.441c6.177,2.973,12.266,6.056,18.432,9.043c9.238,4.469,18.516,8.892,27.764,13.348
		c3.244,1.561,6.516,3.1,9.652,4.791c0.828,0.447,1.834,1.524,1.606,2.123c-0.3,0.773-1.667,1.536-2.739,1.973
		C706.709,358.161,705.092,358.448,703.537,358.864z"/>
	<path fill-rule="evenodd" clip-rule="evenodd" fill="#5DFFF7" d="M390.8,633.674c1.424,5.888-1.919,9.433-4.178,13.446
		c-2.518,4.471-5.149,8.835-7.806,13.17c-0.748,1.227-0.859,2.038-0.053,3.366c3.73,6.181,7.377,12.444,10.992,18.735
		c0.5,0.866,0.887,2.045,0.929,3.103c0.132,3.438,0.164,6.894,0.038,10.329c-0.027,0.849-0.657,2.127-1.232,2.36
		c-0.588,0.24-1.74-0.256-2.137-0.923c-5.212-8.763-10.334-17.613-15.483-26.446c-1.218-2.089-2.354-4.262-3.687-6.223
		c-1.225-1.809-1.059-3.325-0.007-5.093c3.126-5.238,6.187-10.537,9.279-15.803c3.159-5.391,6.35-10.756,9.485-16.169
		c0.688-1.178,1.477-2.479,2.605-1.612c0.674,0.518,1.05,2.028,1.203,3.174C390.951,630.577,390.795,632.14,390.8,633.674z"/>
	<path fill-rule="evenodd" clip-rule="evenodd" fill="#5DFFF7" d="M242.734,622.062c-0.867,1.407-1.512,2.592-2.287,3.688
		c-10.666,15.081-21.361,30.142-32.033,45.216c-1.709,2.416-1.643,3.056,0.266,4.414c1.526,1.091,3.084,2.133,4.59,3.244
		c1.158,0.855,2.251,0.409,3.326-0.873c0.439-0.526,0.813-1.11,1.213-1.675c8.674-12.352,17.328-24.723,26.033-37.057
		c9.589-13.583,19.23-27.129,28.844-40.699c2.277-3.22,2.236-3.962-0.283-5.757c-1.229-0.874-2.434-1.786-3.707-2.588
		c-1.732-1.09-2.535-0.823-4.023,1.268c-2.844,4.001-5.783,7.941-8.441,12.052c-1.442,2.231-3.121,3.3-5.258,3.923
		c-11.035,3.221-22.068,6.476-33.104,9.713c-0.635,0.183-1.275,0.31-2.549,0.617c0.868-1.229,1.364-1.932,1.861-2.639
		c8.794-12.458,17.588-24.914,26.375-37.37c2.076-2.941,2.039-3.86-0.24-5.498c-1.369-0.988-2.772-1.933-4.174-2.878
		c-1.275-0.861-2.459-0.598-3.527,1.176c-0.273,0.456-0.617,0.876-0.926,1.313c-18.346,25.991-36.686,51.981-55.028,77.974
		c-2.405,3.408-2.394,3.58,0.233,5.44c1.232,0.877,2.461,1.749,3.702,2.603c1.765,1.217,2.733,0.941,4.343-1.326
		c5.008-7.068,10.02-14.134,14.967-21.24c0.982-1.412,1.984-2.213,3.529-2.664c11.572-3.373,23.141-6.874,34.708-10.313
		C241.568,622.002,242.002,622.087,242.734,622.062z"/>
	<path fill-rule="evenodd" clip-rule="evenodd" fill="#5DFFF7" d="M167.039,457.046c3.287-0.983,6.232-1.857,9.172-2.748
		c5.841-1.769,11.669-3.556,17.518-5.307c1.702-0.513,2.49-1.316,2.432-2.845c-0.117-2.892,0.039-5.794,0.068-8.694
		c0.025-2.342-0.979-2.968-3.855-2.158c-4.381,1.233-8.711,2.594-13.051,3.911c-8.543,2.591-17.084,5.184-25.617,7.792
		c-1.777,0.543-3.597,1.044-5.25,1.768c-3.205,1.414-6.111,0.82-9.285-0.242c-14.076-4.721-28.227-9.302-42.35-13.928
		c-0.564-0.183-1.145-0.346-1.736-0.479c-1.712-0.386-3.055,0.015-3.121,1.481c-0.141,3.491-0.168,6.993,0.029,10.481
		c0.037,0.634,1.223,1.481,2.125,1.797c4.686,1.646,9.447,3.147,14.179,4.7c4.001,1.311,7.995,2.621,11.991,3.928
		c-0.006,0.196-0.007,0.38-0.016,0.572c-2.924,0.902-5.847,1.817-8.779,2.707c-5.908,1.794-11.812,3.589-17.74,5.348
		c-1.598,0.476-2.225,1.381-2.246,2.628c-0.047,3.018-0.132,6.038-0.065,9.058c0.044,2.111,1.411,2.754,3.909,1.996
		c12.172-3.68,24.344-7.355,36.509-11.054c3.483-1.057,6.913-2.224,10.425-3.213c0.898-0.252,2.139-0.235,3.018,0.051
		c15.716,5.085,31.395,10.234,47.083,15.364c1.843,0.601,3.323-0.028,3.382-1.568c0.133-3.375,0.232-6.764,0.049-10.137
		c-0.036-0.725-1.139-1.742-2.062-2.064c-5.74-1.998-11.559-3.846-17.361-5.718c-2.689-0.869-5.416-1.681-8.112-2.54
		C167.973,457.833,167.752,457.565,167.039,457.046z"/>
	<path fill-rule="evenodd" clip-rule="evenodd" fill="#5DFFF7" d="M185.528,264.637c2.208,10.561,4.43,21.122,6.657,31.679
		c0.375,1.793,0.145,3.227-1.09,4.374c-1.76,1.638-3.229,3.567-4.973,5.224c-0.625,0.586-1.906,1.29-2.484,0.959
		c-0.875-0.501-1.793-1.868-2.01-2.857c-1.752-7.966-3.346-15.932-4.982-23.899c-2.035-9.862-4.078-19.731-6.083-29.596
		c-0.259-1.265-0.54-1.862-2.044-1.561c-12.654,2.517-25.347,4.935-38.023,7.39c-2.456,0.473-4.182-1.038-3.902-3.511
		c1.284-11.423,2.732-22.797,3.85-34.273c0.455-4.723,1.469-8.924,5.127-11.653c0.049-0.037,0.085-0.087,0.125-0.131
		c2.373-2.528,2.776-2.506,5.949,0.438c23.324,21.603,46.646,43.202,69.963,64.807c0.399,0.364,0.795,0.722,1.176,1.103
		c1.334,1.348,1.678,2.511,0.445,3.653c-1.368,1.271-2.555,2.731-3.838,4.091c-1.506,1.599-1.959,1.568-4.049-0.369
		c-5.91-5.455-11.807-10.93-17.719-16.387c-0.584-0.542-1.236-1.008-2.293-1.863C185.418,263.372,185.398,264.006,185.528,264.637z
		 M143.014,238.781c4.939-0.905,9.32-1.707,14.152-2.59c-4.273-3.961-8.131-7.53-12.503-11.58
		C144.1,229.458,143.592,233.833,143.014,238.781z"/>
	<path fill-rule="evenodd" clip-rule="evenodd" fill="#5DFFF7" d="M214.301,139.083c1.474,3.395,3.486,5.867,2.506,9.604
		c-4.49,17.125-8.712,34.396-12.967,51.65c-0.219,0.892-0.082,2.185,0.305,3.13c1.326,3.259,2.758,6.49,4.322,9.644
		c0.432,0.881,1.498,2.008,2.148,2.029c0.668,0.025,1.504-0.99,1.725-1.841c2.064-7.885,4.014-15.834,6.008-23.758
		c2.107-8.391,4.229-16.769,6.359-25.146c0.045-0.17,0.243-0.26,0.586-0.596c0.511,0.971,1.028,1.834,1.438,2.747
		c7.467,16.637,14.926,33.278,22.382,49.917c1.53,3.414,1.862,3.584,4.577,2.38c1.432-0.635,2.866-1.273,4.291-1.923
		c1.973-0.895,2.214-1.754,1.062-4.367c-2.162-4.897-4.367-9.777-6.559-14.666c-10.908-24.334-21.812-48.672-32.732-73.002
		c-0.367-0.831-0.836-1.619-1.309-2.392c-0.76-1.237-1.704-1.497-2.711-1.046c-3.033,1.357-6.141,2.561-9.036,4.176
		c-0.969,0.537-1.673,1.98-2.015,3.271c-2.427,9.217-4.736,18.498-7.072,27.766c-1.575,6.265-3.193,12.51-4.637,18.838
		c-0.258,1.135-0.049,2.729,0.414,3.949c1.086,2.855,2.46,5.611,3.709,8.409c0.592,1.329,1.185,3.155,2.566,2.829
		c0.881-0.203,1.681-1.515,1.973-2.627c2.621-10.09,5.108-20.251,7.66-30.378c1.444-5.737,2.921-11.459,4.395-17.178
		C213.785,140.139,213.979,139.821,214.301,139.083z"/>
	<path fill-rule="evenodd" clip-rule="evenodd" fill="#5DFFF7" d="M336.663,183.417c0.114,0.682,0.255,1.357,0.315,2.043
		c0.146,1.671-0.303,2.748-1.754,2.939c-1.855,0.236-3.693,0.609-5.541,0.908c-2.389,0.386-2.826-0.019-3.346-3.132
		c-1.078-6.424-2.154-12.847-3.199-19.276c-0.225-1.39-0.656-2.218-1.867-2.812c-11.496-5.672-22.965-11.424-34.413-17.26
		c-0.979-0.501-2.13-1.599-2.489-2.717c-0.248-0.763,0.535-2.356,1.211-3.057c9.008-9.243,18.067-18.408,27.146-27.545
		c0.985-0.99,1.308-2.067,1.021-3.696c-1.174-6.633-2.271-13.278-3.422-19.916c-0.388-2.215,0.043-3.157,1.764-3.475
		c1.483-0.272,2.988-0.421,4.471-0.703c3.141-0.597,3.795-0.019,4.482,4.079c2.607,15.636,5.218,31.273,7.827,46.911
		C331.468,152.281,334.066,167.851,336.663,183.417z M316.832,130.172c-3.393,3.452-6.458,6.572-9.954,10.132
		c4.403,2.3,8.334,4.35,12.755,6.658C318.664,141.154,317.809,136.025,316.832,130.172z"/>
	<path fill-rule="evenodd" clip-rule="evenodd" fill="#5DFFF7" d="M194.244,522.505c3.23-0.971,6.447-1.977,9.688-2.909
		c2.654-0.765,3.234-0.522,3.863,1.494c0.544,1.729,1.059,3.463,1.553,5.202c0.562,1.957,0.2,2.504-2.246,3.267
		c-3.66,1.131-7.331,2.218-11,3.319c-10.709,3.223-21.429,6.416-32.121,9.696c-0.933,0.289-2.224,1.033-2.473,1.686
		c-2.352,6.312-4.486,12.664-6.727,18.99c-2.24,6.331-4.477,12.664-6.821,18.978c-0.856,2.304-2.718,2.745-4.667,1.273
		c-8.916-6.723-17.73-13.543-26.807-20.129c-4.246-3.084-7.772-6.324-8.508-11.392c-0.444-3.034-0.484-3.386,3.301-4.523
		c15.256-4.593,30.514-9.178,45.773-13.767C169.451,529.964,181.844,526.234,194.244,522.505z M127.957,553.536
		c3.975,2.986,7.583,5.692,11.464,8.615c1.686-4.629,3.224-8.852,4.935-13.546C138.681,550.312,133.676,551.816,127.957,553.536z"/>
	<path fill-rule="evenodd" clip-rule="evenodd" fill="#5DFFF7" d="M304.828,667.418c0,0.883-0.002,1.77,0,2.656
		c0,14.41,0,28.818,0.004,43.229c0,3.121,0.389,3.62,2.829,3.643c1.873,0.013,3.747-0.025,5.616-0.004
		c1.436,0.015,2.106-0.951,2.137-2.672c0.043-2.521,0.033-5.048,0.033-7.568c0.002-17.17,0.017-34.338-0.025-51.51
		c-0.008-1.669,0.387-2.832,1.33-4.01c5.115-6.375,10.197-12.794,15.176-19.336c0.798-1.046,1.337-2.761,1.439-4.228
		c0.215-3.118,0.172-6.288,0.006-9.417c-0.066-1.148-0.574-2.787-1.25-3.188c-0.592-0.352-1.925,0.434-2.56,1.211
		c-4.06,4.986-8.011,10.113-12.001,15.185c-0.494,0.625-1.02,1.207-1.967,2.32c-0.076-2.046-0.166-3.422-0.174-4.8
		c-0.008-4.289,0.039-8.581,0.014-12.874c-0.01-2.668-0.605-3.438-2.673-3.506c-1.692-0.064-3.38-0.058-5.073-0.004
		c-2.301,0.071-2.857,0.809-2.857,3.742c-0.004,9.657,0.034,19.318-0.049,28.976c-0.012,1.217-0.441,2.733-1.098,3.594
		c-4.932,6.47-9.963,12.815-14.991,19.169c-1.022,1.291-1.72,2.628-1.671,4.596c0.08,3.289-0.09,6.59,0.035,9.876
		c0.034,0.952,0.557,2.377,1.131,2.655c0.62,0.3,1.791-0.203,2.336-0.866c4.252-5.175,8.412-10.478,12.604-15.734
		c0.376-0.472,0.78-0.902,1.178-1.352C304.476,667.274,304.654,667.345,304.828,667.418z"/>
	<path fill-rule="evenodd" clip-rule="evenodd" fill="#5DFFF7" d="M96.334,364.756c1.627,0.437,3.245,1.051,4.881,1.257
		c1.26,0.152,2.771,0.092,3.773-0.373c5.816-2.689,11.504-5.549,17.26-8.318c7.161-3.462,14.363-6.871,21.506-10.35
		c1.52-0.746,1.93,0.128,2.516,1.02c5.062,7.697,10.135,15.395,15.199,23.094c2.61,3.967,5.234,7.923,7.811,11.903
		c0.783,1.204,1.775,1.993,3.461,2.376c3.133,0.723,6.204,1.736,9.34,2.432c1.128,0.256,2.905,0.312,3.406-0.202
		c0.513-0.538,0.174-1.993-0.374-2.841c-6.38-9.82-12.878-19.593-19.327-29.387c-4.768-7.244-9.504-14.506-14.265-21.746
		c-1.435-2.184-2.708-2.598-5.11-1.443c-6.178,2.974-12.266,6.058-18.433,9.044c-9.237,4.469-18.515,8.892-27.763,13.348
		c-3.244,1.562-6.516,3.1-9.651,4.791c-0.83,0.447-1.835,1.526-1.606,2.123c0.297,0.773,1.666,1.537,2.739,1.973
		C93.162,364.052,94.778,364.34,96.334,364.756z"/>
	<path fill-rule="evenodd" clip-rule="evenodd" fill="#5DFFF7" d="M439.219,678.85c-0.002,16.092-0.002,32.187,0,48.279
		c0,3.39,0.347,3.823,3.037,3.835c1.691,0.006,3.385-0.082,5.074,0.021c1.736,0.108,2.42-0.966,2.398-3.023
		c0-0.615,0.006-1.228,0.006-1.84c0.004-31.653,0.006-63.307,0-94.952c0.004-4.234-0.288-4.604-3.582-4.613
		c-1.449,0-2.9-0.062-4.346,0.034c-2.196,0.141-2.582,0.706-2.588,3.516c-0.002,9.197,0,18.394,0,27.591
		C439.219,664.747,439.217,671.798,439.219,678.85z"/>
</g>
<path fill="#146179" d="M399.988,39.812c48.654,0,95.832,9.514,140.223,28.277c42.894,18.132,81.424,44.097,114.522,77.173
	c33.095,33.075,59.075,71.579,77.217,114.442c18.771,44.354,28.29,91.493,28.29,140.107s-9.519,95.753-28.29,140.107
	c-18.142,42.863-44.122,81.367-77.217,114.442c-33.099,33.076-71.629,59.041-114.522,77.173
	c-44.391,18.764-91.568,28.277-140.223,28.277s-95.832-9.514-140.223-28.277c-42.895-18.132-81.426-44.097-114.522-77.173
	c-33.096-33.075-59.075-71.579-77.216-114.442c-18.772-44.354-28.291-91.493-28.291-140.107s9.519-95.753,28.291-140.107
	c18.141-42.863,44.12-81.367,77.216-114.442c33.097-33.076,71.628-59.041,114.522-77.173
	C304.156,49.325,351.334,39.812,399.988,39.812 M399.988-0.188c-221.053,0-400.252,179.086-400.252,400s179.199,400,400.252,400
	s400.252-179.086,400.252-400S621.041-0.188,399.988-0.188L399.988-0.188z"/>
<path fill-rule="evenodd" clip-rule="evenodd" fill="#FFFCEB" d="M381.725,461.313c-17.111-28.224-34.072-55.975-50.751-83.994
	c-1.982-3.341-3.255-8.127-3.397-12.355c-0.424-12.906-0.501-25.891,0.057-38.791c0.184-4.259,1.913-9.32,4.268-12.379
	c20.095-26.131,40.495-51.89,60.809-77.757c6.501-8.276,7.946-8.253,14.663,0.27c20.752,26.305,41.542,52.556,62.152,79.034
	c1.644,2.111,2.84,5.752,2.894,8.721c0.306,14.352,0.261,28.728,0.033,43.092c-0.042,2.843-0.949,6.136-2.297,8.391
	c-16.221,26.94-32.54,53.779-48.976,80.492c-2.648,4.3-1.994,7.221,0.468,11.203c14.631,23.672,29.162,47.464,43.458,71.478
	c1.838,3.083,3.559,8.505,2.6,11.348c-0.891,2.555-5.431,3.442-8.48,4.366c-2.145,0.647-4.594-0.349-6.772,0.203
	c-10.905,2.801-17.229-4.324-23.089-14.951c-8.37-15.246-17.776-29.573-26.725-44.327c-0.675-1.14-1.122-2.525-2.165-4.931
	c-5.857,9.614-10.735,17.699-15.666,25.729c-6.815,11.107-13.467,22.413-20.639,33.148c-1.798,2.687-5.183,4.605-8.005,5.014
	c-5.397,0.798-10.951,0.672-16.382,0.078c-2.711-0.307-6.609-1.655-7.554-4.061c-0.972-2.459,0.236-7.527,1.804-10.202
	c13.142-22.112,26.576-43.919,39.899-65.834C376.468,470.142,378.95,465.943,381.725,461.313z M399.807,431.038
	c1.828-2.524,3.07-3.994,4.084-5.68c14.238-23.468,28.293-47.104,42.727-70.355c3.028-4.895,2.83-7.551-0.588-11.81
	c-14.379-17.86-28.509-36.057-42.651-54.247c-2.569-3.311-4.615-3.053-7.077,0.114c-14.465,18.484-28.955,36.938-43.532,55.284
	c-2.538,3.197-2.55,5.733-0.381,9.219c8.055,12.93,15.938,26.041,23.906,39.062C383.979,405.201,391.674,417.771,399.807,431.038z"
	/>
</svg>
