<?xml version="1.0" encoding="utf-8"?>
<!-- Generator: Adobe Illustrator 16.0.0, SVG Export Plug-In . SVG Version: 6.00 Build 0)  -->
<!DOCTYPE svg PUBLIC "-//W3C//DTD SVG 1.1//EN" "http://www.w3.org/Graphics/SVG/1.1/DTD/svg11.dtd">
<svg version="1.1" id="Layer_1" xmlns="http://www.w3.org/2000/svg" xmlns:xlink="http://www.w3.org/1999/xlink" x="0px" y="0px"
	 width="800px" height="800px" viewBox="0 0 800 800" enable-background="new 0 0 800 800" xml:space="preserve">
<path fill="#04BAEE" d="M400.129,779.809c-51.344,0-101.142-10.045-148.01-29.855c-45.277-19.14-85.945-46.542-120.873-81.448
	C96.318,633.6,68.898,592.959,49.75,547.712c-19.822-46.835-29.873-96.597-29.873-147.903S29.928,298.74,49.75,251.905
	c19.148-45.247,46.568-85.888,81.496-120.793c34.928-34.906,75.596-62.309,120.873-81.448
	c46.868-19.811,96.666-29.855,148.01-29.855s101.142,10.045,148.009,29.855c45.278,19.14,85.946,46.542,120.874,81.448
	c34.928,34.905,62.347,75.546,81.497,120.793c19.821,46.835,29.872,96.597,29.872,147.903s-10.051,101.068-29.872,147.903
	c-19.15,45.247-46.569,85.888-81.497,120.793c-34.928,34.906-75.596,62.309-120.874,81.448
	C501.271,769.764,451.473,779.809,400.129,779.809z"/>
<path fill="#146179" d="M400.053,39.809c48.654,0,95.832,9.514,140.223,28.277c42.893,18.132,81.424,44.097,114.522,77.173
	c33.095,33.075,59.075,71.579,77.216,114.442c18.771,44.354,28.291,91.493,28.291,140.107s-9.52,95.753-28.291,140.107
	c-18.141,42.863-44.121,81.367-77.216,114.442c-33.099,33.076-71.63,59.041-114.522,77.173
	c-44.391,18.764-91.568,28.277-140.223,28.277s-95.832-9.514-140.223-28.277c-42.895-18.132-81.426-44.097-114.522-77.173
	c-33.096-33.075-59.075-71.579-77.216-114.442c-18.773-44.354-28.291-91.493-28.291-140.107s9.518-95.753,28.291-140.107
	c18.141-42.863,44.12-81.367,77.216-114.442c33.097-33.076,71.628-59.041,114.522-77.173
	C304.221,49.322,351.398,39.809,400.053,39.809 M400.053-0.191C179-0.191-0.199,178.895-0.199,399.809s179.199,400,400.252,400
	s400.252-179.086,400.252-400S621.105-0.191,400.053-0.191L400.053-0.191z"/>
<g>
	<path fill-rule="evenodd" clip-rule="evenodd" fill="#FFFCEB" d="M557.201,616.165c0.867,1.408,1.512,2.593,2.287,3.689
		c10.666,15.08,21.361,30.141,32.033,45.215c1.709,2.416,1.644,3.055-0.266,4.415c-1.525,1.09-3.084,2.133-4.591,3.243
		c-1.157,0.854-2.25,0.409-3.325-0.873c-0.439-0.525-0.814-1.109-1.213-1.674c-8.676-12.354-17.328-24.724-26.033-37.057
		c-9.589-13.583-19.23-27.131-28.846-40.7c-2.276-3.22-2.234-3.962,0.283-5.757c1.23-0.873,2.434-1.785,3.71-2.588
		c1.732-1.09,2.534-0.822,4.022,1.269c2.842,3.999,5.783,7.94,8.441,12.052c1.441,2.231,3.12,3.299,5.257,3.923
		c11.036,3.221,22.069,6.474,33.104,9.712c0.633,0.184,1.274,0.311,2.549,0.617c-0.867-1.229-1.365-1.932-1.863-2.639
		c-8.791-12.457-17.586-24.913-26.373-37.369c-2.078-2.941-2.039-3.861,0.24-5.5c1.369-0.986,2.773-1.931,4.174-2.877
		c1.275-0.86,2.459-0.598,3.527,1.176c0.273,0.455,0.617,0.876,0.926,1.314c18.344,25.99,36.686,51.981,55.029,77.973
		c2.404,3.408,2.393,3.58-0.235,5.439c-1.231,0.877-2.46,1.75-3.702,2.604c-1.764,1.216-2.732,0.94-4.342-1.327
		c-5.008-7.067-10.02-14.133-14.969-21.239c-0.982-1.412-1.982-2.214-3.528-2.665c-11.571-3.373-23.14-6.873-34.706-10.312
		C558.367,616.104,557.936,616.19,557.201,616.165z"/>
	<path fill-rule="evenodd" clip-rule="evenodd" fill="#FFFCEB" d="M632.896,451.15c-3.287-0.984-6.231-1.858-9.172-2.749
		c-5.842-1.768-11.67-3.555-17.518-5.308c-1.701-0.512-2.491-1.313-2.432-2.844c0.117-2.892-0.039-5.793-0.068-8.693
		c-0.025-2.342,0.979-2.968,3.855-2.158c4.381,1.233,8.71,2.593,13.052,3.911c8.543,2.59,17.083,5.182,25.615,7.792
		c1.777,0.543,3.597,1.043,5.251,1.768c3.205,1.413,6.111,0.82,9.284-0.242c14.077-4.721,28.227-9.302,42.351-13.929
		c0.564-0.184,1.145-0.346,1.734-0.479c1.713-0.388,3.057,0.014,3.123,1.481c0.141,3.491,0.169,6.993-0.029,10.48
		c-0.037,0.634-1.225,1.481-2.127,1.798c-4.684,1.645-9.445,3.146-14.178,4.7c-3.999,1.31-7.993,2.621-11.992,3.928
		c0.006,0.195,0.01,0.38,0.018,0.572c2.924,0.901,5.846,1.816,8.779,2.706c5.908,1.795,11.812,3.59,17.742,5.348
		c1.594,0.475,2.223,1.382,2.244,2.628c0.048,3.019,0.133,6.038,0.066,9.059c-0.045,2.11-1.414,2.753-3.91,1.995
		c-12.172-3.68-24.344-7.356-36.51-11.054c-3.482-1.056-6.912-2.224-10.426-3.212c-0.896-0.252-2.137-0.236-3.016,0.051
		c-15.717,5.084-31.395,10.234-47.082,15.363c-1.844,0.601-3.324-0.027-3.383-1.567c-0.132-3.376-0.232-6.765-0.051-10.137
		c0.039-0.726,1.141-1.743,2.065-2.065c5.739-1.997,11.558-3.846,17.358-5.717c2.689-0.871,5.418-1.682,8.115-2.54
		C631.963,451.937,632.184,451.669,632.896,451.15z"/>
	<path fill-rule="evenodd" clip-rule="evenodd" fill="#FFFCEB" d="M612.976,244.646c-1.055,0.854-1.71,1.32-2.294,1.862
		c-5.91,5.457-11.807,10.932-17.717,16.386c-2.088,1.938-2.545,1.969-4.05,0.369c-1.282-1.359-2.47-2.819-3.839-4.091
		c-1.23-1.142-0.887-2.304,0.446-3.653c0.38-0.381,0.776-0.738,1.176-1.103c23.315-21.603,46.638-43.204,69.964-64.807
		c3.172-2.944,3.576-2.966,5.948-0.438c0.04,0.044,0.077,0.095,0.126,0.132c3.656,2.728,4.67,6.929,5.127,11.651
		c1.115,11.478,2.564,22.853,3.85,34.274c0.279,2.472-1.447,3.982-3.903,3.511c-12.677-2.454-25.368-4.873-38.022-7.39
		c-1.505-0.302-1.787,0.295-2.045,1.561c-2.006,9.863-4.047,19.732-6.082,29.595c-1.637,7.968-3.23,15.934-4.982,23.9
		c-0.218,0.989-1.135,2.356-2.01,2.858c-0.578,0.33-1.861-0.375-2.486-0.961c-1.742-1.655-3.211-3.585-4.971-5.223
		c-1.235-1.148-1.466-2.582-1.09-4.375c2.227-10.556,4.447-21.118,6.656-31.678C612.908,246.396,612.889,245.765,612.976,244.646z
		 M653.643,207.003c-4.371,4.049-8.229,7.618-12.503,11.58c4.833,0.883,9.212,1.685,14.153,2.59
		C654.714,216.225,654.206,211.849,653.643,207.003z"/>
	<path fill-rule="evenodd" clip-rule="evenodd" fill="#FFFCEB" d="M563.541,136.133c-1.476,3.395-3.487,5.867-2.508,9.603
		c4.492,17.127,8.713,34.396,12.967,51.651c0.219,0.892,0.082,2.185-0.305,3.13c-1.326,3.259-2.758,6.49-4.322,9.645
		c-0.431,0.881-1.498,2.007-2.147,2.028c-0.669,0.026-1.503-0.989-1.726-1.841c-2.064-7.885-4.013-15.834-6.008-23.758
		c-2.107-8.39-4.229-16.769-6.357-25.145c-0.045-0.17-0.244-0.261-0.588-0.596c-0.51,0.97-1.027,1.833-1.437,2.746
		c-7.466,16.637-14.926,33.277-22.382,49.917c-1.531,3.413-1.863,3.584-4.578,2.38c-1.432-0.635-2.865-1.273-4.29-1.922
		c-1.974-0.896-2.215-1.754-1.062-4.367c2.161-4.898,4.366-9.778,6.559-14.667c10.908-24.334,21.812-48.673,32.731-73.002
		c0.369-0.831,0.837-1.62,1.309-2.392c0.762-1.238,1.705-1.497,2.713-1.046c3.031,1.358,6.139,2.561,9.035,4.176
		c0.969,0.536,1.672,1.981,2.014,3.271c2.428,9.216,4.738,18.497,7.072,27.767c1.575,6.264,3.195,12.509,4.637,18.838
		c0.26,1.135,0.049,2.729-0.414,3.947c-1.086,2.856-2.459,5.613-3.708,8.411c-0.593,1.329-1.185,3.154-2.565,2.829
		c-0.883-0.204-1.682-1.516-1.974-2.628c-2.62-10.09-5.108-20.251-7.659-30.378c-1.445-5.737-2.922-11.458-4.396-17.178
		C564.055,137.188,563.861,136.871,563.541,136.133z"/>
	<path fill-rule="evenodd" clip-rule="evenodd" fill="#FFFCEB" d="M398.191,84.893c-0.199,1.392-0.371,2.248-0.436,3.107
		c-2.059,27.127-4.105,54.252-6.156,81.38c-0.296,3.93-0.652,4.318-3.719,4.092c-1.568-0.116-3.132-0.332-4.7-0.336
		c-1.769-0.001-2.292-1.125-2.125-3.187c0.349-4.353,0.657-8.708,0.985-13.061c2.094-27.739,4.191-55.476,6.286-83.215
		c0.052-0.687,0.134-1.372,0.177-2.06c0.111-1.797,0.907-2.688,2.277-2.602c3.496,0.216,6.988,0.438,10.467,0.826
		c0.686,0.079,1.465,0.725,1.927,1.406c9.249,13.664,18.478,27.349,27.646,41.104c0.572,0.854,0.906,2.328,0.819,3.477
		c-1.372,19.102-2.831,38.197-4.28,57.291c-0.209,2.764-0.699,3.271-2.913,3.12c-1.929-0.135-3.849-0.363-5.778-0.421
		c-1.305-0.043-1.827-0.9-1.872-2.398c-0.021-0.759,0.015-1.527,0.075-2.287c1.262-16.807,2.558-33.605,3.744-50.416
		c0.096-1.357-0.26-3.092-0.921-4.101c-6.467-9.867-13.04-19.618-19.591-29.389C399.627,86.513,399.039,85.92,398.191,84.893z"/>
	<path fill-rule="evenodd" clip-rule="evenodd" fill="#FFFCEB" d="M472.637,135.798c2.609-15.638,5.219-31.275,7.826-46.91
		c0.688-4.099,1.342-4.678,4.482-4.08c1.483,0.282,2.988,0.432,4.471,0.703c1.722,0.318,2.15,1.261,1.764,3.475
		c-1.149,6.637-2.247,13.283-3.422,19.917c-0.285,1.628,0.037,2.705,1.022,3.694c9.078,9.139,18.138,18.302,27.146,27.545
		c0.676,0.702,1.459,2.296,1.213,3.058c-0.36,1.118-1.512,2.217-2.49,2.716c-11.449,5.838-22.918,11.59-34.414,17.261
		c-1.211,0.596-1.643,1.424-1.867,2.812c-1.045,6.431-2.12,12.852-3.199,19.276c-0.52,3.113-0.956,3.518-3.346,3.131
		c-1.848-0.298-3.686-0.671-5.541-0.908c-1.451-0.19-1.898-1.268-1.754-2.938c0.061-0.685,0.201-1.361,0.315-2.043
		C467.439,166.938,470.039,151.37,472.637,135.798z M481.873,146.051c4.422-2.308,8.352-4.358,12.756-6.658
		c-3.496-3.56-6.562-6.681-9.954-10.132C483.697,135.114,482.842,140.244,481.873,146.051z"/>
	<path fill-rule="evenodd" clip-rule="evenodd" fill="#FFFCEB" d="M642.881,527.794c15.26,4.59,30.52,9.175,45.776,13.768
		c3.785,1.137,3.745,1.489,3.302,4.522c-0.738,5.067-4.264,8.307-8.51,11.392c-9.078,6.586-17.891,13.407-26.809,20.13
		c-1.948,1.471-3.809,1.028-4.666-1.273c-2.344-6.313-4.582-12.647-6.82-18.978c-2.24-6.327-4.375-12.678-6.727-18.99
		c-0.25-0.652-1.541-1.397-2.475-1.686c-10.691-3.28-21.41-6.475-32.121-9.696c-3.666-1.103-7.338-2.188-10.998-3.319
		c-2.447-0.765-2.808-1.31-2.246-3.268c0.494-1.738,1.01-3.473,1.553-5.201c0.63-2.018,1.208-2.261,3.864-1.494
		c3.239,0.933,6.456,1.937,9.687,2.908C618.092,520.339,630.482,524.068,642.881,527.794z M655.578,542.708
		c1.712,4.696,3.252,8.919,4.936,13.548c3.883-2.923,7.49-5.63,11.465-8.616C666.261,545.921,661.254,544.415,655.578,542.708z"/>
	<path fill-rule="evenodd" clip-rule="evenodd" fill="#FFFCEB" d="M495.108,661.521c0,0.885,0.002,1.771,0,2.656
		c0,14.411,0,28.82-0.005,43.229c0,3.123-0.391,3.622-2.83,3.645c-1.873,0.013-3.745-0.025-5.616-0.005
		c-1.435,0.016-2.106-0.951-2.138-2.671c-0.041-2.521-0.03-5.048-0.03-7.569c-0.005-17.17-0.019-34.337,0.023-51.51
		c0.007-1.669-0.386-2.832-1.329-4.01c-5.115-6.374-10.197-12.793-15.176-19.336c-0.799-1.045-1.336-2.76-1.439-4.227
		c-0.215-3.118-0.172-6.289-0.006-9.418c0.066-1.148,0.574-2.787,1.25-3.188c0.592-0.353,1.925,0.435,2.559,1.212
		c4.061,4.986,8.012,10.112,12,15.186c0.496,0.623,1.021,1.206,1.968,2.318c0.077-2.046,0.167-3.421,0.174-4.801
		c0.007-4.288-0.038-8.581-0.014-12.871c0.011-2.67,0.606-3.439,2.675-3.508c1.691-0.063,3.379-0.059,5.072-0.005
		c2.301,0.073,2.857,0.81,2.857,3.743c0.005,9.658-0.033,19.319,0.049,28.975c0.012,1.219,0.442,2.734,1.098,3.595
		c4.932,6.469,9.963,12.815,14.99,19.169c1.024,1.292,1.721,2.629,1.671,4.596c-0.079,3.291,0.091,6.59-0.034,9.876
		c-0.034,0.951-0.557,2.378-1.131,2.656c-0.621,0.3-1.79-0.204-2.336-0.866c-4.252-5.176-8.413-10.479-12.604-15.735
		c-0.377-0.471-0.781-0.902-1.178-1.351C495.459,661.378,495.281,661.448,495.108,661.521z"/>
	<path fill-rule="evenodd" clip-rule="evenodd" fill="#FFFCEB" d="M703.602,358.858c-1.626,0.438-3.246,1.053-4.881,1.257
		c-1.26,0.153-2.771,0.092-3.773-0.372c-5.816-2.689-11.504-5.549-17.259-8.318c-7.163-3.463-14.364-6.87-21.507-10.35
		c-1.52-0.746-1.93,0.128-2.517,1.02c-5.062,7.698-10.134,15.396-15.2,23.095c-2.609,3.966-5.232,7.923-7.808,11.903
		c-0.783,1.203-1.776,1.992-3.461,2.376c-3.134,0.723-6.204,1.735-9.341,2.433c-1.129,0.254-2.906,0.31-3.405-0.204
		c-0.515-0.537-0.175-1.993,0.372-2.84c6.381-9.821,12.879-19.593,19.326-29.387c4.77-7.245,9.504-14.507,14.267-21.747
		c1.435-2.183,2.708-2.598,5.11-1.441c6.176,2.973,12.266,6.056,18.432,9.043c9.238,4.469,18.516,8.892,27.764,13.348
		c3.244,1.561,6.516,3.1,9.652,4.791c0.828,0.447,1.834,1.524,1.606,2.123c-0.299,0.773-1.667,1.536-2.739,1.973
		C706.773,358.155,705.156,358.442,703.602,358.858z"/>
	<path fill-rule="evenodd" clip-rule="evenodd" fill="#FFFCEB" d="M390.864,633.668c1.424,5.888-1.919,9.433-4.179,13.446
		c-2.518,4.471-5.148,8.835-7.805,13.17c-0.748,1.227-0.859,2.038-0.053,3.366c3.73,6.181,7.377,12.444,10.992,18.735
		c0.5,0.866,0.887,2.045,0.929,3.103c0.132,3.438,0.164,6.894,0.038,10.329c-0.027,0.849-0.657,2.127-1.232,2.36
		c-0.588,0.24-1.74-0.256-2.137-0.923c-5.212-8.763-10.334-17.613-15.484-26.446c-1.217-2.089-2.353-4.262-3.686-6.223
		c-1.225-1.809-1.059-3.325-0.007-5.093c3.126-5.238,6.187-10.537,9.279-15.803c3.159-5.391,6.35-10.756,9.485-16.169
		c0.688-1.178,1.477-2.479,2.605-1.612c0.674,0.518,1.05,2.028,1.203,3.174C391.017,630.571,390.859,632.134,390.864,633.668z"/>
	<path fill-rule="evenodd" clip-rule="evenodd" fill="#FFFCEB" d="M242.799,622.056c-0.867,1.407-1.512,2.592-2.287,3.688
		c-10.666,15.081-21.361,30.142-32.033,45.216c-1.709,2.416-1.643,3.056,0.266,4.414c1.526,1.091,3.084,2.133,4.59,3.244
		c1.158,0.855,2.252,0.409,3.326-0.873c0.439-0.526,0.813-1.11,1.213-1.675c8.675-12.352,17.328-24.723,26.033-37.057
		c9.589-13.583,19.23-27.129,28.846-40.699c2.275-3.22,2.234-3.962-0.285-5.757c-1.229-0.874-2.433-1.786-3.707-2.588
		c-1.732-1.09-2.535-0.823-4.023,1.268c-2.844,4.001-5.783,7.941-8.441,12.052c-1.443,2.231-3.121,3.3-5.258,3.923
		c-11.035,3.221-22.068,6.476-33.104,9.713c-0.635,0.183-1.275,0.31-2.549,0.617c0.867-1.229,1.364-1.932,1.862-2.639
		c8.793-12.458,17.587-24.914,26.374-37.37c2.077-2.941,2.039-3.86-0.24-5.498c-1.369-0.988-2.772-1.933-4.174-2.878
		c-1.275-0.861-2.459-0.598-3.527,1.176c-0.273,0.456-0.617,0.876-0.926,1.313c-18.346,25.991-36.686,51.981-55.028,77.974
		c-2.405,3.408-2.394,3.58,0.233,5.44c1.232,0.877,2.461,1.749,3.702,2.603c1.765,1.217,2.733,0.941,4.343-1.326
		c5.008-7.068,10.02-14.134,14.967-21.24c0.982-1.412,1.984-2.213,3.529-2.664c11.572-3.373,23.141-6.874,34.708-10.313
		C241.633,621.996,242.065,622.081,242.799,622.056z"/>
	<path fill-rule="evenodd" clip-rule="evenodd" fill="#FFFCEB" d="M167.104,457.04c3.287-0.983,6.232-1.857,9.172-2.748
		c5.84-1.769,11.669-3.556,17.518-5.307c1.702-0.513,2.49-1.316,2.432-2.845c-0.117-2.892,0.039-5.794,0.068-8.694
		c0.025-2.342-0.979-2.968-3.855-2.158c-4.381,1.233-8.711,2.594-13.051,3.911c-8.543,2.591-17.084,5.184-25.617,7.792
		c-1.777,0.543-3.597,1.044-5.25,1.768c-3.205,1.414-6.111,0.82-9.285-0.242c-14.076-4.721-28.227-9.302-42.35-13.928
		c-0.564-0.183-1.145-0.346-1.736-0.479c-1.712-0.386-3.055,0.015-3.121,1.481c-0.141,3.491-0.168,6.993,0.029,10.481
		c0.037,0.634,1.223,1.481,2.125,1.797c4.686,1.646,9.447,3.147,14.179,4.7c4.001,1.311,7.995,2.621,11.991,3.928
		c-0.006,0.196-0.007,0.38-0.016,0.572c-2.924,0.902-5.847,1.817-8.779,2.707c-5.908,1.794-11.812,3.589-17.742,5.348
		c-1.596,0.476-2.223,1.381-2.244,2.628c-0.047,3.018-0.132,6.038-0.065,9.058c0.044,2.111,1.412,2.754,3.909,1.996
		c12.172-3.68,24.344-7.355,36.509-11.054c3.483-1.057,6.913-2.224,10.426-3.213c0.897-0.252,2.138-0.235,3.017,0.051
		c15.716,5.085,31.395,10.234,47.082,15.364c1.844,0.601,3.324-0.028,3.383-1.568c0.133-3.375,0.232-6.764,0.049-10.137
		c-0.036-0.725-1.139-1.742-2.062-2.064c-5.74-1.998-11.559-3.846-17.361-5.718c-2.689-0.869-5.416-1.681-8.112-2.54
		C168.037,457.827,167.814,457.56,167.104,457.04z"/>
	<path fill-rule="evenodd" clip-rule="evenodd" fill="#FFFCEB" d="M185.593,264.631c2.208,10.561,4.43,21.122,6.657,31.679
		c0.375,1.793,0.145,3.227-1.09,4.374c-1.762,1.638-3.229,3.567-4.973,5.224c-0.625,0.586-1.906,1.29-2.484,0.959
		c-0.875-0.501-1.793-1.868-2.01-2.857c-1.752-7.966-3.346-15.932-4.982-23.899c-2.035-9.862-4.078-19.731-6.083-29.596
		c-0.259-1.265-0.54-1.862-2.044-1.561c-12.654,2.517-25.347,4.935-38.023,7.39c-2.456,0.473-4.182-1.038-3.902-3.511
		c1.284-11.423,2.732-22.797,3.85-34.273c0.456-4.723,1.469-8.924,5.127-11.653c0.049-0.037,0.084-0.087,0.125-0.131
		c2.373-2.528,2.775-2.506,5.949,0.438c23.324,21.603,46.646,43.202,69.963,64.807c0.399,0.364,0.795,0.722,1.176,1.103
		c1.334,1.348,1.678,2.511,0.445,3.653c-1.368,1.271-2.555,2.731-3.838,4.091c-1.505,1.599-1.959,1.568-4.049-0.369
		c-5.91-5.455-11.807-10.93-17.719-16.387c-0.584-0.542-1.236-1.008-2.293-1.863C185.482,263.366,185.463,264,185.593,264.631z
		 M143.078,238.775c4.939-0.905,9.32-1.707,14.152-2.59c-4.273-3.961-8.131-7.53-12.503-11.58
		C144.164,229.452,143.656,233.827,143.078,238.775z"/>
	<path fill-rule="evenodd" clip-rule="evenodd" fill="#FFFCEB" d="M214.365,139.077c1.474,3.395,3.486,5.867,2.506,9.604
		c-4.49,17.125-8.712,34.396-12.967,51.65c-0.219,0.892-0.082,2.185,0.305,3.13c1.326,3.259,2.758,6.49,4.322,9.644
		c0.432,0.881,1.499,2.008,2.148,2.029c0.668,0.025,1.504-0.99,1.725-1.841c2.064-7.885,4.014-15.834,6.008-23.758
		c2.107-8.391,4.229-16.769,6.359-25.146c0.043-0.17,0.242-0.26,0.586-0.596c0.51,0.971,1.027,1.834,1.438,2.747
		c7.467,16.637,14.926,33.278,22.382,49.917c1.53,3.414,1.862,3.584,4.577,2.38c1.432-0.635,2.866-1.273,4.291-1.923
		c1.973-0.895,2.214-1.754,1.062-4.367c-2.162-4.897-4.367-9.777-6.559-14.666c-10.908-24.334-21.812-48.672-32.732-73.002
		c-0.367-0.831-0.836-1.619-1.309-2.392c-0.76-1.237-1.704-1.497-2.711-1.046c-3.032,1.357-6.141,2.561-9.036,4.176
		c-0.969,0.537-1.673,1.98-2.015,3.271c-2.428,9.217-4.736,18.498-7.072,27.766c-1.576,6.265-3.193,12.51-4.637,18.838
		c-0.258,1.135-0.049,2.729,0.414,3.949c1.086,2.855,2.46,5.611,3.709,8.409c0.592,1.329,1.185,3.155,2.566,2.829
		c0.881-0.203,1.681-1.515,1.973-2.627c2.621-10.09,5.108-20.251,7.66-30.378c1.444-5.737,2.921-11.459,4.395-17.178
		C213.85,140.133,214.043,139.815,214.365,139.077z"/>
	<path fill-rule="evenodd" clip-rule="evenodd" fill="#FFFCEB" d="M336.728,183.411c0.114,0.682,0.255,1.357,0.315,2.043
		c0.146,1.671-0.303,2.748-1.754,2.939c-1.855,0.236-3.693,0.609-5.541,0.908c-2.389,0.386-2.826-0.019-3.346-3.132
		c-1.078-6.424-2.154-12.847-3.199-19.276c-0.225-1.39-0.655-2.218-1.867-2.812c-11.496-5.672-22.965-11.424-34.413-17.26
		c-0.979-0.501-2.13-1.599-2.489-2.717c-0.248-0.763,0.535-2.356,1.211-3.057c9.008-9.243,18.067-18.408,27.146-27.545
		c0.985-0.99,1.307-2.067,1.021-3.696c-1.174-6.633-2.271-13.278-3.422-19.916c-0.389-2.215,0.043-3.157,1.764-3.475
		c1.483-0.272,2.988-0.421,4.471-0.703c3.141-0.597,3.795-0.019,4.482,4.079c2.608,15.636,5.218,31.273,7.826,46.911
		C331.531,152.275,334.131,167.845,336.728,183.411z M316.896,130.166c-3.393,3.452-6.458,6.572-9.954,10.132
		c4.403,2.3,8.334,4.35,12.755,6.658C318.729,141.148,317.873,136.02,316.896,130.166z"/>
	<path fill-rule="evenodd" clip-rule="evenodd" fill="#FFFCEB" d="M194.309,522.499c3.23-0.971,6.447-1.977,9.688-2.909
		c2.654-0.765,3.234-0.522,3.863,1.494c0.544,1.729,1.059,3.463,1.553,5.202c0.562,1.957,0.2,2.504-2.246,3.267
		c-3.66,1.131-7.33,2.218-10.999,3.319c-10.71,3.223-21.43,6.416-32.122,9.696c-0.933,0.289-2.224,1.033-2.473,1.686
		c-2.352,6.312-4.486,12.664-6.727,18.99c-2.24,6.331-4.477,12.664-6.821,18.978c-0.856,2.304-2.718,2.745-4.667,1.273
		c-8.916-6.723-17.73-13.543-26.807-20.129c-4.246-3.084-7.772-6.324-8.508-11.392c-0.445-3.034-0.484-3.386,3.301-4.523
		c15.257-4.593,30.514-9.178,45.773-13.767C169.516,529.958,181.908,526.229,194.309,522.499z M128.021,553.53
		c3.975,2.986,7.583,5.692,11.464,8.615c1.686-4.629,3.224-8.852,4.935-13.546C138.745,550.306,133.74,551.811,128.021,553.53z"/>
	<path fill-rule="evenodd" clip-rule="evenodd" fill="#FFFCEB" d="M304.893,667.412c0,0.883-0.002,1.77,0,2.656
		c0,14.41,0,28.818,0.004,43.229c0,3.121,0.389,3.62,2.829,3.643c1.872,0.013,3.747-0.025,5.616-0.004
		c1.436,0.015,2.105-0.951,2.137-2.672c0.043-2.521,0.033-5.048,0.033-7.568c0.002-17.17,0.017-34.338-0.025-51.51
		c-0.008-1.669,0.387-2.832,1.33-4.01c5.115-6.375,10.197-12.794,15.176-19.336c0.798-1.046,1.337-2.761,1.439-4.228
		c0.215-3.118,0.172-6.288,0.006-9.417c-0.066-1.148-0.574-2.787-1.25-3.188c-0.592-0.352-1.925,0.434-2.56,1.211
		c-4.06,4.986-8.011,10.113-12.001,15.185c-0.494,0.625-1.02,1.207-1.967,2.32c-0.076-2.046-0.166-3.422-0.174-4.8
		c-0.008-4.289,0.039-8.581,0.014-12.874c-0.01-2.668-0.605-3.438-2.673-3.506c-1.692-0.064-3.38-0.058-5.073-0.004
		c-2.301,0.071-2.857,0.809-2.857,3.742c-0.004,9.657,0.034,19.318-0.049,28.976c-0.012,1.217-0.441,2.733-1.098,3.594
		c-4.932,6.47-9.963,12.815-14.991,19.169c-1.022,1.291-1.72,2.628-1.671,4.596c0.08,3.289-0.09,6.59,0.035,9.876
		c0.034,0.952,0.557,2.377,1.131,2.655c0.62,0.3,1.791-0.203,2.336-0.866c4.252-5.175,8.412-10.478,12.604-15.734
		c0.375-0.472,0.78-0.902,1.178-1.352C304.54,667.269,304.719,667.339,304.893,667.412z"/>
	<path fill-rule="evenodd" clip-rule="evenodd" fill="#FFFCEB" d="M96.398,364.75c1.627,0.437,3.245,1.051,4.881,1.257
		c1.26,0.152,2.771,0.092,3.773-0.373c5.816-2.689,11.504-5.549,17.26-8.318c7.161-3.462,14.363-6.871,21.506-10.35
		c1.52-0.746,1.93,0.128,2.516,1.02c5.062,7.697,10.135,15.395,15.2,23.094c2.609,3.967,5.233,7.923,7.81,11.903
		c0.783,1.204,1.775,1.993,3.461,2.376c3.133,0.723,6.204,1.736,9.34,2.432c1.128,0.256,2.904,0.312,3.406-0.202
		c0.513-0.538,0.174-1.993-0.374-2.841c-6.38-9.82-12.878-19.593-19.327-29.387c-4.768-7.244-9.504-14.506-14.264-21.746
		c-1.436-2.184-2.709-2.598-5.111-1.443c-6.178,2.974-12.266,6.058-18.433,9.044c-9.237,4.469-18.515,8.892-27.763,13.348
		c-3.244,1.562-6.516,3.1-9.651,4.791c-0.83,0.447-1.835,1.526-1.606,2.123c0.297,0.773,1.666,1.537,2.739,1.973
		C93.227,364.046,94.843,364.334,96.398,364.75z"/>
	<path fill-rule="evenodd" clip-rule="evenodd" fill="#FFFCEB" d="M439.283,678.844c-0.002,16.092-0.002,32.187,0,48.279
		c0,3.39,0.347,3.823,3.037,3.835c1.692,0.006,3.385-0.082,5.074,0.021c1.736,0.108,2.42-0.966,2.398-3.023
		c0-0.615,0.006-1.228,0.006-1.84c0.004-31.653,0.006-63.307,0-94.952c0.004-4.234-0.288-4.604-3.582-4.613
		c-1.449,0-2.9-0.062-4.346,0.034c-2.196,0.141-2.582,0.706-2.588,3.516c-0.002,9.197,0,18.394,0,27.591
		C439.283,664.741,439.281,671.792,439.283,678.844z"/>
</g>
<path fill-rule="evenodd" clip-rule="evenodd" fill="#FFFCEB" d="M381.789,468.755c-17.111-28.224-34.072-55.975-50.751-83.994
	c-1.982-3.341-3.255-8.127-3.397-12.355c-0.424-12.906-0.501-25.891,0.057-38.791c0.184-4.259,1.913-9.32,4.268-12.379
	c20.095-26.131,40.495-51.89,60.809-77.757c6.501-8.276,7.945-8.253,14.662,0.27c20.753,26.305,41.543,52.556,62.153,79.034
	c1.642,2.111,2.84,5.752,2.894,8.721c0.306,14.352,0.261,28.728,0.033,43.092c-0.042,2.843-0.949,6.136-2.297,8.391
	c-16.221,26.94-32.54,53.779-48.976,80.492c-2.648,4.3-1.994,7.221,0.468,11.203c14.631,23.672,29.162,47.464,43.457,71.478
	c1.839,3.083,3.56,8.505,2.601,11.348c-0.891,2.555-5.431,3.442-8.48,4.366c-2.145,0.647-4.594-0.349-6.771,0.203
	c-10.906,2.801-17.231-4.324-23.09-14.951c-8.37-15.246-17.776-29.573-26.726-44.327c-0.674-1.14-1.121-2.525-2.164-4.931
	c-5.856,9.614-10.736,17.699-15.666,25.729c-6.815,11.107-13.467,22.413-20.641,33.148c-1.797,2.687-5.182,4.605-8.003,5.014
	c-5.397,0.798-10.951,0.672-16.382,0.078c-2.711-0.307-6.609-1.655-7.554-4.061c-0.972-2.459,0.236-7.527,1.805-10.202
	c13.141-22.112,26.575-43.919,39.898-65.834C376.531,477.583,379.014,473.385,381.789,468.755z M399.871,438.479
	c1.828-2.524,3.07-3.994,4.084-5.68c14.238-23.468,28.293-47.104,42.727-70.355c3.028-4.895,2.83-7.551-0.588-11.81
	c-14.379-17.86-28.508-36.057-42.651-54.247c-2.569-3.311-4.615-3.053-7.077,0.114c-14.467,18.484-28.955,36.938-43.532,55.284
	c-2.537,3.197-2.55,5.733-0.382,9.219c8.056,12.93,15.939,26.041,23.907,39.062C384.044,412.643,391.738,425.213,399.871,438.479z"
	/>
</svg>
