<?xml version="1.0" encoding="utf-8"?>
<!-- Generator: Adobe Illustrator 16.0.0, SVG Export Plug-In . SVG Version: 6.00 Build 0)  -->
<!DOCTYPE svg PUBLIC "-//W3C//DTD SVG 1.1//EN" "http://www.w3.org/Graphics/SVG/1.1/DTD/svg11.dtd">
<svg version="1.1" id="Layer_1" xmlns="http://www.w3.org/2000/svg" xmlns:xlink="http://www.w3.org/1999/xlink" x="0px" y="0px"
	 width="800px" height="800px" viewBox="0 0 800 800" enable-background="new 0 0 800 800" xml:space="preserve">
<path fill="#FFCB00" d="M406.489,796.182c-51.344,0-101.142-10.045-148.01-29.855c-45.278-19.139-85.945-46.541-120.873-81.447
	S75.26,609.332,56.11,564.086c-19.822-46.836-29.873-96.598-29.873-147.904S36.288,315.113,56.11,268.279
	c19.149-45.248,46.568-85.889,81.496-120.793c34.928-34.906,75.595-62.309,120.873-81.449
	c46.868-19.811,96.666-29.855,148.01-29.855s101.142,10.045,148.009,29.855c45.278,19.141,85.946,46.543,120.874,81.449
	c34.928,34.904,62.347,75.545,81.497,120.793c19.821,46.834,29.872,96.596,29.872,147.902S776.69,517.25,756.869,564.086
	c-19.15,45.246-46.569,85.887-81.497,120.793s-75.596,62.309-120.874,81.447C507.631,786.137,457.833,796.182,406.489,796.182z"/>
<path fill="#F28F06" d="M400.949,40.182c48.654,0,95.832,9.514,140.222,28.277c42.895,18.133,81.426,44.098,114.523,77.174
	c33.096,33.074,59.075,71.578,77.217,114.441c18.771,44.355,28.29,91.494,28.29,140.107c0,48.615-9.52,95.754-28.29,140.107
	c-18.142,42.863-44.121,81.367-77.217,114.443c-33.098,33.076-71.629,59.041-114.523,77.172
	c-44.39,18.764-91.567,28.277-140.222,28.277s-95.832-9.514-140.223-28.277c-42.895-18.131-81.426-44.096-114.522-77.172
	c-33.096-33.076-59.075-71.58-77.216-114.443c-18.772-44.354-28.291-91.492-28.291-140.107c0-48.613,9.519-95.752,28.291-140.107
	c18.141-42.863,44.12-81.367,77.216-114.441c33.097-33.076,71.628-59.041,114.522-77.174
	C305.117,49.695,352.295,40.182,400.949,40.182 M400.949,0.182c-221.053,0-400.252,179.086-400.252,400s179.199,400,400.252,400
	s400.252-179.086,400.252-400S622.002,0.182,400.949,0.182L400.949,0.182z"/>
<g>
	<polygon fill-rule="evenodd" clip-rule="evenodd" fill="#FFFCEB" points="225.44,310.583 370.489,262.195 322.489,221.529 
		220.739,249.612 	"/>
	<path fill-rule="evenodd" clip-rule="evenodd" fill="#FFFCEB" stroke="#FFCB00" stroke-width="10" stroke-miterlimit="10" d="
		M189.489,193.862c0,0,81-20,81,142c0,165-47.333,296.334,36.667,353.667c61.289,41.832,273.325-92.931,247.333-160.667
		c-33-86-8.13-289.27-12-329.333c-5.667-58.666-80-68.667-80-68.667L189.489,193.862z"/>
	<g>
		<path fill-rule="evenodd" clip-rule="evenodd" fill="#FFFCEB" d="M218.915,306.271c-18.472,0-36.502-19.192-41.94-44.644
			c-6.104-28.579,5.233-55.313,25.275-59.595c1.795-0.384,3.638-0.578,5.479-0.578c18.473,0,36.502,19.192,41.939,44.644
			c3.018,14.125,1.886,28.193-3.188,39.612c-4.833,10.876-12.676,17.973-22.084,19.982
			C222.601,306.077,220.757,306.271,218.915,306.271z"/>
		<g>
			<path fill="#FFCB00" d="M208,196v10.455c7,0,14.907,3.78,21.581,10.644c7.366,7.576,12.745,18.246,15.265,30.044
				c2.801,13.102,1.747,26.076-2.901,36.538c-4.166,9.376-10.774,15.456-18.575,17.123c-1.453,0.311-2.954,0.468-4.445,0.468
				c-7.331,0-15.049-3.779-21.723-10.643c-7.365-7.576-12.814-18.246-15.335-30.045c-2.798-13.102-1.78-26.077,2.868-36.537
				c4.166-9.376,10.893-15.457,18.697-17.124c1.451-0.31,2.568-0.468,4.568-0.468V196 M207.729,196.455
				c-2.174,0-4.354,0.225-6.523,0.688c-22.775,4.865-35.812,34.203-29.119,65.529c6.055,28.341,26.183,48.599,46.829,48.599
				c2.175,0,4.355-0.225,6.525-0.688c22.772-4.864,35.812-34.203,29.117-65.529C248.504,216.712,228.373,196.455,207.729,196.455
				L207.729,196.455z"/>
		</g>
	</g>
	<g>
		<g>
			<path fill-rule="evenodd" clip-rule="evenodd" fill="#F28F06" d="M509.831,478.836c0.582-2.254,1.092-4.238,1.608-6.222
				c1.607-6.188,3.2-12.381,4.857-18.56c0.146-0.545,0.697-1.23,1.088-1.425c1.105-0.544,2.226-0.919,3.338-1.262
				c0.968-0.298,1.242,0.17,1.242,1.879c0.002,12.397,0,24.796,0.003,37.193c-0.001,6.909,0,13.815-0.003,20.725
				c0,1.794-0.248,2.254-1.487,2.721c-1.018,0.383-2.034,0.704-3.052,1.09c-0.65,0.245-1.021,0.018-1.279-0.809
				c-1.958-6.268-3.954-12.496-5.945-18.731c-0.079-0.25-0.225-0.438-0.444-0.856c-0.199,0.573-0.351,0.932-0.446,1.304
				c-1.979,7.637-3.956,15.276-5.921,22.915c-0.263,1.02-0.694,1.609-1.388,1.847c-1.08,0.373-2.163,0.781-3.242,1.177
				c-0.814,0.297-1.246-0.109-1.249-1.294c-0.004-1.825-0.004-3.653-0.004-5.48c0-17.476,0-34.952,0-52.429
				c0-2.513,0.217-2.897,1.995-3.544c0.285-0.104,0.571-0.204,0.858-0.312c3.338-1.252,2.488-0.98,3.604,2.361
				c1.904,5.679,3.688,11.476,5.525,17.219C509.523,478.443,509.6,478.505,509.831,478.836z M503.374,503.462
				c0.245-0.775,0.42-1.254,0.548-1.744c1.162-4.462,2.332-8.922,3.447-13.394c0.145-0.568,0.113-1.3-0.03-1.778
				c-0.784-2.645-1.617-5.247-2.458-7.843c-0.44-1.363-0.93-2.684-1.434-4.13C502.953,475.803,502.888,502.075,503.374,503.462z
				 M516.035,498.643c0.077-0.054,0.153-0.111,0.229-0.166c0-9.441,0-18.883,0-28.664c-0.269,0.591-0.439,0.854-0.513,1.139
				c-1.212,4.703-2.421,9.409-3.6,14.119c-0.111,0.451-0.112,1.038,0,1.407c1.003,3.282,2.04,6.533,3.074,9.785
				C515.482,497.069,515.766,497.851,516.035,498.643z"/>
			<path fill-rule="evenodd" clip-rule="evenodd" fill="#F28F06" d="M343.156,544.178c-2.069,3.771-4.152,7.521-6.185,11.327
				c-0.259,0.484-0.344,1.277-0.345,1.869c-0.023,6.962-0.015,13.911-0.012,20.863c0.003,2.4-0.126,2.644-1.77,3.243
				c-0.765,0.279-1.527,0.567-2.291,0.835c-1.257,0.44-1.458,0.221-1.46-1.697c-0.005-8.006-0.001-16.013-0.001-24.017
				c0-11.111,0-22.225,0-33.338c0.001-2.671,0.15-2.944,2.011-3.625c1.4-0.511,2.804-1.096,4.198-1.481
				c0.511-0.14,1.1,0.008,1.48,0.365c1.34,1.254,2.631,2.609,3.885,4.023c0.505,0.569,0.814,0.447,1.309-0.472
				c1.247-2.322,2.514-4.631,3.842-6.861c0.379-0.638,0.985-1.211,1.499-1.435c1.585-0.69,3.18-1.218,4.771-1.77
				c1.146-0.397,1.472-0.035,1.469,1.629c-0.008,17.566-0.023,35.137-0.033,52.704c-0.001,1.733,0.033,3.454,0.036,5.187
				c0.003,2.111-0.199,2.478-1.629,3.004c-0.794,0.293-1.591,0.589-2.386,0.869c-1.267,0.45-1.571,0.16-1.58-1.699
				c-0.011-4.249,0.01-8.511,0.012-12.764c0.001-2.973,0.002-5.945-0.029-8.906c-0.004-0.412-0.114-0.891-0.309-1.104
				c-2.004-2.205-4.035-4.361-6.062-6.526C343.494,544.312,343.372,544.29,343.156,544.178z M342.533,533.604
				c-1.756-1.867-3.688-3.918-5.618-5.972c-0.063,0.106-0.124,0.215-0.187,0.322c0,5.419,0,10.839-0.001,16.52
				C338.741,540.705,340.607,537.212,342.533,533.604z M344.395,532.926c1.779,2.07,3.632,4.224,5.441,6.326
				c0-5.308,0-10.722,0-16.361C347.827,526.595,345.959,530.04,344.395,532.926z"/>
			<path fill-rule="evenodd" clip-rule="evenodd" fill="#F28F06" d="M503.696,410.807c1.393,0.68,2.709,1.352,4.043,1.971
				c4.201,1.947,8.417,3.853,12.602,5.845c0.425,0.201,0.87,0.76,0.947,1.37c0.045,0.368-0.546,1.288-0.945,1.745
				c-5.64,6.418-11.296,12.802-16.953,19.18c-0.271,0.306-0.6,0.569-0.9,0.689c-1.273,0.504-2.545,0.943-3.818,1.412
				c-0.744,0.276-1.104-0.16-1.157-1.165c-0.016-0.313-0.007-0.64-0.007-0.959c0-19.074,0-38.146,0-57.221
				c0-2.341,0.248-2.787,1.878-3.392c0.384-0.142,0.768-0.222,1.146-0.427c1.604-0.886,2.954-0.525,4.306,0.122
				c5.033,2.406,10.1,4.721,15.152,7.072c0.22,0.102,0.435,0.216,0.646,0.341c0.979,0.581,0.996,1.744-0.014,2.973
				c-1.937,2.357-3.895,4.664-5.85,6.982c-3.546,4.208-7.099,8.405-10.642,12.618C503.982,410.137,503.89,410.424,503.696,410.807z
				 M503.362,421.591c-0.165,0.368-0.271,0.512-0.271,0.62c-0.018,2.84-0.053,5.684-0.021,8.504c0.009,0.835,0.387,0.605,0.799,0.1
				c1.444-1.763,2.903-3.49,4.348-5.25c0.278-0.338,0.512-0.77,0.891-1.349C507.104,423.301,505.247,422.452,503.362,421.591z
				 M509.216,392.948c-2.102-0.991-3.987-1.877-5.909-2.786c-0.132,0.439-0.232,0.635-0.232,0.794
				c-0.017,2.792-0.03,5.58-0.017,8.361c0.004,0.871,0.376,0.689,0.778,0.202c0.928-1.121,1.852-2.253,2.776-3.384
				C507.411,395.159,508.209,394.181,509.216,392.948z"/>
			<path fill-rule="evenodd" clip-rule="evenodd" fill="#F28F06" d="M378.331,370.167c-0.054,1.005-0.138,1.835-0.137,2.638
				c0.012,11.021,0.038,22.04,0.053,33.062c0.002,1.766-0.22,2.135-1.458,2.593c-0.986,0.365-1.975,0.697-2.96,1.079
				c-0.761,0.295-1.096-0.177-1.168-1.146c-0.029-0.396-0.014-0.817-0.013-1.229c0.018-9.018,0.051-18.042,0.051-27.055
				c-0.002-9.926-0.036-19.84-0.053-29.763c-0.003-2.354,0.241-2.79,1.871-3.392c0.796-0.293,1.592-0.612,2.385-0.854
				c1.076-0.327,1.341-0.018,1.347,1.514c0.009,2.926,0.077,5.835-0.026,8.793c-0.058,1.605,0.341,2.56,1.071,3.333
				c3.774,3.996,7.537,8.013,11.306,12.018c0.218,0.229,0.455,0.425,0.909,0.848c0-0.897,0-1.411,0-1.928
				c0-9.103-0.002-18.205,0.001-27.308c0-2.148,0.296-2.691,1.775-3.245c0.891-0.334,1.781-0.636,2.671-0.938
				c0.812-0.277,1.242,0.103,1.162,1.364c-0.021,0.324,0,0.641,0,0.96c0,18.991,0,37.983,0.001,56.976
				c-0.001,2.49-0.057,2.59-1.756,3.212c-0.797,0.293-1.591,0.585-2.386,0.864c-1.129,0.396-1.462,0.05-1.466-1.608
				c-0.01-5.169-0.02-10.337,0.009-15.516c0.006-1.03-0.182-1.698-0.71-2.257c-3.959-4.188-7.878-8.45-11.814-12.677
				C378.85,370.35,378.639,370.319,378.331,370.167z"/>
			<path fill-rule="evenodd" clip-rule="evenodd" fill="#F28F06" d="M310.057,537.198c-0.858,1.477-1.525,2.583-2.158,3.721
				c-1.17,2.101-2.31,4.23-3.485,6.323c-0.63,1.122-1.236,1.275-1.9,0.565c-1.592-1.703-3.177-3.416-4.769-5.117
				c-0.176-0.186-0.38-0.313-0.73-0.6c-0.054,0.749-0.126,1.276-0.127,1.776c-0.007,16.381-0.009,32.761-0.013,49.143
				c0,1.951-0.239,2.373-1.618,2.881c-0.892,0.328-1.783,0.667-2.674,0.971c-0.965,0.327-1.297-0.042-1.324-1.44
				c-0.015-0.68-0.004-1.37-0.003-2.057c-0.001-18.53-0.001-37.06,0-55.591c0-2.617,0.2-2.973,2.03-3.642
				c1.434-0.523,2.867-1.113,4.295-1.522c0.483-0.139,1.048-0.005,1.402,0.337c1.306,1.259,2.551,2.636,3.789,4.02
				c0.511,0.57,0.872,0.65,1.463-0.489c1.157-2.235,2.376-4.424,3.653-6.528c0.45-0.743,1.132-1.433,1.729-1.708
				c1.551-0.714,3.115-1.21,4.674-1.744c1.22-0.421,1.463-0.15,1.464,1.564c-0.008,18.349-0.021,36.699-0.027,55.048
				c0,1.234,0.005,2.467,0.03,3.69c0.025,1.104-0.398,1.741-1.1,2.021c-1.05,0.419-2.101,0.797-3.15,1.149
				c-1.04,0.349-1.383-0.057-1.386-1.632c-0.005-7.137-0.001-14.275-0.003-21.413c0-9.287,0.001-18.575-0.004-27.86
				C310.115,538.584,310.087,538.114,310.057,537.198z"/>
			<path fill-rule="evenodd" clip-rule="evenodd" fill="#F28F06" d="M303.425,417.862c-0.537,2.153-1.014,4.078-1.499,6.004
				c-0.963,3.828-1.937,7.651-2.891,11.479c-0.278,1.113-0.706,1.735-1.512,1.984c-1.524,0.468-3.055,1.1-4.582,1.656
				c-1.236,0.45-1.561-0.034-1.117-1.908c0.673-2.853,1.412-5.697,2.13-8.544c1.411-5.597,2.822-11.193,4.243-16.788
				c0.296-1.166,0.568-2.349,0.961-3.474c0.76-2.183,0.464-3.812-0.081-5.516c-2.413-7.553-4.752-15.177-7.116-22.775
				c-0.095-0.303-0.178-0.62-0.244-0.949c-0.194-0.954,0.023-1.834,0.797-2.146c1.843-0.733,3.688-1.401,5.525-1.931
				c0.335-0.096,0.775,0.458,0.937,0.939c0.842,2.5,1.61,5.072,2.402,7.618c0.67,2.151,1.339,4.3,2.009,6.45
				c0.101-0.039,0.199-0.075,0.299-0.115c0.493-1.919,0.99-3.84,1.475-5.761c0.977-3.872,1.955-7.742,2.913-11.62
				c0.258-1.043,0.739-1.588,1.396-1.832c1.593-0.59,3.184-1.201,4.775-1.724c1.113-0.365,1.446,0.334,1.034,1.971
				c-2.006,7.974-4.009,15.947-6.021,23.92c-0.577,2.283-1.211,4.554-1.749,6.841c-0.138,0.584-0.137,1.324,0.011,1.798
				c2.596,8.467,5.229,16.898,7.85,25.342c0.306,0.992-0.033,1.995-0.845,2.317c-1.781,0.706-3.566,1.396-5.345,1.914
				c-0.382,0.111-0.911-0.359-1.078-0.854c-1.021-3.065-1.965-6.207-2.922-9.334c-0.443-1.449-0.856-2.932-1.295-4.387
				C303.834,418.276,303.694,418.194,303.425,417.862z"/>
			<path fill-rule="evenodd" clip-rule="evenodd" fill="#F28F06" d="M461.547,280.648c-0.049,0.825-0.103,1.32-0.103,1.798
				c-0.009,4.805-0.001,9.607-0.009,14.411c0,1.7-0.15,1.967-1.308,2.398c-0.986,0.367-1.976,0.657-2.957,1.099
				c-0.883,0.396-1.21-0.106-1.253-1.223c-0.013-0.315-0.008-0.638-0.007-0.959c-0.001-18.978-0.001-37.955,0-56.935
				c-0.001-2.585,0.134-2.818,1.962-3.497c0.032-0.012,0.062-0.02,0.096-0.037c2.365-1.355,4.354-0.817,6.343,0.173
				c4.839,2.406,9.757,4.598,14.636,6.893c1.055,0.496,1.021,1.877-0.042,3.148c-5.49,6.555-10.973,13.128-16.478,19.652
				c-0.656,0.775-0.525,1.094-0.129,1.576c3.096,3.754,6.181,7.528,9.267,11.298c2.494,3.042,5.005,6.058,7.458,9.164
				c0.305,0.386,0.505,1.269,0.386,1.899c-0.079,0.416-0.812,0.959-1.263,1.157c-1.266,0.553-2.537,0.876-3.801,1.443
				c-0.888,0.397-1.524,0.149-2.082-0.54c-3.286-4.062-6.573-8.124-9.865-12.176C462.199,281.149,461.947,280.993,461.547,280.648z
				 M461.556,247.562c0.002,3.557,0,6.695,0.002,10.172c2.071-2.511,3.951-4.789,6.07-7.355
				C465.507,249.396,463.633,248.525,461.556,247.562z"/>
			<path fill-rule="evenodd" clip-rule="evenodd" fill="#F28F06" d="M430.697,504.994c2.442,2.27,4.705,4.361,6.96,6.473
				c1.07,1.002,1.058,1.645-0.027,3.426c-1.916,3.15-3.831,6.302-5.753,9.446c-0.309,0.5-0.649,0.957-1.079,1.588
				c1.571,1.455,2.954,2.734,4.335,4.013c0.991,0.917,2.016,1.778,2.957,2.788c0.323,0.348,0.594,1.003,0.616,1.638
				c0.077,2.117,0.066,4.276,0.006,6.445c-0.015,0.551-0.266,1.491-0.541,1.723c-0.351,0.295-0.948,0.274-1.248,0.007
				c-3.134-2.785-6.234-5.638-9.329-8.497c-1.094-1.011-1.06-1.022-2.122,0.736c-3.036,5.034-6.076,10.071-9.157,15.05
				c-0.369,0.596-1.076,1.198-1.486,1.148c-0.308-0.037-0.521-1.058-0.549-1.741c-0.073-1.843-0.094-3.723,0.008-5.625
				c0.041-0.791,0.314-1.828,0.704-2.491c2.18-3.711,4.427-7.345,6.657-10.996c0.142-0.233,0.326-0.41,0.64-0.797
				c-1.118-1.057-2.06-1.965-3.018-2.845c-1.324-1.218-2.663-2.406-3.99-3.617c-0.903-0.826-0.903-1.655,0.01-3.165
				c2.033-3.349,4.072-6.69,6.106-10.037c0.926-1.522,0.918-1.6-0.027-2.479c-2.117-1.973-4.263-3.898-6.325-5.978
				c-0.423-0.427-0.701-1.354-0.755-2.195c-0.115-1.772-0.09-3.627-0.011-5.479c0.032-0.713,0.25-1.784,0.603-2.182
				c0.303-0.342,1.026-0.178,1.374,0.141c3.062,2.776,6.082,5.639,9.114,8.472c0.374,0.347,0.761,0.666,1.194,1.042
				c2.102-3.499,4.163-6.939,6.229-10.373c1.386-2.308,2.76-4.631,4.185-6.889c0.291-0.461,0.855-0.954,1.155-0.89
				c0.294,0.064,0.558,0.759,0.573,1.288c0.068,2.03,0.003,4.117,0.043,6.158c0.021,1.003-0.236,1.816-0.743,2.657
				c-2.261,3.754-4.504,7.527-6.758,11.291C431.108,504.483,430.934,504.677,430.697,504.994z M430.385,515.729
				c-1.334-1.251-2.578-2.417-3.854-3.609c-1.317,2.194-2.549,4.247-3.857,6.426c1.349,1.238,2.606,2.396,3.874,3.56
				C427.825,519.981,429.038,517.968,430.385,515.729z"/>
			<path fill-rule="evenodd" clip-rule="evenodd" fill="#F28F06" d="M419.942,260.811c0.022,2.201-0.413,4.199,0.864,5.53
				c5.854,6.103,11.606,12.387,17.374,18.649c0.297,0.324,0.51,0.983,0.529,1.586c0.062,2.076,0.069,4.185-0.001,6.31
				c-0.019,0.592-0.288,1.565-0.597,1.848c-0.316,0.292-0.936,0.168-1.226-0.136c-2.694-2.812-5.346-5.701-8.013-8.561
				c-2.823-3.027-5.65-6.046-8.479-9.059c-0.059-0.062-0.176-0.019-0.412-0.033c-0.036,0.667-0.099,1.286-0.099,1.884
				c-0.006,10.89-0.006,21.776-0.005,32.661c-0.001,2.233-0.124,2.454-1.688,3.029c-0.827,0.306-1.655,0.607-2.479,0.903
				c-1.143,0.409-1.443,0.109-1.452-1.592c-0.017-3.19-0.007-6.391-0.007-9.59c0-15.921,0-31.842,0.007-47.766
				c-0.001-0.541,0.052-1.105,0.113-1.663c0.1-0.896,0.497-1.413,1.079-1.625c1.75-0.637,3.507-1.38,5.247-1.841
				c0.583-0.156,1.232,0.223,1.674,0.682c3.156,3.28,6.268,6.64,9.39,9.982c2.107,2.261,4.232,4.495,6.292,6.841
				c0.369,0.42,0.61,1.252,0.65,2.016c0.095,1.786,0.029,3.646,0.03,5.477c0.002,0.868,0.11,1.967-0.625,2.396
				c-0.467,0.273-1.136-0.003-1.514-0.399c-3.437-3.606-6.825-7.301-10.235-10.955c-1.933-2.069-3.876-4.118-5.817-6.167
				C420.418,261.087,420.258,261.021,419.942,260.811z"/>
			<path fill-rule="evenodd" clip-rule="evenodd" fill="#F28F06" d="M336.724,290.977c-0.049,0.856-0.105,1.393-0.105,1.908
				c-0.006,16.243-0.004,32.483-0.006,48.725c0,2.354-0.171,2.663-1.794,3.256c-0.827,0.303-1.657,0.547-2.481,0.915
				c-0.931,0.418-1.251-0.111-1.244-1.349c0.011-2.61,0-5.214-0.001-7.819c0-16.606,0.002-33.214,0.003-49.822
				c0-0.411,0.016-0.828,0.01-1.237c-0.013-1.069,0.371-1.776,1.095-2.05c1.845-0.7,3.69-1.396,5.535-1.993
				c0.363-0.116,0.797,0.076,1.068,0.362c5.404,5.75,10.799,11.52,16.162,17.343c0.335,0.362,0.57,1.139,0.57,1.825
				c0.036,11.421,0.027,22.858,0.023,34.291c0,1.654-0.238,2.065-1.408,2.5c-1.018,0.377-2.036,0.699-3.054,1.121
				c-0.688,0.284-0.996-0.091-1.079-0.95c-0.042-0.437-0.053-0.891-0.051-1.347c-0.004-10.061,0.011-20.124-0.033-30.169
				c-0.004-0.812-0.259-1.735-0.646-2.165c-3.791-4.203-7.633-8.315-11.466-12.441C337.543,291.579,337.211,291.373,336.724,290.977
				z"/>
			<path fill-rule="evenodd" clip-rule="evenodd" fill="#F28F06" d="M465.066,516.284c-2.886-4.339-5.745-8.597-8.556-12.924
				c-0.335-0.515-0.55-1.352-0.575-2.149c-0.07-2.438-0.084-4.912,0.011-7.409c0.03-0.825,0.323-1.897,0.72-2.625
				c3.388-6.223,6.828-12.394,10.252-18.579c1.096-1.978,1.34-2.062,2.473-0.848c3.497,3.749,7.003,7.485,10.479,11.276
				c0.276,0.303,0.478,0.924,0.487,1.487c0.051,2.722,0.044,5.469,0.005,8.226c-0.007,0.545-0.16,1.229-0.388,1.743
				c-2.733,6.139-5.485,12.264-8.257,18.373c-0.446,0.983-0.336,1.501,0.079,2.11c2.467,3.621,4.918,7.271,7.326,10.98
				c0.311,0.476,0.602,1.404,0.438,2.007c-0.148,0.542-0.915,0.99-1.43,1.354c-0.361,0.255-0.772,0.214-1.14,0.453
				c-1.841,1.205-2.905,0.232-3.894-1.438c-1.412-2.396-2.997-4.555-4.505-6.822c-0.114-0.177-0.19-0.413-0.367-0.808
				c-0.986,2.194-1.808,4.036-2.64,5.873c-1.15,2.539-2.271,5.105-3.479,7.596c-0.303,0.622-0.874,1.197-1.35,1.448
				c-0.91,0.482-1.847,0.8-2.762,1.02c-0.458,0.108-1.115,0.09-1.276-0.312c-0.161-0.41,0.042-1.452,0.308-2.059
				c2.214-5.027,4.479-10.016,6.726-15.018C464.179,518.293,464.598,517.338,465.066,516.284z M468.114,509.395
				c0.309-0.595,0.518-0.951,0.689-1.336c2.397-5.354,4.77-10.729,7.202-16.055c0.512-1.12,0.479-1.615-0.099-2.218
				c-2.425-2.528-4.806-5.136-7.19-7.74c-0.434-0.475-0.778-0.3-1.193,0.455c-2.439,4.417-4.882,8.83-7.339,13.227
				c-0.428,0.767-0.431,1.252-0.065,1.784c1.358,1.976,2.688,3.993,4.03,5.991C465.445,505.433,466.744,507.359,468.114,509.395z"/>
			<path fill-rule="evenodd" clip-rule="evenodd" fill="#F28F06" d="M297.004,310.225c0.479-0.785,0.818-1.295,1.12-1.842
				c2.706-4.896,5.396-9.807,8.118-14.685c0.265-0.478,0.699-0.949,1.065-1.105c1.429-0.607,2.863-1.161,4.289-1.57
				c0.475-0.137,1.185-0.019,1.321,0.422c0.139,0.436-0.188,1.553-0.52,2.152c-4.286,7.776-8.609,15.513-12.922,23.261
				c-0.74,1.332-1.475,2.672-2.201,4.018c-0.128,0.234-0.285,0.546-0.289,0.777c-0.029,1.397-0.015,2.779-0.016,4.616
				c1.263-2.253,2.319-4.12,3.36-5.998c2.513-4.524,4.996-9.08,7.548-13.559c0.404-0.713,1.088-1.319,1.664-1.594
				c1.33-0.629,2.674-1.103,4.006-1.468c0.427-0.118,1.056,0.092,1.182,0.524c0.127,0.436-0.133,1.463-0.433,2.009
				c-4.666,8.468-9.367,16.896-14.057,25.339c-0.562,1.01-1.025,2.174-1.666,3.04c-1.495,2.025-1.78,4.114-1.726,6.556
				c0.111,4.943,0.033,9.964,0.031,14.953c0,2.481-0.086,2.633-1.848,3.276c-0.859,0.312-1.72,0.593-2.578,0.949
				c-0.815,0.338-1.16-0.127-1.196-1.207c-0.01-0.315-0.003-0.639-0.004-0.959c0.001-18.99,0-37.98,0-56.972
				c0-2.508,0.183-2.839,1.894-3.461c0.827-0.302,1.655-0.607,2.482-0.896c0.854-0.3,1.263,0.146,1.256,1.414
				c-0.021,3.349-0.01,6.685-0.002,10.021C296.888,308.812,296.951,309.362,297.004,310.225z"/>
			<path fill-rule="evenodd" clip-rule="evenodd" fill="#F28F06" d="M372.646,300.043c-0.001-9.464-0.001-18.929,0-28.393
				c0.001-2.481,0.289-2.992,1.976-3.562c0.796-0.27,1.592-0.619,2.387-0.895c0.924-0.317,1.226,0.084,1.218,1.43
				c-0.021,4.029-0.017,8.049-0.051,12.082c-0.008,0.99,0.253,1.498,0.852,1.767c5.514,2.482,11.02,4.984,16.504,7.546
				c0.414,0.195,0.959,0.858,0.896,1.355c-0.089,0.726-0.592,1.669-1.059,2.229c-5.446,6.545-10.911,13.049-16.396,19.514
				c-0.579,0.68-0.73,1.266-0.728,2.104c0.014,3.885,0.012,7.772,0.009,11.662c-0.001,1.885-0.193,2.236-1.47,2.708
				c-0.985,0.365-1.973,0.686-2.958,1.086c-0.772,0.312-1.098-0.16-1.168-1.132c-0.028-0.399-0.013-0.818-0.013-1.23
				C372.646,318.893,372.646,309.468,372.646,300.043z M378.339,303.101c2.097-2.556,3.965-4.829,6.056-7.377
				c-2.129-0.979-3.992-1.836-6.056-2.784C378.339,296.482,378.339,299.586,378.339,303.101z"/>
			<path fill-rule="evenodd" clip-rule="evenodd" fill="#F28F06" d="M331.094,393.917c0-9.513-0.001-19.023,0.001-28.537
				c0-2.359,0.183-2.463,1.782-3.313c2.669-1.422,4.842-0.753,7.041,0.343c4.703,2.346,9.484,4.471,14.232,6.686
				c1.04,0.482,1.099,1.601,0.066,2.861c-2.832,3.458-5.688,6.865-8.545,10.273c-2.854,3.407-5.734,6.769-8.564,10.229
				c-0.294,0.361-0.473,1.292-0.476,1.878c-0.032,6.688-0.02,13.359-0.02,20.037c0.001,2.286,0.01,4.569-0.006,6.861
				c-0.013,1.534-0.235,1.915-1.307,2.322c-0.954,0.362-1.908,0.714-2.862,1.048c-1.114,0.392-1.325,0.18-1.342-1.465
				c-0.02-2.005-0.002-4.023-0.002-6.037C331.094,409.373,331.095,401.646,331.094,393.917z M336.695,382.056
				c2.111-2.554,4.009-4.852,6.088-7.366c-2.062-0.967-3.978-1.867-6.088-2.857C336.695,375.396,336.695,378.517,336.695,382.056z"
				/>
			<path fill-rule="evenodd" clip-rule="evenodd" fill="#F28F06" d="M378.355,512.318c-0.052,0.896-0.099,1.353-0.099,1.794
				c-0.008,16.479-0.011,32.954-0.016,49.431c0.001,1.723-0.27,2.226-1.438,2.664c-0.954,0.36-1.909,0.691-2.864,1.049
				c-0.817,0.309-1.242-0.124-1.283-1.265c-0.023-0.629-0.011-1.276-0.011-1.916c0-18.719,0.001-37.438-0.001-56.153
				c-0.001-2.236,0.286-2.771,1.819-3.336c1.401-0.517,2.802-0.979,4.202-1.547c0.822-0.334,1.42-0.14,2.005,0.493
				c5.318,5.759,10.671,11.458,15.986,17.221c0.271,0.295,0.422,0.958,0.436,1.53c0.052,2.083,0.055,4.19-0.003,6.312
				c-0.015,0.544-0.269,1.533-0.51,1.691c-0.415,0.276-1.035,0.315-1.346,0.018c-1.49-1.438-2.912-3.009-4.35-4.551
				c-3.342-3.581-6.68-7.171-10.019-10.758C380.093,514.167,379.317,513.343,378.355,512.318z"/>
			<path fill-rule="evenodd" clip-rule="evenodd" fill="#F28F06" d="M300.65,502.961c0-0.578,0-1.155-0.001-1.732
				c0.001-15.191,0.001-30.385,0.001-45.576c0-2.642,0.304-2.829,2.071-3.863c2.712-1.59,4.379-0.232,6.042,1.727
				c2.135,2.52,4.422,4.779,6.608,7.215c0.248,0.275,0.356,0.925,0.368,1.466c0.042,1.997,0.054,4.01-0.006,6.041
				c-0.019,0.604-0.252,1.704-0.484,1.849c-0.44,0.279-1.094,0.292-1.414-0.036c-2.264-2.308-4.464-4.734-6.688-7.114
				c-0.171-0.183-0.373-0.309-0.727-0.596c-0.047,0.84-0.104,1.421-0.104,1.981c-0.005,9.888-0.005,19.77-0.005,29.653
				c0,5.674,0.001,11.344-0.002,17.016c-0.002,1.643-0.261,2.108-1.388,2.549c-4.017,1.568-4.006,1.548-6.896-1.656
				c-1.994-2.212-4.053-4.312-6.012-6.582c-0.409-0.473-0.679-1.384-0.729-2.229c-0.108-1.823-0.086-3.723-0.002-5.621
				c0.027-0.637,0.307-1.577,0.653-1.988c0.247-0.294,0.907-0.138,1.196,0.16c2.242,2.287,4.436,4.659,6.646,7.002
				c0.195,0.206,0.404,0.388,0.606,0.58C300.475,503.124,300.562,503.043,300.65,502.961z"/>
			<path fill-rule="evenodd" clip-rule="evenodd" fill="#F28F06" d="M345.624,449.905c2.81-5.069,5.369-9.727,7.971-14.339
				c0.315-0.557,0.998-1.298,1.252-1.188c0.363,0.157,0.655,0.944,0.685,1.596c0.084,1.975,0.081,3.998,0,6.033
				c-0.026,0.703-0.268,1.622-0.604,2.235c-2.689,4.909-5.426,9.769-8.148,14.641c-0.767,1.372-1.347,1.59-2.116,0.771
				c-2.362-2.521-4.718-5.057-7.077-7.582c-0.217-0.23-0.454-0.425-0.852-0.796c-0.054,0.813-0.116,1.344-0.116,1.849
				c-0.007,15.466-0.005,30.929-0.008,46.394c-0.001,2.326-0.118,2.527-1.737,3.121c-0.859,0.315-1.718,0.623-2.577,0.944
				c-0.773,0.287-1.194-0.062-1.194-1.214c0.002-0.732-0.007-1.461-0.007-2.193c-0.001-18.572-0.001-37.143-0.001-55.716
				c0-2.696,0.167-3.002,2.088-3.68c3.856-1.358,2.774-1.623,5.555,1.422C341.025,444.71,343.278,447.278,345.624,449.905z"/>
			<path fill-rule="evenodd" clip-rule="evenodd" fill="#F28F06" d="M382.138,435.501c0-3.654-0.001-6.899,0.002-10.146
				c0.002-1.963,0.296-2.484,1.698-3.015c0.795-0.3,1.592-0.612,2.386-0.859c1.202-0.374,1.444-0.08,1.446,1.624
				c0.001,2.837,0.001,5.674,0.001,8.512c0,0.486,0,0.975,0,1.867c0.469-0.666,0.75-0.995,0.971-1.39
				c2.188-3.903,4.351-7.838,6.564-11.712c0.314-0.553,0.951-1.196,1.282-1.14c0.317,0.052,0.585,0.897,0.605,1.514
				c0.074,2.07,0.074,4.184-0.001,6.31c-0.022,0.646-0.285,1.488-0.604,2.068c-2.756,5.042-5.562,10.028-8.312,15.079
				c-0.305,0.562-0.482,1.451-0.484,2.104c-0.029,11.586-0.021,23.156-0.021,34.731c0,2.154-0.15,2.427-1.625,2.966
				c-0.86,0.314-1.72,0.641-2.579,0.935c-1.003,0.342-1.317,0.028-1.322-1.412c-0.016-3.426-0.007-6.857-0.007-10.289
				c-0.001-8.328,0.013-16.661-0.025-24.976c-0.003-0.664-0.258-1.393-0.586-1.753c-2.712-3-5.488-5.886-8.188-8.909
				c-0.392-0.438-0.62-1.355-0.664-2.176c-0.095-1.829-0.084-3.723,0.005-5.623c0.031-0.69,0.302-1.774,0.654-2.126
				c0.316-0.316,1.005-0.077,1.339,0.27c2.226,2.295,4.396,4.69,6.595,7.035C381.453,435.187,381.706,435.253,382.138,435.501z"/>
			<path fill-rule="evenodd" clip-rule="evenodd" fill="#F28F06" d="M429.332,359.769c0,0.527,0.001,1.056,0,1.585
				c0,8.604,0.001,17.206-0.002,25.81c0,1.863-0.206,2.236-1.492,2.718c-0.988,0.367-1.975,0.705-2.96,1.075
				c-0.756,0.284-1.112-0.163-1.126-1.185c-0.023-1.498-0.019-3.007-0.019-4.513c-0.001-10.25-0.008-20.497,0.015-30.757
				c0.004-0.998-0.205-1.616-0.702-2.138c-2.696-2.825-5.375-5.682-8-8.632c-0.419-0.472-0.705-1.392-0.759-2.247
				c-0.112-1.822-0.09-3.723-0.002-5.622c0.033-0.698,0.302-1.774,0.657-2.143c0.312-0.324,1.017-0.111,1.351,0.231
				c2.139,2.198,4.221,4.5,6.326,6.763c0.26,0.277,0.537,0.524,1.036,1.007c0.041-1.235,0.089-2.074,0.092-2.898
				c0.005-2.562-0.021-5.116-0.008-7.683c0.006-1.595,0.319-2.168,1.41-2.607c0.892-0.361,1.782-0.683,2.673-0.975
				c1.213-0.399,1.507-0.065,1.508,1.686c0.003,5.765-0.019,11.54,0.026,17.289c0.006,0.725,0.232,1.548,0.577,1.936
				c2.602,2.915,5.252,5.739,7.903,8.567c0.54,0.575,0.906,1.239,0.88,2.423c-0.042,1.98,0.048,3.918-0.018,5.902
				c-0.018,0.575-0.293,1.526-0.598,1.804c-0.325,0.297-0.942,0.222-1.229-0.07c-2.241-2.273-4.437-4.641-6.645-6.975
				c-0.198-0.209-0.411-0.389-0.619-0.581C429.518,359.615,429.425,359.69,429.332,359.769z"/>
			<path fill-rule="evenodd" clip-rule="evenodd" fill="#F28F06" d="M470.9,400.288c0,1.682,0,3.362,0.001,5.044
				c0.011,15.186,0.021,30.369,0.032,45.555c0.002,1.903-0.219,2.296-1.561,2.794c-0.955,0.354-1.908,0.688-2.862,1.044
				c-0.703,0.261-1.058-0.127-1.101-1.094c-0.02-0.45-0.019-0.908-0.019-1.365c-0.001-16.147-0.002-32.295-0.001-48.442
				c-0.001-0.53,0-1.06-0.001-1.989c-0.426,0.608-0.651,0.873-0.829,1.189c-2.253,4.019-4.485,8.059-6.765,12.048
				c-0.294,0.515-0.891,1.107-1.206,1.058c-0.317-0.05-0.627-0.787-0.646-1.352c-0.075-2.118-0.06-4.277-0.005-6.444
				c0.012-0.545,0.192-1.27,0.453-1.744c2.194-4.022,4.397-8.038,6.674-11.974c0.451-0.779,1.209-1.466,1.839-1.735
				c2.097-0.893,4.199-1.57,6.3-2.345c0.893-0.327,1.632-0.229,2.282,0.503c2.07,2.331,4.203,4.552,6.272,6.885
				c0.314,0.356,0.55,1.034,0.574,1.675c0.081,2.067,0.092,4.174,0.025,6.297c-0.019,0.567-0.326,1.457-0.654,1.81
				c-0.275,0.296-0.889,0.238-1.152-0.031c-1.852-1.887-3.644-3.878-5.464-5.818c-0.613-0.653-1.255-1.254-1.884-1.879
				C471.104,400.081,471.002,400.186,470.9,400.288z"/>
			<path fill-rule="evenodd" clip-rule="evenodd" fill="#F28F06" d="M433.296,439.693c-0.599,0.218-0.975,0.355-1.351,0.492
				c-5.346,1.945-10.693,3.892-16.038,5.837c-1.316,0.479-1.635,0.158-1.648-1.736c-0.017-2.145-0.06-4.283,0.02-6.457
				c0.034-0.922,0.209-2.013,0.561-2.878c3.294-8.121,6.64-16.211,9.974-24.307c0.127-0.309,0.25-0.695,0.431-0.87
				c0.328-0.315,0.759-0.731,1.031-0.667c0.27,0.062,0.549,0.608,0.556,1.051c0.051,2.725,0.048,5.473,0.009,8.23
				c-0.006,0.501-0.206,1.123-0.41,1.627c-2.037,4.973-4.095,9.934-6.142,14.898c-0.154,0.374-0.273,0.774-0.563,1.603
				c1.063-0.387,1.896-0.688,2.728-0.992c4.898-1.802,9.798-3.616,14.698-5.401c1.28-0.469,1.574-0.122,1.581,1.688
				c0.01,2.055-0.035,4.133,0.021,6.167c0.038,1.281-0.176,2.459-0.693,3.703c-3.359,8.085-6.689,16.19-10.072,24.261
				c-0.207,0.496-0.805,0.977-1.181,1.036c-0.237,0.04-0.562-0.65-0.571-1.125c-0.051-2.633-0.039-5.292,0.002-7.957
				c0.009-0.506,0.184-1.125,0.386-1.626c2.077-5.12,4.179-10.225,6.271-15.338C433.01,440.646,433.087,440.337,433.296,439.693z"/>
			<path fill-rule="evenodd" clip-rule="evenodd" fill="#F28F06" d="M521.964,220.592c0,1.006,0.089,2.002-0.03,3.02
				c-0.093,0.784-0.332,1.732-0.706,2.374c-2.167,3.725-4.401,7.373-6.601,11.061c-2.743,4.59-5.465,9.204-8.216,13.782
				c-0.588,0.975-0.199,1.205,0.175,1.546c3.225,2.938,6.445,5.886,9.672,8.827c1.66,1.516,3.315,3.039,4.987,4.533
				c0.507,0.455,0.771,1.053,0.737,2.096c-0.062,1.941,0.031,3.835-0.043,5.777c-0.025,0.699-0.24,1.811-0.572,2.14
				c-0.342,0.339-1.038,0.17-1.394-0.148c-4.124-3.701-8.208-7.478-12.31-11.222c-3.033-2.771-6.078-5.519-9.115-8.283
				c-0.914-0.833-0.949-1.618-0.032-3.157c2.36-3.958,4.766-7.865,7.132-11.818c3.54-5.919,7.063-11.862,10.598-17.789
				c1.241-2.079,2.473-4.175,3.763-6.189c0.341-0.532,1.028-1.195,1.301-1.07c0.353,0.163,0.554,0.998,0.629,1.656
				C522.041,218.626,521.964,219.631,521.964,220.592z"/>
			<path fill-rule="evenodd" clip-rule="evenodd" fill="#F28F06" d="M470.934,343.08c0,9.606,0.002,19.215,0,28.823
				c0,2.023-0.182,2.349-1.602,2.872c-0.892,0.328-1.783,0.6-2.672,0.985c-0.917,0.397-1.276-0.112-1.267-1.345
				c0.001-0.367-0.002-0.731-0.003-1.097c-0.001-18.896-0.003-37.793-0.001-56.688c0-2.527,0.153-2.805,1.891-3.44
				c0.764-0.278,1.528-0.594,2.29-0.814c1.158-0.337,1.362-0.073,1.363,1.603c0.002,5.49,0,10.981,0,16.472
				C470.934,334.66,470.934,338.87,470.934,343.08z"/>
			<path fill-rule="evenodd" clip-rule="evenodd" fill="#F28F06" d="M509.35,353.287c-0.393-2.05,0.38-4.378,1.509-6.814
				c1.703-3.679,3.235-7.485,4.886-11.205c0.333-0.75,0.37-1.143,0.039-1.651c-1.976-3.061-3.928-6.158-5.89-9.241
				c-0.076-0.119-0.23-0.194-0.233-0.337c-0.049-2.817-0.164-5.617-0.063-8.479c0.03-0.849,1.155-1.189,1.62-0.473
				c1.203,1.855,2.398,3.722,3.591,5.594c2.136,3.353,4.263,6.718,6.402,10.065c0.718,1.125,0.733,1.748,0.007,3.411
				c-3.294,7.557-6.58,15.12-9.905,22.656c-0.241,0.549-0.913,1.337-1.123,1.245c-0.382-0.17-0.709-0.823-0.804-1.441
				C509.252,355.744,509.352,354.719,509.35,353.287z"/>
			<path fill-rule="evenodd" clip-rule="evenodd" fill="#F28F06" d="M510.124,304.189c0.75,3.242-1.011,5.999-2.203,8.83
				c-1.326,3.151-2.715,6.262-4.114,9.359c-0.396,0.876-0.453,1.382-0.028,2.02c1.967,2.975,3.89,6.014,5.796,9.076
				c0.264,0.421,0.469,1.051,0.489,1.674c0.069,2.027,0.085,4.085,0.021,6.159c-0.016,0.513-0.348,1.396-0.65,1.646
				c-0.312,0.257-0.918,0.182-1.126-0.141c-2.748-4.231-5.449-8.532-8.162-12.817c-0.644-1.013-1.241-2.094-1.944-3.008
				c-0.646-0.845-0.558-1.782-0.003-3.039c1.647-3.728,3.26-7.478,4.891-11.215c1.666-3.824,3.347-7.64,5.002-11.473
				c0.36-0.835,0.776-1.764,1.372-1.463c0.355,0.18,0.555,1.01,0.635,1.663C510.204,302.312,510.122,303.274,510.124,304.189z"/>
		</g>
	</g>
	<path fill-rule="evenodd" clip-rule="evenodd" fill="#FFFCEB" stroke="#FFCB00" stroke-width="10" stroke-miterlimit="10" d="
		M316.489,595.862c57.333-33.333,216.396-108.302,238-117c19.25-7.75,34.373,3.62,43.75,34.25
		c11.25,36.75-12.749,53.75-37.799,68.471c-20.079,11.8-174.284,108.945-211.617,116.279"/>
	<g>
		<path fill-rule="evenodd" clip-rule="evenodd" fill="#FFFCEB" d="M339.915,697.271c-18.472,0-36.502-19.192-41.94-44.644
			c-6.104-28.579,5.233-55.313,25.275-59.595c1.795-0.384,3.638-0.578,5.479-0.578c18.473,0,36.502,19.192,41.939,44.644
			c3.018,14.125,1.886,28.193-3.188,39.612c-4.833,10.876-12.676,17.973-22.084,19.982
			C343.601,697.077,341.757,697.271,339.915,697.271z"/>
		<g>
			<path fill="#FFCB00" d="M329,587v10.455c7,0,14.907,3.78,21.581,10.644c7.366,7.576,12.745,18.246,15.265,30.044
				c2.801,13.102,1.747,26.076-2.901,36.538c-4.166,9.376-10.774,15.456-18.575,17.123c-1.453,0.311-2.954,0.468-4.445,0.468
				c-7.331,0-15.049-3.779-21.723-10.643c-7.365-7.576-12.814-18.246-15.335-30.045c-2.798-13.102-1.78-26.077,2.868-36.537
				c4.166-9.376,10.893-15.457,18.697-17.124c1.451-0.31,2.568-0.468,4.568-0.468V587 M328.729,587.455
				c-2.174,0-4.354,0.225-6.523,0.688c-22.775,4.865-35.812,34.203-29.119,65.529c6.055,28.341,26.183,48.599,46.829,48.599
				c2.175,0,4.355-0.225,6.525-0.688c22.772-4.864,35.812-34.203,29.117-65.529C369.504,607.712,349.373,587.455,328.729,587.455
				L328.729,587.455z"/>
		</g>
	</g>
</g>
</svg>
