<?xml version="1.0" encoding="utf-8"?>
<!-- Generator: Adobe Illustrator 16.0.0, SVG Export Plug-In . SVG Version: 6.00 Build 0)  -->
<!DOCTYPE svg PUBLIC "-//W3C//DTD SVG 1.1//EN" "http://www.w3.org/Graphics/SVG/1.1/DTD/svg11.dtd">
<svg version="1.1" id="Layer_1" xmlns="http://www.w3.org/2000/svg" xmlns:xlink="http://www.w3.org/1999/xlink" x="0px" y="0px"
	 width="800px" height="800px" viewBox="0 0 800 800" enable-background="new 0 0 800 800" xml:space="preserve">
<path fill="#FFCB00" d="M406.482,796.178c-51.343,0-101.141-10.045-148.009-29.855c-45.277-19.139-85.945-46.541-120.873-81.447
	s-62.347-75.547-81.496-120.793c-19.822-46.836-29.873-96.598-29.873-147.904s10.051-101.068,29.873-147.902
	c19.149-45.248,46.568-85.889,81.496-120.793c34.928-34.906,75.596-62.309,120.873-81.449
	c46.868-19.811,96.666-29.855,148.009-29.855c51.345,0,101.143,10.045,148.01,29.855c45.278,19.141,85.946,46.543,120.874,81.449
	c34.928,34.904,62.347,75.545,81.497,120.793c19.821,46.834,29.871,96.596,29.871,147.902s-10.05,101.068-29.871,147.904
	c-19.15,45.246-46.569,85.887-81.497,120.793s-75.596,62.309-120.874,81.447C507.625,786.133,457.827,796.178,406.482,796.178z"/>
<path fill="#F28F06" d="M400.943,40.178c48.654,0,95.832,9.514,140.222,28.277c42.895,18.133,81.426,44.098,114.523,77.174
	c33.095,33.074,59.075,71.578,77.217,114.441c18.771,44.355,28.29,91.494,28.29,140.107c0,48.615-9.519,95.754-28.29,140.107
	c-18.142,42.863-44.122,81.367-77.217,114.443c-33.098,33.076-71.629,59.041-114.523,77.172
	c-44.39,18.764-91.567,28.277-140.222,28.277s-95.832-9.514-140.223-28.277c-42.895-18.131-81.426-44.096-114.522-77.172
	c-33.096-33.076-59.075-71.58-77.216-114.443c-18.772-44.354-28.291-91.492-28.291-140.107c0-48.613,9.519-95.752,28.291-140.107
	c18.141-42.863,44.12-81.367,77.216-114.441c33.097-33.076,71.628-59.041,114.522-77.174
	C305.111,49.691,352.289,40.178,400.943,40.178 M400.943,0.178c-221.053,0-400.252,179.086-400.252,400s179.199,400,400.252,400
	s400.252-179.086,400.252-400S621.996,0.178,400.943,0.178L400.943,0.178z"/>
<path fill-rule="evenodd" clip-rule="evenodd" fill="#FFFCEB" d="M381.789,468.755c-17.111-28.224-34.072-55.975-50.751-83.994
	c-1.982-3.341-3.254-8.127-3.397-12.355c-0.423-12.906-0.501-25.891,0.057-38.791c0.184-4.259,1.913-9.32,4.268-12.379
	c20.095-26.131,40.495-51.89,60.809-77.757c6.501-8.276,7.946-8.253,14.663,0.27c20.752,26.305,41.542,52.556,62.152,79.034
	c1.642,2.111,2.84,5.752,2.894,8.721c0.306,14.352,0.261,28.728,0.033,43.092c-0.042,2.843-0.949,6.136-2.297,8.391
	c-16.221,26.94-32.54,53.779-48.976,80.492c-2.648,4.3-1.994,7.221,0.468,11.203c14.631,23.672,29.162,47.464,43.457,71.478
	c1.839,3.083,3.56,8.505,2.601,11.348c-0.891,2.555-5.431,3.442-8.48,4.366c-2.145,0.647-4.594-0.349-6.771,0.203
	c-10.906,2.802-17.23-4.323-23.09-14.951c-8.37-15.246-17.776-29.573-26.726-44.327c-0.674-1.14-1.121-2.525-2.164-4.931
	c-5.856,9.614-10.736,17.699-15.666,25.729c-6.815,11.107-13.467,22.413-20.64,33.148c-1.797,2.687-5.182,4.605-8.004,5.014
	c-5.397,0.798-10.951,0.672-16.382,0.078c-2.711-0.307-6.609-1.655-7.554-4.061c-0.972-2.459,0.236-7.527,1.805-10.202
	c13.141-22.112,26.575-43.919,39.898-65.834C376.531,477.583,379.014,473.385,381.789,468.755z M399.871,438.479
	c1.828-2.524,3.07-3.994,4.084-5.68c14.238-23.468,28.293-47.104,42.727-70.355c3.028-4.895,2.83-7.551-0.588-11.81
	c-14.379-17.86-28.509-36.057-42.651-54.247c-2.569-3.311-4.615-3.052-7.077,0.114c-14.467,18.484-28.955,36.938-43.532,55.284
	c-2.537,3.197-2.549,5.733-0.381,9.219c8.055,12.93,15.938,26.041,23.906,39.062C384.044,412.643,391.738,425.213,399.871,438.479z"
	/>
<path fill-rule="evenodd" clip-rule="evenodd" fill="#FFFCEB" d="M568.211,331.245c17.111,28.224,34.072,55.975,50.751,83.994
	c1.982,3.341,3.254,8.127,3.397,12.355c0.423,12.906,0.501,25.891-0.057,38.791c-0.184,4.259-1.913,9.32-4.268,12.379
	c-20.095,26.131-40.495,51.89-60.809,77.757c-6.501,8.276-7.946,8.253-14.663-0.27c-20.752-26.305-41.542-52.556-62.152-79.034
	c-1.643-2.111-2.84-5.752-2.894-8.721c-0.306-14.352-0.261-28.728-0.033-43.092c0.042-2.843,0.948-6.136,2.297-8.391
	c16.221-26.94,32.54-53.779,48.976-80.492c2.648-4.3,1.994-7.221-0.468-11.203c-14.631-23.672-29.162-47.464-43.458-71.478
	c-1.838-3.083-3.559-8.505-2.601-11.348c0.892-2.555,5.432-3.442,8.481-4.366c2.145-0.647,4.594,0.349,6.771-0.203
	c10.907-2.801,17.231,4.324,23.091,14.951c8.37,15.246,17.776,29.573,26.725,44.327c0.675,1.14,1.122,2.525,2.165,4.931
	c5.855-9.614,10.735-17.699,15.666-25.729c6.815-11.107,13.467-22.413,20.64-33.148c1.797-2.687,5.182-4.605,8.004-5.014
	c5.397-0.798,10.951-0.672,16.382-0.078c2.711,0.307,6.609,1.655,7.554,4.061c0.972,2.459-0.236,7.527-1.805,10.202
	c-13.141,22.112-26.575,43.919-39.898,65.834C573.468,322.417,570.985,326.615,568.211,331.245z M550.129,361.521
	c-1.829,2.524-3.07,3.994-4.084,5.68c-14.238,23.468-28.293,47.104-42.727,70.355c-3.028,4.895-2.83,7.551,0.588,11.81
	c14.379,17.86,28.509,36.057,42.651,54.247c2.569,3.311,4.615,3.053,7.077-0.114c14.466-18.484,28.955-36.938,43.532-55.284
	c2.537-3.197,2.549-5.733,0.381-9.219c-8.055-12.93-15.938-26.041-23.906-39.062C565.956,387.357,558.262,374.787,550.129,361.521z"
	/>
<path fill-rule="evenodd" clip-rule="evenodd" fill="#FFFCEB" d="M274.211,331.245c17.111,28.224,34.072,55.975,50.751,83.994
	c1.982,3.341,3.254,8.127,3.397,12.355c0.423,12.906,0.501,25.891-0.057,38.791c-0.184,4.259-1.913,9.32-4.268,12.379
	c-20.095,26.131-40.495,51.89-60.809,77.757c-6.501,8.276-7.946,8.253-14.663-0.27c-20.752-26.305-41.542-52.556-62.152-79.034
	c-1.643-2.111-2.84-5.752-2.894-8.721c-0.306-14.352-0.261-28.728-0.033-43.092c0.042-2.843,0.948-6.136,2.297-8.391
	c16.221-26.94,32.54-53.779,48.976-80.492c2.648-4.3,1.994-7.221-0.468-11.203c-14.631-23.672-29.162-47.464-43.458-71.478
	c-1.838-3.083-3.559-8.505-2.6-11.348c0.891-2.555,5.431-3.442,8.48-4.366c2.145-0.647,4.594,0.349,6.771-0.203
	c10.906-2.801,17.23,4.324,23.09,14.951c8.37,15.246,17.776,29.573,26.725,44.327c0.675,1.14,1.122,2.525,2.165,4.931
	c5.856-9.614,10.735-17.699,15.666-25.729c6.815-11.107,13.467-22.413,20.64-33.148c1.797-2.687,5.182-4.605,8.004-5.014
	c5.397-0.798,10.951-0.672,16.382-0.078c2.711,0.307,6.609,1.655,7.554,4.061c0.972,2.459-0.236,7.527-1.805,10.202
	c-13.141,22.112-26.575,43.919-39.898,65.834C279.468,322.417,276.985,326.615,274.211,331.245z M256.129,361.521
	c-1.829,2.524-3.07,3.994-4.084,5.68c-14.238,23.468-28.293,47.104-42.727,70.355c-3.028,4.895-2.83,7.551,0.588,11.81
	c14.379,17.86,28.509,36.057,42.651,54.247c2.569,3.311,4.615,3.053,7.077-0.114c14.466-18.484,28.955-36.938,43.532-55.284
	c2.537-3.197,2.549-5.733,0.381-9.219c-8.055-12.93-15.938-26.041-23.906-39.062C271.956,387.357,264.262,374.787,256.129,361.521z"
	/>
</svg>
