<?xml version="1.0" encoding="utf-8"?>
<!-- Generator: Adobe Illustrator 16.0.0, SVG Export Plug-In . SVG Version: 6.00 Build 0)  -->
<!DOCTYPE svg PUBLIC "-//W3C//DTD SVG 1.1//EN" "http://www.w3.org/Graphics/SVG/1.1/DTD/svg11.dtd">
<svg version="1.1" id="Layer_1" xmlns="http://www.w3.org/2000/svg" xmlns:xlink="http://www.w3.org/1999/xlink" x="0px" y="0px"
	 width="800px" height="800px" viewBox="0 0 800 800" enable-background="new 0 0 800 800" xml:space="preserve">
<path fill="#DC2729" d="M399.576,780c-51.344,0-101.142-10.045-148.01-29.855c-45.277-19.14-85.945-46.542-120.873-81.448
	c-34.928-34.905-62.347-75.546-81.496-120.793C29.375,501.068,19.324,451.307,19.324,400s10.051-101.068,29.873-147.903
	c19.149-45.247,46.568-85.888,81.496-120.793c34.928-34.906,75.596-62.309,120.873-81.448C298.435,30.045,348.232,20,399.576,20
	s101.142,10.045,148.009,29.855c45.278,19.14,85.946,46.542,120.874,81.448c34.928,34.905,62.347,75.546,81.497,120.793
	c19.821,46.835,29.872,96.597,29.872,147.903s-10.051,101.068-29.872,147.903c-19.15,45.247-46.569,85.888-81.497,120.793
	c-34.928,34.906-75.596,62.309-120.874,81.448C500.718,769.955,450.92,780,399.576,780z"/>
<line fill="none" stroke="#FFFCEB" stroke-width="20" stroke-linecap="round" stroke-linejoin="round" stroke-miterlimit="10" x1="363" y1="207" x2="728" y2="207"/>
<line fill="none" stroke="#FFFCEB" stroke-width="20" stroke-linecap="round" stroke-linejoin="round" stroke-miterlimit="10" x1="515" y1="317" x2="784" y2="317"/>
<line fill="none" stroke="#FFFCEB" stroke-width="20" stroke-linecap="round" stroke-linejoin="round" stroke-miterlimit="10" x1="493" y1="427" x2="784" y2="427"/>
<line fill="none" stroke="#FFFCEB" stroke-width="20" stroke-linecap="round" stroke-linejoin="round" stroke-miterlimit="10" x1="573" y1="537" x2="755" y2="537"/>
<g>
	<g>
		<path fill="#FFFCEB" d="M559.272,629.809L422.539,446.06c3.021-3.506,5.122-7.878,5.85-12.797l15.526-105.062
			c1.041-7.052-0.938-14.219-5.46-19.734c-4.526-5.514-11.155-8.862-18.28-9.229l-103.232-5.253c-3.71-0.188-7.42,0.441-10.86,1.852
			l-9.726,3.976c-3.471,0.607-6.86,1.949-9.938,4.063l-61.323,25.07l-67.17-68.093c-9.786-9.951-25.826-10.063-35.772-0.244
			c-9.949,9.812-10.059,25.832-0.243,35.776l79.069,80.158c1.74,1.764,3.698,3.232,5.8,4.392c6.585,3.629,14.588,4.201,21.782,1.256
			l63.935-26.141l49.206,66.126c-0.276,0.25-0.552,0.503-0.82,0.768l-57.76,56.75c-6.417,6.299-9.006,15.534-6.796,24.251
			c1.734,6.874,6.246,12.609,12.314,15.952c1.626,0.896,3.364,1.623,5.189,2.151l141.665,40.906c3.841,1.11,7.73,1.265,11.418,0.61
			l71.667,96.31c2.233,3.03,5.024,5.415,8.12,7.123c8.389,4.619,19.049,4.255,27.26-1.811
			C565.196,656.889,567.578,641.049,559.272,629.809z M383.172,393.155l-34.91-46.913l41.528,2.115L383.172,393.155z
			 M349.459,485.446l22.716-22.319l27.369,36.78L349.459,485.446z"/>
	</g>
	<g>
		<path fill="#FFFCEB" d="M218.146,293.896c27.378,15.087,61.792,5.123,76.87-22.242c15.09-27.377,5.129-61.789-22.251-76.875
			c-27.369-15.084-61.779-5.12-76.864,22.257C180.822,244.402,190.776,278.813,218.146,293.896z"/>
	</g>
</g>
<polygon fill="#FFFCEB" points="168.576,689 651.576,689 512.576,774 359.576,786 219.576,737.5 "/>
<path fill="#871811" d="M399.576,40c48.654,0,95.832,9.514,140.223,28.277c42.894,18.132,81.425,44.097,114.522,77.173
	c33.096,33.075,59.075,71.579,77.217,114.442c18.771,44.354,28.29,91.493,28.29,140.107s-9.519,95.753-28.29,140.107
	c-18.142,42.863-44.121,81.367-77.217,114.442c-33.098,33.076-71.629,59.041-114.522,77.173C495.408,750.486,448.23,760,399.576,760
	s-95.832-9.514-140.223-28.277c-42.895-18.132-81.426-44.097-114.522-77.173c-33.096-33.075-59.075-71.579-77.216-114.442
	C48.843,495.753,39.324,448.614,39.324,400s9.519-95.753,28.291-140.107c18.141-42.863,44.12-81.367,77.216-114.442
	c33.097-33.076,71.628-59.041,114.522-77.173C303.744,49.514,350.922,40,399.576,40 M399.576,0C178.523,0-0.676,179.086-0.676,400
	s179.199,400,400.252,400s400.252-179.086,400.252-400S620.629,0,399.576,0L399.576,0z"/>
</svg>
