<?xml version="1.0" encoding="utf-8"?>
<!-- Generator: Adobe Illustrator 16.0.0, SVG Export Plug-In . SVG Version: 6.00 Build 0)  -->
<!DOCTYPE svg PUBLIC "-//W3C//DTD SVG 1.1//EN" "http://www.w3.org/Graphics/SVG/1.1/DTD/svg11.dtd">
<svg version="1.1" id="Layer_1" xmlns="http://www.w3.org/2000/svg" xmlns:xlink="http://www.w3.org/1999/xlink" x="0px" y="0px"
	 width="800px" height="800px" viewBox="0 0 800 800" enable-background="new 0 0 800 800" xml:space="preserve">
<path fill="#FFCB00" d="M400.451,780.319c-51.344,0-101.142-10.045-148.01-29.855c-45.277-19.139-85.945-46.541-120.873-81.447
	S69.222,593.47,50.072,548.224c-19.822-46.836-29.873-96.598-29.873-147.904S30.25,299.251,50.072,252.417
	c19.149-45.248,46.568-85.889,81.496-120.793c34.928-34.906,75.596-62.309,120.873-81.449
	c46.868-19.811,96.666-29.855,148.01-29.855S501.593,30.364,548.46,50.175c45.278,19.141,85.946,46.543,120.874,81.449
	c34.928,34.904,62.347,75.545,81.497,120.793c19.821,46.834,29.872,96.596,29.872,147.902s-10.051,101.068-29.872,147.904
	c-19.15,45.246-46.569,85.887-81.497,120.793s-75.596,62.309-120.874,81.447C501.593,770.274,451.795,780.319,400.451,780.319z"/>
<path fill="#F28F06" d="M400.451,40.319c48.654,0,95.832,9.514,140.223,28.277c42.894,18.133,81.425,44.098,114.522,77.174
	c33.096,33.074,59.075,71.578,77.217,114.441c18.771,44.355,28.29,91.494,28.29,140.107c0,48.615-9.519,95.754-28.29,140.107
	c-18.142,42.863-44.121,81.367-77.217,114.443c-33.098,33.076-71.629,59.041-114.522,77.172
	c-44.391,18.764-91.568,28.277-140.223,28.277s-95.832-9.514-140.223-28.277c-42.895-18.131-81.426-44.096-114.522-77.172
	c-33.096-33.076-59.075-71.58-77.216-114.443c-18.772-44.354-28.291-91.492-28.291-140.107c0-48.613,9.519-95.752,28.291-140.107
	c18.141-42.863,44.12-81.367,77.216-114.441c33.097-33.076,71.628-59.041,114.522-77.174
	C304.619,49.833,351.797,40.319,400.451,40.319 M400.451,0.319c-221.053,0-400.252,179.086-400.252,400s179.199,400,400.252,400
	s400.252-179.086,400.252-400S621.504,0.319,400.451,0.319L400.451,0.319z"/>
<g>
	<g>
		<g>
			<path fill-rule="evenodd" clip-rule="evenodd" fill="#FFFCEB" d="M421.222,219.603c2.978-3.41,5.81-6.961,8.96-10.203
				c6.641-6.831,13.441-13.506,20.184-20.237c8.055-8.042,19.97-8.482,27.383-1.022c7.557,7.608,7.229,19.181-0.923,27.331
				c-18.549,18.547-37.173,37.021-55.701,55.588c-0.854,0.857-1.532,2.338-1.536,3.529c-0.08,30.658-0.061,61.317-0.047,91.976
				c0.002,0.516,0.18,1.03,0.387,2.155c7.799-4.46,15.283-8.72,22.75-13.017c18.061-10.393,36.082-20.849,54.192-31.152
				c2.852-1.622,4.046-3.397,4.622-6.867c1.233-7.444,3.617-14.7,5.579-22.019c4.957-18.502,9.775-37.042,14.972-55.477
				c3.614-12.826,18.156-17.726,28.901-10.072c6.144,4.375,8.965,12.106,6.951,19.828c-3.721,14.268-7.592,28.496-11.384,42.745
				c-0.236,0.886-0.332,1.807-0.632,3.483c7.15-4.104,13.692-7.848,20.225-11.609c13.153-7.573,26.287-15.185,39.458-22.728
				c9.807-5.615,21.154-2.971,26.383,6.068c5.469,9.454,2.35,20.291-7.743,26.169c-17.887,10.416-35.847,20.708-53.773,31.058
				c-1.055,0.609-2.081,1.27-4.001,2.446c8.264,2.232,15.709,4.254,23.159,6.254c6.521,1.751,13.072,3.394,19.567,5.235
				c10.583,3.003,16.341,12.843,13.612,23.051c-2.632,9.842-12.607,15.682-23.055,12.938c-25.728-6.756-51.382-13.789-77.083-20.644
				c-1.05-0.28-2.498-0.255-3.398,0.261c-26.462,15.165-52.877,30.409-79.291,45.656c-0.436,0.25-0.763,0.687-1.481,1.353
				c4.516,2.636,8.759,5.142,13.028,7.602c20.208,11.642,40.462,23.205,60.604,34.959c3.933,2.294,7.128,3.38,12.021,1.581
				c9.271-3.408,19.063-5.4,28.646-7.961c15.313-4.092,30.624-8.198,45.951-12.239c11.326-2.987,21.506,2.386,24.202,12.681
				c2.797,10.68-3.211,20.108-14.833,23.247c-14.502,3.916-29.006,7.816-44.469,11.981c1.843,1.211,3.076,2.111,4.393,2.87
				c18.64,10.769,37.307,21.488,55.928,32.288c7.012,4.066,10.305,10.33,9.493,18.35c-0.798,7.887-6.304,14.061-13.695,15.922
				c-5.813,1.463-11.1,0.045-16.224-2.947c-17.518-10.229-35.119-20.312-52.693-30.441c-1.145-0.659-2.336-1.236-4.246-2.241
				c3.141,11.652,6.093,22.513,8.983,33.39c1.06,3.99,2.312,7.973,2.886,12.043c1.377,9.765-4.658,18.41-13.945,20.5
				c-9.822,2.21-19.528-2.969-22.18-12.569c-7.082-25.638-13.81-51.374-20.77-77.048c-0.38-1.404-1.266-3.119-2.434-3.798
				c-25.408-14.776-50.89-29.427-76.361-44.091c-0.68-0.391-1.416-0.679-2.754-1.312c0,2.035,0,3.487,0,4.938
				c0,27.345,0.074,54.689-0.076,82.032c-0.022,4.083,0.994,6.878,4.093,9.858c13.634,13.111,26.863,26.643,40.243,40.016
				c4.395,4.394,8.835,8.741,13.19,13.173c8.194,8.339,8.425,19.575,0.615,27.292c-7.583,7.496-18.888,7.164-27.007-0.887
				c-9.021-8.945-17.971-17.964-26.957-26.943c-1.061-1.059-2.164-2.074-4.105-3.927c0,2.364,0,3.774,0,5.184
				c0.002,20.716,0.016,41.431-0.001,62.146c-0.01,11.101-8.219,19.527-18.81,19.369c-10.472-0.156-18.341-8.445-18.352-19.422
				c-0.025-21.405-0.009-42.811-0.01-64.217c0-1.447,0-2.894,0-5.204c-1.681,1.56-2.678,2.429-3.613,3.361
				c-10.069,10.045-20.082,20.149-30.213,30.132c-5.602,5.52-12.358,7.309-19.809,4.635c-7.436-2.669-11.585-8.26-12.294-16.15
				c-0.493-5.509,1.28-10.389,5.192-14.313c18.424-18.485,36.6-37.239,55.583-55.135c4.368-4.118,5.229-7.784,5.206-12.944
				c-0.115-26.238-0.053-52.479-0.055-78.718c0-1.468,0-2.936,0-5.055c-2.256,1.231-3.922,2.099-5.548,3.036
				c-24.275,13.984-48.507,28.047-72.862,41.891c-3.359,1.909-5.026,4.078-5.996,7.914c-5.172,20.441-10.773,40.775-16.234,61.144
				c-1.179,4.393-2.289,8.806-3.6,13.159c-2.998,9.946-13.011,15.591-22.727,12.912c-9.905-2.729-15.729-12.4-13.181-22.501
				c3.101-12.294,6.532-24.504,9.8-36.757c0.487-1.821,0.862-3.672,1.465-6.259c-1.654,0.763-2.619,1.12-3.498,1.625
				c-18.064,10.383-36.109,20.802-54.181,31.172c-9.842,5.647-21.126,3.071-26.376-5.945c-5.601-9.62-2.318-20.558,7.939-26.462
				c18.42-10.604,36.84-21.205,55.253-31.817c1.172-0.675,2.292-1.438,4.226-2.658c-7.067-1.916-13.349-3.624-19.633-5.321
				c-9.051-2.443-18.163-4.676-27.134-7.375c-8.989-2.703-13.895-10.305-13.197-19.585c0.636-8.471,7.379-15.518,16.386-16.569
				c2.787-0.326,5.805,0.146,8.555,0.869c24.521,6.456,49.119,12.675,73.42,19.881c5.775,1.712,9.593,0.785,14.259-1.943
				c23.348-13.653,46.832-27.075,70.263-40.588c0.806-0.464,1.56-1.017,2.844-1.86c-8.61-4.974-16.791-9.708-24.979-14.427
				c-18.533-10.68-37.094-21.312-55.576-32.077c-2.35-1.368-4.31-1.492-6.941-0.773c-24.861,6.791-49.758,13.455-74.681,20.012
				c-11.356,2.986-20.939-2.484-23.811-13.255c-2.706-10.157,3.314-19.666,14.506-22.729c12.629-3.455,25.285-6.81,37.926-10.22
				c1.037-0.28,2.052-0.647,3.873-1.229c-7.995-4.636-15.335-8.906-22.691-13.151c-12.07-6.968-24.233-13.783-36.196-20.929
				c-7.102-4.242-10.095-10.852-8.8-19.041c1.216-7.673,5.831-12.659,13.272-14.823c5.306-1.543,10.336-0.591,15.118,2.178
				c18.509,10.717,37.05,21.38,55.581,32.059c1.179,0.679,2.381,1.312,4.505,2.48c-0.462-1.998-0.702-3.219-1.024-4.418
				c-3.653-13.575-7.356-27.138-10.967-40.725c-2.28-8.576,0.312-16.449,6.765-21.008c6.574-4.646,15.272-5.021,21.631,0.001
				c2.967,2.343,5.874,5.876,6.874,9.417c7.348,25.991,14.399,52.074,21.009,78.262c0.984,3.895,2.666,5.715,5.765,7.487
				c24.438,13.978,48.802,28.079,73.193,42.134c1.292,0.744,2.627,1.411,4.729,2.535c0-2.054,0-3.474,0-4.894
				c0.003-28.035-0.077-56.07,0.096-84.104c0.027-4.257-0.997-7.075-4.302-10.152c-11.211-10.438-21.875-21.464-32.732-32.284
				c-7.922-7.895-15.969-15.672-23.688-23.762c-9.704-10.17-5.244-26.806,8.172-30.596c7.176-2.027,13.627-0.33,18.992,5.053
				c9.75,9.777,19.548,19.508,29.273,29.312c1.057,1.065,1.76,2.482,2.629,3.736c0.522-0.254,1.045-0.51,1.568-0.764
				c0-1.392,0-2.784,0-4.177c0.001-21.129-0.049-42.259,0.023-63.389c0.041-11.437,7.534-19.794,17.742-20.062
				c11.292-0.297,19.517,7.533,19.566,18.887c0.086,18.92,0.024,37.841,0.024,56.761c0,3.138,0,6.276,0,9.415
				C420.074,218.781,420.648,219.192,421.222,219.603z"/>
		</g>
	</g>
</g>
</svg>
