<?xml version="1.0" encoding="utf-8"?>
<!-- Generator: Adobe Illustrator 16.0.0, SVG Export Plug-In . SVG Version: 6.00 Build 0)  -->
<!DOCTYPE svg PUBLIC "-//W3C//DTD SVG 1.1//EN" "http://www.w3.org/Graphics/SVG/1.1/DTD/svg11.dtd">
<svg version="1.1" id="Layer_1" xmlns="http://www.w3.org/2000/svg" xmlns:xlink="http://www.w3.org/1999/xlink" x="0px" y="0px"
	 width="800px" height="800px" viewBox="0 0 800 800" enable-background="new 0 0 800 800" xml:space="preserve">
<g>
	<path fill="#DC2729" d="M400.118,780.371c-51.344,0-101.142-10.045-148.01-29.855c-45.277-19.139-85.945-46.541-120.873-81.447
		s-62.347-75.547-81.496-120.793c-19.822-46.836-29.873-96.598-29.873-147.904s10.051-101.068,29.873-147.902
		c19.149-45.248,46.568-85.889,81.496-120.793c34.928-34.906,75.596-62.309,120.873-81.449
		c46.868-19.811,96.666-29.855,148.01-29.855S501.26,30.416,548.127,50.227c45.278,19.141,85.946,46.543,120.874,81.449
		c34.928,34.904,62.347,75.545,81.497,120.793c19.821,46.834,29.872,96.596,29.872,147.902s-10.051,101.068-29.872,147.904
		c-19.15,45.246-46.569,85.887-81.497,120.793s-75.596,62.309-120.874,81.447C501.26,770.326,451.462,780.371,400.118,780.371z"/>
	<g>
		<polygon fill="#FFFCEB" points="400.118,141.311 583.562,459.082 690.984,645.172 566.118,743.371 418.118,780.371 
			282.168,766.859 163.674,694.863 113.097,638.51 216.675,459.082 		"/>
		
			<line fill="none" stroke="#DC2729" stroke-width="20" stroke-linecap="round" stroke-linejoin="round" stroke-miterlimit="10" x1="123" y1="546" x2="675" y2="546"/>
		
			<line fill="none" stroke="#DC2729" stroke-width="20" stroke-linecap="round" stroke-linejoin="round" stroke-miterlimit="10" x1="261" y1="344" x2="541" y2="344"/>
	</g>
	<path fill="#DC2729" d="M380.198,230.162c12.135,0,14.85-5.854,17.275-12.562h10.563v99.936h-15.704v-76.238h-12.135V230.162z"/>
	<path fill="#DC2729" d="M399.589,399.33c-6.183,0-10.069,3.355-10.069,12.189v13.25h-18.374v-12.014
		c0-19.787,9.892-31.094,28.973-31.094c19.076,0,28.973,11.307,28.973,31.094c0,38.867-38.692,53.352-38.692,73.67
		c0,0.881,0,1.766,0.18,2.648h36.747v17.666h-56.18v-15.193c0-36.393,38.513-42.398,38.513-78.084
		C409.658,402.332,405.771,399.33,399.589,399.33z"/>
	<path fill="#DC2729" d="M411.901,616.885c0-13.75-4.801-17.457-12.438-17.457c-7.635,0-12.436,4.145-12.436,15.055v9.818h-22.693
		v-8.291c0-24.438,12.217-38.4,35.783-38.4s35.783,13.963,35.783,38.4v3.928c0,16.365-5.234,26.615-16.799,31.418
		c11.996,5.24,16.799,16.582,16.799,32.072v12c0,24.441-12.217,38.404-35.783,38.404s-35.783-13.963-35.783-38.404v-12.652h22.693
		v14.182c0,10.906,4.801,15.055,12.436,15.055c7.637,0,12.438-3.709,12.438-17.236v-12c0-14.182-4.801-19.42-15.711-19.42h-8.068
		v-21.82h9.375c8.949,0,14.404-3.922,14.404-16.143V616.885z"/>
	<path fill="#871811" d="M400.118,40.371c48.654,0,95.832,9.514,140.223,28.277c42.894,18.133,81.425,44.098,114.522,77.174
		c33.096,33.074,59.075,71.578,77.217,114.441c18.771,44.355,28.29,91.494,28.29,140.107c0,48.615-9.519,95.754-28.29,140.107
		c-18.142,42.863-44.121,81.367-77.217,114.443c-33.098,33.076-71.629,59.041-114.522,77.172
		c-44.391,18.764-91.568,28.277-140.223,28.277s-95.832-9.514-140.223-28.277c-42.895-18.131-81.426-44.096-114.522-77.172
		c-33.096-33.076-59.075-71.58-77.216-114.443c-18.772-44.354-28.291-91.492-28.291-140.107c0-48.613,9.519-95.752,28.291-140.107
		c18.141-42.863,44.12-81.367,77.216-114.441c33.097-33.076,71.628-59.041,114.522-77.174
		C304.286,49.885,351.464,40.371,400.118,40.371 M400.118,0.371c-221.053,0-400.252,179.086-400.252,400s179.199,400,400.252,400
		s400.252-179.086,400.252-400S621.171,0.371,400.118,0.371L400.118,0.371z"/>
</g>
</svg>
