<?xml version="1.0" encoding="utf-8"?>
<!-- Generator: Adobe Illustrator 16.0.0, SVG Export Plug-In . SVG Version: 6.00 Build 0)  -->
<!DOCTYPE svg PUBLIC "-//W3C//DTD SVG 1.1//EN" "http://www.w3.org/Graphics/SVG/1.1/DTD/svg11.dtd">
<svg version="1.1" id="Layer_1" xmlns="http://www.w3.org/2000/svg" xmlns:xlink="http://www.w3.org/1999/xlink" x="0px" y="0px"
	 width="800px" height="800px" viewBox="0 0 800 800" enable-background="new 0 0 800 800" xml:space="preserve">
<g>
	<path fill="#FFCB00" d="M400.46,780.319c-51.344,0-101.142-10.045-148.01-29.855c-45.277-19.139-85.945-46.541-120.873-81.447
		S69.23,593.47,50.081,548.224c-19.822-46.836-29.873-96.598-29.873-147.904s10.051-101.068,29.873-147.902
		c19.149-45.248,46.568-85.889,81.496-120.793c34.928-34.906,75.596-62.309,120.873-81.449
		c46.868-19.811,96.666-29.855,148.01-29.855s101.142,10.045,148.009,29.855c45.278,19.141,85.946,46.543,120.874,81.449
		c34.928,34.904,62.347,75.545,81.497,120.793c19.821,46.834,29.872,96.596,29.872,147.902s-10.051,101.068-29.872,147.904
		c-19.15,45.246-46.569,85.887-81.497,120.793s-75.596,62.309-120.874,81.447C501.602,770.274,451.804,780.319,400.46,780.319z"/>
	<g opacity="0.7">
		<polygon fill="#FFFCEB" points="400.002,400.319 320.096,13 400.002,13 479.906,13 		"/>
		<polygon fill="#FFFCEB" points="400,399.681 479.906,787 400,787 320.096,787 		"/>
		<polygon fill="#FFFCEB" points="400.319,399.998 13,479.904 13,399.998 13,320.094 		"/>
		<polygon fill="#FFFCEB" points="399.681,400 787,320.094 787,400 787,479.904 		"/>
		<polygon fill="#FFFCEB" points="400.226,399.771 182.851,730.15 126.349,673.648 69.849,617.146 		"/>
		<polygon fill="#FFFCEB" points="399.774,400.225 617.148,69.847 673.65,126.349 730.151,182.85 		"/>
		<polygon fill="#FFFCEB" points="399.772,399.774 730.151,617.149 673.649,673.651 617.147,730.151 		"/>
		<polygon fill="#FFFCEB" points="400.226,400.226 69.848,182.852 126.35,126.35 182.851,69.849 		"/>
	</g>
	<g>
		<polygon fill="#FFFCEB" points="714.978,386.325 701.339,524.773 416.13,568.636 334.679,479.224 397.428,400.023 
			492.872,371.475 		"/>
		<g>
			<path fill="#F28F06" d="M716.444,515.319l-13.701-3.548l-0.578,6.483l-265.502,44.483
				c-63.882-69.942,0.351-140.458,0.351-140.458l295.376-33.89l0.11-7.682L417.123,279.565l-293.275,36.624
				c0,0-31.065,12.161-38.534,75.115c-7.124,60.045,24.786,79.168,24.786,79.168l312.254,111.936l292.31-52.064L716.444,515.319z"/>
		</g>
		<g>
			
				<ellipse transform="matrix(0.9963 0.0861 -0.0861 0.9963 29.8307 -34.083)" fill="none" stroke="#FFFFFF" stroke-width="10" stroke-miterlimit="10" cx="410.213" cy="328.938" rx="75.902" ry="24.009"/>
			<path fill="none" stroke="#FFFFFF" stroke-width="10" stroke-miterlimit="10" d="M498.498,362.639
				c-1.141,13.213-35.922,20.999-77.684,17.391c-41.767-3.609-74.698-17.244-73.556-30.457c1.14-13.211,35.924-20.995,77.687-17.389
				C466.709,335.793,499.641,349.428,498.498,362.639z"/>
			<path fill="none" stroke="#FFFFFF" stroke-width="10" stroke-miterlimit="10" d="M564.479,358.068
				c-1.143,13.211-35.926,20.996-77.688,17.388c-41.768-3.608-74.697-17.243-73.557-30.454c1.142-13.213,35.923-20.997,77.689-17.39
				C532.687,331.221,565.621,344.854,564.479,358.068z"/>
		</g>
	</g>
	<path fill="#F28F06" d="M400.46,40.319c48.654,0,95.832,9.514,140.223,28.277c42.894,18.133,81.425,44.098,114.522,77.174
		c33.096,33.074,59.075,71.578,77.217,114.441c18.771,44.355,28.29,91.494,28.29,140.107c0,48.615-9.519,95.754-28.29,140.107
		c-18.142,42.863-44.121,81.367-77.217,114.443c-33.098,33.076-71.629,59.041-114.522,77.172
		c-44.391,18.764-91.568,28.277-140.223,28.277s-95.832-9.514-140.223-28.277c-42.895-18.131-81.426-44.096-114.522-77.172
		c-33.096-33.076-59.075-71.58-77.216-114.443c-18.772-44.354-28.291-91.492-28.291-140.107c0-48.613,9.519-95.752,28.291-140.107
		c18.141-42.863,44.12-81.367,77.216-114.441c33.097-33.076,71.628-59.041,114.522-77.174
		C304.628,49.833,351.806,40.319,400.46,40.319 M400.46,0.319c-221.053,0-400.252,179.086-400.252,400s179.199,400,400.252,400
		s400.252-179.086,400.252-400S621.513,0.319,400.46,0.319L400.46,0.319z"/>
</g>
</svg>
