<?xml version="1.0" encoding="utf-8"?>
<!-- Generator: Adobe Illustrator 16.0.0, SVG Export Plug-In . SVG Version: 6.00 Build 0)  -->
<!DOCTYPE svg PUBLIC "-//W3C//DTD SVG 1.1//EN" "http://www.w3.org/Graphics/SVG/1.1/DTD/svg11.dtd">
<svg version="1.1" id="Layer_1" xmlns="http://www.w3.org/2000/svg" xmlns:xlink="http://www.w3.org/1999/xlink" x="0px" y="0px"
	 width="800px" height="800px" viewBox="0 0 800 800" enable-background="new 0 0 800 800" xml:space="preserve">
<path fill="#DC2729" d="M399.924,779.701c-51.344,0-101.142-10.045-148.01-29.855c-45.277-19.14-85.945-46.542-120.873-81.448
	c-34.928-34.905-62.347-75.546-81.496-120.793c-19.822-46.835-29.873-96.597-29.873-147.903s10.051-101.068,29.873-147.903
	c19.149-45.247,46.568-85.888,81.496-120.793c34.928-34.906,75.596-62.309,120.873-81.448
	c46.868-19.811,96.666-29.855,148.01-29.855s101.142,10.045,148.009,29.855c45.278,19.14,85.946,46.542,120.874,81.448
	c34.928,34.905,62.347,75.546,81.497,120.793c19.821,46.835,29.872,96.597,29.872,147.903s-10.051,101.068-29.872,147.903
	c-19.15,45.247-46.569,85.888-81.497,120.793c-34.928,34.906-75.596,62.309-120.874,81.448
	C501.065,769.656,451.268,779.701,399.924,779.701z"/>
<g>
	<g>
		<g>
			<path fill="#FFFCEB" d="M541.632,748.744c-1.297,0-2.576-0.504-3.537-1.465l-293.11-293.108l-45.763,45.76
				c-0.949,0.95-2.227,1.465-3.535,1.465c-0.432,0-0.866-0.056-1.294-0.17c-1.726-0.463-3.073-1.811-3.536-3.536l-51.611-192.616
				c-0.462-1.726,0.031-3.566,1.294-4.829c0.95-0.95,2.228-1.465,3.536-1.465c0.432,0,0.866,0.056,1.294,0.17L338,350.546
				c1.726,0.463,3.073,1.811,3.535,3.536c0.463,1.726-0.03,3.566-1.294,4.829l-45.76,45.763l306.479,306.48
				c1.127,1.126,1.648,2.722,1.406,4.296s-1.22,2.938-2.632,3.674l-55.796,29.055C543.209,748.56,542.417,748.744,541.632,748.744z"
				/>
			<path fill="#FFFFFF" d="M144.075,303.779l192.631,51.597l-49.296,49.298l310.016,310.016l-55.796,29.055L244.984,447.1
				l-49.298,49.296L144.075,303.779 M144.076,293.779c-2.618,0-5.172,1.029-7.072,2.93c-2.526,2.525-3.513,6.208-2.588,9.658
				l51.611,192.616c0.925,3.451,3.62,6.146,7.07,7.071c0.855,0.229,1.726,0.341,2.588,0.341c2.618,0,5.172-1.028,7.072-2.929
				l42.227-42.225l289.574,289.573c1.922,1.922,4.481,2.929,7.074,2.929c1.571,0,3.154-0.37,4.615-1.131l55.797-29.055
				c2.825-1.471,4.78-4.2,5.265-7.349s-0.561-6.339-2.812-8.592L301.552,404.674l42.226-42.227c2.526-2.526,3.513-6.209,2.588-9.66
				s-3.621-6.146-7.072-7.07L146.662,294.12C145.808,293.891,144.938,293.779,144.076,293.779L144.076,293.779z"/>
		</g>
	</g>
	<g>
		<g>
			<path fill="#FFFCEB" d="M655.415,500.479c-0.432,0-0.866-0.056-1.294-0.17l-192.63-51.597c-1.726-0.463-3.073-1.811-3.535-3.536
				c-0.463-1.726,0.03-3.566,1.294-4.829l45.761-45.763L198.531,88.104c-1.12-1.119-1.644-2.703-1.411-4.269
				c0.232-1.566,1.193-2.93,2.589-3.676l55.295-29.557c0.743-0.397,1.553-0.591,2.355-0.591c1.296,0,2.576,0.503,3.537,1.465
				l293.611,293.609l45.761-45.761c0.949-0.95,2.227-1.465,3.535-1.465c0.432,0,0.866,0.056,1.294,0.17
				c1.726,0.463,3.073,1.811,3.536,3.536l51.611,192.617c0.462,1.726-0.031,3.566-1.294,4.829
				C658.001,499.964,656.724,500.479,655.415,500.479z"/>
			<path fill="#FFFFFF" d="M257.361,55.013l297.146,297.146l49.296-49.297l51.611,192.617l-192.63-51.597l49.297-49.298
				L202.066,84.569L257.361,55.013 M257.358,45.013c-1.606,0-3.225,0.386-4.711,1.181L197.353,75.75
				c-2.793,1.493-4.713,4.22-5.178,7.353c-0.465,3.132,0.581,6.299,2.82,8.538l302.944,302.943l-42.226,42.227
				c-2.526,2.526-3.513,6.209-2.588,9.66s3.62,6.146,7.071,7.07l192.631,51.597c0.854,0.229,1.725,0.341,2.586,0.341
				c2.618,0,5.172-1.029,7.072-2.93c2.526-2.525,3.513-6.208,2.588-9.658l-51.611-192.617c-0.925-3.451-3.62-6.146-7.071-7.071
				c-0.855-0.229-1.725-0.341-2.587-0.341c-2.618,0-5.172,1.029-7.072,2.929l-42.225,42.226L264.433,47.941
				C262.51,46.019,259.949,45.013,257.358,45.013L257.358,45.013z"/>
		</g>
	</g>
</g>
<path fill="#871811" d="M399.924,39.701c48.654,0,95.832,9.514,140.223,28.277c42.894,18.132,81.425,44.097,114.522,77.173
	c33.096,33.075,59.075,71.579,77.217,114.442c18.771,44.354,28.29,91.493,28.29,140.107s-9.519,95.753-28.29,140.107
	c-18.142,42.863-44.121,81.367-77.217,114.442c-33.098,33.076-71.629,59.041-114.522,77.173
	c-44.391,18.764-91.568,28.277-140.223,28.277s-95.832-9.514-140.223-28.277c-42.895-18.132-81.426-44.097-114.522-77.173
	c-33.096-33.075-59.075-71.579-77.216-114.442c-18.772-44.354-28.291-91.493-28.291-140.107s9.519-95.753,28.291-140.107
	c18.141-42.863,44.12-81.367,77.216-114.442c33.097-33.076,71.628-59.041,114.522-77.173
	C304.092,49.215,351.27,39.701,399.924,39.701 M399.924-0.299c-221.053,0-400.252,179.086-400.252,400s179.199,400,400.252,400
	s400.252-179.086,400.252-400S620.977-0.299,399.924-0.299L399.924-0.299z"/>
</svg>
