<?xml version="1.0" encoding="utf-8"?>
<!-- Generator: Adobe Illustrator 16.0.0, SVG Export Plug-In . SVG Version: 6.00 Build 0)  -->
<!DOCTYPE svg PUBLIC "-//W3C//DTD SVG 1.1//EN" "http://www.w3.org/Graphics/SVG/1.1/DTD/svg11.dtd">
<svg version="1.1" id="Layer_1" xmlns="http://www.w3.org/2000/svg" xmlns:xlink="http://www.w3.org/1999/xlink" x="0px" y="0px"
	 width="800px" height="800px" viewBox="0 0 800 800" enable-background="new 0 0 800 800" xml:space="preserve">
<g>
	<path fill="#DC2729" d="M400,780c-51.344,0-101.142-10.045-148.009-29.855c-45.278-19.14-85.946-46.542-120.874-81.448
		C96.19,633.791,68.771,593.15,49.621,547.903C29.799,501.068,19.749,451.307,19.749,400s10.05-101.068,29.872-147.903
		c19.15-45.247,46.569-85.888,81.497-120.793c34.928-34.906,75.596-62.309,120.874-81.448C298.858,30.045,348.656,20,400,20
		c51.344,0,101.142,10.045,148.009,29.855c45.278,19.14,85.946,46.542,120.874,81.448c34.928,34.905,62.347,75.546,81.497,120.793
		c19.821,46.835,29.872,96.597,29.872,147.903s-10.051,101.068-29.872,147.903c-19.15,45.247-46.569,85.888-81.497,120.793
		c-34.928,34.906-75.596,62.309-120.874,81.448C501.142,769.955,451.344,780,400,780z"/>
	<path fill="#871811" d="M400,40c48.654,0,95.832,9.514,140.223,28.277c42.894,18.132,81.425,44.097,114.522,77.173
		c33.096,33.075,59.075,71.579,77.217,114.442c18.771,44.354,28.29,91.493,28.29,140.107s-9.519,95.753-28.29,140.107
		c-18.142,42.863-44.121,81.367-77.217,114.442c-33.098,33.076-71.629,59.041-114.522,77.173C495.832,750.486,448.654,760,400,760
		s-95.832-9.514-140.222-28.277c-42.895-18.132-81.426-44.097-114.523-77.173c-33.096-33.075-59.075-71.579-77.216-114.442
		C49.267,495.753,39.749,448.614,39.749,400s9.518-95.753,28.291-140.107c18.141-42.863,44.12-81.367,77.216-114.442
		c33.097-33.076,71.628-59.041,114.523-77.173C304.168,49.514,351.346,40,400,40 M400,0C178.947,0-0.251,179.086-0.251,400
		S178.947,800,400,800s400.252-179.086,400.252-400S621.053,0,400,0L400,0z"/>
	<g>
		
			<path fill-rule="evenodd" clip-rule="evenodd" fill="#FFFCEB" stroke="#DC2729" stroke-width="20" stroke-linecap="round" stroke-linejoin="round" stroke-miterlimit="10" d="
			M481.09,690.354c-49.679,22.019-172.894,28.568-214.504-35.118c-36.86-56.414-72.471-98.418-27.738-262.998l275.572-38.591
			c0,0,51.096,106.315,59.735,146.104"/>
		
			<path fill-rule="evenodd" clip-rule="evenodd" fill="#FFFCEB" stroke="#DC2729" stroke-width="20" stroke-linecap="round" stroke-linejoin="round" stroke-miterlimit="10" d="
			M568,485.394c0,19.46-19.461,35.658-43.038,35.658h-13.136c-23.577,0-41.826-16.198-41.826-35.658V227.921
			c0-19.46,18.249-32.869,41.826-32.869h13.136c23.577,0,43.038,13.409,43.038,32.869V485.394z"/>
		
			<path fill-rule="evenodd" clip-rule="evenodd" fill="#FFFCEB" stroke="#DC2729" stroke-width="20" stroke-linecap="round" stroke-linejoin="round" stroke-miterlimit="10" d="
			M463,408.877c0,20.95-19.547,37.175-43.125,37.175h-13.136c-23.576,0-42.739-16.225-42.739-37.175V131.684
			c0-20.95,19.163-37.632,42.739-37.632h13.136c23.578,0,43.125,16.682,43.125,37.632V408.877z"/>
		
			<path fill-rule="evenodd" clip-rule="evenodd" fill="#FFFCEB" stroke="#DC2729" stroke-width="20" stroke-linecap="round" stroke-linejoin="round" stroke-miterlimit="10" d="
			M357,427.704c0,18.459-18.632,33.348-42.209,33.348h-13.136c-23.577,0-42.655-14.889-42.655-33.348V183.482
			c0-18.459,19.078-32.431,42.655-32.431h13.136c23.578,0,42.209,13.972,42.209,32.431V427.704z"/>
		
			<path fill-rule="evenodd" clip-rule="evenodd" fill="#FFFCEB" stroke="#DC2729" stroke-width="20" stroke-linecap="round" stroke-linejoin="round" stroke-miterlimit="10" d="
			M391.528,442.121c9.982,6.562,7.582,27.854-5.37,47.557l-7.215,10.977c-12.948,19.704-31.536,30.36-41.52,23.796l-132.094-86.81
			c-9.983-6.564-7.216-27.613,5.734-47.316l7.212-10.979c12.948-19.703,31.176-30.597,41.159-24.034L391.528,442.121z"/>
		
			<path fill-rule="evenodd" clip-rule="evenodd" fill="#FFFCEB" stroke="#DC2729" stroke-width="20" stroke-linecap="round" stroke-linejoin="round" stroke-miterlimit="10" d="
			M481.09,690.354c37.354-9.171,73.846-50.71,82.118-72.681c9.163-24.335,35.312-101.117,35.312-101.117
			c10.92-20.787-22.208-79.612-33.552-85.57l-62.845-19.295l-104.688-32.142c-11.336-5.963-28.974,6.272-39.891,27.057
			l-6.087,11.581c-10.92,20.783-10.988,42.245,0.356,48.207l92.994,54.189c0,0-11.809,32.656,5.19,89.021"/>
		
			<path fill-rule="evenodd" clip-rule="evenodd" fill="#FFFCEB" stroke="#871811" stroke-width="20" stroke-linecap="round" stroke-linejoin="round" stroke-miterlimit="10" d="
			M238.848,392.237"/>
	</g>
</g>
</svg>
