<?xml version="1.0" encoding="utf-8"?>
<!-- Generator: Adobe Illustrator 16.0.0, SVG Export Plug-In . SVG Version: 6.00 Build 0)  -->
<!DOCTYPE svg PUBLIC "-//W3C//DTD SVG 1.1//EN" "http://www.w3.org/Graphics/SVG/1.1/DTD/svg11.dtd">
<svg version="1.1" id="Layer_1" xmlns="http://www.w3.org/2000/svg" xmlns:xlink="http://www.w3.org/1999/xlink" x="0px" y="0px"
	 width="800px" height="800px" viewBox="0 0 800 800" enable-background="new 0 0 800 800" xml:space="preserve">
<path fill="#5AB56A" d="M406.502,796.113c-51.345,0-101.143-10.045-148.011-29.855c-45.277-19.139-85.945-46.541-120.873-81.447
	s-62.347-75.547-81.496-120.793C36.3,517.182,26.249,467.42,26.249,416.113S36.3,315.045,56.122,268.211
	c19.149-45.248,46.568-85.889,81.496-120.793c34.928-34.906,75.596-62.309,120.873-81.449
	c46.868-19.811,96.666-29.855,148.011-29.855c51.343,0,101.141,10.045,148.008,29.855c45.278,19.141,85.946,46.543,120.874,81.449
	c34.928,34.904,62.347,75.545,81.497,120.793c19.82,46.834,29.871,96.596,29.871,147.902s-10.051,101.068-29.871,147.904
	c-19.15,45.246-46.569,85.887-81.497,120.793s-75.596,62.309-120.874,81.447C507.643,786.068,457.845,796.113,406.502,796.113z"/>
<path fill="#358C36" d="M400.961,40.113c48.654,0,95.832,9.514,140.221,28.277c42.896,18.133,81.427,44.098,114.524,77.174
	c33.095,33.074,59.075,71.578,77.217,114.441c18.771,44.355,28.29,91.494,28.29,140.107c0,48.615-9.519,95.754-28.29,140.107
	c-18.142,42.863-44.122,81.367-77.217,114.443c-33.098,33.076-71.629,59.041-114.524,77.172
	c-44.389,18.764-91.566,28.277-140.221,28.277s-95.832-9.514-140.223-28.277c-42.895-18.131-81.426-44.096-114.522-77.172
	S87.141,583.084,69,540.221c-18.772-44.354-28.291-91.492-28.291-140.107c0-48.613,9.519-95.752,28.291-140.107
	c18.141-42.863,44.119-81.367,77.216-114.441c33.097-33.076,71.628-59.041,114.522-77.174
	C305.129,49.627,352.307,40.113,400.961,40.113 M400.961,0.113c-221.053,0-400.252,179.086-400.252,400s179.199,400,400.252,400
	s400.252-179.086,400.252-400S622.014,0.113,400.961,0.113L400.961,0.113z"/>
<g>
	<g>
		<path fill="#358C36" d="M186.5,611.945c0-91.602,0-183.201,0-274.803c4.093-6.082,8.274-11.604,16.878-11.568
			c37.098,0.148,74.194-0.041,111.292,0.05c10.905,0.027,17.185,6.757,17.258,17.83c0.032,4.809,0.005,9.617,0.005,15.98
			c3.543-2.573,5.793-4.108,7.934-5.782c16.128-12.596,28.653-28.375,39.425-45.559c16.396-26.158,28.822-54.068,37.284-83.855
			c5.927-20.857,16.858-38.336,38.67-46.081c25.005-8.879,53.677,2.665,69.277,28.295c16.402,26.938,20.2,56.227,13.371,86.724
			c-2.732,12.207-7.362,23.99-11.125,35.955c9.7,0.784,19.737,1.023,29.589,2.496c37.569,5.615,57.996,30.777,52.411,65.607
			c-1.503,9.366,0.696,16.789,4.731,24.463c0,10.336,0,20.668,0,31.004c-2.877,5.846-4.886,12.399-8.886,17.334
			c-3.733,4.605-3.566,8.037-1.884,13.154c6.02,18.309,2.193,35.121-11.01,48.814c-5.337,5.535-6.176,9.892-4.536,16.996
			c5.808,25.179-3.653,44.492-27.831,53.625c-13.172,4.974-27.578,7.938-41.645,9.043c-35.072,2.752-69.785-1.754-104.104-8.979
			c-27.713-5.838-55.248-12.386-80.794-25.192c-0.396,0.765-0.76,1.142-0.762,1.521c-0.057,8.219-0.075,16.438-0.098,24.656
			c-0.04,15.015-5.932,20.998-20.744,20.998c-34.289-0.002-68.582-0.316-102.866,0.129
			C197.862,624.939,190.721,621.441,186.5,611.945z M331.889,468.459c0.013,0,0.024,0,0.037,0c0,13.145-0.084,26.293,0.033,39.436
			c0.067,7.92-2.334,17.765,1.449,23.229c4.024,5.811,13.93,7.736,21.461,10.899c49.312,20.72,100.872,30.288,154.232,30.326
			c12.441,0.011,24.193-3.339,34.002-11.467c11.682-9.677,10.711-21.606-2.642-28.79c-5.276-2.838-11.571-3.722-17.075-6.215
			c-2.564-1.164-4.353-4.043-6.491-6.144c2.482-1.282,4.833-3.11,7.472-3.743c8.15-1.951,16.714-2.585,24.551-5.34
			c9.828-3.46,14.785-10.82,13.877-18.169c-1.156-9.333-8.004-13.231-15.994-15.702c-3.57-1.104-7.362-1.559-10.829-2.888
			c-1.403-0.54-3.073-2.661-3.026-4.007c0.04-1.17,2.162-2.791,3.663-3.268c2.415-0.768,5.181-0.413,7.613-1.145
			c5.539-1.668,11.579-2.75,16.322-5.783c12.892-8.238,12.295-24.643-1.051-32.1c-4.347-2.428-9.81-2.779-14.592-4.541
			c-2.317-0.851-4.242-2.761-6.344-4.191c2.1-1.404,4.033-3.284,6.341-4.094c2.82-0.984,6.053-0.751,8.936-1.613
			c10.095-3.019,15.041-11.26,13.301-21.699c-1.919-11.502-13.354-21.051-26.936-21.811c-9.129-0.512-18.305-0.154-27.457-0.327
			c-7.967-0.149-16.019,0.157-23.876-0.903c-12.575-1.695-18.624-11.32-15.136-23.45c1.543-5.364,3.954-10.512,6.274-15.62
			c5.62-12.369,12.304-24.332,16.952-37.047c8.811-24.098,5.18-47.15-9.296-68.233c-4.061-5.915-9.718-10.445-17.835-8.882
			c-8.098,1.562-12.428,7.102-14.397,14.668c-1.297,4.979-1.983,10.115-3.259,15.1c-10.632,41.525-32.33,77.205-58.998,110.086
			c-16.343,20.147-34.634,38.256-58.17,50.278c-1.741,0.892-2.951,4.464-2.979,6.81
			C331.783,430.896,331.889,449.679,331.889,468.459z"/>
		<path fill-rule="evenodd" clip-rule="evenodd" fill="#FFFFFF" d="M331.889,468.459c0-18.78-0.105-37.562,0.134-56.34
			c0.028-2.346,1.238-5.918,2.979-6.81c23.536-12.022,41.827-30.131,58.17-50.278c26.668-32.881,48.366-68.561,58.998-110.086
			c1.275-4.984,1.962-10.121,3.259-15.1c1.97-7.566,6.3-13.105,14.397-14.668c8.117-1.563,13.774,2.967,17.835,8.882
			c14.476,21.083,18.106,44.136,9.296,68.233c-4.648,12.715-11.332,24.678-16.952,37.047c-2.32,5.108-4.731,10.256-6.274,15.62
			c-3.488,12.13,2.561,21.755,15.136,23.45c7.857,1.061,15.909,0.754,23.876,0.903c9.152,0.173,18.328-0.185,27.457,0.327
			c13.582,0.76,25.017,10.309,26.936,21.811c1.74,10.439-3.206,18.681-13.301,21.699c-2.883,0.862-6.115,0.629-8.936,1.613
			c-2.308,0.81-4.241,2.689-6.341,4.094c2.102,1.431,4.026,3.341,6.344,4.191c4.782,1.762,10.245,2.113,14.592,4.541
			c13.346,7.457,13.942,23.861,1.051,32.1c-4.743,3.033-10.783,4.115-16.322,5.783c-2.433,0.731-5.198,0.377-7.613,1.145
			c-1.501,0.477-3.623,2.098-3.663,3.268c-0.047,1.346,1.623,3.467,3.026,4.007c3.467,1.329,7.259,1.784,10.829,2.888
			c7.99,2.471,14.838,6.369,15.994,15.702c0.908,7.349-4.049,14.709-13.877,18.169c-7.837,2.755-16.4,3.389-24.551,5.34
			c-2.639,0.633-4.989,2.461-7.472,3.743c2.139,2.101,3.927,4.979,6.491,6.144c5.504,2.493,11.799,3.377,17.075,6.215
			c13.353,7.184,14.323,19.113,2.642,28.79c-9.809,8.128-21.561,11.478-34.002,11.467c-53.36-0.038-104.92-9.606-154.232-30.326
			c-7.531-3.163-17.437-5.089-21.461-10.899c-3.783-5.464-1.382-15.309-1.449-23.229c-0.117-13.143-0.033-26.291-0.033-39.436
			C331.913,468.459,331.901,468.459,331.889,468.459z"/>
	</g>
</g>
</svg>
