<?xml version="1.0" encoding="utf-8"?>
<!-- Generator: Adobe Illustrator 16.0.0, SVG Export Plug-In . SVG Version: 6.00 Build 0)  -->
<!DOCTYPE svg PUBLIC "-//W3C//DTD SVG 1.1//EN" "http://www.w3.org/Graphics/SVG/1.1/DTD/svg11.dtd">
<svg version="1.1" id="Layer_1" xmlns="http://www.w3.org/2000/svg" xmlns:xlink="http://www.w3.org/1999/xlink" x="0px" y="0px"
	 width="800px" height="800px" viewBox="0 0 800 800" enable-background="new 0 0 800 800" xml:space="preserve">
<g>
	<path fill="#DC2729" d="M400.129,779.873c-51.344,0-101.143-10.045-148.01-29.855c-45.277-19.14-85.945-46.542-120.873-81.448
		c-34.928-34.905-62.348-75.546-81.496-120.793c-19.822-46.835-29.873-96.597-29.873-147.903S29.928,298.805,49.75,251.97
		c19.148-45.247,46.568-85.888,81.496-120.793c34.928-34.906,75.596-62.309,120.873-81.448
		c46.867-19.811,96.666-29.855,148.01-29.855S501.27,29.918,548.137,49.729c45.279,19.14,85.947,46.542,120.875,81.448
		c34.928,34.905,62.347,75.546,81.497,120.793c19.821,46.835,29.872,96.597,29.872,147.903s-10.051,101.068-29.872,147.903
		c-19.15,45.247-46.569,85.888-81.497,120.793c-34.928,34.906-75.596,62.309-120.875,81.448
		C501.27,769.828,451.473,779.873,400.129,779.873z"/>
	<g opacity="0.2">
		<path fill="#FFFCEB" d="M397.15,181.141c-6.881-52.475-13.805-104.945-20.74-157.416c-17.707,1.076-35.203,3.367-52.426,6.857
			c21.551,52.023,43.09,104.02,64.627,156.01c-2,1.312-3.996,2.631-5.998,3.939c-37.129-48.352-74.258-96.705-111.453-145.15
			c-6.432,2.318-12.812,4.809-19.141,7.482c-13.248,5.602-26.09,11.93-38.521,18.926c54.297,41.666,108.508,83.268,162.715,124.867
			c-1.062,2.148-2.133,4.301-3.201,6.457c-72.727-30.119-145.459-60.242-218.328-90.422c-8.102,6.857-15.963,14.051-23.537,21.621
			c-12.873,12.865-24.717,26.514-35.512,40.881c90.428,12.031,180.82,24.314,271.273,36.197
			C392.754,214.789,400.545,206.994,397.15,181.141z"/>
		<path fill="#FFFCEB" d="M434.785,211.395c90.031-11.807,180.049-23.721,270.068-35.643c-10.908-14.574-22.9-28.408-35.941-41.439
			c-7.406-7.402-15.086-14.445-22.998-21.166c-72.293,29.951-144.49,59.861-216.682,89.768c-1.477-1.908-2.943-3.816-4.422-5.727
			c54.193-41.594,108.391-83.189,162.699-124.869c-12.725-7.211-25.887-13.711-39.471-19.455c-5.895-2.49-11.834-4.826-17.818-7.008
			c-37.119,48.379-74.213,96.723-111.303,145.062c-1.973-1.371-3.943-2.748-5.92-4.119c21.521-51.953,43.043-103.912,64.578-155.904
			c-17.113-3.541-34.498-5.896-52.094-7.049c-7.033,52.424-14.057,104.852-20.943,157.295
			C401.145,206.973,408.949,214.789,434.785,211.395z"/>
		<path fill="#FFFCEB" d="M350.941,596.09c15.146-115.727,31.008-231.352,46.205-347.07c3.398-25.852-4.379-33.637-30.238-30.244
			c-106.572,13.977-213.127,28.1-319.684,42.217c-14.469,35.838-23.268,73.34-26.273,111.896
			c117.758-48.77,235.236-97.424,352.709-146.08c1.127,2.016,2.258,4.031,3.393,6.045
			C262.121,321.051,147.186,409.25,31.699,497.871c4.643,18.033,10.629,35.736,17.951,53.041
			c10.648,25.16,23.863,48.889,39.494,71.006c98.344-128.164,196.133-255.596,293.906-383.023c2.01,1.107,4.02,2.213,6.029,3.318
			c-65.689,158.703-131.383,317.406-197.996,478.348c19.209,12.646,39.551,23.553,60.936,32.592
			c24.674,10.43,50.158,18.148,76.254,23.123C335.709,716.197,343.082,656.111,350.941,596.09z"/>
		<path fill="#FFFCEB" d="M412.783,242.889c2.176-1.049,4.344-2.09,6.52-3.133c97.186,126.646,194.385,253.318,292.393,381.037
			c15.287-21.799,28.244-45.146,38.713-69.881c7.467-17.641,13.545-35.695,18.223-54.094
			c-114.936-88.188-229.348-175.973-343.756-263.762c1.105-2.041,2.217-4.084,3.326-6.125
			c116.633,48.279,233.277,96.561,350.848,145.225c-3.053-38.23-11.805-75.418-26.137-110.973
			c-106.064-13.982-212.062-28.469-318.133-42.402c-25.83-3.393-33.641,4.418-30.248,30.248
			c22.236,169.545,44.844,339.037,67.195,508.566c0.801,6.078,1.551,12.162,2.268,18.25c25.324-4.986,50.068-12.559,74.045-22.693
			c21.891-9.252,42.689-20.455,62.297-33.484C544.314,560.336,478.555,401.609,412.783,242.889z"/>
	</g>
	<path fill="#871811" d="M400.053,39.873c48.654,0,95.832,9.514,140.223,28.277c42.893,18.132,81.424,44.097,114.522,77.173
		c33.095,33.075,59.075,71.579,77.216,114.442c18.771,44.354,28.291,91.493,28.291,140.107s-9.52,95.753-28.291,140.107
		c-18.141,42.863-44.121,81.367-77.216,114.442c-33.099,33.076-71.63,59.041-114.522,77.173
		c-44.391,18.764-91.568,28.277-140.223,28.277s-95.832-9.514-140.223-28.277c-42.895-18.132-81.426-44.097-114.522-77.173
		c-33.096-33.075-59.075-71.579-77.216-114.442c-18.773-44.354-28.291-91.493-28.291-140.107s9.518-95.753,28.291-140.107
		c18.141-42.863,44.12-81.367,77.216-114.442c33.097-33.076,71.628-59.041,114.522-77.173
		C304.221,49.387,351.398,39.873,400.053,39.873 M400.053-0.127C179-0.127-0.199,178.959-0.199,399.873s179.199,400,400.252,400
		s400.252-179.086,400.252-400S621.105-0.127,400.053-0.127L400.053-0.127z"/>
	<ellipse fill-rule="evenodd" clip-rule="evenodd" fill="#A51D1F" cx="400" cy="533" rx="293" ry="38"/>
	<g>
		<path fill-rule="evenodd" clip-rule="evenodd" fill="#FFFCEB" d="M283.375,221.267C270.11,256,246.91,277.385,212.037,288.63
			c5.598,33.209,9.488,66.198,17.004,98.34c9.301,39.767,21.613,78.829,32.623,118.196c0.68,2.429,1.535,4.823,2.004,7.291
			c2.303,12.124-1.348,21.627-14.006,24.467c-11.775,2.642-19.393-3.716-22.588-14.96c-10.211-35.921-20.208-71.898-30.347-107.837
			c-1.343-4.766-3.028-9.433-4.554-14.145c-1.559-0.404-3.116-0.808-4.674-1.209c-1.732,4.765-4.902,9.511-4.963,14.296
			c-0.442,34.353-0.287,68.713-0.24,103.071c0.02,12.812-6.521,20.871-18.93,20.735c-12.404-0.138-18.841-8.368-18.525-21.142
			c0.074-3.03,0-6.062,0-9.095c-0.006-22.232,0.992-44.519-0.229-66.684c-2.238-40.684-5.783-81.297-8.781-121.94
			c-2.158-0.262-4.32-0.526-6.48-0.788c-2.803,9.459-7.657,18.849-7.982,28.393c-0.664,19.552,0.629,39.22,2.071,58.771
			c0.679,9.205,1.899,18.648-9.659,20.049c-10.395,1.259-13.668-7.605-13.789-16.17c-0.369-26.065-2.193-52.391,0.846-78.107
			c1.602-13.541,10.484-27.335,19.262-38.516c5.84-7.439,16.772-12.524,26.369-15.008c17.516-4.535,35.971-5.347,53.604-9.531
			c31.986-7.592,53.736-26.835,62.047-59.542c2.013-7.922,3.148-16.997,14.428-15.716c1.957,0.223,3.971,0.243,5.982,0.229"/>
		<path fill-rule="evenodd" clip-rule="evenodd" fill="#FFFCEB" d="M192.928,228.276c-0.447,18.931-17.055,34.696-35.635,33.826
			c-18.236-0.856-33.707-16.821-33.584-34.663c0.129-18.965,16.012-34.408,35.182-34.207
			C178.273,193.436,193.385,208.994,192.928,228.276z"/>
		<path fill-rule="evenodd" clip-rule="evenodd" fill="#FFFCEB" d="M518.182,214.022c-13.264,34.734-36.465,56.119-71.338,67.364
			c5.599,33.209-2.484,66.198,5.031,98.339c9.302,39.768,10.695,78.461,21.703,117.829c0.68,2.428,1.537,4.822,2.006,7.291
			c2.301,12.124-1.35,21.627-14.008,24.467c-11.773,2.642-19.393-3.716-22.588-14.96c-10.21-35.921-9.287-71.531-19.426-107.47
			c-1.344-4.765-3.027-9.433-4.553-14.144c-1.561-0.405-3.117-0.807-4.676-1.209c-1.73,4.764-4.902,9.511-4.963,14.296
			c-0.441,34.353-0.287,68.713-0.239,103.072c0.019,12.811-6.521,20.87-18.929,20.734c-12.406-0.138-18.842-8.367-18.527-21.142
			c0.074-3.03,0-6.062,0-9.095c-0.006-22.232,0.992-44.519-0.229-66.684c-2.238-40.685,6.189-81.297,3.191-121.94l-2.143-15.733
			c-51.939-5.194-82.049-38.065-95.225-73.909l-0.846-29.188c9.494-0.065,18.945-0.886,22.311,15.232
			c8.357,40.021,38.422,56.955,76.158,63.061l10.382-0.84c17.515-4.535,35.97-5.348,53.603-9.531
			c31.986-7.592,53.736-26.835,62.047-59.542c2.014-7.922,3.148-16.997,14.428-15.716c1.958,0.223,3.971,0.243,5.982,0.229"/>
		<path fill-rule="evenodd" clip-rule="evenodd" fill="#FFFCEB" d="M437.713,222.536c-0.447,18.931-17.057,34.696-35.636,33.826
			c-18.236-0.856-33.706-16.821-33.585-34.663c0.129-18.965,16.014-34.408,35.184-34.207
			C423.057,187.695,438.168,203.253,437.713,222.536z"/>
		<g>
			<path fill-rule="evenodd" clip-rule="evenodd" fill="#FFFCEB" d="M512.553,184.562c9.495-0.065,18.945-0.886,22.312,15.232
				c8.357,40.021,38.421,56.955,76.157,63.061c11.965,1.935,23.934,4.267,35.99,5.074c16.99,1.137,28.066,10.645,36.344,23.997
				c22.708,36.633,19.604,76.243,11.531,115.925c-0.774,3.806-8.757,6.146-13.393,9.166c-2.918-5.62-8.271-11.223-8.312-16.865
				c-0.164-20.56,2.379-41.151,1.98-61.692c-0.186-9.541-4.791-18.996-7.393-28.489c-1.588,0.097-3.178,0.193-4.77,0.29
				c-3.771,29.507-9.272,58.921-10.869,88.545c-1.902,35.266-0.393,70.713-0.48,106.082c-0.037,15.677-6.617,24.461-18.201,24.831
				c-12.088,0.388-19.118-8.7-19.178-25.362c-0.115-32.844,0.157-65.688-0.278-98.524c-0.064-4.896-3.1-9.755-4.759-14.632
				c-1.773,0.34-3.545,0.677-5.318,1.015c-10.482,37.296-20.963,74.592-31.454,111.885c-1.231,4.373-1.192,10.357-4.09,12.753
				c-6.341,5.238-14.233,12.088-21.415,12.002c-10.758-0.129-16.373-9.616-14.395-20.733c1.848-10.39,5.064-20.549,7.93-30.738
				c18.025-64.056,38.346-127.606,42.158-196.494c-31.695-10.79-56.076-31.295-69.252-67.139"/>
			<path fill-rule="evenodd" clip-rule="evenodd" fill="#FFFCEB" d="M593.666,221.912c-0.344-19.238,14.885-34.638,34.324-34.705
				c19.022-0.067,35.127,15.867,34.898,34.535c-0.219,17.932-15.865,33.785-33.955,34.404
				C610.254,256.785,594.008,241.015,593.666,221.912z"/>
		</g>
	</g>
</g>
</svg>
