<?xml version="1.0" encoding="utf-8"?>
<!-- Generator: Adobe Illustrator 16.0.0, SVG Export Plug-In . SVG Version: 6.00 Build 0)  -->
<!DOCTYPE svg PUBLIC "-//W3C//DTD SVG 1.1//EN" "http://www.w3.org/Graphics/SVG/1.1/DTD/svg11.dtd">
<svg version="1.1" id="Layer_1" xmlns="http://www.w3.org/2000/svg" xmlns:xlink="http://www.w3.org/1999/xlink" x="0px" y="0px"
	 width="800px" height="800px" viewBox="0 0 800 800" enable-background="new 0 0 800 800" xml:space="preserve">
<path fill="#9277B4" d="M399.192,780c-51.344,0-101.142-10.045-148.011-29.855c-45.276-19.14-85.944-46.542-120.872-81.448
	c-34.929-34.905-62.347-75.546-81.496-120.793C28.991,501.068,18.94,451.307,18.94,400s10.051-101.068,29.873-147.903
	c19.149-45.247,46.567-85.888,81.496-120.793c34.928-34.906,75.596-62.309,120.872-81.448C298.051,30.045,347.849,20,399.192,20
	c51.343,0,101.142,10.045,148.009,29.855c45.278,19.14,85.946,46.542,120.874,81.448c34.927,34.905,62.346,75.546,81.496,120.793
	c19.822,46.835,29.873,96.597,29.873,147.903s-10.051,101.068-29.873,147.903c-19.15,45.247-46.569,85.888-81.496,120.793
	c-34.928,34.906-75.596,62.309-120.874,81.448C500.334,769.955,450.535,780,399.192,780z"/>
<path fill="#5A3E81" d="M400,40c48.654,0,95.832,9.514,140.223,28.277c42.893,18.132,81.425,44.097,114.522,77.173
	c33.096,33.075,59.075,71.579,77.217,114.442c18.771,44.354,28.29,91.493,28.29,140.107s-9.52,95.753-28.29,140.107
	c-18.142,42.863-44.121,81.367-77.217,114.442c-33.098,33.077-71.63,59.041-114.522,77.173C495.832,750.486,448.654,760,400,760
	s-95.832-9.514-140.223-28.277c-42.895-18.132-81.426-44.096-114.522-77.173c-33.096-33.075-59.075-71.579-77.216-114.442
	C49.266,495.753,39.748,448.614,39.748,400s9.518-95.753,28.291-140.107c18.141-42.863,44.12-81.367,77.216-114.442
	c33.097-33.076,71.628-59.041,114.522-77.173C304.168,49.514,351.346,40,400,40 M400,0C178.947,0-0.252,179.086-0.252,400
	S178.947,800,400,800s400.252-179.086,400.252-400S621.053,0,400,0L400,0z"/>
<path fill="#FFFCEB" d="M399,659.526c-143,0-259.527-116.193-259.527-259.526C139.473,256.668,256,140.474,399,140.474V659.526z"/>
<path opacity="0.5" fill="#FFFCEB" d="M400,140.474c143,0,259.527,116.193,259.527,259.526C659.527,543.332,543,659.526,400,659.526
	V140.474z"/>
<g>
	<path fill="#5A3E81" d="M189.205,354.32l12.061,52.316l2.629,14.561l2.636-14.261l10.318-52.616h20.144l10.854,52.31l2.781,14.567
		l2.819-14.001l12.18-52.876h19.436l-25.701,91.359h-18.279l-11.033-53.428l-3.222-17.664l-3.223,17.664l-11.033,53.428h-17.729
		l-25.904-91.359H189.205z"/>
	<path fill="#5A3E81" d="M364.145,370.498H315.8v19.399h44.378v15.867H315.8v23.491h50.577v16.425h-69.233V354.32h67.001V370.498z"
		/>
	<path fill="#5A3E81" d="M449.388,364.051c2.796,3.884,4.194,8.533,4.194,13.946c0,5.578-1.412,10.062-4.232,13.45
		c-1.575,1.9-3.898,3.636-6.967,5.205c4.662,1.695,8.181,4.381,10.553,8.059c2.373,3.677,3.56,8.14,3.56,13.388
		c0,5.412-1.356,10.268-4.066,14.565c-1.728,2.851-3.885,5.247-6.472,7.189c-2.917,2.231-6.356,3.76-10.322,4.586
		c-3.965,0.827-8.268,1.24-12.909,1.24h-41.165V354.32h44.151C436.85,354.486,444.744,357.729,449.388,364.051z M399.783,370.188
		v20.144h22.204c3.967,0,7.187-0.754,9.66-2.262c2.475-1.508,3.712-4.184,3.712-8.026c0-4.256-1.636-7.066-4.906-8.43
		c-2.822-0.95-6.422-1.425-10.797-1.425H399.783z M399.783,405.454v24.358h22.18c3.962,0,7.046-0.537,9.251-1.611
		c4.003-1.983,6.005-5.785,6.005-11.404c0-4.752-1.94-8.017-5.82-9.793c-2.164-0.992-5.208-1.509-9.129-1.55H399.783z"/>
	<path fill="#5A3E81" d="M540.479,370.498h-48.346v19.399h44.379v15.867h-44.379v23.491h50.577v16.425h-69.232V354.32h67.001
		V370.498z"/>
	<path fill="#5A3E81" d="M572.182,445.68h-22.189l29.379-46.547l-27.953-44.812h22.809l16.294,29.752l16.741-29.752h22.065
		l-27.953,44.068l29.688,47.291h-23.182l-17.358-31.15L572.182,445.68z"/>
</g>
</svg>
