<?xml version="1.0" encoding="utf-8"?>
<!-- Generator: Adobe Illustrator 16.0.0, SVG Export Plug-In . SVG Version: 6.00 Build 0)  -->
<!DOCTYPE svg PUBLIC "-//W3C//DTD SVG 1.1//EN" "http://www.w3.org/Graphics/SVG/1.1/DTD/svg11.dtd">
<svg version="1.1" id="Layer_1" xmlns="http://www.w3.org/2000/svg" xmlns:xlink="http://www.w3.org/1999/xlink" x="0px" y="0px"
	 width="800px" height="800px" viewBox="0 0 800 800" enable-background="new 0 0 800 800" xml:space="preserve">
<path fill="#DC2729" d="M399.592,780.299c-51.344,0-101.143-10.045-148.01-29.855c-45.277-19.14-85.945-46.542-120.873-81.448
	c-34.928-34.905-62.348-75.546-81.496-120.793C29.391,501.367,19.34,451.605,19.34,400.299S29.391,299.23,49.213,252.396
	c19.148-45.247,46.568-85.888,81.496-120.793c34.928-34.906,75.596-62.309,120.873-81.448
	c46.867-19.811,96.666-29.855,148.01-29.855S500.732,30.344,547.6,50.154c45.279,19.14,85.947,46.542,120.875,81.448
	c34.928,34.905,62.346,75.546,81.496,120.793c19.822,46.835,29.873,96.597,29.873,147.903s-10.051,101.068-29.873,147.903
	c-19.15,45.247-46.568,85.888-81.496,120.793c-34.928,34.906-75.596,62.309-120.875,81.448
	C500.732,770.254,450.936,780.299,399.592,780.299z"/>
<g>
	<path fill="#FFFCEB" d="M589.795,729.426c-36.981,12.908-75.284,20.608-114.015,22.881c-6.773,0.397-13.627,0.599-20.371,0.599
		c-28.454,0.001-57.04-3.592-84.963-10.675c-30.59-7.763-59.806-19.647-86.835-35.323c-42.946-24.907-79.202-57.894-107.761-98.041
		c-17.393-24.447-31.297-51.035-41.326-79.023c-8.919-24.901-14.686-50.818-17.138-77.031c-1.94-20.769-1.836-41.611,0.312-61.949
		c2.721-25.748,8.731-51.638,17.867-76.948c19.116-52.964,50.229-96.904,92.476-130.603
		c50.989-40.672,110.044-62.694,175.523-65.455c4.017-0.169,8.074-0.255,12.059-0.255c31.458,0,62.352,5.346,91.82,15.888
		c37.147,13.296,69.774,34.299,96.975,62.428c22.602,23.373,40.991,51.609,54.657,83.926
		c15.308,36.205,21.665,74.336,18.898,113.332c-2.321,32.682-10.813,63.866-25.239,92.69c-13.99,27.956-32.461,51.227-54.898,69.164
		c-34.64,27.687-75.733,43.34-122.141,46.523c-5.335,0.366-10.714,0.552-15.988,0.552c-26.076,0-51.705-4.532-76.174-13.471
		c-28.032-10.239-52.267-25.555-72.029-45.521c-24.161-24.408-40.232-54.106-47.769-88.268c-4.954-22.463-5.968-41.229-3.189-59.062
		c5.896-37.853,24.44-69.781,55.116-94.899c31.428-25.732,67.258-37.634,106.431-35.396c20.959,1.202,38.539,6.232,53.746,15.38
		c39.024,23.473,58.622,69.138,48.766,113.633c-4.269,19.271-13.772,35.516-28.246,48.283
		c-13.837,12.205-30.697,19.707-50.112,22.296c-1.423,0.189-2.858,0.286-4.268,0.286c-12.932,0-24.056-8.022-28.341-20.438
		c-4.632-13.415,0.858-28.091,13.351-35.688c3.758-2.286,8.424-3.316,14.132-4.427c12.651-2.462,21.334-10.409,24.449-22.379
		c2.908-11.173,0.921-24.08-5.315-34.525c-6.04-10.116-15.641-17.221-27.032-20.005c-6.78-1.657-13.648-2.498-20.415-2.498
		c-11.834,0-23.775,2.569-35.492,7.635c-17.494,7.562-32.944,20.588-43.505,36.681c-11.999,18.283-16.694,38.879-13.578,59.559
		c5.074,33.665,19.026,59.576,42.655,79.217c20.379,16.936,45.348,27.58,74.212,31.637c8.065,1.136,16.174,1.711,24.101,1.711
		c19.529,0,38.831-3.485,57.369-10.359c28.831-10.693,51.543-27.98,67.506-51.382c29.325-43.001,38.768-91.276,28.065-143.483
		c-5.107-24.916-15.597-48.773-32.067-72.933c-21.127-30.998-49.152-54.158-83.299-68.838
		c-26.282-11.302-54.461-17.033-83.754-17.033c-8.192,0-16.62,0.448-25.05,1.333c-28.869,3.029-56.75,11.275-82.867,24.51
		c-28.414,14.4-53.082,33.88-73.32,57.898c-21.343,25.336-36.674,54.509-46.871,89.187c-12.305,41.849-13.984,84.204-4.994,125.889
		c9.984,46.282,31.774,88.053,64.765,124.15c27.964,30.598,61.705,54.231,100.287,70.245c26.81,11.125,55.361,18.056,84.862,20.6
		c7.788,0.672,15.795,1.013,23.798,1.013c21.272,0,43.085-2.31,66.685-7.062c22.33-4.497,43.962-11.045,64.297-19.461
		c20.425-8.46,40.099-20.664,60.145-37.31c53.424-44.353,88.573-99.928,104.474-165.181c11.694-47.987,13.555-98.061,5.528-148.829
		c-5.534-35.005-16.764-68.709-33.377-100.177c-26.079-49.396-63.097-90.111-110.026-121.013
		c-53.427-35.176-114.706-54.463-182.136-57.324c-5.629-0.239-11.333-0.36-16.952-0.36c-25.551,0-51.328,2.503-76.616,7.439
		c-41.354,8.072-80.359,22.543-115.936,43.011c-45.974,26.451-84.699,61.643-115.1,104.595
		c-24.81,35.055-43.197,74.553-54.65,117.399c-7.712,28.841-12.055,60.542-13.278,96.914c-1.262,37.403,1.053,71.163,7.075,103.207
		c6.144,32.68,16.403,63.418,30.495,91.36c0.579,1.148,1.186,2.286,1.78,3.429c14.977,23.657,32.566,45.641,52.656,65.717
		c34.928,34.906,75.596,62.309,120.873,81.448c6.773,2.863,13.611,5.516,20.504,7.971c-3.408-3.335-7.309-6.251-11.674-8.61
		c-38.673-20.905-70.928-43.703-98.607-69.694c-28.554-26.812-51.323-56.846-67.675-89.266c-13.245-26.265-22.9-55.217-28.696-86.05
		c-5.749-30.586-7.954-62.916-6.743-98.839c1.172-34.835,5.297-65.066,12.611-92.421c10.84-40.549,28.219-77.898,51.653-111.011
		c28.716-40.571,65.305-73.817,108.75-98.813c33.664-19.368,70.604-33.067,109.793-40.718c24.028-4.689,48.517-7.068,72.784-7.068
		c5.338,0,10.756,0.115,16.104,0.343c63.762,2.705,121.626,20.89,171.985,54.046c44.082,29.027,78.85,67.263,103.338,113.646
		c15.585,29.52,26.118,61.133,31.31,93.962c7.609,48.14,5.858,95.569-5.206,140.972c-14.86,60.987-47.771,112.979-97.818,154.527
		c-18.479,15.346-36.478,26.539-55.019,34.218c-19.143,7.923-39.529,14.092-60.595,18.334c-22.284,4.486-42.806,6.668-62.736,6.668
		c-7.432,0-14.86-0.316-22.079-0.938c-27.453-2.367-54.004-8.809-78.914-19.146c-35.861-14.884-67.215-36.842-93.19-65.265
		c-30.57-33.45-50.75-72.1-59.978-114.875c-8.279-38.383-6.721-77.421,4.631-116.029c9.399-31.966,23.458-58.77,42.979-81.943
		c18.496-21.951,41.061-39.765,67.065-52.944c23.935-12.129,49.477-19.685,75.913-22.459c7.739-0.812,15.465-1.224,22.963-1.224
		c26.561,0,52.081,5.184,75.854,15.407c30.598,13.153,55.721,33.922,74.672,61.729c14.95,21.929,24.437,43.414,29.002,65.684
		c9.573,46.706,1.163,89.838-24.996,128.199c-13.579,19.906-33.072,34.676-57.938,43.898c-16.305,6.046-33.267,9.111-50.415,9.111
		c-6.997,0-14.168-0.51-21.315-1.516c-25.485-3.582-46.489-12.483-64.213-27.213c-19.688-16.364-31.353-38.22-35.662-66.816
		c-3.892-25.82,10.399-59.84,45.241-74.901c9.327-4.031,18.341-5.992,27.557-5.992c5.168,0,10.438,0.648,15.666,1.926
		c7.88,1.926,12.294,6.952,14.608,10.83c3.496,5.855,4.697,13.227,3.133,19.235c-0.861,3.31-2.537,6.543-8.912,7.783
		c-7.436,1.446-14.126,2.969-20.706,6.972c-20.602,12.53-29.592,36.917-21.863,59.303c7.11,20.601,25.655,33.912,47.246,33.912
		c2.29,0,4.615-0.155,6.911-0.462c23.414-3.122,43.836-12.247,60.699-27.122c17.716-15.627,29.338-35.463,34.543-58.955
		c11.717-52.898-11.585-107.189-57.984-135.098c-18.055-10.86-38.633-16.816-62.911-18.208
		c-44.313-2.541-84.857,10.912-120.244,39.888c-34.602,28.332-55.531,64.432-62.208,107.296c-3.129,20.086-2.011,41.821,3.42,66.447
		c8.364,37.911,26.225,70.894,53.085,98.03c21.853,22.076,48.561,38.979,79.382,50.236c26.675,9.745,54.612,14.686,83.036,14.686
		c5.729,0,11.568-0.201,17.357-0.599c50.545-3.468,95.379-20.577,133.259-50.854c24.716-19.758,45.002-45.273,60.296-75.836
		c15.609-31.186,24.796-64.906,27.304-100.225c2.993-42.172-3.88-83.399-20.427-122.537c-14.63-34.596-34.38-64.889-58.701-90.039
		c-29.353-30.354-64.549-53.017-104.613-67.356c-31.638-11.318-64.798-17.057-98.559-17.057c-4.264,0-8.604,0.092-12.9,0.272
		c-69.81,2.943-132.776,26.429-187.152,69.803c-45.18,36.038-78.427,82.954-98.817,139.447
		c-9.681,26.823-16.055,54.29-18.943,81.637c-2.287,21.652-2.399,43.828-0.336,65.913c2.608,27.878,8.739,55.438,18.223,81.914
		c10.647,29.714,25.403,57.933,43.857,83.871c30.226,42.492,68.589,77.398,114.024,103.749c28.629,16.604,59.565,29.19,91.95,37.408
		c29.528,7.491,59.77,11.29,89.881,11.289c7.133,0,14.381-0.213,21.543-0.634c0.418-0.024,0.836-0.06,1.254-0.086
		c23.699-4.978,46.876-12.231,69.377-21.742C562.146,744.288,576.224,737.266,589.795,729.426z"/>
</g>
<path fill="#871811" d="M399.592,40.299c48.654,0,95.832,9.514,140.223,28.277c42.893,18.132,81.424,44.097,114.521,77.173
	c33.096,33.075,59.076,71.579,77.217,114.442c18.771,44.354,28.291,91.493,28.291,140.107s-9.52,95.753-28.291,140.107
	c-18.141,42.863-44.121,81.367-77.217,114.442c-33.098,33.076-71.629,59.041-114.521,77.173
	c-44.391,18.764-91.568,28.277-140.223,28.277s-95.832-9.514-140.223-28.277c-42.895-18.132-81.426-44.097-114.523-77.173
	c-33.096-33.075-59.074-71.579-77.215-114.442C48.857,496.052,39.34,448.913,39.34,400.299s9.518-95.753,28.291-140.107
	c18.141-42.863,44.119-81.367,77.215-114.442c33.098-33.076,71.629-59.041,114.523-77.173
	C303.76,49.812,350.938,40.299,399.592,40.299 M399.592,0.299c-221.053,0-400.252,179.086-400.252,400s179.199,400,400.252,400
	s400.252-179.086,400.252-400S620.645,0.299,399.592,0.299L399.592,0.299z"/>
</svg>
