<?xml version="1.0" encoding="utf-8"?>
<!-- Generator: Adobe Illustrator 16.0.0, SVG Export Plug-In . SVG Version: 6.00 Build 0)  -->
<!DOCTYPE svg PUBLIC "-//W3C//DTD SVG 1.1//EN" "http://www.w3.org/Graphics/SVG/1.1/DTD/svg11.dtd">
<svg version="1.1" id="Layer_1" xmlns="http://www.w3.org/2000/svg" xmlns:xlink="http://www.w3.org/1999/xlink" x="0px" y="0px"
	 width="800px" height="800px" viewBox="0 0 800 800" enable-background="new 0 0 800 800" xml:space="preserve">
<path fill="#DC2729" d="M399.924,779.701c-51.344,0-101.142-10.045-148.01-29.855c-45.277-19.14-85.945-46.542-120.873-81.448
	c-34.928-34.905-62.347-75.546-81.496-120.793c-19.822-46.835-29.873-96.597-29.873-147.903s10.051-101.068,29.873-147.903
	c19.149-45.247,46.568-85.888,81.496-120.793c34.928-34.906,75.596-62.309,120.873-81.448
	c46.868-19.811,96.666-29.855,148.01-29.855s101.142,10.045,148.009,29.855c45.278,19.14,85.946,46.542,120.874,81.448
	c34.928,34.905,62.347,75.546,81.497,120.793c19.821,46.835,29.872,96.597,29.872,147.903s-10.051,101.068-29.872,147.903
	c-19.15,45.247-46.569,85.888-81.497,120.793c-34.928,34.906-75.596,62.309-120.874,81.448
	C501.065,769.656,451.268,779.701,399.924,779.701z"/>
<path fill="#871811" d="M399.924,39.701c48.654,0,95.832,9.514,140.223,28.277c42.894,18.132,81.425,44.097,114.522,77.173
	c33.096,33.075,59.075,71.579,77.217,114.442c18.771,44.354,28.29,91.493,28.29,140.107s-9.519,95.753-28.29,140.107
	c-18.142,42.863-44.121,81.367-77.217,114.442c-33.098,33.076-71.629,59.041-114.522,77.173
	c-44.391,18.764-91.568,28.277-140.223,28.277s-95.832-9.514-140.223-28.277c-42.895-18.132-81.426-44.097-114.522-77.173
	c-33.096-33.075-59.075-71.579-77.216-114.442c-18.772-44.354-28.291-91.493-28.291-140.107s9.519-95.753,28.291-140.107
	c18.141-42.863,44.12-81.367,77.216-114.442c33.097-33.076,71.628-59.041,114.522-77.173
	C304.092,49.215,351.27,39.701,399.924,39.701 M399.924-0.299c-221.053,0-400.252,179.086-400.252,400s179.199,400,400.252,400
	s400.252-179.086,400.252-400S620.977-0.299,399.924-0.299L399.924-0.299z"/>
<g>
	<g>
		<g>
			<path fill="#FFFCEB" d="M282.367,701.109c-0.854-0.271-1.7-0.514-2.523-0.751c-2.072-0.598-4.029-1.161-5.601-2
				c-23.405-12.494-45.094-26.821-64.462-42.585c-21.075-17.154-39.299-36.138-54.165-56.424
				c-18.105-24.706-31.869-52.171-40.91-81.633c-7.499-24.449-12.021-50.711-13.437-78.056c-0.134-2.586-0.293-5.172-0.452-7.758
				l-0.204-3.358v-22.122l0.063-0.525c0.085-0.683,0.168-1.365,0.218-2.051c0.291-4.034,0.544-8.067,0.796-12.101
				c0.535-8.561,1.09-17.413,2.018-26.021c2.077-19.231,6.524-39.246,13.219-59.486c9.157-27.689,22.111-53.691,38.503-77.284
				c19.854-28.577,44.361-53.281,72.839-73.426c23.912-16.914,50.33-30.313,78.521-39.824c25.853-8.722,52.846-14.094,80.229-15.967
				c3.039-0.208,6.08-0.396,9.121-0.584l4.208-0.263h19.755c0.091,0.015,0.182,0.03,0.272,0.045c0.606,0.101,1.362,0.226,2.22,0.248
				c15.407,0.403,31.104,2.115,46.657,5.088c36.001,6.882,69.576,19.928,99.793,38.777c26.467,16.51,49.702,37.043,69.06,61.03
				c20.978,25.994,36.869,55.311,47.234,87.136c7.248,22.255,11.69,45.4,13.204,68.794c0.219,3.402,0.403,6.808,0.588,10.213
				c0.084,1.555,0.168,3.109,0.256,4.664v15.604l-0.057,0.434c-0.088,0.639-0.172,1.279-0.222,1.921
				c-0.256,3.355-0.473,6.709-0.689,10.063c-0.459,7.099-0.934,14.439-1.794,21.54c-1.942,16.021-5.536,32.335-10.682,48.489
				c-6.424,20.164-15.154,39.282-25.947,56.822c-14.929,24.259-33.671,45.719-57.298,65.606
				c-18.832,15.85-39.494,28.065-61.413,36.309c-28.342,10.654-57.861,16.945-87.738,18.699c-4.814,0.282-9.687,0.426-14.48,0.426
				c-20.226,0-40.544-2.553-60.39-7.589c-21.746-5.517-42.515-13.965-61.73-25.11c-30.527-17.704-56.299-41.151-76.599-69.69
				c-12.369-17.386-22.257-36.293-29.389-56.198c-6.346-17.713-10.447-36.15-12.19-54.798c-1.382-14.771-1.307-29.599,0.222-44.071
				c1.934-18.309,6.208-36.719,12.704-54.719c13.604-37.693,35.754-68.97,65.833-92.963c36.287-28.945,78.312-44.617,124.911-46.582
				c2.86-0.121,5.75-0.182,8.589-0.182c22.41,0,44.417,3.809,65.408,11.319c26.481,9.477,49.742,24.451,69.136,44.507
				c16.109,16.659,29.211,36.773,38.94,59.783c10.917,25.821,15.451,53.016,13.478,80.827c-1.655,23.305-7.712,45.546-18.002,66.105
				c-9.995,19.973-23.2,36.605-39.249,49.436c-24.747,19.78-54.096,30.963-87.23,33.236c-3.807,0.261-7.645,0.394-11.409,0.394
				c-18.619,0.001-36.921-3.236-54.396-9.619c-20.044-7.321-37.379-18.279-51.524-32.57c-17.307-17.484-28.818-38.754-34.215-63.218
				c-3.5-15.869-4.243-29.733-2.271-42.385c4.236-27.194,17.551-50.127,39.576-68.162c20.749-16.989,44.193-25.604,69.683-25.604
				c2.222,0,4.493,0.065,6.751,0.195c15.113,0.866,27.812,4.507,38.823,11.131c28.263,16.999,42.455,50.07,35.317,82.294
				c-3.104,14.015-10.021,25.833-20.555,35.125c-10.063,8.878-22.312,14.331-36.406,16.21c-1.094,0.146-2.197,0.22-3.282,0.22
				c-10,0.001-18.601-6.195-21.91-15.784c-3.582-10.376,0.646-21.715,10.282-27.576c2.936-1.786,6.404-2.558,10.635-3.381
				c8.217-1.599,13.626-6.536,15.642-14.279c1.914-7.357,0.597-15.869-3.523-22.77c-3.974-6.656-10.289-11.33-17.781-13.161
				c-4.62-1.129-9.297-1.702-13.903-1.702c-8.06,0-16.203,1.754-24.205,5.213c-22.821,9.865-43.554,35.583-39.022,65.649
				c3.499,23.211,13.1,41.061,29.35,54.567c14.065,11.69,31.32,19.04,51.286,21.847c5.59,0.787,11.209,1.186,16.7,1.186
				c13.522,0,26.889-2.414,39.727-7.174c19.917-7.387,35.596-19.314,46.603-35.451c20.346-29.834,26.896-63.335,19.469-99.571
				c-3.545-17.291-10.836-33.864-22.291-50.666c-14.668-21.521-34.125-37.602-57.83-47.793
				c-18.269-7.855-37.857-11.838-58.223-11.838c-5.704,0-11.574,0.312-17.445,0.929c-20.099,2.108-39.512,7.85-57.698,17.065
				c-19.783,10.026-36.955,23.585-51.04,40.303c-14.856,17.636-25.533,37.957-32.64,62.123c-8.576,29.167-9.748,58.682-3.483,87.725
				c6.961,32.265,22.155,61.388,45.161,86.56c19.506,21.344,43.045,37.83,69.961,49.002c18.706,7.763,38.626,12.598,59.207,14.371
				c5.433,0.469,11.02,0.706,16.603,0.706c14.857,0,30.099-1.614,46.596-4.937c15.611-3.143,30.731-7.72,44.94-13.602
				c14.204-5.883,27.899-14.382,41.87-25.982c37.311-30.975,61.856-69.78,72.958-115.339c8.178-33.559,9.478-68.583,3.863-104.098
				c-3.866-24.453-11.711-47.996-23.314-69.975c-18.22-34.511-44.082-62.956-76.868-84.543
				c-37.345-24.588-80.188-38.07-127.342-40.071c-3.938-0.167-7.93-0.252-11.861-0.252c-17.878,0-35.916,1.751-53.613,5.206
				c-28.926,5.646-56.208,15.768-81.089,30.083c-32.147,18.496-59.225,43.101-80.479,73.133
				c-17.347,24.51-30.204,52.131-38.215,82.097c-5.395,20.174-8.434,42.369-9.291,67.852c-0.884,26.214,0.736,49.862,4.953,72.299
				c4.294,22.846,11.464,44.329,21.311,63.854c12.161,24.111,29.055,46.41,50.212,66.276c20.278,19.043,43.838,35.706,72.023,50.942
				c7.454,4.028,12.137,11.385,12.527,19.679c0.387,8.218-3.537,15.902-10.497,20.558c-2.702,1.806-5.823,2.809-9.641,3.709H282.367
				z"/>
			<path fill="#DC2729" d="M419.693,103.891c0.676,0.111,1.645,0.262,2.772,0.292c15.135,0.396,30.56,2.078,45.847,5.001
				c35.395,6.766,68.395,19.587,98.086,38.108c25.992,16.214,48.809,36.377,67.814,59.928c20.595,25.519,36.195,54.3,46.371,85.545
				c7.119,21.857,11.482,44.591,12.969,67.565c0.217,3.368,0.404,6.82,0.585,10.158c0.082,1.513,0.164,3.026,0.249,4.538v15.139
				c-0.004,0.028-0.008,0.056-0.012,0.084c-0.088,0.645-0.187,1.375-0.252,2.219c-0.259,3.389-0.48,6.81-0.694,10.118
				c-0.476,7.353-0.924,14.298-1.767,21.259c-1.906,15.712-5.433,31.719-10.482,47.573c-6.301,19.778-14.861,38.525-25.442,55.72
				c-14.644,23.798-33.046,44.864-56.259,64.402c-18.396,15.483-38.567,27.411-59.952,35.453
				c-27.872,10.478-56.897,16.664-86.272,18.389c-4.719,0.276-9.492,0.417-14.188,0.417c-19.812,0-39.716-2.501-59.16-7.436
				c-21.297-5.403-41.637-13.676-60.452-24.589c-29.904-17.344-55.148-40.311-75.032-68.264
				c-12.104-17.013-21.779-35.513-28.756-54.985c-6.205-17.32-10.215-35.347-11.92-53.577c-1.35-14.443-1.277-28.938,0.217-43.081
				c1.891-17.91,6.074-35.925,12.435-53.546c13.286-36.811,34.901-67.344,64.247-90.752c17.735-14.146,36.998-25.146,57.252-32.693
				c20.225-7.536,42.01-11.843,64.752-12.802c2.792-0.118,5.611-0.177,8.379-0.177c21.835,0,43.274,3.71,63.724,11.027
				c25.753,9.216,48.37,23.775,67.227,43.274c15.679,16.214,28.44,35.814,37.929,58.254c10.607,25.088,15.014,51.509,13.096,78.526
				c-1.608,22.646-7.491,44.254-17.485,64.223c-9.806,19.593-22.202,35.218-37.899,47.767
				c-23.938,19.134-52.352,29.952-84.452,32.154c-3.692,0.254-7.416,0.382-11.066,0.382c-18.033,0-35.757-3.134-52.682-9.316
				c-19.346-7.065-36.062-17.627-49.686-31.391c-16.632-16.803-27.696-37.251-32.886-60.776c-3.41-15.464-4.114-28.346-2.214-40.54
				c4.041-25.941,16.76-47.832,37.803-65.062c19.833-16.239,42.212-24.472,66.515-24.472c2.129,0,4.305,0.063,6.466,0.187
				c14.283,0.819,26.233,4.229,36.532,10.424c26.418,15.89,39.686,46.805,33.013,76.928c-2.87,12.96-9.257,23.881-18.98,32.458
				c-9.438,8.325-20.481,13.233-33.761,15.003c-0.875,0.116-1.756,0.176-2.619,0.176c-7.836,0-14.582-4.873-17.186-12.417
				c-2.807-8.132,0.547-17.043,8.156-21.672c2.231-1.358,5.134-1.994,8.99-2.744c10.092-1.964,17.026-8.331,19.525-17.929
				c2.244-8.624,0.723-18.565-4.069-26.591c-4.666-7.814-12.084-13.303-20.888-15.455c-5.007-1.224-10.084-1.845-15.089-1.845
				c-8.746,0-17.558,1.892-26.189,5.624c-12.854,5.556-24.204,15.125-31.962,26.944c-8.862,13.505-12.328,28.733-10.021,44.04
				c3.69,24.478,13.862,43.341,31.099,57.668c14.79,12.292,32.887,20.015,53.784,22.952c5.82,0.819,11.674,1.234,17.397,1.234
				c14.118,0,28.068-2.519,41.466-7.486c20.908-7.755,37.392-20.312,48.994-37.321c21.137-30.994,27.945-65.781,20.235-103.393
				c-3.681-17.952-11.222-35.118-23.056-52.477c-15.213-22.32-35.396-38.999-59.987-49.571
				c-18.896-8.125-39.149-12.245-60.198-12.245c-5.878,0-11.923,0.322-17.967,0.956c-20.707,2.172-40.704,8.086-59.438,17.578
				c-20.385,10.331-38.083,24.308-52.603,41.542c-15.1,17.923-26.409,39.434-33.613,63.934c-8.813,29.977-10.017,60.32-3.574,90.188
				c7.149,33.142,22.747,63.045,46.357,88.879c20.004,21.888,44.14,38.793,71.736,50.247c19.181,7.96,39.601,12.917,60.693,14.734
				c5.575,0.481,11.306,0.725,17.032,0.725c15.192,0,30.757-1.646,47.582-5.034c15.928-3.207,31.359-7.879,45.868-13.885
				c14.674-6.077,28.788-14.829,43.149-26.754c38.155-31.676,63.262-71.378,74.622-118.002c8.336-34.205,9.663-69.891,3.944-106.064
				c-3.952-24.996-11.971-49.062-23.832-71.528c-18.617-35.265-45.042-64.329-78.54-86.384
				c-38.111-25.093-81.809-38.851-129.878-40.891c-4.01-0.17-8.071-0.256-12.074-0.256c-18.199,0-36.559,1.783-54.571,5.298
				c-29.467,5.752-57.266,16.066-82.624,30.656c-32.78,18.859-60.392,43.951-82.067,74.579c-17.69,24.995-30.8,53.154-38.964,83.693
				c-5.494,20.546-8.588,43.108-9.458,68.975c-0.896,26.585,0.751,50.591,5.036,73.392c4.381,23.308,11.702,45.237,21.761,65.181
				c12.425,24.635,29.669,47.402,51.253,67.671c20.598,19.342,44.498,36.251,73.07,51.696c5.897,3.187,9.602,8.986,9.908,15.515
				c0.309,6.547-2.71,12.439-8.279,16.164c-1.969,1.316-4.424,2.129-7.454,2.867h-4.556c-0.646-0.195-1.276-0.378-1.896-0.556
				c-1.812-0.522-3.522-1.016-4.631-1.607c-23.122-12.342-44.54-26.489-63.659-42.051c-20.745-16.885-38.674-35.558-53.288-55.501
				c-17.774-24.254-31.287-51.219-40.163-80.144c-7.379-24.058-11.828-49.913-13.223-76.847c-0.136-2.618-0.298-5.253-0.455-7.802
				c-0.065-1.067-0.131-2.136-0.195-3.203v-21.682c0.008-0.067,0.017-0.136,0.025-0.203c0.084-0.679,0.181-1.449,0.244-2.313
				c0.292-4.061,0.549-8.169,0.798-12.143c0.532-8.506,1.082-17.301,1.999-25.796c2.039-18.881,6.411-38.548,12.994-58.454
				c9.007-27.233,21.745-52.803,37.861-76.001c19.522-28.099,43.619-52.389,71.62-72.197c23.517-16.634,49.501-29.812,77.232-39.169
				c25.446-8.584,52.017-13.872,78.973-15.716c3.023-0.207,6.049-0.394,9.075-0.582c1.357-0.084,2.715-0.168,4.072-0.254H419.693
				 M420.471,93.891c-6.76,0-13.52,0-20.279,0c-4.505,0.286-9.012,0.551-13.514,0.859c-27.858,1.906-55.021,7.29-81.486,16.218
				c-28.564,9.638-55.207,23.077-79.811,40.48c-29.041,20.543-53.748,45.423-74.058,74.655
				c-16.873,24.287-29.865,50.512-39.144,78.567c-6.519,19.71-11.213,39.876-13.442,60.52c-1.372,12.718-1.909,25.527-2.829,38.293
				c-0.064,0.883-0.195,1.76-0.295,2.64c0,7.525,0,15.051,0,22.575c0.223,3.741,0.47,7.48,0.663,11.223
				c1.396,26.963,5.723,53.421,13.649,79.264c9.221,30.047,23.083,57.775,41.657,83.122c15.794,21.552,34.336,40.492,55.042,57.346
				c20.322,16.54,42.167,30.789,65.263,43.117c2.976,1.589,6.444,2.251,9.687,3.341c2.423,0,4.847,0,7.27,0
				c4.164-0.957,8.227-2.134,11.846-4.553c18.038-12.064,16.658-38.476-2.432-48.791c-25.664-13.873-49.652-30.162-70.979-50.188
				c-20.063-18.84-36.746-40.251-49.17-64.884c-9.998-19.824-16.765-40.73-20.861-62.525c-4.425-23.542-5.676-47.312-4.87-71.207
				c0.759-22.548,3.278-44.866,9.124-66.729c7.763-29.038,20.089-55.947,37.466-80.5c21.019-29.698,47.37-53.552,78.892-71.688
				c24.854-14.3,51.42-24.018,79.554-29.509c17.424-3.401,34.982-5.113,52.655-5.113c3.878,0,7.761,0.083,11.649,0.248
				c45.095,1.914,86.952,14.33,124.804,39.251c32.1,21.135,57.238,48.686,75.196,82.701c11.372,21.54,18.995,44.373,22.798,68.421
				c5.418,34.273,4.441,68.386-3.783,102.134c-11.092,45.522-35.318,82.81-71.294,112.676
				c-12.396,10.293-25.667,19.029-40.588,25.209c-14.236,5.894-28.917,10.28-44.016,13.32c-15.109,3.042-30.297,4.838-45.608,4.838
				c-5.375,0-10.766-0.221-16.173-0.688c-19.958-1.72-39.2-6.322-57.72-14.008c-26.259-10.898-49.025-26.79-68.188-47.757
				c-22.09-24.17-37.043-52.16-43.964-84.241c-6.186-28.677-4.883-57.114,3.393-85.259c6.535-22.224,16.689-42.533,31.667-60.312
				c13.818-16.401,30.359-29.376,49.476-39.064c17.635-8.936,36.298-14.49,55.96-16.553c5.682-0.596,11.324-0.901,16.924-0.901
				c19.297,0,38.086,3.623,56.248,11.432c23.031,9.902,41.57,25.323,55.674,46.016c10.184,14.938,17.882,31.09,21.523,48.853
				c7.06,34.44,1.191,66.581-18.701,95.75c-10.93,16.024-26.092,26.86-44.21,33.58c-12.408,4.601-25.08,6.862-37.988,6.862
				c-5.296,0-10.632-0.381-16.004-1.137c-18.11-2.546-34.622-8.969-48.786-20.74c-16.126-13.404-24.498-30.88-27.602-51.468
				c-4.161-27.61,14.79-51.12,36.062-60.315c7.267-3.142,14.66-4.803,22.221-4.803c4.186,0,8.424,0.509,12.716,1.559
				c14.62,3.574,20.511,18.833,17.653,29.814c-1.591,6.11-5.757,9.463-11.758,10.63c-4.275,0.832-8.502,1.72-12.278,4.018
				c-11.627,7.072-16.75,20.907-12.41,33.479c4.021,11.651,14.549,19.153,26.638,19.153c1.297,0,2.614-0.087,3.941-0.264
				c14.691-1.958,27.867-7.548,39.054-17.416c11.513-10.155,18.819-22.854,22.129-37.794c7.603-34.323-7.507-69.547-37.622-87.66
				c-12.618-7.59-26.537-11.002-41.114-11.838c-2.368-0.136-4.713-0.203-7.038-0.203c-27.244,0-51.522,9.272-72.85,26.735
				c-22.595,18.501-36.819,42.184-41.349,71.261c-2.316,14.867-0.894,29.619,2.329,44.232c5.576,25.278,17.315,47.242,35.544,65.658
				c15.186,15.342,33.144,26.364,53.362,33.749c18.223,6.656,36.957,9.923,56.112,9.923c3.898,0,7.818-0.136,11.751-0.405
				c33.449-2.295,63.686-13.277,90.011-34.319c17.417-13.924,30.65-31.224,40.599-51.103c10.721-21.421,16.822-44.12,18.518-67.99
				c2.045-28.809-2.607-56.515-13.859-83.128c-9.655-22.833-22.686-43.456-39.951-61.311
				c-20.103-20.789-43.824-35.997-71.046-45.739c-21.77-7.79-44.152-11.612-67.093-11.612c-2.924,0-5.858,0.062-8.8,0.186
				c-47.769,2.014-90.485,17.89-127.818,47.669c-31.561,25.174-53.719,57.219-67.418,95.174
				c-6.542,18.126-10.951,36.741-12.974,55.891c-1.584,14.998-1.634,30.024-0.228,45.062c1.796,19.207,5.966,37.885,12.462,56.019
				c7.348,20.508,17.387,39.651,30.021,57.41c20.894,29.373,47.003,53.045,78.164,71.117c19.794,11.48,40.819,20.002,63.01,25.632
				c20.295,5.149,40.835,7.742,61.619,7.742c4.91,0,9.836-0.145,14.773-0.435c30.695-1.802,60.427-8.192,89.205-19.011
				c23.134-8.699,43.969-21.252,62.873-37.163c22.902-19.277,42.625-41.28,58.336-66.812c11.209-18.215,19.963-37.551,26.454-57.925
				c5.14-16.138,8.845-32.614,10.881-49.405c1.278-10.553,1.694-21.209,2.505-31.819c0.062-0.807,0.194-1.61,0.293-2.415
				c0-5.357,0-10.714,0-16.071c-0.283-5.02-0.531-10.041-0.854-15.059c-1.546-23.902-6.021-47.242-13.439-70.02
				c-10.593-32.526-26.62-62.115-48.098-88.728c-19.916-24.679-43.401-45.351-70.304-62.132
				c-31.344-19.552-65.262-32.519-101.501-39.446c-15.672-2.996-31.498-4.758-47.463-5.175
				C421.973,94.166,421.224,93.992,420.471,93.891L420.471,93.891z"/>
		</g>
	</g>
</g>
</svg>
