<?xml version="1.0" encoding="utf-8"?>
<!-- Generator: Adobe Illustrator 16.0.0, SVG Export Plug-In . SVG Version: 6.00 Build 0)  -->
<!DOCTYPE svg PUBLIC "-//W3C//DTD SVG 1.1//EN" "http://www.w3.org/Graphics/SVG/1.1/DTD/svg11.dtd">
<svg version="1.1" id="Layer_1" xmlns="http://www.w3.org/2000/svg" xmlns:xlink="http://www.w3.org/1999/xlink" x="0px" y="0px"
	 width="800px" height="800px" viewBox="0 0 800 800" enable-background="new 0 0 800 800" xml:space="preserve">
<g>
	<path fill="#5AB56A" d="M399.188,779.923c-51.344,0-101.142-10.045-148.01-29.855c-45.277-19.14-85.945-46.542-120.873-81.448
		c-34.928-34.905-62.347-75.546-81.496-120.793c-19.822-46.835-29.873-96.597-29.873-147.903S28.987,298.854,48.81,252.02
		c19.149-45.247,46.568-85.888,81.496-120.793c34.928-34.906,75.596-62.309,120.873-81.448
		c46.868-19.811,96.666-29.855,148.01-29.855c51.343,0,101.142,10.045,148.009,29.855c45.278,19.14,85.946,46.542,120.874,81.448
		c34.928,34.905,62.346,75.546,81.495,120.793c19.823,46.835,29.874,96.597,29.874,147.903s-10.051,101.068-29.874,147.903
		c-19.149,45.247-46.567,85.888-81.495,120.793c-34.928,34.906-75.596,62.309-120.874,81.448
		C500.33,769.878,450.531,779.923,399.188,779.923z"/>
	<g>
		<path fill-rule="evenodd" clip-rule="evenodd" fill="#FFFCEB" d="M459.057,526.11c0,0-7.771,84.226,33.334,105.333
			c39.545,20.307,167.215,35.312,167.215,35.312L489.057,766.777l-162.666,4l-118-50l-68-44c0,0,102.443-17.102,140.691-38.058
			c21.307-11.674,41.975-24.608,36.641-107.942L459.057,526.11z"/>
		<path fill-rule="evenodd" clip-rule="evenodd" fill="#FFFCEB" d="M509.672,482.054c0,88.502-113.928,211.902-113.928,211.902
			s-113.929-123.4-113.929-211.902c0-27.394-12.854-53.182-4.241-75.732c19.217-50.31,78.979,3.772,122.424,3.772
			c42.675,0,93.355-55.286,112.875-6.437C522.133,426.833,509.672,453.575,509.672,482.054z"/>
		<g>
			<path fill-rule="evenodd" clip-rule="evenodd" fill="#358C36" d="M507.514,572.868c1.283-13.578,0.504-29.95-3.207-43.007
				c-4.352-15.308-17.625,38.632-28.838,52.376c-13.382,10.986-24.649,2.834-28.192,7.732c-0.554,0.764-1.105,1.969-2.251,1.465
				c-0.594-0.261-1.215-1.363-1.17-2.043c0.625-9.442-6.369-15.525-11.858-20.516c-6.289-5.715-14.375-11.838-24.763-8.575
				c-4.678,1.47-9.441,1.463-14.348,0.425c-16.631-3.512-30.724,3.341-44.514,11.307c-2.239,1.294-4.47,4.624-6.738,3.447
				c-3.47-1.8-9.93,7.332-17.353,3.739c-22.223-10.753-27.532-31.45-29.414-41.935c-1.202-6.699-5.523-27.001-10.037-21.841
				c-3.029,3.462-4.499,21.157-6.629,25.337c-4.686,9.197,5.538,1.966,3.319,11.842c-3.109,13.841,17.441,43.118,9.477,55.379
				c1.419,0.426-8.507,22.254,17.667,56c5.129,6.613,16.947,21.148,22,27.666c11.693,15.082,25.364,14.089,33.667,24.667
				c8.461,10.781,18.766,10.754,19.333,11c1.683,0.73,28.088,6.849,52-22.667c6.906-8.525,18.579-20.075,25.667-28.999
				c6.586-8.294,21.652-24.145,27-32c5.347-7.855,0.309-35.385,4.27-42.033C502.066,585.746,507.367,574.404,507.514,572.868z
				 M383.402,609.325c-4.225,1.265-8.874,0.961-12.862-0.254c-2.238-0.684-5.338,1.745-6.721-1.09
				c-0.723-1.483-4.168-0.537-5.339-3.885c0.636-6.098,1.641-11.727,4.374-16.34c2.34-3.951,6.624-7.207,11.159-8.48
				c7.282-2.043,14.817-3.76,22.334-4.256c9.062-0.598,18.163,1.116,25.551,6.798c3.27,2.512,5.336,6.733,7.532,10.426
				c1.135,1.906-0.106,3.649-1.816,5.155c-5.393,4.745-10.323,9.986-17.026,13.117c-3.49,1.629-6.329,2.457-10.316,0.783
				C395.038,609.104,389.389,607.534,383.402,609.325z"/>
		</g>
	</g>
	<path fill="#358C36" d="M399.188,39.923c48.654,0,95.832,9.514,140.223,28.277c42.895,18.132,81.425,44.097,114.522,77.173
		c33.096,33.075,59.075,71.579,77.217,114.442c18.771,44.354,28.29,91.493,28.29,140.107s-9.52,95.753-28.29,140.107
		c-18.142,42.863-44.121,81.367-77.217,114.442c-33.098,33.077-71.628,59.041-114.522,77.173
		c-44.391,18.764-91.568,28.277-140.223,28.277s-95.832-9.514-140.223-28.277c-42.895-18.132-81.426-44.096-114.522-77.173
		c-33.096-33.075-59.075-71.579-77.216-114.442c-18.772-44.354-28.291-91.493-28.291-140.107s9.519-95.753,28.291-140.107
		c18.141-42.863,44.12-81.367,77.216-114.442c33.097-33.076,71.628-59.041,114.522-77.173
		C303.356,49.437,350.534,39.923,399.188,39.923 M399.188-0.077c-221.053,0-400.252,179.086-400.252,400s179.199,400,400.252,400
		s400.252-179.086,400.252-400S620.241-0.077,399.188-0.077L399.188-0.077z"/>
	<g>
		
			<circle fill-rule="evenodd" clip-rule="evenodd" fill="none" stroke="#358C36" stroke-width="10" stroke-miterlimit="10" cx="342.498" cy="466.25" r="32.75"/>
		
			<circle fill-rule="evenodd" clip-rule="evenodd" fill="none" stroke="#358C36" stroke-width="10" stroke-miterlimit="10" cx="457.498" cy="466.25" r="32.75"/>
	</g>
	<path fill-rule="evenodd" clip-rule="evenodd" fill="none" stroke="#358C36" stroke-width="10" stroke-miterlimit="10" d="
		M375.665,458.667c0,0,22.667-15.334,52,0.333"/>
	<path fill-rule="evenodd" clip-rule="evenodd" fill="#358C36" d="M155.921,387.006c0,0,296.84,52.834,482.976-4.499
		l-152.995-47.998l-20.999-115.494l-92.57-110.348l-0.667,54.666l-54,68.667l-19.254,120.508L155.921,387.006z"/>
</g>
</svg>
