<?xml version="1.0" encoding="utf-8"?>
<!-- Generator: Adobe Illustrator 16.0.0, SVG Export Plug-In . SVG Version: 6.00 Build 0)  -->
<!DOCTYPE svg PUBLIC "-//W3C//DTD SVG 1.1//EN" "http://www.w3.org/Graphics/SVG/1.1/DTD/svg11.dtd">
<svg version="1.1" id="Layer_1" xmlns="http://www.w3.org/2000/svg" xmlns:xlink="http://www.w3.org/1999/xlink" x="0px" y="0px"
	 width="800px" height="800px" viewBox="0 0 800 800" enable-background="new 0 0 800 800" xml:space="preserve">
<path fill="#DC2729" d="M400.153,779.812c-51.344,0-101.142-10.045-148.01-29.855c-45.277-19.14-85.945-46.542-120.873-81.448
	c-34.928-34.905-62.347-75.546-81.496-120.793c-19.822-46.835-29.873-96.597-29.873-147.903s10.051-101.068,29.873-147.903
	c19.149-45.247,46.568-85.888,81.496-120.793c34.928-34.906,75.596-62.309,120.873-81.448
	c46.868-19.811,96.666-29.855,148.01-29.855s101.142,10.045,148.009,29.855c45.278,19.14,85.946,46.542,120.874,81.448
	c34.928,34.905,62.347,75.546,81.497,120.793c19.821,46.835,29.872,96.597,29.872,147.903s-10.051,101.068-29.872,147.903
	c-19.15,45.247-46.569,85.888-81.497,120.793c-34.928,34.906-75.596,62.309-120.874,81.448
	C501.295,769.767,451.497,779.812,400.153,779.812z"/>
<g>
	
		<ellipse transform="matrix(0.9737 -0.228 0.228 0.9737 -101.3821 78.0667)" fill-rule="evenodd" clip-rule="evenodd" fill="#FFFCEB" cx="287.154" cy="477.779" rx="33" ry="42.665"/>
	<path fill-rule="evenodd" clip-rule="evenodd" fill="#9A001F" d="M341.201,469.9c5.419,23.139-4.573,45.265-22.319,49.421
		c-17.744,4.156-36.523-11.232-41.941-34.37c-5.418-23.142,4.572-45.267,22.318-49.423S335.782,446.761,341.201,469.9z"/>
</g>
<g>
	
		<ellipse transform="matrix(-0.9737 -0.228 0.228 -0.9737 885.2762 1063.8394)" fill-rule="evenodd" clip-rule="evenodd" fill="#FFFCEB" cx="504.094" cy="480.779" rx="33" ry="42.665"/>
	<path fill-rule="evenodd" clip-rule="evenodd" fill="#9A001F" d="M450.047,472.9c-5.419,23.139,4.573,45.265,22.319,49.421
		c17.744,4.156,36.523-11.232,41.941-34.37c5.418-23.142-4.572-45.267-22.318-49.423S455.466,449.761,450.047,472.9z"/>
</g>
<path fill-rule="evenodd" clip-rule="evenodd" fill="#FFFCEB" d="M459.212,535.11c0,0-7.771,84.226,33.334,105.333
	c39.545,20.307,167.215,35.312,167.215,35.312L489.212,775.777l-162.666,4l-118-50l-68-44c0,0,102.443-17.102,140.691-38.058
	c21.307-11.674,41.975-24.608,36.641-107.942L459.212,535.11z"/>
<path fill-rule="evenodd" clip-rule="evenodd" fill="#FFFCEB" d="M509.827,491.054c0,88.502-113.928,211.902-113.928,211.902
	s-113.929-123.4-113.929-211.902c0-27.394-12.854-53.182-4.241-75.732c19.217-50.31,78.979,3.772,122.424,3.772
	c42.675,0,93.355-55.286,112.875-6.437C522.288,435.833,509.827,462.575,509.827,491.054z"/>
<path fill="#871811" d="M400.077,39.812c48.654,0,95.832,9.514,140.223,28.277c42.894,18.132,81.425,44.097,114.522,77.173
	c33.096,33.075,59.075,71.579,77.217,114.442c18.771,44.354,28.29,91.493,28.29,140.107s-9.519,95.753-28.29,140.107
	c-18.142,42.863-44.121,81.367-77.217,114.442c-33.098,33.076-71.629,59.041-114.522,77.173
	c-44.391,18.764-91.568,28.277-140.223,28.277s-95.832-9.514-140.223-28.277c-42.895-18.132-81.426-44.097-114.522-77.173
	c-33.096-33.075-59.075-71.579-77.216-114.442c-18.772-44.354-28.291-91.493-28.291-140.107s9.519-95.753,28.291-140.107
	c18.141-42.863,44.12-81.367,77.216-114.442c33.097-33.076,71.628-59.041,114.522-77.173
	C304.245,49.325,351.423,39.812,400.077,39.812 M400.077-0.188c-221.053,0-400.252,179.086-400.252,400s179.199,400,400.252,400
	s400.252-179.086,400.252-400S621.13-0.188,400.077-0.188L400.077-0.188z"/>
<g>
	<path fill-rule="evenodd" clip-rule="evenodd" fill="#871811" d="M511.139,742.11c-1.103-1.602-2.378-3.16-3.817-4.681
		c-1.332-1.409-1.532-3.173-0.763-5.134c4.945-12.596,8.93-25.625,15.979-37.281c2.874-4.751,3.361-9.224,1.224-14.248
		c-1.855-4.359-2.74-8.924-2.198-13.715c0.984-8.695-0.741-4.857,7.924-3.107c0.927,0.188-1.61-3.695-0.5-4.5
		c0.129-2.477,3.361-3.347,2.453-5.413c-0.584-1.331-1.711-2.551-0.567-4.158c2.278-3.2-9.911-23.439-13.728-27.448
		c-4.703-4.941-5.068-12.161-0.856-15.856c-0.493-5.286-9.179-18.79-8.619-24.7c1.283-13.578,0.505-29.95-3.207-43.007
		c-4.352-15.308-17.624,38.632-28.838,52.376c-13.382,10.986-24.649,2.834-28.192,7.732c-0.554,0.764-1.105,1.969-2.251,1.465
		c-0.594-0.261-1.215-1.363-1.17-2.043c0.625-9.442-6.369-15.525-11.858-20.516c-6.289-5.715-14.375-11.838-24.763-8.575
		c-4.678,1.47-9.441,1.463-14.348,0.425c-16.631-3.512-30.724,3.341-44.514,11.307c-2.239,1.294-4.47,4.624-6.738,3.447
		c-3.47-1.8-9.93,7.332-17.353,3.739c-22.223-10.753-27.532-31.45-29.414-41.935c-1.202-6.699-5.523-27.001-10.037-21.841
		c-3.029,3.462-4.499,21.157-6.629,25.337c-4.686,9.197,5.538,1.966,3.319,11.842c-3.109,13.841-3.497,18.516-11.462,30.776
		c2.996,0.898,4.999,2.617,6.513,5.577c3.94,7.713,1.188,21.49-5.729,26.963c-0.733,0.581-1.033,1.679-1.685,2.399
		c-6.553,7.237-4.693,19.166-13.902,24.918c-0.113,0.071-0.163,0.294-0.188,0.456c-1.26,7.635-0.864,15.014,3.243,22.946
		c2.561-9.008,4.098-17.278,10.422-23.915c3.081,8.273,4.968,16.162,4.404,24.51c-0.1,1.479-0.801,3.242,0.24,4.402
		c3.718,4.143,2.543,8.816,1.518,13.34c-0.613,2.704-0.342,4.656,2.249,5.781c4.151,1.801,3.909,4.429,1.561,7.481
		c-4.721,6.142-5.469,13.181-4.44,20.501c0.397,2.826-0.288,6.896,0.339,9.688c3.692,1.746,7.742,4.066,11.52,5.663
		c35.797,15.132,74.666,20.938,113.902,20.938C438.645,764.048,475.959,756.656,511.139,742.11z M383.558,618.325
		c-4.225,1.265-8.874,0.961-12.862-0.254c-2.238-0.684-5.338,1.745-6.721-1.09c-0.723-1.483-4.168-0.537-5.339-3.885
		c0.636-6.098,1.641-11.727,4.374-16.34c2.34-3.951,6.624-7.207,11.159-8.48c7.282-2.043,14.817-3.76,22.334-4.256
		c9.062-0.598,18.163,1.116,25.552,6.798c3.269,2.512,5.336,6.733,7.531,10.426c1.135,1.906-0.106,3.649-1.816,5.155
		c-5.393,4.745-10.323,9.986-17.026,13.117c-3.49,1.629-6.329,2.457-10.316,0.783C395.193,618.104,389.544,616.534,383.558,618.325z
		"/>
</g>
<path fill-rule="evenodd" clip-rule="evenodd" fill="#811501" d="M236.501,409.333c0,0,130.862,55.333,316.998-2l-21.554-62.324
	l-77.996-109.494l-56.997-131.994l-53.997,83.996l-40.622,129.484L236.501,409.333z"/>
<path fill-rule="evenodd" clip-rule="evenodd" fill="#811501" d="M488.447,277.512"/>
</svg>
