<?xml version="1.0" encoding="utf-8"?>
<!-- Generator: Adobe Illustrator 16.0.0, SVG Export Plug-In . SVG Version: 6.00 Build 0)  -->
<!DOCTYPE svg PUBLIC "-//W3C//DTD SVG 1.1//EN" "http://www.w3.org/Graphics/SVG/1.1/DTD/svg11.dtd">
<svg version="1.1" id="Layer_1" xmlns="http://www.w3.org/2000/svg" xmlns:xlink="http://www.w3.org/1999/xlink" x="0px" y="0px"
	 width="800px" height="800px" viewBox="0 0 800 800" enable-background="new 0 0 800 800" xml:space="preserve">
<g>
	<path fill="#DC2729" d="M400.129,779.873c-51.344,0-101.142-10.045-148.01-29.855c-45.277-19.14-85.945-46.542-120.873-81.448
		c-34.928-34.905-62.347-75.546-81.496-120.793c-19.822-46.835-29.873-96.597-29.873-147.903S29.928,298.805,49.75,251.97
		c19.149-45.247,46.568-85.888,81.496-120.793c34.928-34.906,75.596-62.309,120.873-81.448
		c46.868-19.811,96.666-29.855,148.01-29.855s101.142,10.045,148.009,29.855c45.278,19.14,85.946,46.542,120.874,81.448
		c34.928,34.905,62.347,75.546,81.497,120.793c19.821,46.835,29.872,96.597,29.872,147.903s-10.051,101.068-29.872,147.903
		c-19.15,45.247-46.569,85.888-81.497,120.793c-34.928,34.906-75.596,62.309-120.874,81.448
		C501.271,769.828,451.473,779.873,400.129,779.873z"/>
	<path fill="#871811" d="M400.053,39.873c48.654,0,95.832,9.514,140.223,28.277c42.893,18.132,81.424,44.097,114.522,77.173
		c33.095,33.075,59.075,71.579,77.216,114.442c18.771,44.354,28.291,91.493,28.291,140.107s-9.52,95.753-28.291,140.107
		c-18.141,42.863-44.121,81.367-77.216,114.442c-33.099,33.076-71.63,59.041-114.522,77.173
		c-44.391,18.764-91.568,28.277-140.223,28.277s-95.832-9.514-140.223-28.277c-42.895-18.132-81.426-44.097-114.522-77.173
		c-33.096-33.075-59.075-71.579-77.216-114.442c-18.772-44.354-28.291-91.493-28.291-140.107s9.519-95.753,28.291-140.107
		c18.141-42.863,44.12-81.367,77.216-114.442c33.097-33.076,71.628-59.041,114.522-77.173
		C304.221,49.387,351.398,39.873,400.053,39.873 M400.053-0.127C179-0.127-0.199,178.959-0.199,399.873s179.199,400,400.252,400
		s400.252-179.086,400.252-400S621.105-0.127,400.053-0.127L400.053-0.127z"/>
	<path fill-rule="evenodd" clip-rule="evenodd" fill="#FFFCEB" d="M154.056,575.775c0,0,297.343,21.45,552.916-82.929
		l-11.302-23.179l-154.158-29.283l-31.889-76.729l-28.717-29.479l6.463-31.293l-11.936-60.089l71.814-9.246l41.052,38.633
		l-23.851-89.603l-150.342-7.664l-73.588,98.35l-6.893,75.572l-42.994,58.343l-14.748,78.844l-116.15,53.925L154.056,575.775z"/>
	<path fill-rule="evenodd" clip-rule="evenodd" fill="#871811" d="M131.137,564.796c0,0,296.036,35.158,556.156-57.307
		l-10.221-23.676l-152.64-36.371l-28.312-78.12l-27.325-30.774l7.901-30.961l-9.148-60.576l72.165-5.919l39.225,40.486
		l-19.688-90.608l-149.826-14.599l-78.053,94.846l-10.375,75.174l-45.643,56.295l-18.373,78.079l-118.517,48.503L131.137,564.796z"
		/>
</g>
</svg>
